<svg width="24" height="24" viewBox="0 0 24 24" fill="none" xmlns="http://www.w3.org/2000/svg">
<g opacity="0.5">
<path fillRule="evenodd" clipRule="evenodd" d="M11.1258 8.85917C11.2979 8.33438 11.0135 7.76496 10.4905 7.58734L9.28018 7.17624C9.21463 7.15398 9.14845 7.13892 9.08248 7.13066C9.03004 7.10159 8.9754 7.0773 8.9186 7.05799C7.66772 6.63279 5.83597 8.78344 4.82726 11.8616C3.81856 14.9398 4.01487 17.7798 5.26575 18.205C5.32399 18.2248 5.38349 18.239 5.4441 18.2478C5.49989 18.2799 5.55954 18.3071 5.62267 18.3285L6.83302 18.7396C7.35597 18.9172 7.91942 18.6358 8.09153 18.111L11.1258 8.85917Z" fill="#001B43"/>
<path d="M10.4905 7.58734L10.3345 8.06238L10.4905 7.58734ZM11.1258 8.85917L10.6523 8.69854L11.1258 8.85917ZM9.28018 7.17624L9.43618 6.70119L9.28018 7.17624ZM9.08248 7.13066L8.84468 7.56948L8.92925 7.61636L9.02484 7.62834L9.08248 7.13066ZM8.9186 7.05799L8.76248 7.533L8.9186 7.05799ZM4.82726 11.8616L5.3008 12.0221L4.82726 11.8616ZM5.26575 18.205L5.10964 18.68L5.10964 18.68L5.26575 18.205ZM5.4441 18.2478L5.68886 17.8129L5.6058 17.7652L5.51133 17.7515L5.4441 18.2478ZM5.62267 18.3285L5.77866 17.8535L5.77866 17.8535L5.62267 18.3285ZM6.83302 18.7396L6.67702 19.2147L6.67702 19.2147L6.83302 18.7396ZM8.09153 18.111L8.56504 18.2716L8.09153 18.111ZM10.3345 8.06238C10.5961 8.15122 10.7384 8.43607 10.6523 8.69854L11.5993 9.01979C11.8574 8.23268 11.4309 7.3787 10.6465 7.11229L10.3345 8.06238ZM9.12418 7.65129L10.3345 8.06238L10.6465 7.11229L9.43618 6.70119L9.12418 7.65129ZM9.02484 7.62834C9.05757 7.63243 9.09079 7.63994 9.12418 7.65129L9.43618 6.70119C9.33848 6.66801 9.23933 6.64541 9.14012 6.63299L9.02484 7.62834ZM8.76248 7.533C8.79065 7.54257 8.81798 7.55468 8.84468 7.56948L9.32029 6.69184C9.2421 6.6485 9.16016 6.61203 9.07471 6.58298L8.76248 7.533ZM5.3008 12.0221C5.7901 10.529 6.47265 9.28322 7.16174 8.47415C7.50716 8.06859 7.83735 7.79266 8.12607 7.64176C8.41301 7.49179 8.61846 7.48404 8.76248 7.533L9.07471 6.58298C8.59329 6.41934 8.1007 6.52097 7.66086 6.75085C7.22279 6.9798 6.79745 7.35419 6.40249 7.81792C5.61081 8.74742 4.87313 10.1161 4.35372 11.7011L5.3008 12.0221ZM5.42186 17.73C5.27774 17.681 5.11783 17.549 4.97671 17.2533C4.83476 16.9558 4.73346 16.533 4.69644 15.9974C4.62258 14.9289 4.81151 13.5152 5.3008 12.0221L4.35372 11.7011C3.83431 13.2861 3.61705 14.8316 3.70188 16.0589C3.74421 16.6713 3.86349 17.2306 4.07863 17.6814C4.29461 18.134 4.62832 18.5164 5.10964 18.68L5.42186 17.73ZM5.51133 17.7515C5.48046 17.747 5.45073 17.7398 5.42186 17.73L5.10964 18.68C5.19724 18.7098 5.28651 18.7311 5.37687 18.7442L5.51133 17.7515ZM5.77866 17.8535C5.7465 17.8425 5.71656 17.8289 5.68886 17.8129L5.19935 18.6827C5.28322 18.731 5.37259 18.7716 5.46667 18.8036L5.77866 17.8535ZM6.98901 18.2646L5.77866 17.8535L5.46667 18.8036L6.67702 19.2147L6.98901 18.2646ZM7.61803 17.9504C7.532 18.2127 7.25042 18.3534 6.98901 18.2646L6.67702 19.2147C7.46151 19.4811 8.30685 19.0589 8.56504 18.2716L7.61803 17.9504ZM10.6523 8.69854L7.61803 17.9504L8.56504 18.2716L11.5993 9.01979L10.6523 8.69854Z" fill="white"/>
<ellipse rx="5.87" ry="1.88696" transform="matrix(-0.311933 0.950113 -0.946986 -0.321303 8.98359 13.2687)" fill="#001B43" stroke="white"/>
<path fillRule="evenodd" clipRule="evenodd" d="M10 8C9.44772 8 9 8.44772 9 9V16.7268V16.8182C9 16.8953 9.00873 16.9704 9.02525 17.0425C9.29212 18.7019 11.6414 19.9996 14.5 19.9996C17.3586 19.9996 19.7079 18.7019 19.9747 17.0425C19.9913 16.9704 20 16.8953 20 16.8182V16.7268V9C20 8.44772 19.5523 8 19 8H10Z" fill="#001B43"/>
<path d="M9.02525 17.0425L9.51891 16.9631L9.51629 16.9468L9.51262 16.9308L9.02525 17.0425ZM19.9747 17.0425L19.4874 16.9308L19.4837 16.9468L19.4811 16.9631L19.9747 17.0425ZM9.5 9C9.5 8.72386 9.72386 8.5 10 8.5V7.5C9.17157 7.5 8.5 8.17157 8.5 9H9.5ZM9.5 16.7268V9H8.5V16.7268H9.5ZM9.5 16.8182V16.7268H8.5V16.8182H9.5ZM9.51262 16.9308C9.50443 16.8951 9.5 16.8575 9.5 16.8182H8.5C8.5 16.9331 8.51302 17.0457 8.53788 17.1542L9.51262 16.9308ZM14.5 19.4996C13.1416 19.4996 11.924 19.1904 11.0296 18.704C10.124 18.2116 9.61816 17.5802 9.51891 16.9631L8.53159 17.1219C8.69921 18.1641 9.50141 19.0113 10.5518 19.5825C11.6135 20.1598 12.9998 20.4996 14.5 20.4996V19.4996ZM19.4811 16.9631C19.3818 17.5802 18.876 18.2116 17.9704 18.704C17.076 19.1904 15.8584 19.4996 14.5 19.4996V20.4996C16.0002 20.4996 17.3865 20.1598 18.4482 19.5825C19.4986 19.0113 20.3008 18.1641 20.4684 17.1219L19.4811 16.9631ZM19.5 16.8182C19.5 16.8575 19.4956 16.8951 19.4874 16.9308L20.4621 17.1542C20.487 17.0457 20.5 16.9331 20.5 16.8182H19.5ZM19.5 16.7268V16.8182H20.5V16.7268H19.5ZM19.5 9V16.7268H20.5V9H19.5ZM19 8.5C19.2761 8.5 19.5 8.72386 19.5 9H20.5C20.5 8.17157 19.8284 7.5 19 7.5V8.5ZM10 8.5H19V7.5H10V8.5Z" fill="white"/>
<path d="M20 15.0009C19.5111 15.5366 14.1333 19.2185 9 15" stroke="white" stroke-linecap="round"/>
<path d="M20 12.0009C19.5111 12.5366 14.1333 16.2185 9 12" stroke="white" stroke-linecap="round"/>
<ellipse cx="14.5" cy="9" rx="5.5" ry="2" fill="#001B43" stroke="white"/>
</g>
</svg>
