<svg width="20" height="18" viewBox="0 0 20 18" fill="none" xmlns="http://www.w3.org/2000/svg">
<path d="M14.979 11.0449C15.468 10.191 16.2571 10.191 16.7461 11.0449L19.7913 16.4494C20.2803 17.3034 19.8802 18 18.9022 18H12.7673C11.8004 18 11.4003 17.3034 11.8782 16.4494L14.979 11.0449ZM9.08867 0.640449C9.57767 -0.213483 10.3556 -0.213483 10.8447 0.640449L11.5226 1.8764L13.123 4.7191C13.512 5.52809 13.512 6.48315 13.123 7.29214L7.755 16.6966C7.26599 17.4607 6.45468 17.9438 5.55446 18H1.09781C0.119795 18 -0.280303 17.3146 0.208706 16.4494L9.08867 0.640449Z" fill="white"/>
</svg>
