<svg width="24" height="24" viewBox="0 0 24 24" fill="none" xmlns="http://www.w3.org/2000/svg"><path fill-rule="evenodd" clip-rule="evenodd" d="M3.76269 3.76232C4.09087 3.43413 4.53599 3.24976 5.00012 3.24976H15.0001C15.4643 3.24976 15.9094 3.43413 16.2376 3.76232C16.5657 4.09051 16.7501 4.53563 16.7501 4.99976V5.24976H19.0001C19.4643 5.24976 19.9094 5.43413 20.2376 5.76232C20.5658 6.09051 20.7501 6.53563 20.7501 6.99976V17.9998C20.7501 18.7291 20.4604 19.4286 19.9447 19.9443C19.4289 20.46 18.7295 20.7498 18.0001 20.7498H7.00012C6.00556 20.7498 5.05173 20.3547 4.34847 19.6514C3.64521 18.9481 3.25012 17.9943 3.25012 16.9998V4.99976C3.25012 4.53563 3.4345 4.09051 3.76269 3.76232ZM15.5506 19.2498H7.00012C6.40338 19.2498 5.83109 19.0127 5.40913 18.5907C4.98718 18.1688 4.75012 17.5965 4.75012 16.9998V4.99976C4.75012 4.93345 4.77646 4.86986 4.82335 4.82298C4.87023 4.7761 4.93382 4.74976 5.00012 4.74976H15.0001C15.0664 4.74976 15.13 4.7761 15.1769 4.82298C15.2238 4.86986 15.2501 4.93345 15.2501 4.99976V17.9998C15.2501 18.4384 15.3549 18.8662 15.5506 19.2498ZM16.7501 6.74976V17.9998C16.7501 18.3313 16.8818 18.6492 17.1162 18.8836C17.3507 19.1181 17.6686 19.2498 18.0001 19.2498C18.3316 19.2498 18.6496 19.1181 18.884 18.8836C19.1184 18.6492 19.2501 18.3313 19.2501 17.9998V6.99976C19.2501 6.93345 19.2238 6.86986 19.1769 6.82298C19.13 6.7761 19.0664 6.74976 19.0001 6.74976H16.7501ZM7.25012 7.99976C7.25012 7.58554 7.58591 7.24976 8.00012 7.24976H12.0001C12.4143 7.24976 12.7501 7.58554 12.7501 7.99976C12.7501 8.41397 12.4143 8.74976 12.0001 8.74976H8.00012C7.58591 8.74976 7.25012 8.41397 7.25012 7.99976ZM7.25012 11.9998C7.25012 11.5855 7.58591 11.2498 8.00012 11.2498H12.0001C12.4143 11.2498 12.7501 11.5855 12.7501 11.9998C12.7501 12.414 12.4143 12.7498 12.0001 12.7498H8.00012C7.58591 12.7498 7.25012 12.414 7.25012 11.9998ZM7.25012 15.9998C7.25012 15.5855 7.58591 15.2498 8.00012 15.2498H12.0001C12.4143 15.2498 12.7501 15.5855 12.7501 15.9998C12.7501 16.414 12.4143 16.7498 12.0001 16.7498H8.00012C7.58591 16.7498 7.25012 16.414 7.25012 15.9998Z" fill="white"></path></svg>
