<svg width="34" height="32" viewBox="0 0 34 32" fill="none" xmlns="http://www.w3.org/2000/svg">
<mask id="path-1-inside-1_33171_185121" fill="white">
<path fill-rule="evenodd" clip-rule="evenodd" d="M8.3322 21.5184V11.1178C7.74017 12.4295 7.06202 13.6862 6.32339 14.8074C6.21729 14.9684 6.10947 15.1274 6 15.2839L6 21.5184H8.3322ZM10.3322 21.5184H13V12.3203C12.019 11.6513 11.1165 10.7122 10.3322 9.52513V21.5184ZM15 21.5184H19V13.1049C18.2985 13.369 17.5705 13.5117 16.8278 13.5225C16.2067 13.5314 15.5951 13.4479 15 13.2757V21.5184ZM21 21.5184H23.1467V9.67598C22.5028 10.5935 21.7798 11.3648 20.9996 11.9702C20.9999 11.9801 21 11.99 21 12V21.5184ZM25.1467 21.5184H28V16.1634C27.5908 15.7175 27.2169 15.2335 26.8763 14.7324C26.2055 13.7457 25.6328 12.6482 25.1467 11.5461V21.5184ZM30 21.5184V17.7941C30.5602 18.112 31.1661 18.3497 31.8203 18.4805C32.3619 18.5888 32.8887 18.2376 32.997 17.6961C33.1053 17.1545 32.7541 16.6277 32.2126 16.5194C30.8341 16.2437 29.6071 15.1921 28.5303 13.608C27.4637 12.0391 26.6402 10.086 26.0262 8.27986C25.804 7.62625 25.3193 7.22196 24.7943 7.01573C24.6198 6.86729 24.3937 6.77771 24.1467 6.77771C24.0149 6.77771 23.8891 6.8032 23.7738 6.84952C23.0918 6.88392 22.3456 7.19813 21.912 7.91092C20.4068 10.3857 18.5177 11.4979 16.7989 11.5227C15.0969 11.5472 13.2103 10.5088 11.6853 7.91635C11.2079 7.10471 10.3217 6.8099 9.58653 6.81034C9.50532 6.78905 9.42009 6.77771 9.3322 6.77771C9.1403 6.77771 8.96102 6.83177 8.80876 6.92548C8.20783 7.10574 7.60938 7.51238 7.34317 8.2444C6.62931 10.2074 5.69716 12.1225 4.65325 13.7071C3.59787 15.309 2.48067 16.493 1.42786 17.0947C0.948343 17.3687 0.781746 17.9795 1.05576 18.459C1.32977 18.9386 1.94062 19.1051 2.42014 18.8311C2.96507 18.5197 3.49304 18.1154 4 17.6404L4 21.5184H1.92485C1.37257 21.5184 0.924855 21.9661 0.924855 22.5184C0.924855 23.0707 1.37257 23.5184 1.92485 23.5184H8.40585V28.0739C8.40585 28.5853 8.8204 28.9999 9.33177 28.9999C9.84315 28.9999 10.2577 28.5853 10.2577 28.0739V23.5184H23.2204V28.0739C23.2204 28.5853 23.6349 28.9999 24.1463 28.9999C24.6577 28.9999 25.0722 28.5853 25.0722 28.0739V23.5184H31.5543C32.1066 23.5184 32.5543 23.0707 32.5543 22.5184C32.5543 21.9661 32.1066 21.5184 31.5543 21.5184H30Z"/>
</mask>
<path fill-rule="evenodd" clip-rule="evenodd" d="M8.3322 21.5184V11.1178C7.74017 12.4295 7.06202 13.6862 6.32339 14.8074C6.21729 14.9684 6.10947 15.1274 6 15.2839L6 21.5184H8.3322ZM10.3322 21.5184H13V12.3203C12.019 11.6513 11.1165 10.7122 10.3322 9.52513V21.5184ZM15 21.5184H19V13.1049C18.2985 13.369 17.5705 13.5117 16.8278 13.5225C16.2067 13.5314 15.5951 13.4479 15 13.2757V21.5184ZM21 21.5184H23.1467V9.67598C22.5028 10.5935 21.7798 11.3648 20.9996 11.9702C20.9999 11.9801 21 11.99 21 12V21.5184ZM25.1467 21.5184H28V16.1634C27.5908 15.7175 27.2169 15.2335 26.8763 14.7324C26.2055 13.7457 25.6328 12.6482 25.1467 11.5461V21.5184ZM30 21.5184V17.7941C30.5602 18.112 31.1661 18.3497 31.8203 18.4805C32.3619 18.5888 32.8887 18.2376 32.997 17.6961C33.1053 17.1545 32.7541 16.6277 32.2126 16.5194C30.8341 16.2437 29.6071 15.1921 28.5303 13.608C27.4637 12.0391 26.6402 10.086 26.0262 8.27986C25.804 7.62625 25.3193 7.22196 24.7943 7.01573C24.6198 6.86729 24.3937 6.77771 24.1467 6.77771C24.0149 6.77771 23.8891 6.8032 23.7738 6.84952C23.0918 6.88392 22.3456 7.19813 21.912 7.91092C20.4068 10.3857 18.5177 11.4979 16.7989 11.5227C15.0969 11.5472 13.2103 10.5088 11.6853 7.91635C11.2079 7.10471 10.3217 6.8099 9.58653 6.81034C9.50532 6.78905 9.42009 6.77771 9.3322 6.77771C9.1403 6.77771 8.96102 6.83177 8.80876 6.92548C8.20783 7.10574 7.60938 7.51238 7.34317 8.2444C6.62931 10.2074 5.69716 12.1225 4.65325 13.7071C3.59787 15.309 2.48067 16.493 1.42786 17.0947C0.948343 17.3687 0.781746 17.9795 1.05576 18.459C1.32977 18.9386 1.94062 19.1051 2.42014 18.8311C2.96507 18.5197 3.49304 18.1154 4 17.6404L4 21.5184H1.92485C1.37257 21.5184 0.924855 21.9661 0.924855 22.5184C0.924855 23.0707 1.37257 23.5184 1.92485 23.5184H8.40585V28.0739C8.40585 28.5853 8.8204 28.9999 9.33177 28.9999C9.84315 28.9999 10.2577 28.5853 10.2577 28.0739V23.5184H23.2204V28.0739C23.2204 28.5853 23.6349 28.9999 24.1463 28.9999C24.6577 28.9999 25.0722 28.5853 25.0722 28.0739V23.5184H31.5543C32.1066 23.5184 32.5543 23.0707 32.5543 22.5184C32.5543 21.9661 32.1066 21.5184 31.5543 21.5184H30Z" fill="#001B43"/>
<path d="M8.3322 11.1178H10.3322L6.50929 10.295L8.3322 11.1178ZM8.3322 21.5184V23.5184H10.3322V21.5184H8.3322ZM6.32339 14.8074L7.99353 15.9076L7.99353 15.9076L6.32339 14.8074ZM6 15.2839L4.36099 14.1378L4 14.654V15.2839H6ZM6 21.5184H4V23.5184H6V21.5184ZM13 21.5184V23.5184H15V21.5184H13ZM10.3322 21.5184H8.3322V23.5184H10.3322V21.5184ZM13 12.3203H15V11.2633L14.1267 10.6679L13 12.3203ZM10.3322 9.52513L12.0009 8.42264L8.3322 2.86988V9.52513H10.3322ZM19 21.5184V23.5184H21V21.5184H19ZM15 21.5184H13V23.5184H15V21.5184ZM19 13.1049H21V10.2151L18.2954 11.2332L19 13.1049ZM16.8278 13.5225L16.7989 11.5227H16.7989L16.8278 13.5225ZM15 13.2757L15.556 11.3545L13 10.6148V13.2757H15ZM23.1467 21.5184V23.5184H25.1467V21.5184H23.1467ZM21 21.5184H19V23.5184H21V21.5184ZM23.1467 9.67598H25.1467V3.34432L21.5096 8.52711L23.1467 9.67598ZM20.9996 11.9702L19.7736 10.39L18.9707 11.0129L19.0004 12.0286L20.9996 11.9702ZM28 21.5184V23.5184H30V21.5184H28ZM25.1467 21.5184H23.1467V23.5184H25.1467V21.5184ZM28 16.1634H30V15.3848L29.4736 14.8112L28 16.1634ZM26.8763 14.7324L25.2223 15.8568L25.2223 15.8568L26.8763 14.7324ZM25.1467 11.5461L26.9766 10.7389L23.1467 11.5461H25.1467ZM30 21.5184H28V23.5184H30V21.5184ZM30 17.7941L30.9869 16.0546L28 14.36V17.7941H30ZM31.8203 18.4805L31.4281 20.4417H31.4281L31.8203 18.4805ZM32.997 17.6961L31.0359 17.3038L31.0358 17.3038L32.997 17.6961ZM32.2126 16.5194L31.8203 18.4805H31.8203L32.2126 16.5194ZM28.5303 13.608L30.1843 12.4837L30.1843 12.4837L28.5303 13.608ZM26.0262 8.27986L27.9198 7.63613V7.63613L26.0262 8.27986ZM24.7943 7.01573L23.4983 8.53903L23.7525 8.75527L24.0631 8.87727L24.7943 7.01573ZM23.7738 6.84952L23.8746 8.84698L24.2091 8.8301L24.5199 8.70517L23.7738 6.84952ZM21.912 7.91092L20.2033 6.87158V6.87158L21.912 7.91092ZM16.7989 11.5227L16.8278 13.5225L16.7989 11.5227ZM11.6853 7.91635L9.96144 8.93038L9.96145 8.93038L11.6853 7.91635ZM9.58653 6.81034L9.07929 8.74495L9.32928 8.81049L9.58772 8.81034L9.58653 6.81034ZM8.80876 6.92548L9.38339 8.84116L9.63416 8.76594L9.85711 8.6287L8.80876 6.92548ZM7.34317 8.2444L9.22274 8.92794L9.22274 8.92794L7.34317 8.2444ZM4.65325 13.7071L6.32339 14.8074L4.65325 13.7071ZM1.42786 17.0947L2.42014 18.8311L2.42014 18.8311L1.42786 17.0947ZM1.05576 18.459L2.79224 17.4668L2.79224 17.4668L1.05576 18.459ZM2.42014 18.8311L3.41242 20.5676H3.41242L2.42014 18.8311ZM4 17.6404H6L6 13.0259L2.63258 16.1809L4 17.6404ZM4 21.5184V23.5184H6L6 21.5184H4ZM8.40585 23.5184H10.4059V21.5184H8.40585V23.5184ZM10.2577 23.5184V21.5184H8.2577V23.5184H10.2577ZM23.2204 23.5184H25.2204V21.5184H23.2204V23.5184ZM25.0722 23.5184V21.5184H23.0722V23.5184H25.0722ZM6.3322 11.1178V21.5184H10.3322V11.1178H6.3322ZM7.99353 15.9076C8.79833 14.686 9.52599 13.3344 10.1551 11.9406L6.50929 10.295C5.95435 11.5245 5.32571 12.6863 4.65325 13.7071L7.99353 15.9076ZM7.63901 16.4301C7.75945 16.2578 7.87764 16.0836 7.99353 15.9076L4.65325 13.7071C4.55694 13.8533 4.45949 13.9969 4.36099 14.1378L7.63901 16.4301ZM8 21.5184L8 15.2839H4L4 21.5184H8ZM8.3322 19.5184H6V23.5184H8.3322V19.5184ZM13 19.5184H10.3322V23.5184H13V19.5184ZM11 12.3203V21.5184H15V12.3203H11ZM8.66352 10.6276C9.56746 11.9958 10.6449 13.1351 11.8733 13.9727L14.1267 10.6679C13.3931 10.1676 12.6655 9.42861 12.0009 8.42264L8.66352 10.6276ZM12.3322 21.5184V9.52513H8.3322V21.5184H12.3322ZM19 19.5184H15V23.5184H19V19.5184ZM17 13.1049V21.5184H21V13.1049H17ZM16.8567 15.5223C17.8399 15.5081 18.7961 15.3187 19.7046 14.9767L18.2954 11.2332C17.8008 11.4193 17.301 11.5154 16.7989 11.5227L16.8567 15.5223ZM14.444 15.1968C15.2266 15.4233 16.0351 15.5341 16.8567 15.5223L16.7989 11.5227C16.3782 11.5287 15.9637 11.4725 15.556 11.3545L14.444 15.1968ZM17 21.5184V13.2757H13V21.5184H17ZM23.1467 19.5184H21V23.5184H23.1467V19.5184ZM21.1467 9.67598V21.5184H25.1467V9.67598H21.1467ZM22.2255 13.5503C23.1821 12.8082 24.0394 11.8855 24.7838 10.8248L21.5096 8.52711C20.9661 9.30152 20.3775 9.92141 19.7736 10.39L22.2255 13.5503ZM23 12C23 11.9704 22.9996 11.941 22.9987 11.9117L19.0004 12.0286C19.0001 12.0192 19 12.0096 19 12H23ZM23 21.5184V12H19V21.5184H23ZM28 19.5184H25.1467V23.5184H28V19.5184ZM26 16.1634V21.5184H30V16.1634H26ZM25.2223 15.8568C25.6079 16.4241 26.041 16.9868 26.5264 17.5157L29.4736 14.8112C29.1405 14.4482 28.8259 14.043 28.5303 13.608L25.2223 15.8568ZM23.3168 12.3532C23.8366 13.5319 24.4652 14.7431 25.2223 15.8568L28.5303 13.608C27.9459 12.7484 27.4289 11.7645 26.9766 10.7389L23.3168 12.3532ZM27.1467 21.5184V11.5461H23.1467V21.5184H27.1467ZM32 21.5184V17.7941H28V21.5184H32ZM29.0131 19.5337C29.7413 19.9468 30.5465 20.2654 31.4281 20.4417L32.2126 16.5194C31.7856 16.434 31.3792 16.2772 30.9869 16.0546L29.0131 19.5337ZM31.4281 20.4417C33.0528 20.7666 34.6332 19.713 34.9582 18.0883L31.0358 17.3038C31.1442 16.7623 31.671 16.411 32.2125 16.5194L31.4281 20.4417ZM34.9582 18.0883C35.2831 16.4636 34.2295 14.8831 32.6048 14.5582L31.8203 18.4805C31.2788 18.3722 30.9275 17.8454 31.0359 17.3038L34.9582 18.0883ZM32.6048 14.5582C31.974 14.432 31.135 13.8822 30.1843 12.4837L26.8763 14.7324C28.0791 16.5019 29.6942 18.0553 31.8203 18.4805L32.6048 14.5582ZM30.1843 12.4837C29.2635 11.129 28.5087 9.36855 27.9198 7.63613L24.1326 8.92359C24.7717 10.8035 25.664 12.9491 26.8763 14.7324L30.1843 12.4837ZM27.9198 7.63613C27.4741 6.32512 26.4914 5.53362 25.5255 5.15419L24.0631 8.87727C24.1092 8.89539 24.128 8.91238 24.1299 8.91424C24.1304 8.91476 24.1292 8.91351 24.1278 8.91143C24.1263 8.90905 24.1286 8.91177 24.1326 8.92359L27.9198 7.63613ZM26.0903 5.49243C25.5677 5.04786 24.8862 4.77771 24.1467 4.77771V8.77771C23.9012 8.77771 23.6719 8.68672 23.4983 8.53903L26.0903 5.49243ZM24.1467 4.77771C23.755 4.77771 23.3762 4.8538 23.0278 4.99386L24.5199 8.70517C24.4019 8.7526 24.2748 8.77771 24.1467 8.77771V4.77771ZM23.6731 4.85206C22.4937 4.91155 21.0586 5.46543 20.2033 6.87158L23.6208 8.95026C23.6339 8.92862 23.6486 8.91286 23.6828 8.89482C23.7264 8.87183 23.7948 8.851 23.8746 8.84698L23.6731 4.85206ZM20.2033 6.87158C18.9304 8.96425 17.5905 9.51104 16.7701 9.52288L16.8278 13.5225C19.4449 13.4847 21.8831 11.8071 23.6208 8.95026L20.2033 6.87158ZM16.7701 9.52288C15.9991 9.53401 14.6917 9.08263 13.4092 6.90231L9.96145 8.93038C11.7289 11.935 14.1946 13.5605 16.8278 13.5225L16.7701 9.52288ZM13.4092 6.90231C12.4558 5.28155 10.7654 4.80964 9.58534 4.81034L9.58772 8.81034C9.70183 8.81027 9.8105 8.83538 9.88291 8.86935C9.94083 8.89654 9.95341 8.91672 9.96144 8.93038L13.4092 6.90231ZM10.0938 4.87573C9.84841 4.8114 9.59275 4.77771 9.3322 4.77771V8.77771C9.24743 8.77771 9.16223 8.76669 9.07929 8.74495L10.0938 4.87573ZM9.3322 4.77771C8.75963 4.77771 8.21887 4.94008 7.76041 5.22226L9.85711 8.6287C9.70317 8.72346 9.52096 8.77771 9.3322 8.77771V4.77771ZM8.23414 5.00981C7.2109 5.31674 6.0036 6.076 5.4636 7.56087L9.22274 8.92794C9.22663 8.91724 9.22846 8.9159 9.22659 8.91851C9.2252 8.92046 9.2261 8.91841 9.23324 8.91245C9.25061 8.89792 9.29797 8.86678 9.38339 8.84116L8.23414 5.00981ZM5.4636 7.56087C4.79419 9.40159 3.92801 11.1725 2.98311 12.6068L6.32339 14.8074C7.46631 13.0725 8.46443 11.0131 9.22274 8.92794L5.4636 7.56087ZM2.98311 12.6068C2.00369 14.0935 1.09548 14.9811 0.435582 15.3582L2.42014 18.8311C3.86586 18.005 5.19205 16.5246 6.32339 14.8074L2.98311 12.6068ZM0.435583 15.3582C-1.00297 16.1802 -1.50276 18.0128 -0.68073 19.4513L2.79224 17.4668C3.06625 17.9463 2.89966 18.5571 2.42014 18.8311L0.435583 15.3582ZM-0.680731 19.4513C0.1413 20.8899 1.97386 21.3897 3.41242 20.5676L1.42786 17.0947C1.90738 16.8206 2.51823 16.9872 2.79224 17.4668L-0.680731 19.4513ZM3.41242 20.5676C4.11892 20.1639 4.77094 19.6588 5.36742 19.0999L2.63258 16.1809C2.21513 16.572 1.81123 16.8756 1.42786 17.0947L3.41242 20.5676ZM2 17.6404L2 21.5184H6V17.6404H2ZM4 19.5184H1.92485V23.5184H4V19.5184ZM1.92485 19.5184C0.268 19.5184 -1.07515 20.8616 -1.07515 22.5184H2.92485C2.92485 23.0707 2.47714 23.5184 1.92485 23.5184V19.5184ZM-1.07515 22.5184C-1.07515 24.1753 0.268 25.5184 1.92485 25.5184V21.5184C2.47714 21.5184 2.92485 21.9661 2.92485 22.5184H-1.07515ZM1.92485 25.5184H8.40585V21.5184H1.92485V25.5184ZM6.40585 23.5184V28.0739H10.4059V23.5184H6.40585ZM6.40585 28.0739C6.40585 29.6899 7.71583 30.9999 9.33177 30.9999V26.9999C9.92497 26.9999 10.4059 27.4808 10.4059 28.0739H6.40585ZM9.33177 30.9999C10.9477 30.9999 12.2577 29.6899 12.2577 28.0739H8.2577C8.2577 27.4808 8.73857 26.9999 9.33177 26.9999V30.9999ZM12.2577 28.0739V23.5184H8.2577V28.0739H12.2577ZM10.2577 25.5184H23.2204V21.5184H10.2577V25.5184ZM21.2204 23.5184V28.0739H25.2204V23.5184H21.2204ZM21.2204 28.0739C21.2204 29.6899 22.5304 30.9999 24.1463 30.9999V26.9999C24.7395 26.9999 25.2204 27.4808 25.2204 28.0739H21.2204ZM24.1463 30.9999C25.7623 30.9999 27.0722 29.6899 27.0722 28.0739H23.0722C23.0722 27.4808 23.5531 26.9999 24.1463 26.9999V30.9999ZM27.0722 28.0739V23.5184H23.0722V28.0739H27.0722ZM25.0722 25.5184H31.5543V21.5184H25.0722V25.5184ZM31.5543 25.5184C33.2112 25.5184 34.5543 24.1753 34.5543 22.5184H30.5543C30.5543 21.9661 31.002 21.5184 31.5543 21.5184V25.5184ZM34.5543 22.5184C34.5543 20.8616 33.2112 19.5184 31.5543 19.5184V23.5184C31.002 23.5184 30.5543 23.0707 30.5543 22.5184H34.5543ZM31.5543 19.5184H30V23.5184H31.5543V19.5184Z" fill="#2FF6D3" mask="url(#path-1-inside-1_33171_185121)"/>
</svg>
