<svg width="23" height="23" viewBox="0 0 23 23" fill="none" xmlns="http://www.w3.org/2000/svg">
<path fill-rule="evenodd" clip-rule="evenodd" d="M11.3446 5.12777L6.93816 9.5342L6.93825 9.53402L4.37447 6.97013L11.3446 0L18.3169 6.97222L15.7531 9.5361L11.3446 5.12777ZM2.56396 8.78028L0 11.3446L2.56378 13.908L5.12775 11.3441L2.56396 8.78028ZM11.3446 17.5615L6.93816 13.1553L4.37084 15.7155L4.37447 15.7191L11.3446 22.6892L18.3169 15.7171L18.3182 15.7157L15.753 13.1532L11.3446 17.5615ZM20.1254 8.78173L17.5614 11.3457L20.1253 13.9095L22.6891 11.3455L20.1254 8.78173ZM13.9459 11.3433H13.945L13.9473 11.3446L13.9461 11.3461L11.3444 13.9477L8.74509 11.348L8.74146 11.3442L8.74509 11.3407L9.20068 10.885L9.42159 10.664L11.3444 8.7417L13.9459 11.3433Z" fill="white"/>
</svg>
