<svg xmlns="http://www.w3.org/2000/svg" width="32" height="32" viewBox="0 0 32 32" fill="none">
<path d="M15.069 6.93102C15.069 5.89984 14.8738 4.91274 14.5175 4.0018C18.7195 4.9209 20.9979 9.37184 20.4661 13.5438L20.4661 13.5439C20.2605 15.1581 19.7608 16.3695 19.0615 17.3104L19.0615 17.3103L19.0579 17.3152C18.4615 18.1278 19.3224 19.2827 20.2996 18.8201L20.2997 18.8201C20.5114 18.7199 20.7073 18.6121 20.8905 18.4991L20.8907 18.4989C21.8099 17.9314 22.4787 17.1885 23.2024 16.3846C23.218 16.3673 23.2336 16.35 23.2492 16.3327C23.3409 16.2308 23.4342 16.1273 23.5305 16.0211C23.5312 16.0207 23.533 16.0196 23.536 16.0185C23.5426 16.0161 23.5514 16.0147 23.561 16.0159L23.5614 16.0159C23.5683 16.0167 23.5732 16.0185 23.576 16.0199C24.168 17.136 24.5 18.3944 24.5 19.7246C24.5 24.2486 20.6301 28 15.75 28C10.8699 28 7 24.2486 7 19.7246C7 16.8914 8.50852 14.3732 10.8378 12.8757L10.3352 12.094L10.8378 12.8757C10.9567 12.7993 11.0747 12.7088 11.1862 12.602L11.1862 12.6021C11.1862 12.6021 11.1862 12.6021 11.1862 12.602C12.35 11.8571 13.3189 11.1692 13.9971 10.3053L13.9971 10.3053C14.6786 9.4373 15.069 8.38895 15.069 6.93102Z" stroke="#2FF6D3" stroke-width="2"/>
</svg>