<svg width="27" height="27" viewBox="0 0 27 27" fill="none" xmlns="http://www.w3.org/2000/svg">
<g clip-path="url(#clip0_14818_39919)">
<path d="M7.40147 13.592C7.34387 12.5891 8.11427 11.7305 9.11507 11.6728C9.15107 11.6728 9.18707 11.6728 9.22307 11.6728C10.2311 11.6728 11.0447 12.4881 11.0375 13.4982C11.0375 14.5083 10.2239 15.3236 9.21587 15.3164C8.25107 15.3164 7.45187 14.5588 7.40147 13.592Z" fill="white"/>
<path d="M0.618828 14.0593C0.294828 14.0809 0.0140274 13.8284 -0.000372647 13.5037C-0.0147727 13.179 0.230027 12.8976 0.554028 12.8832C0.878028 12.8616 1.15163 13.1141 1.17323 13.4388C1.19483 13.7634 0.942828 14.0376 0.618828 14.0593Z" fill="white"/>
<path d="M7.28564 24.1677C7.57364 24.312 7.68885 24.6727 7.54484 24.9613C7.40084 25.2499 7.04084 25.3654 6.75284 25.2211C6.46484 25.0768 6.34963 24.7232 6.49363 24.4346C6.63764 24.1388 6.99044 24.0162 7.28564 24.1677C7.28564 24.1677 7.27844 24.1677 7.28564 24.1677Z" fill="white"/>
<path d="M9.129 20.9427C9.57541 21.1664 9.75541 21.7147 9.5322 22.1621C9.309 22.6094 8.7618 22.7898 8.3154 22.5661C7.869 22.3425 7.689 21.7941 7.9122 21.3468C8.1354 20.8995 8.6826 20.7191 9.129 20.9427Z" fill="white"/>
<path d="M2.92312 18.7289C3.26872 18.5052 3.72952 18.599 3.95992 18.9453C4.18312 19.2916 4.08952 19.7534 3.74392 19.9843C3.39832 20.2079 2.93752 20.1141 2.70712 19.7678C2.47673 19.4215 2.57752 18.9525 2.92312 18.7289Z" fill="white"/>
<path d="M4.02456 14.3852C3.52056 14.414 3.09576 14.0317 3.06696 13.5266C3.03816 13.0215 3.41976 12.5959 3.92376 12.567C4.42776 12.5381 4.85257 12.9205 4.88137 13.4256C4.91017 13.9234 4.52856 14.3563 4.02456 14.3852Z" fill="white"/>
<path d="M3.02398 8.27287C2.65678 8.08528 2.50558 7.63796 2.69278 7.26278C2.87998 6.89481 3.32638 6.7433 3.70078 6.93089C4.06798 7.11848 4.21918 7.56581 4.03198 7.94098C3.84478 8.30895 3.39118 8.46046 3.02398 8.27287Z" fill="white"/>
<path d="M6.55152 16.2672C7.04832 15.9425 7.71072 16.0796 8.02752 16.5775C8.35152 17.0753 8.21472 17.7391 7.71792 18.0565C7.22112 18.3812 6.55872 18.2441 6.24192 17.7463C5.91792 17.2557 6.05472 16.5919 6.55152 16.2672Z" fill="white"/>
<path d="M17.7476 21.0145C18.1652 20.7403 18.734 20.8557 19.0076 21.2742C19.2812 21.6927 19.166 22.2627 18.7484 22.5368C18.3308 22.811 17.762 22.6956 17.4884 22.2771C17.2076 21.8514 17.3228 21.2886 17.7476 21.0145Z" fill="white"/>
<path d="M19.6053 24.2268C19.8789 24.0465 20.2389 24.1258 20.4189 24.4C20.5989 24.6742 20.5197 25.0349 20.2461 25.2153C19.9725 25.3957 19.6125 25.3163 19.4325 25.0493C19.2597 24.7752 19.3389 24.4072 19.6053 24.2268Z" fill="white"/>
<path d="M17.8841 15.3309C16.8833 15.3887 16.0193 14.6167 15.9689 13.6138C15.9113 12.6109 16.6817 11.7451 17.6825 11.6946C17.7185 11.6946 17.7545 11.6946 17.7833 11.6946C18.7841 11.6946 19.5977 12.5099 19.5977 13.52C19.6049 14.4796 18.8489 15.2804 17.8841 15.3309Z" fill="white"/>
<path d="M9.72633 16.3973C10.0359 15.784 10.6623 15.3944 11.3535 15.3944C12.3543 15.3944 13.1679 16.2097 13.1679 17.2198C13.1679 17.5012 13.1031 17.7826 12.9735 18.0423C12.5199 18.9442 11.4255 19.305 10.5327 18.8504C9.63273 18.3887 9.27273 17.292 9.72633 16.3973Z" fill="white"/>
<path d="M23.9753 18.7276C24.3425 18.9152 24.4865 19.3697 24.2993 19.7377C24.1121 20.1057 23.6585 20.25 23.2913 20.0624C22.9241 19.8748 22.7801 19.4275 22.9601 19.0595C23.1545 18.6915 23.6009 18.54 23.9753 18.7276Z" fill="white"/>
<path d="M19.3678 18.1504C18.8422 17.8834 18.6262 17.2413 18.8926 16.7146C19.159 16.1879 19.7998 15.9714 20.3254 16.2384C20.851 16.5054 21.067 17.1475 20.8006 17.6742C20.5342 18.2009 19.8934 18.4101 19.3678 18.1504Z" fill="white"/>
<path d="M13.4273 24.5002C13.8377 24.4785 14.1906 24.796 14.2194 25.2072C14.2482 25.6185 13.9241 25.972 13.5137 26.0009C13.1033 26.0225 12.7505 25.7123 12.7217 25.301C12.7001 24.8826 13.0169 24.529 13.4273 24.5002Z" fill="white"/>
<path d="M13.4204 19.7881C14.0108 19.7521 14.5148 20.2066 14.5436 20.7982C14.5796 21.3899 14.126 21.8949 13.5356 21.9238C12.9452 21.9598 12.4413 21.5053 12.4125 20.9137C12.3837 20.322 12.83 19.817 13.4204 19.7881Z" fill="white"/>
<path d="M7.63203 8.85047C8.15763 9.11742 8.37363 9.75956 8.10723 10.2863C7.84083 10.8129 7.20003 11.0294 6.67443 10.7624C6.14884 10.4955 5.93284 9.85335 6.19924 9.32666C6.46564 8.79996 7.10643 8.58351 7.63203 8.85047Z" fill="white"/>
<path d="M14.1119 18.2224C13.5647 17.3783 13.7951 16.2527 14.6375 15.7044C15.4799 15.1561 16.6031 15.3869 17.1503 16.2311C17.6975 17.0752 17.4671 18.2008 16.6247 18.7491C16.3295 18.9439 15.9839 19.0449 15.6311 19.0449C15.0191 19.0449 14.4503 18.7347 14.1119 18.2224Z" fill="white"/>
<path d="M17.2724 10.6048C16.8188 11.5067 15.7244 11.8675 14.8316 11.4129C13.9316 10.9584 13.5716 9.86168 14.0252 8.96702C14.4788 8.06514 15.5732 7.70439 16.466 8.15893C17.3588 8.60626 17.726 9.68852 17.2796 10.5904C17.2796 10.5976 17.2796 10.5976 17.2724 10.6048Z" fill="white"/>
<path d="M20.4474 10.7343C19.9506 11.059 19.2882 10.9219 18.9714 10.424C18.6474 9.92619 18.7842 9.26241 19.281 8.94494C19.7778 8.62027 20.4402 8.75735 20.757 9.25519C21.081 9.74581 20.9442 10.4096 20.4474 10.7343Z" fill="white"/>
<path d="M23.9321 13.4686C23.9609 13.9736 23.5793 14.3993 23.0753 14.4282C22.5713 14.457 22.1465 14.0746 22.1177 13.5696C22.0889 13.0645 22.4705 12.6388 22.9745 12.61C23.4713 12.5811 23.9033 12.9707 23.9321 13.4686Z" fill="white"/>
<path d="M26.445 14.1178C26.121 14.1395 25.8402 13.887 25.8258 13.5623C25.8114 13.2376 26.0562 12.9562 26.3802 12.9418C26.7042 12.9201 26.9778 13.1727 26.9994 13.4974C27.0138 13.822 26.769 14.0962 26.445 14.1178Z" fill="white"/>
<path d="M24.0767 8.27334C23.7311 8.497 23.2703 8.40321 23.0399 8.0569C22.8167 7.71058 22.9103 7.24883 23.2559 7.01795C23.6015 6.79429 24.0623 6.88808 24.2927 7.2344C24.5231 7.58071 24.4223 8.04968 24.0767 8.27334Z" fill="white"/>
<path d="M7.38717 2.77584C7.11357 2.95621 6.75357 2.87685 6.57357 2.60989C6.39357 2.33573 6.47277 1.97498 6.73917 1.7946C7.01277 1.61423 7.37277 1.69359 7.55277 1.96055C7.73997 2.2275 7.66077 2.59547 7.38717 2.77584Z" fill="white"/>
<path d="M19.7128 2.83332C19.4248 2.68902 19.3096 2.32827 19.4536 2.03966C19.5976 1.75106 19.9576 1.63562 20.2456 1.77992C20.5336 1.92422 20.6488 2.27776 20.5048 2.56637C20.3608 2.86219 20.008 2.98484 19.7128 2.83332C19.72 2.83332 19.7128 2.83332 19.7128 2.83332Z" fill="white"/>
<path d="M12.8872 8.77923C13.4344 9.62339 13.204 10.7489 12.3616 11.3045C11.5192 11.8528 10.396 11.622 9.84162 10.7778C9.28722 9.93363 9.52482 8.80809 10.3672 8.25253C10.6624 8.05773 11.008 7.95671 11.3608 7.95671C11.98 7.9495 12.5488 8.25975 12.8872 8.77923Z" fill="white"/>
<path d="M9.25117 5.98605C8.83357 6.26023 8.26478 6.14478 7.99118 5.72631C7.71758 5.30783 7.83278 4.73783 8.25037 4.46366C8.66797 4.18949 9.23677 4.30493 9.51037 4.7234C9.79117 5.14188 9.67597 5.71188 9.25117 5.98605Z" fill="white"/>
<path d="M13.492 2.50091C13.0816 2.52255 12.7288 2.2051 12.7 1.79384C12.6712 1.38259 12.9952 1.02905 13.4056 1.00019C13.816 0.978548 14.1688 1.28879 14.1976 1.70005C14.2192 2.11852 13.9024 2.47205 13.492 2.50091Z" fill="white"/>
<path d="M13.4992 7.21284C12.9088 7.24891 12.4048 6.79436 12.376 6.20272C12.34 5.61109 12.7936 5.10603 13.384 5.07717C13.9744 5.04831 14.4784 5.49565 14.5072 6.08728C14.5432 6.6717 14.0896 7.18398 13.4992 7.21284Z" fill="white"/>
<path d="M17.8695 6.05904C17.4231 5.82816 17.2431 5.27982 17.4735 4.8325C17.7039 4.38517 18.2511 4.20479 18.6975 4.43567C19.1439 4.65934 19.3239 5.20767 19.1007 5.655C18.8703 6.10233 18.3231 6.28992 17.8695 6.05904Z" fill="white"/>
</g>
<defs>
<clipPath id="clip0_14818_39919">
<rect width="27" height="25" fill="white" transform="matrix(1 0 0 -1 0 26)"/>
</clipPath>
</defs>
</svg>
