<svg width="30" height="30" viewBox="0 0 30 30" fill="none" xmlns="http://www.w3.org/2000/svg">
<path opacity="0.4" fill-rule="evenodd" clip-rule="evenodd" d="M4.69368 24.5315C5.95529 26.9646 7.3857 27.858 8.48437 27.858C9.58305 27.858 11.0135 26.9646 12.2751 24.5315C13.4919 22.1847 14.2981 18.8178 14.2981 15C14.2981 11.1822 13.4919 7.81527 12.2751 5.4685C11.0135 3.03539 9.58305 2.14199 8.48438 2.14199C7.3857 2.14199 5.95529 3.03539 4.69368 5.4685C3.47684 7.81527 2.67061 11.1822 2.67061 15C2.67061 18.8178 3.47684 22.1847 4.69368 24.5315ZM0.882813 15C0.882812 23.0966 4.28615 29.6602 8.48437 29.6602C12.6826 29.6602 16.0859 23.0966 16.0859 15C16.0859 6.90342 12.6826 0.339844 8.48438 0.339843C4.28615 0.339843 0.882813 6.90342 0.882813 15Z" fill="#2FF6D3"/>
<path opacity="0.7" fill-rule="evenodd" clip-rule="evenodd" d="M11.2093 24.5315C12.4709 26.9646 13.9013 27.858 15 27.858C16.0987 27.858 17.5291 26.9646 18.7907 24.5315C20.0075 22.1847 20.8138 18.8178 20.8138 15C20.8138 11.1822 20.0075 7.81527 18.7907 5.4685C17.5291 3.03539 16.0987 2.14199 15 2.14199C13.9013 2.14199 12.4709 3.03539 11.2093 5.4685C9.99246 7.81527 9.18624 11.1822 9.18624 15C9.18624 18.8178 9.99246 22.1847 11.2093 24.5315ZM7.39844 15C7.39844 23.0966 10.8018 29.6602 15 29.6602C19.1982 29.6602 22.6016 23.0966 22.6016 15C22.6016 6.90342 19.1982 0.339844 15 0.339843C10.8018 0.339843 7.39844 6.90342 7.39844 15Z" fill="#2FF6D3"/>
<path d="M16.0859 22.0586C12.4875 22.0586 9.57031 18.8984 9.57031 15C9.57031 11.1016 12.4875 7.94141 16.0859 7.94141C19.6844 7.94141 22.6016 11.1016 22.6016 15C22.6016 18.8984 19.6844 22.0586 16.0859 22.0586Z" fill="url(#paint0_linear_34561_74234)"/>
<path fill-rule="evenodd" clip-rule="evenodd" d="M17.7249 24.5315C18.9865 26.9646 20.4169 27.858 21.5156 27.858C22.6143 27.858 24.0447 26.9646 25.3063 24.5315C26.5232 22.1847 27.3294 18.8178 27.3294 15C27.3294 11.1822 26.5232 7.81527 25.3063 5.4685C24.0447 3.03539 22.6143 2.14199 21.5156 2.14199C20.417 2.14199 18.9865 3.03539 17.7249 5.4685C16.5081 7.81527 15.7019 11.1822 15.7019 15C15.7019 18.8178 16.5081 22.1847 17.7249 24.5315ZM13.9141 15C13.9141 23.0966 17.3174 29.6602 21.5156 29.6602C25.7139 29.6602 29.1172 23.0966 29.1172 15C29.1172 6.90342 25.7139 0.339844 21.5156 0.339843C17.3174 0.339843 13.9141 6.90342 13.9141 15Z" fill="#2FF6D3"/>
<defs>
<linearGradient id="paint0_linear_34561_74234" x1="16.2673" y1="15" x2="9.57031" y2="15" gradientUnits="userSpaceOnUse">
<stop stop-color="white"/>
<stop offset="1" stop-color="white" stop-opacity="0"/>
</linearGradient>
</defs>
</svg>
