<svg width="194" height="30" viewBox="0 0 194 30" fill="none" xmlns="http://www.w3.org/2000/svg">
<path opacity="0.4" fill-rule="evenodd" clip-rule="evenodd" d="M4.69368 24.5315C5.95529 26.9646 7.3857 27.858 8.48437 27.858C9.58305 27.858 11.0135 26.9646 12.2751 24.5315C13.4919 22.1847 14.2981 18.8178 14.2981 15C14.2981 11.1822 13.4919 7.81527 12.2751 5.4685C11.0135 3.03539 9.58305 2.14199 8.48438 2.14199C7.3857 2.14199 5.95529 3.03539 4.69368 5.4685C3.47684 7.81527 2.67061 11.1822 2.67061 15C2.67061 18.8178 3.47684 22.1847 4.69368 24.5315ZM0.882813 15C0.882812 23.0966 4.28615 29.6602 8.48437 29.6602C12.6826 29.6602 16.0859 23.0966 16.0859 15C16.0859 6.90342 12.6826 0.339844 8.48438 0.339843C4.28615 0.339843 0.882813 6.90342 0.882813 15Z" fill="#2FF6D3"/>
<path opacity="0.7" fill-rule="evenodd" clip-rule="evenodd" d="M11.2093 24.5315C12.4709 26.9646 13.9013 27.858 15 27.858C16.0987 27.858 17.5291 26.9646 18.7907 24.5315C20.0075 22.1847 20.8138 18.8178 20.8138 15C20.8138 11.1822 20.0075 7.81527 18.7907 5.4685C17.5291 3.03539 16.0987 2.14199 15 2.14199C13.9013 2.14199 12.4709 3.03539 11.2093 5.4685C9.99246 7.81527 9.18624 11.1822 9.18624 15C9.18624 18.8178 9.99246 22.1847 11.2093 24.5315ZM7.39844 15C7.39844 23.0966 10.8018 29.6602 15 29.6602C19.1982 29.6602 22.6016 23.0966 22.6016 15C22.6016 6.90342 19.1982 0.339844 15 0.339843C10.8018 0.339843 7.39844 6.90342 7.39844 15Z" fill="#2FF6D3"/>
<path d="M16.0859 22.0586C12.4875 22.0586 9.57031 18.8984 9.57031 15C9.57031 11.1016 12.4875 7.94141 16.0859 7.94141C19.6844 7.94141 22.6016 11.1016 22.6016 15C22.6016 18.8984 19.6844 22.0586 16.0859 22.0586Z" fill="url(#paint0_linear_34561_74234)"/>
<path fill-rule="evenodd" clip-rule="evenodd" d="M17.7249 24.5315C18.9865 26.9646 20.4169 27.858 21.5156 27.858C22.6143 27.858 24.0447 26.9646 25.3063 24.5315C26.5232 22.1847 27.3294 18.8178 27.3294 15C27.3294 11.1822 26.5232 7.81527 25.3063 5.4685C24.0447 3.03539 22.6143 2.14199 21.5156 2.14199C20.417 2.14199 18.9865 3.03539 17.7249 5.4685C16.5081 7.81527 15.7019 11.1822 15.7019 15C15.7019 18.8178 16.5081 22.1847 17.7249 24.5315ZM13.9141 15C13.9141 23.0966 17.3174 29.6602 21.5156 29.6602C25.7139 29.6602 29.1172 23.0966 29.1172 15C29.1172 6.90342 25.7139 0.339844 21.5156 0.339843C17.3174 0.339843 13.9141 6.90342 13.9141 15Z" fill="#2FF6D3"/>
<path d="M41.3222 21.5C40.6874 21.5 40.1416 21.2693 39.685 20.8078C39.2283 20.3463 39 19.7948 39 19.1532V11.6909C39 11.0494 39.2283 10.4978 39.685 10.0364C40.1416 9.57489 40.6874 9.34416 41.3222 9.34416H50.9954V11.5896H41.79C41.4782 11.5896 41.3 11.6121 41.2554 11.6571C41.222 11.6909 41.2053 11.8654 41.2053 12.1805V18.6636C41.2053 18.9788 41.222 19.1589 41.2554 19.2039C41.3 19.2377 41.4782 19.2545 41.79 19.2545H50.9954V21.5H41.3222Z" fill="white"/>
<path d="M54.0405 21.5V8.5H56.2291V11.7078H61.5752C62.1989 11.7078 62.7391 11.9385 63.1958 12.4C63.6524 12.8502 63.8807 13.3961 63.8807 14.0377V21.5H61.6922V14.5104C61.6922 14.1952 61.6699 14.0208 61.6253 13.987C61.5919 13.942 61.4193 13.9195 61.1074 13.9195H56.8138C56.5019 13.9195 56.3237 13.942 56.2792 13.987C56.2458 14.0208 56.2291 14.1952 56.2291 14.5104V21.5H54.0405Z" fill="white"/>
<path d="M68.8413 21.5C68.2065 21.5 67.6607 21.2749 67.2041 20.8247C66.7586 20.3632 66.5358 19.8117 66.5358 19.1701V15.4896H74.1875V14.5104C74.1875 14.1952 74.1652 14.0208 74.1207 13.987C74.0872 13.942 73.9146 13.9195 73.6027 13.9195H66.5358V11.7078H74.0705C74.7054 11.7078 75.2456 11.9385 75.6911 12.4C76.1477 12.8502 76.3761 13.3961 76.3761 14.0377V21.5H68.8413ZM69.3091 19.2883H74.1875V17.4818H68.7244V18.6974C68.7244 19.0126 68.7411 19.1926 68.7745 19.2377C68.8191 19.2714 68.9973 19.2883 69.3091 19.2883Z" fill="white"/>
<path d="M79.4724 21.5V11.7078H81.661V21.5H79.4724ZM79.4724 10.7286V8.5H81.661V10.7286H79.4724Z" fill="white"/>
<path d="M84.9375 21.5V11.7078H92.4722C93.1071 11.7078 93.6472 11.9385 94.0928 12.4C94.5494 12.8502 94.7777 13.3961 94.7777 14.0377V21.5H92.5892V14.5104C92.5892 14.1952 92.5669 14.0208 92.5223 13.987C92.4889 13.942 92.3163 13.9195 92.0044 13.9195H87.7108C87.3989 13.9195 87.2207 13.942 87.1762 13.987C87.1428 14.0208 87.1261 14.1952 87.1261 14.5104V21.5H84.9375Z" fill="white"/>
<path d="M97.9401 21.5V9.36104H107.63C108.276 9.36104 108.827 9.59177 109.284 10.0532C109.741 10.5147 109.969 11.0662 109.969 11.7078V14.9831C109.969 15.6247 109.741 16.1762 109.284 16.6377C108.827 17.0991 108.276 17.3299 107.63 17.3299L100.145 17.3468V21.5H97.9401ZM100.73 15.0844H107.162C107.463 15.0844 107.636 15.0675 107.68 15.0338C107.725 14.9887 107.747 14.8143 107.747 14.5104V12.1805C107.747 11.8654 107.725 11.6909 107.68 11.6571C107.636 11.6121 107.463 11.5896 107.162 11.5896H100.73C100.418 11.5896 100.24 11.6121 100.196 11.6571C100.162 11.6909 100.145 11.8654 100.145 12.1805V14.5104C100.145 14.8143 100.162 14.9887 100.196 15.0338C100.24 15.0675 100.418 15.0844 100.73 15.0844Z" fill="white"/>
<path d="M114.714 21.5C114.079 21.5 113.533 21.2749 113.077 20.8247C112.631 20.3632 112.408 19.8117 112.408 19.1701V14.0377C112.408 13.3961 112.631 12.8502 113.077 12.4C113.533 11.9385 114.079 11.7078 114.714 11.7078H119.943C120.578 11.7078 121.118 11.9385 121.564 12.4C122.02 12.8502 122.249 13.3961 122.249 14.0377V19.1701C122.249 19.8117 122.02 20.3632 121.564 20.8247C121.118 21.2749 120.578 21.5 119.943 21.5H114.714ZM115.182 19.2883H119.475C119.787 19.2883 119.96 19.2714 119.993 19.2377C120.038 19.1926 120.06 19.0126 120.06 18.6974V14.5104C120.06 14.1952 120.038 14.0208 119.993 13.987C119.96 13.942 119.787 13.9195 119.475 13.9195H115.182C114.87 13.9195 114.692 13.942 114.647 13.987C114.614 14.0208 114.597 14.1952 114.597 14.5104V18.6974C114.597 19.0126 114.614 19.1926 114.647 19.2377C114.692 19.2714 114.87 19.2883 115.182 19.2883Z" fill="white"/>
<path d="M124.954 21.5V14.0377C124.954 13.3961 125.177 12.8502 125.622 12.4C126.079 11.9385 126.625 11.7078 127.259 11.7078H132.639V13.9195H127.727C127.415 13.9195 127.237 13.942 127.193 13.987C127.159 14.0208 127.142 14.1952 127.142 14.5104V21.5H124.954Z" fill="white"/>
<path d="M137.341 21.5C136.706 21.5 136.161 21.2749 135.704 20.8247C135.258 20.3632 135.036 19.8117 135.036 19.1701V8.7026H137.224V11.7078H141V13.9195H137.224V18.6974C137.224 19.0126 137.241 19.1926 137.274 19.2377C137.319 19.2714 137.497 19.2883 137.809 19.2883H141V21.5H137.341Z" fill="white"/>
<path d="M164.465 11.9277L162.145 19H160.275L163.445 10.4688H164.635L164.465 11.9277ZM166.393 19L164.066 11.9277L163.879 10.4688H165.08L168.268 19H166.393ZM166.287 15.8242V17.2012H161.781V15.8242H166.287ZM172.381 15.959H170.207V14.5879H172.381C172.717 14.5879 172.99 14.5332 173.201 14.4238C173.412 14.3105 173.566 14.1543 173.664 13.9551C173.762 13.7559 173.811 13.5312 173.811 13.2812C173.811 13.0273 173.762 12.791 173.664 12.5723C173.566 12.3535 173.412 12.1777 173.201 12.0449C172.99 11.9121 172.717 11.8457 172.381 11.8457H170.816V19H169.059V10.4688H172.381C173.049 10.4688 173.621 10.5898 174.098 10.832C174.578 11.0703 174.945 11.4004 175.199 11.8223C175.453 12.2441 175.58 12.7266 175.58 13.2695C175.58 13.8203 175.453 14.2969 175.199 14.6992C174.945 15.1016 174.578 15.4121 174.098 15.6309C173.621 15.8496 173.049 15.959 172.381 15.959ZM180.115 15.959H177.941V14.5879H180.115C180.451 14.5879 180.725 14.5332 180.936 14.4238C181.146 14.3105 181.301 14.1543 181.398 13.9551C181.496 13.7559 181.545 13.5312 181.545 13.2812C181.545 13.0273 181.496 12.791 181.398 12.5723C181.301 12.3535 181.146 12.1777 180.936 12.0449C180.725 11.9121 180.451 11.8457 180.115 11.8457H178.551V19H176.793V10.4688H180.115C180.783 10.4688 181.355 10.5898 181.832 10.832C182.312 11.0703 182.68 11.4004 182.934 11.8223C183.188 12.2441 183.314 12.7266 183.314 13.2695C183.314 13.8203 183.188 14.2969 182.934 14.6992C182.68 15.1016 182.312 15.4121 181.832 15.6309C181.355 15.8496 180.783 15.959 180.115 15.959Z" fill="#2FF6D3"/>
<rect x="150.5" y="4.5" width="43" height="21" rx="10.5" stroke="#2FF6D3"/>
</svg>
