<svg width="19" height="19" viewBox="0 0 19 19" fill="none" xmlns="http://www.w3.org/2000/svg">
<path fill-rule="evenodd" clip-rule="evenodd" d="M9.58594 17.1226C13.8661 17.1226 17.3359 13.6528 17.3359 9.37256C17.3359 5.09235 13.8661 1.62256 9.58594 1.62256C5.30573 1.62256 1.83594 5.09235 1.83594 9.37256C1.83594 13.6528 5.30573 17.1226 9.58594 17.1226ZM9.58594 18.1226C14.4184 18.1226 18.3359 14.2051 18.3359 9.37256C18.3359 4.54007 14.4184 0.622559 9.58594 0.622559C4.75345 0.622559 0.835938 4.54007 0.835938 9.37256C0.835938 14.2051 4.75345 18.1226 9.58594 18.1226ZM5.0026 9.78923V8.78923H9.16927V4.78923H10.1693V8.78923H14.1693V9.78923H10.1693V13.9559H9.16927V9.78923H5.0026Z" fill="#2FF6D3"/>
<path fill-rule="evenodd" clip-rule="evenodd" d="M9.58594 17.1226C13.8661 17.1226 17.3359 13.6528 17.3359 9.37256C17.3359 5.09235 13.8661 1.62256 9.58594 1.62256C5.30573 1.62256 1.83594 5.09235 1.83594 9.37256C1.83594 13.6528 5.30573 17.1226 9.58594 17.1226ZM9.58594 18.1226C14.4184 18.1226 18.3359 14.2051 18.3359 9.37256C18.3359 4.54007 14.4184 0.622559 9.58594 0.622559C4.75345 0.622559 0.835938 4.54007 0.835938 9.37256C0.835938 14.2051 4.75345 18.1226 9.58594 18.1226ZM5.0026 9.78923V8.78923H9.16927V4.78923H10.1693V8.78923H14.1693V9.78923H10.1693V13.9559H9.16927V9.78923H5.0026Z" fill="#2FF6D3"/>
</svg>
