<svg width="19" height="19" viewBox="0 0 19 19" fill="none" xmlns="http://www.w3.org/2000/svg">
<path fill-rule="evenodd" clip-rule="evenodd" d="M17.3359 9.5835C17.3359 13.8637 13.8661 17.3335 9.58594 17.3335C5.30573 17.3335 1.83594 13.8637 1.83594 9.5835C1.83594 5.30329 5.30573 1.8335 9.58594 1.8335C13.8661 1.8335 17.3359 5.30329 17.3359 9.5835ZM18.3359 9.5835C18.3359 14.416 14.4184 18.3335 9.58594 18.3335C4.75345 18.3335 0.835938 14.416 0.835938 9.5835C0.835938 4.751 4.75345 0.833496 9.58594 0.833496C14.4184 0.833496 18.3359 4.751 18.3359 9.5835ZM5.0026 9.00016V10.0002H14.1693V9.00016H5.0026Z" fill="#2FF6D3"/>
<path fill-rule="evenodd" clip-rule="evenodd" d="M17.3359 9.5835C17.3359 13.8637 13.8661 17.3335 9.58594 17.3335C5.30573 17.3335 1.83594 13.8637 1.83594 9.5835C1.83594 5.30329 5.30573 1.8335 9.58594 1.8335C13.8661 1.8335 17.3359 5.30329 17.3359 9.5835ZM18.3359 9.5835C18.3359 14.416 14.4184 18.3335 9.58594 18.3335C4.75345 18.3335 0.835938 14.416 0.835938 9.5835C0.835938 4.751 4.75345 0.833496 9.58594 0.833496C14.4184 0.833496 18.3359 4.751 18.3359 9.5835ZM5.0026 9.00016V10.0002H14.1693V9.00016H5.0026Z" fill="#2FF6D3"/>
</svg>
