<svg width="36" height="36" viewBox="0 0 36 36" fill="none" xmlns="http://www.w3.org/2000/svg">
<path fill-rule="evenodd" clip-rule="evenodd" d="M27.1673 25.3335C25.7763 26.9101 22.7919 28.0002 19.3346 28.0002C15.8774 28.0002 12.8929 26.9101 11.502 25.3335C10.9672 25.9397 10.668 26.6178 10.668 27.3335C10.668 29.9108 14.5482 32.0002 19.3346 32.0002C24.1211 32.0002 28.0013 29.9108 28.0013 27.3335C28.0013 26.6178 27.7021 25.9397 27.1673 25.3335Z" fill="#00132F"/>
<path d="M27.1673 25.3335L27.5422 25.0027L27.1673 24.5777L26.7923 25.0027L27.1673 25.3335ZM11.502 25.3335L11.8769 25.0027L11.502 24.5777L11.127 25.0027L11.502 25.3335ZM26.7923 25.0027C25.5353 26.4275 22.7204 27.5002 19.3346 27.5002V28.5002C22.8633 28.5002 26.0173 27.3927 27.5422 25.6643L26.7923 25.0027ZM19.3346 27.5002C15.9488 27.5002 13.1339 26.4275 11.8769 25.0027L11.127 25.6643C12.6519 27.3927 15.8059 28.5002 19.3346 28.5002V27.5002ZM11.168 27.3335C11.168 26.7658 11.4035 26.2009 11.8769 25.6643L11.127 25.0027C10.5309 25.6784 10.168 26.4697 10.168 27.3335H11.168ZM19.3346 31.5002C17.0076 31.5002 14.9256 30.9912 13.4434 30.1931C11.9409 29.384 11.168 28.3501 11.168 27.3335H10.168C10.168 28.8942 11.3352 30.1936 12.9693 31.0736C14.6238 31.9645 16.8752 32.5002 19.3346 32.5002V31.5002ZM27.5013 27.3335C27.5013 28.3501 26.7284 29.384 25.2258 30.1931C23.7436 30.9912 21.6617 31.5002 19.3346 31.5002V32.5002C21.7941 32.5002 24.0454 31.9645 25.6999 31.0736C27.3341 30.1936 28.5013 28.8942 28.5013 27.3335H27.5013ZM26.7923 25.6643C27.2658 26.2009 27.5013 26.7658 27.5013 27.3335H28.5013C28.5013 26.4697 28.1383 25.6784 27.5422 25.0027L26.7923 25.6643Z" fill="#2FF6D3"/>
<path d="M20.4993 14.6665L20.8743 14.3357L20.4993 13.9107L20.1244 14.3357L20.4993 14.6665ZM4.83402 14.6665L5.20896 14.3357L4.83402 13.9107L4.45908 14.3357L4.83402 14.6665ZM20.1244 14.3357C18.8674 15.7605 16.0525 16.8332 12.6667 16.8332V17.8332C16.1954 17.8332 19.3494 16.7257 20.8743 14.9973L20.1244 14.3357ZM12.6667 16.8332C9.28086 16.8332 6.46597 15.7605 5.20896 14.3357L4.45908 14.9973C5.98398 16.7257 9.13796 17.8332 12.6667 17.8332V16.8332ZM4.5 16.6665C4.5 16.0988 4.73551 15.5339 5.20896 14.9973L4.45908 14.3357C3.86296 15.0114 3.5 15.8027 3.5 16.6665H4.5ZM12.6667 20.8332C10.3396 20.8332 8.25765 20.3242 6.77546 19.5261C5.2729 18.717 4.5 17.6831 4.5 16.6665H3.5C3.5 18.2272 4.6672 19.5266 6.30136 20.4066C7.95588 21.2975 10.2073 21.8332 12.6667 21.8332V20.8332ZM20.8333 16.6665C20.8333 17.6831 20.0604 18.717 18.5579 19.5261C17.0757 20.3242 14.9937 20.8332 12.6667 20.8332V21.8332C15.1261 21.8332 17.3775 21.2975 19.032 20.4066C20.6661 19.5266 21.8333 18.2272 21.8333 16.6665H20.8333ZM20.1244 14.9973C20.5978 15.5339 20.8333 16.0988 20.8333 16.6665H21.8333C21.8333 15.8027 21.4704 15.0114 20.8743 14.3357L20.1244 14.9973Z" fill="white"/>
<path d="M20.4993 18.6665L20.8743 18.3357L20.4993 17.9107L20.1244 18.3357L20.4993 18.6665ZM4.83402 18.6665L5.20896 18.3357L4.83402 17.9107L4.45908 18.3357L4.83402 18.6665ZM20.1244 18.3357C18.8674 19.7605 16.0525 20.8332 12.6667 20.8332V21.8332C16.1954 21.8332 19.3494 20.7257 20.8743 18.9973L20.1244 18.3357ZM12.6667 20.8332C9.28086 20.8332 6.46597 19.7605 5.20896 18.3357L4.45908 18.9973C5.98398 20.7257 9.13796 21.8332 12.6667 21.8332V20.8332ZM4.5 20.6665C4.5 20.0988 4.73551 19.5339 5.20896 18.9973L4.45908 18.3357C3.86296 19.0114 3.5 19.8027 3.5 20.6665H4.5ZM12.6667 24.8332C10.3396 24.8332 8.25765 24.3242 6.77546 23.5261C5.2729 22.717 4.5 21.6831 4.5 20.6665H3.5C3.5 22.2272 4.6672 23.5266 6.30136 24.4066C7.95588 25.2975 10.2073 25.8332 12.6667 25.8332V24.8332ZM20.8333 20.6665C20.8333 21.6831 20.0604 22.717 18.5579 23.5261C17.0757 24.3242 14.9937 24.8332 12.6667 24.8332V25.8332C15.1261 25.8332 17.3775 25.2975 19.032 24.4066C20.6661 23.5266 21.8333 22.2272 21.8333 20.6665H20.8333ZM20.1244 18.9973C20.5978 19.5339 20.8333 20.0988 20.8333 20.6665H21.8333C21.8333 19.8027 21.4704 19.0114 20.8743 18.3357L20.1244 18.9973Z" fill="white"/>
<path fill-rule="evenodd" clip-rule="evenodd" d="M27.1673 21.3335C25.7763 22.9101 22.7919 24.0002 19.3346 24.0002C15.8774 24.0002 12.8929 22.9101 11.502 21.3335C10.9672 21.9397 10.668 22.6178 10.668 23.3335C10.668 25.9108 14.5482 28.0002 19.3346 28.0002C24.1211 28.0002 28.0013 25.9108 28.0013 23.3335C28.0013 22.6178 27.7021 21.9397 27.1673 21.3335Z" fill="#00132F"/>
<path d="M27.1673 21.3335L27.5422 21.0027L27.1673 20.5777L26.7923 21.0027L27.1673 21.3335ZM11.502 21.3335L11.8769 21.0027L11.502 20.5777L11.127 21.0027L11.502 21.3335ZM26.7923 21.0027C25.5353 22.4275 22.7204 23.5002 19.3346 23.5002V24.5002C22.8633 24.5002 26.0173 23.3927 27.5422 21.6643L26.7923 21.0027ZM19.3346 23.5002C15.9488 23.5002 13.1339 22.4275 11.8769 21.0027L11.127 21.6643C12.6519 23.3927 15.8059 24.5002 19.3346 24.5002V23.5002ZM11.168 23.3335C11.168 22.7658 11.4035 22.2009 11.8769 21.6643L11.127 21.0027C10.5309 21.6784 10.168 22.4697 10.168 23.3335H11.168ZM19.3346 27.5002C17.0076 27.5002 14.9256 26.9912 13.4434 26.1931C11.9409 25.384 11.168 24.3501 11.168 23.3335H10.168C10.168 24.8942 11.3352 26.1936 12.9693 27.0736C14.6238 27.9645 16.8752 28.5002 19.3346 28.5002V27.5002ZM27.5013 23.3335C27.5013 24.3501 26.7284 25.384 25.2258 26.1931C23.7436 26.9912 21.6617 27.5002 19.3346 27.5002V28.5002C21.7941 28.5002 24.0454 27.9645 25.6999 27.0736C27.3341 26.1936 28.5013 24.8942 28.5013 23.3335H27.5013ZM26.7923 21.6643C27.2658 22.2009 27.5013 22.7658 27.5013 23.3335H28.5013C28.5013 22.4697 28.1383 21.6784 27.5422 21.0027L26.7923 21.6643Z" fill="#2FF6D3"/>
<path d="M20.4993 10.6665L20.8743 10.3357L20.4993 9.91073L20.1244 10.3357L20.4993 10.6665ZM4.83402 10.6665L5.20896 10.3357L4.83402 9.91073L4.45908 10.3357L4.83402 10.6665ZM20.1244 10.3357C18.8674 11.7605 16.0525 12.8332 12.6667 12.8332V13.8332C16.1954 13.8332 19.3494 12.7257 20.8743 10.9973L20.1244 10.3357ZM12.6667 12.8332C9.28087 12.8332 6.46597 11.7605 5.20896 10.3357L4.45908 10.9973C5.98398 12.7257 9.13796 13.8332 12.6667 13.8332V12.8332ZM4.5 12.6665C4.5 12.0988 4.73551 11.5339 5.20896 10.9973L4.45908 10.3357C3.86296 11.0114 3.5 11.8027 3.5 12.6665H4.5ZM12.6667 16.8332C10.3396 16.8332 8.25765 16.3242 6.77546 15.5261C5.2729 14.717 4.5 13.6831 4.5 12.6665H3.5C3.5 14.2272 4.6672 15.5266 6.30136 16.4066C7.95588 17.2975 10.2073 17.8332 12.6667 17.8332V16.8332ZM20.8333 12.6665C20.8333 13.6831 20.0604 14.717 18.5579 15.5261C17.0757 16.3242 14.9937 16.8332 12.6667 16.8332V17.8332C15.1261 17.8332 17.3775 17.2975 19.032 16.4066C20.6661 15.5266 21.8333 14.2272 21.8333 12.6665H20.8333ZM20.1244 10.9973C20.5978 11.5339 20.8333 12.0988 20.8333 12.6665H21.8333C21.8333 11.8027 21.4704 11.0114 20.8743 10.3357L20.1244 10.9973Z" fill="white"/>
<ellipse cx="19.3346" cy="19.3332" rx="8.66667" ry="4.66667" fill="#00132F" stroke="#2FF6D3"/>
<ellipse cx="12.6667" cy="8.66667" rx="8.66667" ry="4.66667" stroke="white"/>
<path d="M18.668 18.1665C18.3918 18.1665 18.168 18.3904 18.168 18.6665C18.168 18.9426 18.3918 19.1665 18.668 19.1665V18.1665ZM35.0215 19.0201C35.2168 18.8248 35.2168 18.5082 35.0215 18.313L31.8395 15.131C31.6443 14.9357 31.3277 14.9357 31.1324 15.131C30.9372 15.3262 30.9372 15.6428 31.1324 15.8381L33.9609 18.6665L31.1324 21.4949C30.9372 21.6902 30.9372 22.0068 31.1324 22.202C31.3277 22.3973 31.6443 22.3973 31.8395 22.202L35.0215 19.0201ZM18.668 19.1665L34.668 19.1665V18.1665L18.668 18.1665V19.1665Z" fill="#2FF6D3"/>
</svg>
