<svg width="22" height="22" viewBox="0 0 22 22" fill="none" xmlns="http://www.w3.org/2000/svg">
<path fill-rule="evenodd" clip-rule="evenodd" d="M16.5985 15.4814C15.7485 16.4449 13.9247 17.1111 11.8119 17.1111C9.69916 17.1111 7.87533 16.4449 7.0253 15.4814C6.69849 15.8519 6.51562 16.2663 6.51562 16.7037C6.51562 18.2787 8.88686 19.5555 11.8119 19.5555C14.737 19.5555 17.1082 18.2787 17.1082 16.7037C17.1082 16.2663 16.9253 15.8519 16.5985 15.4814Z" fill="#192A43"/>
<path d="M16.5985 15.4814L16.9735 15.1507L16.5985 14.7257L16.2236 15.1507L16.5985 15.4814ZM7.0253 15.4814L7.40024 15.1507L7.0253 14.7257L6.65036 15.1507L7.0253 15.4814ZM16.2236 15.1507C15.5075 15.9623 13.8532 16.6111 11.8119 16.6111V17.6111C13.9961 17.6111 15.9895 16.9276 16.9735 15.8122L16.2236 15.1507ZM11.8119 16.6111C9.77061 16.6111 8.11633 15.9623 7.40024 15.1507L6.65036 15.8122C7.63433 16.9276 9.62771 17.6111 11.8119 17.6111V16.6111ZM7.01562 16.7037C7.01562 16.4144 7.13477 16.1131 7.40024 15.8122L6.65036 15.1507C6.26222 15.5906 6.01562 16.1182 6.01562 16.7037H7.01562ZM11.8119 19.0555C10.4156 19.0555 9.1762 18.7497 8.30392 18.28C7.41128 17.7993 7.01562 17.2191 7.01562 16.7037H6.01562C6.01562 17.7633 6.80559 18.609 7.82982 19.1605C8.87443 19.7229 10.2832 20.0555 11.8119 20.0555V19.0555ZM16.6082 16.7037C16.6082 17.2191 16.2126 17.7993 15.3199 18.28C14.4476 18.7497 13.2083 19.0555 11.8119 19.0555V20.0555C13.3406 20.0555 14.7494 19.7229 15.794 19.1605C16.8183 18.609 17.6082 17.7633 17.6082 16.7037H16.6082ZM16.2236 15.8122C16.4891 16.1132 16.6082 16.4144 16.6082 16.7037H17.6082C17.6082 16.1182 17.3616 15.5906 16.9735 15.1507L16.2236 15.8122Z" fill="#2FF6D3"/>
<path d="M12.5282 8.96289L12.9032 8.63211L12.5282 8.20712L12.1533 8.63211L12.5282 8.96289ZM2.95499 8.96289L3.32993 8.63211L2.95499 8.20711L2.58005 8.63211L2.95499 8.96289ZM12.1533 8.63211C11.4372 9.44378 9.78292 10.0925 7.74161 10.0925V11.0925C9.92582 11.0925 11.9192 10.409 12.9032 9.29368L12.1533 8.63211ZM7.74161 10.0925C5.70029 10.0925 4.04602 9.44378 3.32993 8.63211L2.58005 9.29368C3.56402 10.409 5.55739 11.0925 7.74161 11.0925V10.0925ZM2.94531 10.1851C2.94531 9.8958 3.06445 9.59459 3.32993 9.29368L2.58005 8.63211C2.19191 9.07206 1.94531 9.59965 1.94531 10.1851H2.94531ZM7.74161 12.537C6.34526 12.537 5.10589 12.2311 4.23361 11.7614C3.34097 11.2808 2.94531 10.7006 2.94531 10.1851H1.94531C1.94531 11.2447 2.73527 12.0904 3.75951 12.6419C4.80412 13.2044 6.2129 13.537 7.74161 13.537V12.537ZM12.5379 10.1851C12.5379 10.7006 12.1422 11.2808 11.2496 11.7614C10.3773 12.2311 9.13796 12.537 7.74161 12.537V13.537C9.27032 13.537 10.6791 13.2044 11.7237 12.6419C12.7479 12.0904 13.5379 11.2447 13.5379 10.1851H12.5379ZM12.1533 9.29368C12.4188 9.5946 12.5379 9.8958 12.5379 10.1851H13.5379C13.5379 9.59964 13.2913 9.07206 12.9032 8.63211L12.1533 9.29368Z" fill="white"/>
<path d="M12.5282 11.4072L12.9032 11.0764L12.5282 10.6515L12.1533 11.0764L12.5282 11.4072ZM2.95499 11.4072L3.32993 11.0764L2.95499 10.6514L2.58005 11.0764L2.95499 11.4072ZM12.1533 11.0764C11.4372 11.8881 9.78292 12.5369 7.74161 12.5369V13.5369C9.92582 13.5369 11.9192 12.8533 12.9032 11.738L12.1533 11.0764ZM7.74161 12.5369C5.70029 12.5369 4.04602 11.8881 3.32993 11.0764L2.58005 11.738C3.56402 12.8533 5.55739 13.5369 7.74161 13.5369V12.5369ZM2.94531 12.6294C2.94531 12.3401 3.06445 12.0389 3.32993 11.738L2.58005 11.0764C2.19191 11.5164 1.94531 12.044 1.94531 12.6294H2.94531ZM7.74161 14.9813C6.34526 14.9813 5.10589 14.6755 4.23361 14.2058C3.34097 13.7251 2.94531 13.1449 2.94531 12.6294H1.94531C1.94531 13.689 2.73527 14.5347 3.75951 15.0862C4.80412 15.6487 6.2129 15.9813 7.74161 15.9813V14.9813ZM12.5379 12.6294C12.5379 13.1449 12.1422 13.7251 11.2496 14.2058C10.3773 14.6755 9.13796 14.9813 7.74161 14.9813V15.9813C9.27032 15.9813 10.6791 15.6487 11.7237 15.0862C12.7479 14.5347 13.5379 13.689 13.5379 12.6294H12.5379ZM12.1533 11.738C12.4188 12.0389 12.5379 12.3401 12.5379 12.6294H13.5379C13.5379 12.044 13.2913 11.5164 12.9032 11.0764L12.1533 11.738Z" fill="white"/>
<path fill-rule="evenodd" clip-rule="evenodd" d="M16.5985 13.0371C15.7485 14.0006 13.9247 14.6667 11.8119 14.6667C9.69916 14.6667 7.87533 14.0006 7.0253 13.0371C6.69849 13.4075 6.51562 13.8219 6.51562 14.2593C6.51562 15.8344 8.88686 17.1112 11.8119 17.1112C14.737 17.1112 17.1082 15.8344 17.1082 14.2593C17.1082 13.8219 16.9253 13.4075 16.5985 13.0371Z" fill="#192A43"/>
<path d="M16.5985 13.0371L16.9735 12.7063L16.5985 12.2813L16.2236 12.7063L16.5985 13.0371ZM7.0253 13.0371L7.40025 12.7063L7.0253 12.2813L6.65036 12.7063L7.0253 13.0371ZM16.2236 12.7063C15.5075 13.518 13.8532 14.1667 11.8119 14.1667V15.1667C13.9961 15.1667 15.9895 14.4832 16.9735 13.3679L16.2236 12.7063ZM11.8119 14.1667C9.77061 14.1667 8.11633 13.518 7.40025 12.7063L6.65036 13.3679C7.63433 14.4832 9.62771 15.1667 11.8119 15.1667V14.1667ZM7.01562 14.2593C7.01562 13.97 7.13477 13.6688 7.40025 13.3679L6.65036 12.7063C6.26222 13.1463 6.01562 13.6739 6.01562 14.2593H7.01562ZM11.8119 16.6112C10.4156 16.6112 9.1762 16.3053 8.30392 15.8357C7.41128 15.355 7.01562 14.7748 7.01562 14.2593H6.01562C6.01562 15.3189 6.80559 16.1646 7.82982 16.7161C8.87443 17.2786 10.2832 17.6112 11.8119 17.6112V16.6112ZM16.6082 14.2593C16.6082 14.7748 16.2126 15.355 15.3199 15.8357C14.4476 16.3053 13.2083 16.6112 11.8119 16.6112V17.6112C13.3406 17.6112 14.7494 17.2786 15.794 16.7161C16.8183 16.1646 17.6082 15.3189 17.6082 14.2593H16.6082ZM16.2236 13.3679C16.4891 13.6688 16.6082 13.97 16.6082 14.2593H17.6082C17.6082 13.6739 17.3616 13.1463 16.9735 12.7063L16.2236 13.3679Z" fill="#2FF6D3"/>
<path d="M12.5282 6.51856L12.9032 6.18777L12.5282 5.76278L12.1533 6.18777L12.5282 6.51856ZM2.95499 6.51855L3.32993 6.18777L2.95499 5.76278L2.58005 6.18777L2.95499 6.51855ZM12.1533 6.18777C11.4372 6.99944 9.78292 7.64818 7.74161 7.64818V8.64818C9.92582 8.64818 11.9192 7.96466 12.9032 6.84934L12.1533 6.18777ZM7.74161 7.64818C5.70029 7.64818 4.04602 6.99944 3.32993 6.18777L2.58005 6.84934C3.56402 7.96466 5.55739 8.64818 7.74161 8.64818V7.64818ZM2.94531 7.74078C2.94531 7.45146 3.06445 7.15026 3.32993 6.84934L2.58005 6.18777C2.19191 6.62773 1.94531 7.15531 1.94531 7.74078H2.94531ZM7.74161 10.0926C6.34526 10.0926 5.10589 9.78679 4.23361 9.31711C3.34097 8.83645 2.94531 8.25622 2.94531 7.74078H1.94531C1.94531 8.80037 2.73527 9.64606 3.75951 10.1976C4.80412 10.7601 6.2129 11.0926 7.74161 11.0926V10.0926ZM12.5379 7.74078C12.5379 8.25622 12.1422 8.83645 11.2496 9.31711C10.3773 9.78679 9.13796 10.0926 7.74161 10.0926V11.0926C9.27032 11.0926 10.6791 10.7601 11.7237 10.1976C12.7479 9.64606 13.5379 8.80037 13.5379 7.74078H12.5379ZM12.1533 6.84934C12.4188 7.15026 12.5379 7.45146 12.5379 7.74078H13.5379C13.5379 7.15531 13.2913 6.62773 12.9032 6.18777L12.1533 6.84934Z" fill="white"/>
<ellipse cx="11.8119" cy="11.8147" rx="5.2963" ry="2.85185" fill="#192A43" stroke="#2FF6D3"/>
<ellipse cx="7.74161" cy="5.29619" rx="5.2963" ry="2.85185" stroke="white"/>
<path d="M11.4062 10.9072C11.1301 10.9072 10.9062 11.1311 10.9062 11.4072C10.9062 11.6834 11.1301 11.9072 11.4062 11.9072V10.9072ZM21.5376 11.7608C21.7328 11.5655 21.7328 11.2489 21.5376 11.0537L18.3556 7.87169C18.1603 7.67643 17.8438 7.67643 17.6485 7.87169C17.4532 8.06695 17.4532 8.38354 17.6485 8.5788L20.4769 11.4072L17.6485 14.2357C17.4532 14.4309 17.4532 14.7475 17.6485 14.9428C17.8438 15.138 18.1603 15.138 18.3556 14.9428L21.5376 11.7608ZM11.4062 11.9072L21.184 11.9072V10.9072L11.4062 10.9072V11.9072Z" fill="#2FF6D3"/>
</svg>
