<svg xmlns="http://www.w3.org/2000/svg" width="32" height="32" viewBox="0 0 32 32" fill="none">
<path d="M17.8768 8.5542H7C4.79086 8.5542 3 10.3451 3 12.5542V24.999C3 27.2081 4.79086 28.999 7 28.999H19.4025C21.6116 28.999 23.4025 27.2081 23.4025 24.999V16.1188" stroke="#2FF6D3" stroke-width="2"/>
<path d="M25.5006 7.46053L26.2212 6.76726C26.0301 6.58339 25.7709 6.48009 25.5006 6.48009C25.2302 6.48009 24.971 6.58339 24.7799 6.76726L25.5006 7.46053ZM29.0005 10.8274L29.7211 11.5207C29.9123 11.3368 30.0196 11.0874 30.0196 10.8274C30.0196 10.5674 29.9123 10.318 29.7211 10.1341L29.0005 10.8274ZM14.046 18.4797L13.3254 19.1729C13.5165 19.3568 13.7757 19.4601 14.046 19.4601C14.3163 19.4601 14.5756 19.3568 14.7667 19.1729L14.046 18.4797ZM9.40924 14.0191L10.1299 13.3258C9.93878 13.142 9.67955 13.0387 9.40924 13.0387C9.13894 13.0387 8.87971 13.142 8.68857 13.3258L9.40924 14.0191ZM5.95352 17.3435L5.23285 16.6502C5.04171 16.8341 4.93433 17.0835 4.93433 17.3435C4.93433 17.6035 5.04171 17.8529 5.23285 18.0368L5.95352 17.3435ZM10.5903 21.804L11.311 22.4973C11.5021 22.3134 11.6095 22.0641 11.6095 21.804C11.6095 21.544 11.5021 21.2946 11.311 21.1108L10.5903 21.804ZM10.588 21.8063L9.8673 21.113C9.67616 21.2969 9.56879 21.5462 9.56879 21.8063C9.56879 22.0663 9.67616 22.3157 9.8673 22.4996L10.588 21.8063ZM14.0879 25.1731L13.3672 25.8664C13.7652 26.2493 14.4105 26.2493 14.8085 25.8664L14.0879 25.1731ZM24.7799 8.15381L28.2798 11.5207L29.7211 10.1341L26.2212 6.76726L24.7799 8.15381ZM14.7667 19.1729L26.2212 8.15381L24.7799 6.76726L13.3254 17.7864L14.7667 19.1729ZM8.68857 14.7124L13.3254 19.1729L14.7667 17.7864L10.1299 13.3258L8.68857 14.7124ZM6.67419 18.0368L10.1299 14.7124L8.68857 13.3258L5.23285 16.6502L6.67419 18.0368ZM11.311 21.1108L6.67419 16.6502L5.23285 18.0368L9.86963 22.4973L11.311 21.1108ZM11.3086 22.4996L11.311 22.4973L9.86963 21.1108L9.8673 21.113L11.3086 22.4996ZM14.8085 24.4799L11.3086 21.113L9.8673 22.4996L13.3672 25.8664L14.8085 24.4799ZM28.2798 10.1341L13.3672 24.4799L14.8085 25.8664L29.7211 11.5207L28.2798 10.1341Z" fill="#2FF6D3"/>
</svg>