<svg width="80" height="29" viewBox="0 0 80 29" fill="none" xmlns="http://www.w3.org/2000/svg">
<path d="M32.4161 12.3596H31.0586V6.24443C31.9246 6.2138 32.469 6.19849 32.6918 6.19849C33.5829 6.19849 34.2888 6.46025 34.8096 6.98377C35.3331 7.50451 35.5948 8.1965 35.5948 9.05975C35.5948 11.2597 34.5353 12.3596 32.4161 12.3596ZM32.1446 7.19262V11.3697C32.3201 11.3864 32.5094 11.3947 32.7127 11.3947C33.2613 11.3947 33.6901 11.1956 33.9992 10.7974C34.3111 10.3992 34.4671 9.84225 34.4671 9.12659C34.4671 7.81778 33.8586 7.16338 32.6417 7.16338C32.5247 7.16338 32.359 7.17313 32.1446 7.19262Z" fill="white"/>
<path d="M40.4293 8.24106L39.9824 9.02216C39.7374 8.79103 39.4088 8.67547 38.9966 8.67547C38.6012 8.67547 38.2879 8.80774 38.0568 9.07228C37.8284 9.33405 37.7143 9.69745 37.7143 10.1625C37.7143 11.1009 38.1612 11.5701 39.0551 11.5701C39.4422 11.5701 39.7833 11.4421 40.0785 11.1859L40.4628 12.0087C40.1592 12.1981 39.8933 12.3178 39.6649 12.368C39.4394 12.4181 39.1721 12.4431 38.863 12.4431C38.1724 12.4431 37.6266 12.2427 37.2256 11.8417C36.8274 11.4379 36.6282 10.8782 36.6282 10.1625C36.6282 9.45796 36.8468 8.8885 37.284 8.45408C37.7212 8.01967 38.3172 7.80247 39.0718 7.80247C39.5925 7.80247 40.0451 7.94866 40.4293 8.24106Z" fill="white"/>
<path d="M45.7191 10.4424H42.5237C42.5432 10.7988 42.6657 11.0759 42.8913 11.2736C43.1168 11.4713 43.4204 11.5701 43.8019 11.5701C44.2781 11.5701 44.6401 11.4462 44.8879 11.1984L45.2931 11.9962C44.9255 12.2942 44.3769 12.4431 43.6473 12.4431C42.9651 12.4431 42.4249 12.244 42.0266 11.8458C41.6312 11.4448 41.4335 10.8865 41.4335 10.1708C41.4335 9.46632 41.6507 8.89546 42.0851 8.45826C42.5223 8.02106 43.0458 7.80247 43.6557 7.80247C44.3045 7.80247 44.8253 7.996 45.2179 8.38307C45.6105 8.77015 45.8069 9.26304 45.8069 9.86174C45.8069 9.98984 45.7776 10.1834 45.7191 10.4424ZM42.5613 9.65707H44.7584C44.686 9.00267 44.324 8.67547 43.6724 8.67547C43.0765 8.67547 42.7061 9.00267 42.5613 9.65707Z" fill="white"/>
<path d="M49.9521 12.3596V9.77403C49.9521 9.39252 49.8783 9.11405 49.7308 8.93862C49.586 8.76318 49.3479 8.67547 49.0165 8.67547C48.8633 8.67547 48.699 8.71863 48.5236 8.80495C48.3509 8.89128 48.2159 8.99849 48.1184 9.12659V12.3596H47.0742V7.88601H47.826L48.0182 8.30371C48.3022 7.96955 48.7213 7.80247 49.2755 7.80247C49.8073 7.80247 50.2264 7.96259 50.5328 8.28283C50.8419 8.60028 50.9964 9.04444 50.9964 9.6153V12.3596H49.9521Z" fill="white"/>
<path d="M52.7148 8.72559H52.1969V7.88601H52.7148V6.97541L53.7591 6.59113V7.88601H54.9871V8.72559H53.7591V10.6846C53.7591 11.0049 53.8092 11.2318 53.9095 11.3655C54.0097 11.4964 54.1851 11.5618 54.4358 11.5618C54.6864 11.5618 54.9203 11.4936 55.1375 11.3571V12.3178C54.8952 12.4014 54.5499 12.4431 54.1016 12.4431C53.6561 12.4431 53.3135 12.3178 53.0741 12.0672C52.8346 11.8138 52.7148 11.4546 52.7148 10.9895V8.72559Z" fill="white"/>
<path d="M58.9612 8.85926C58.7746 8.73673 58.5699 8.67547 58.3471 8.67547C58.1049 8.67547 57.8891 8.78546 57.6997 9.00545C57.5131 9.22544 57.4198 9.49416 57.4198 9.81162V12.3596H56.3756V7.88601H57.4198V8.29536C57.7122 7.96676 58.1007 7.80247 58.5852 7.80247C58.9417 7.80247 59.2146 7.85677 59.4039 7.96537L58.9612 8.85926Z" fill="white"/>
<path d="M62.9519 11.9127C62.8572 12.0686 62.6915 12.1967 62.4548 12.297C62.2209 12.3944 61.9759 12.4431 61.7197 12.4431C61.2379 12.4431 60.8592 12.3234 60.5835 12.0839C60.3078 11.8417 60.17 11.4991 60.17 11.0564C60.17 10.5384 60.3635 10.1333 60.7506 9.84086C61.1405 9.54847 61.6932 9.40227 62.4089 9.40227C62.5314 9.40227 62.6762 9.42316 62.8433 9.46493C62.8433 8.93862 62.5105 8.67547 61.845 8.67547C61.4523 8.67547 61.1238 8.74091 60.8592 8.87179L60.6336 8.06144C60.9929 7.88879 61.4203 7.80247 61.916 7.80247C62.5982 7.80247 63.0981 7.95841 63.4156 8.27029C63.733 8.57939 63.8917 9.16696 63.8917 10.033V10.9895C63.8917 11.5855 64.0115 11.96 64.251 12.1132C64.1646 12.2635 64.0686 12.3554 63.9627 12.3888C63.8569 12.425 63.7358 12.4431 63.5993 12.4431C63.449 12.4431 63.3139 12.3875 63.1942 12.2761C63.0744 12.1647 62.9937 12.0435 62.9519 11.9127ZM62.8517 10.2544C62.6734 10.2182 62.5398 10.2001 62.4507 10.2001C61.6264 10.2001 61.2143 10.4702 61.2143 11.0104C61.2143 11.4114 61.4468 11.6119 61.9118 11.6119C62.5384 11.6119 62.8517 11.2986 62.8517 10.6721V10.2544Z" fill="white"/>
<path d="M65.5141 12.3596V6.24026H66.6001V11.3947H69.3653V12.3596H65.5141Z" fill="white"/>
<path d="M73.0971 11.9127C73.0024 12.0686 72.8367 12.1967 72.6 12.297C72.3661 12.3944 72.121 12.4431 71.8649 12.4431C71.3831 12.4431 71.0044 12.3234 70.7287 12.0839C70.453 11.8417 70.3152 11.4991 70.3152 11.0564C70.3152 10.5384 70.5087 10.1333 70.8958 9.84086C71.2856 9.54847 71.8384 9.40227 72.5541 9.40227C72.6766 9.40227 72.8214 9.42316 72.9885 9.46493C72.9885 8.93862 72.6557 8.67547 71.9902 8.67547C71.5975 8.67547 71.2689 8.74091 71.0044 8.87179L70.7788 8.06144C71.138 7.88879 71.5655 7.80247 72.0612 7.80247C72.7434 7.80247 73.2433 7.95841 73.5607 8.27029C73.8782 8.57939 74.0369 9.16696 74.0369 10.033V10.9895C74.0369 11.5855 74.1566 11.96 74.3961 12.1132C74.3098 12.2635 74.2137 12.3554 74.1079 12.3888C74.0021 12.425 73.881 12.4431 73.7445 12.4431C73.5941 12.4431 73.4591 12.3875 73.3393 12.2761C73.2196 12.1647 73.1388 12.0435 73.0971 11.9127ZM72.9968 10.2544C72.8186 10.2182 72.6849 10.2001 72.5958 10.2001C71.7716 10.2001 71.3594 10.4702 71.3594 11.0104C71.3594 11.4114 71.592 11.6119 72.057 11.6119C72.6835 11.6119 72.9968 11.2986 72.9968 10.6721V10.2544Z" fill="white"/>
<path d="M76.3359 12.1132L76.102 12.4431H75.5131V6.21937L76.5573 5.96875V8.05727C76.8358 7.8874 77.1393 7.80247 77.4679 7.80247C78.1223 7.80247 78.65 8.00993 79.051 8.42484C79.452 8.83698 79.6525 9.36607 79.6525 10.0121C79.6525 10.7612 79.4506 11.3543 79.0468 11.7915C78.6431 12.2259 78.0959 12.4431 77.4053 12.4431C76.9903 12.4431 76.6339 12.3332 76.3359 12.1132ZM76.5573 8.95115V11.2861C76.7105 11.4671 76.9179 11.5576 77.1797 11.5576C77.6837 11.5576 78.0402 11.4379 78.249 11.1984C78.4607 10.9589 78.5665 10.576 78.5665 10.0497C78.5665 9.1419 78.1321 8.688 77.2632 8.688C76.9541 8.688 76.7188 8.77572 76.5573 8.95115Z" fill="white"/>
<path d="M32.4161 22.6251H31.0586V16.5099C31.9246 16.4793 32.469 16.464 32.6918 16.464C33.5829 16.464 34.2888 16.7257 34.8096 17.2492C35.3331 17.77 35.5948 18.462 35.5948 19.3252C35.5948 21.5251 34.5353 22.6251 32.4161 22.6251ZM32.1446 17.4581V21.6351C32.3201 21.6518 32.5094 21.6602 32.7127 21.6602C33.2613 21.6602 33.6901 21.4611 33.9992 21.0629C34.3111 20.6647 34.4671 20.1077 34.4671 19.3921C34.4671 18.0833 33.8586 17.4289 32.6417 17.4289C32.5247 17.4289 32.359 17.4386 32.1446 17.4581Z" fill="white"/>
<path d="M37.7393 16.418C37.9064 16.418 38.0484 16.4779 38.1654 16.5976C38.2851 16.7146 38.345 16.8566 38.345 17.0237C38.345 17.1908 38.2851 17.3342 38.1654 17.4539C38.0484 17.5709 37.9064 17.6294 37.7393 17.6294C37.5723 17.6294 37.4288 17.5709 37.3091 17.4539C37.1921 17.3342 37.1337 17.1908 37.1337 17.0237C37.1337 16.8566 37.1921 16.7146 37.3091 16.5976C37.4288 16.4779 37.5723 16.418 37.7393 16.418ZM37.2005 22.6251V19.0078H36.6282V18.1515H38.2573V22.6251H37.2005Z" fill="white"/>
<path d="M40.0843 16.4848L41.1286 16.2342V21.2634C41.1286 21.8147 41.2929 22.1433 41.6215 22.2491C41.46 22.5555 41.1843 22.7086 40.7944 22.7086C40.321 22.7086 40.0843 22.38 40.0843 21.7228V16.4848Z" fill="white"/>
<path d="M43.6741 16.418C43.8411 16.418 43.9832 16.4779 44.1001 16.5976C44.2199 16.7146 44.2797 16.8566 44.2797 17.0237C44.2797 17.1908 44.2199 17.3342 44.1001 17.4539C43.9832 17.5709 43.8411 17.6294 43.6741 17.6294C43.507 17.6294 43.3636 17.5709 43.2438 17.4539C43.1269 17.3342 43.0684 17.1908 43.0684 17.0237C43.0684 16.8566 43.1269 16.7146 43.2438 16.5976C43.3636 16.4779 43.507 16.418 43.6741 16.418ZM43.1352 22.6251V19.0078H42.563V18.1515H44.192V22.6251H43.1352Z" fill="white"/>
<path d="M45.5053 23.7738L46.1652 22.9592C46.53 23.2934 46.9366 23.4605 47.3849 23.4605C47.6857 23.4605 47.9335 23.4159 48.1285 23.3268C48.3234 23.2377 48.4208 23.1152 48.4208 22.9592C48.4208 22.6947 48.205 22.5624 47.7734 22.5624C47.6564 22.5624 47.4824 22.5763 47.2513 22.6042C47.0201 22.632 46.8461 22.646 46.7291 22.646C46.0107 22.646 45.6515 22.3884 45.6515 21.8732C45.6515 21.7256 45.7113 21.5808 45.8311 21.4388C45.9508 21.2968 46.0901 21.1924 46.2488 21.1255C45.7392 20.7941 45.4844 20.3249 45.4844 19.7179C45.4844 19.2389 45.6598 18.8435 46.0107 18.5316C46.3616 18.2169 46.7932 18.0596 47.3056 18.0596C47.7066 18.0596 48.0421 18.1348 48.3122 18.2851L48.7216 17.809L49.4442 18.4648L48.9471 18.8282C49.1198 19.0899 49.2061 19.399 49.2061 19.7555C49.2061 20.2651 49.0502 20.673 48.7383 20.9793C48.4292 21.2829 48.0379 21.4346 47.5646 21.4346C47.4894 21.4346 47.3891 21.4277 47.2638 21.4137L47.0925 21.3887C47.0731 21.3887 46.9979 21.4193 46.867 21.4806C46.7389 21.5391 46.6748 21.6003 46.6748 21.6644C46.6748 21.7758 46.7709 21.8314 46.9631 21.8314C47.0494 21.8314 47.1942 21.8106 47.3975 21.7688C47.6008 21.727 47.7748 21.7061 47.9196 21.7061C48.936 21.7061 49.4442 22.1141 49.4442 22.93C49.4442 23.3811 49.2409 23.7348 48.8344 23.991C48.4278 24.2499 47.9377 24.3794 47.3641 24.3794C46.679 24.3794 46.0594 24.1775 45.5053 23.7738ZM46.5495 19.722C46.5495 19.9866 46.6219 20.1996 46.7667 20.3611C46.9143 20.5199 47.112 20.5992 47.3599 20.5992C47.6077 20.5992 47.7985 20.5212 47.9321 20.3653C48.0658 20.2094 48.1326 19.9949 48.1326 19.722C48.1326 19.4965 48.0602 19.3057 47.9154 19.1498C47.7734 18.9938 47.5882 18.9159 47.3599 18.9159C47.1204 18.9159 46.9255 18.9911 46.7751 19.1414C46.6247 19.2918 46.5495 19.4853 46.5495 19.722Z" fill="white"/>
<path d="M54.5544 20.7078H51.359C51.3785 21.0643 51.501 21.3413 51.7265 21.5391C51.9521 21.7368 52.2556 21.8356 52.6371 21.8356C53.1133 21.8356 53.4753 21.7117 53.7232 21.4639L54.1283 22.2617C53.7608 22.5596 53.2122 22.7086 52.4826 22.7086C51.8003 22.7086 51.2601 22.5095 50.8619 22.1113C50.4665 21.7103 50.2688 21.152 50.2688 20.4363C50.2688 19.7318 50.486 19.1609 50.9204 18.7237C51.3576 18.2865 51.8811 18.0679 52.4909 18.0679C53.1398 18.0679 53.6605 18.2615 54.0532 18.6485C54.4458 19.0356 54.6421 19.5285 54.6421 20.1272C54.6421 20.2553 54.6129 20.4488 54.5544 20.7078ZM51.3966 19.9225H53.5937C53.5213 19.2681 53.1593 18.9409 52.5077 18.9409C51.9117 18.9409 51.5414 19.2681 51.3966 19.9225Z" fill="white"/>
<path d="M58.7874 22.6251V20.0395C58.7874 19.658 58.7136 19.3795 58.566 19.2041C58.4212 19.0287 58.1831 18.9409 57.8517 18.9409C57.6986 18.9409 57.5343 18.9841 57.3589 19.0704C57.1862 19.1568 57.0511 19.264 56.9537 19.3921V22.6251H55.9094V18.1515H56.6613L56.8534 18.5692C57.1375 18.235 57.5566 18.0679 58.1107 18.0679C58.6426 18.0679 59.0617 18.2281 59.368 18.5483C59.6771 18.8658 59.8317 19.3099 59.8317 19.8808V22.6251H58.7874Z" fill="white"/>
<path d="M64.9001 18.5065L64.4531 19.2876C64.2081 19.0565 63.8795 18.9409 63.4673 18.9409C63.0719 18.9409 62.7586 19.0732 62.5275 19.3378C62.2992 19.5995 62.185 19.9629 62.185 20.428C62.185 21.3664 62.6319 21.8356 63.5258 21.8356C63.9129 21.8356 64.254 21.7075 64.5492 21.4513L64.9335 22.2742C64.63 22.4636 64.364 22.5833 64.1357 22.6334C63.9101 22.6836 63.6428 22.7086 63.3337 22.7086C62.6431 22.7086 62.0973 22.5081 61.6963 22.1071C61.2981 21.7033 61.099 21.1436 61.099 20.428C61.099 19.7234 61.3176 19.154 61.7548 18.7196C62.192 18.2851 62.7879 18.0679 63.5425 18.0679C64.0633 18.0679 64.5158 18.2141 64.9001 18.5065Z" fill="white"/>
<path d="M70.1899 20.7078H66.9944C67.0139 21.0643 67.1365 21.3413 67.362 21.5391C67.5876 21.7368 67.8911 21.8356 68.2726 21.8356C68.7488 21.8356 69.1108 21.7117 69.3586 21.4639L69.7638 22.2617C69.3962 22.5596 68.8476 22.7086 68.1181 22.7086C67.4358 22.7086 66.8956 22.5095 66.4974 22.1113C66.1019 21.7103 65.9042 21.152 65.9042 20.4363C65.9042 19.7318 66.1214 19.1609 66.5558 18.7237C66.993 18.2865 67.5166 18.0679 68.1264 18.0679C68.7752 18.0679 69.296 18.2615 69.6886 18.6485C70.0813 19.0356 70.2776 19.5285 70.2776 20.1272C70.2776 20.2553 70.2483 20.4488 70.1899 20.7078ZM67.032 19.9225H69.2291C69.1567 19.2681 68.7947 18.9409 68.1431 18.9409C67.5472 18.9409 67.1768 19.2681 67.032 19.9225Z" fill="white"/>
<path fill-rule="evenodd" clip-rule="evenodd" d="M30.9297 12.4866V6.11927L31.0535 6.11489C31.9187 6.08429 32.4657 6.06886 32.6912 6.06886C33.6088 6.06886 34.3501 6.33928 34.8997 6.89171C35.4514 7.44057 35.7226 8.1674 35.7226 9.05845C35.7226 10.177 35.4533 11.0397 34.892 11.6224C34.3299 12.2059 33.4961 12.4866 32.4155 12.4866H30.9297ZM34.809 6.98246C34.2882 6.45894 33.5823 6.19718 32.6912 6.19718C32.4685 6.19718 31.924 6.2125 31.058 6.24313V12.3583H32.4155C34.5347 12.3583 35.5943 11.2584 35.5943 9.05845C35.5943 8.1952 35.3325 7.5032 34.809 6.98246ZM33.8973 10.7174L33.8976 10.717C34.1858 10.3491 34.3381 9.82389 34.3381 9.12528C34.3381 8.48843 34.1899 8.0347 33.9161 7.74025C33.644 7.44757 33.2273 7.2904 32.6411 7.2904C32.5512 7.2904 32.4287 7.2965 32.2724 7.30908V11.2503C32.4102 11.2601 32.5567 11.2651 32.7121 11.2651C33.2251 11.2651 33.6148 11.0813 33.8973 10.7174ZM32.144 11.3683V7.19132C32.3585 7.17182 32.5241 7.16208 32.6411 7.16208C33.858 7.16208 34.4665 7.81648 34.4665 9.12528C34.4665 9.84095 34.3105 10.3979 33.9986 10.7961C33.6895 11.1943 33.2607 11.3934 32.7121 11.3934C32.5088 11.3934 32.3195 11.3851 32.144 11.3683ZM40.596 8.20579L40.0123 9.22598L39.8938 9.1142C39.6776 8.91032 39.3831 8.80248 38.996 8.80248C38.6325 8.80248 38.3564 8.92243 38.1529 9.15537C37.951 9.38684 37.842 9.71656 37.842 10.1612C37.842 10.6121 37.9495 10.9265 38.1418 11.1284C38.333 11.3292 38.629 11.4405 39.0545 11.4405C39.4104 11.4405 39.7217 11.3238 39.9938 11.0876L40.1222 10.9762L40.6265 12.0561L40.5301 12.1163C40.2201 12.3097 39.9401 12.4375 39.692 12.492C39.4549 12.5446 39.1778 12.5702 38.8624 12.5702C38.1456 12.5702 37.5644 12.3612 37.1342 11.9311L37.1336 11.9305C36.7059 11.4968 36.4993 10.9013 36.4993 10.1612C36.4993 9.4278 36.728 8.82376 37.193 8.36176C37.6594 7.89831 38.2908 7.67284 39.0712 7.67284C39.6177 7.67284 40.098 7.82688 40.5065 8.13763L40.596 8.20579ZM39.6644 12.3667C39.8927 12.3165 40.1586 12.1968 40.4622 12.0074L40.0779 11.1846C40.0442 11.2138 40.0098 11.2414 39.9749 11.2673C39.7042 11.4683 39.3974 11.5688 39.0545 11.5688C38.1606 11.5688 37.7137 11.0996 37.7137 10.1612C37.7137 9.69614 37.8279 9.33274 38.0562 9.07098C38.2873 8.80644 38.6006 8.67416 38.996 8.67416C39.3547 8.67416 39.65 8.76167 39.8821 8.93668C39.9168 8.96279 39.95 8.99085 39.9818 9.02086L40.4288 8.23975C40.0445 7.94736 39.592 7.80116 39.0712 7.80116C38.3166 7.80116 37.7206 8.01837 37.2835 8.45278C36.8463 8.88719 36.6277 9.45666 36.6277 10.1612C36.6277 10.8769 36.8268 11.4366 37.225 11.8404C37.626 12.2413 38.1718 12.4418 38.8624 12.4418C39.1715 12.4418 39.4388 12.4168 39.6644 12.3667ZM45.8211 10.5694H42.6646C42.7026 10.8306 42.8083 11.0294 42.9753 11.1758C43.1716 11.3479 43.4422 11.4405 43.8013 11.4405C44.256 11.4405 44.5804 11.3225 44.7966 11.1064L44.9216 10.9813L45.4539 12.0293L45.3733 12.0946C44.9734 12.4188 44.3906 12.5702 43.6467 12.5702C42.9381 12.5702 42.3625 12.3625 41.9353 11.9353L41.9347 11.9346C41.5096 11.5036 41.3046 10.9094 41.3046 10.1695C41.3046 9.43639 41.5317 8.83124 41.9935 8.36651C42.4544 7.90563 43.0107 7.67284 43.6551 7.67284C44.3312 7.67284 44.8865 7.8755 45.3074 8.29039C45.7267 8.70377 45.9346 9.23064 45.9346 9.86044C45.9346 10.0036 45.9026 10.2087 45.8437 10.4693L45.8211 10.5694ZM42.535 10.5694C42.5295 10.5278 42.5255 10.485 42.5231 10.441H45.7186C45.777 10.1821 45.8063 9.98854 45.8063 9.86044C45.8063 9.26173 45.6099 8.76884 45.2173 8.38177C44.8247 7.9947 44.3039 7.80116 43.6551 7.80116C43.0453 7.80116 42.5217 8.01976 42.0845 8.45696C41.6501 8.89415 41.4329 9.46501 41.4329 10.1695C41.4329 10.8852 41.6306 11.4435 42.0261 11.8445C42.4243 12.2427 42.9645 12.4418 43.6467 12.4418C44.3763 12.4418 44.9249 12.2929 45.2925 11.9949L44.8873 11.1971C44.856 11.2284 44.823 11.2577 44.788 11.285C44.5463 11.4742 44.2174 11.5688 43.8013 11.5688C43.4198 11.5688 43.1163 11.47 42.8907 11.2723C42.693 11.099 42.5744 10.8647 42.535 10.5694ZM44.7578 9.65576C44.7529 9.61149 44.7467 9.56872 44.7392 9.52745C44.6351 8.95859 44.2793 8.67416 43.6718 8.67416C43.1162 8.67416 42.7567 8.95859 42.5932 9.52745C42.5813 9.56872 42.5705 9.61149 42.5607 9.65576H44.7578ZM42.7271 9.52745H44.6085C44.5625 9.29588 44.4721 9.12875 44.346 9.01476C44.1955 8.87878 43.9767 8.80248 43.6718 8.80248C43.3984 8.80248 43.1892 8.87692 43.032 9.01573C42.9014 9.13112 42.7979 9.29889 42.7271 9.52745ZM49.8232 12.4866V9.77272C49.8232 9.40291 49.7508 9.16118 49.632 9.01992L49.6312 9.019C49.5203 8.88465 49.327 8.80248 49.0159 8.80248C48.8871 8.80248 48.7424 8.83877 48.5799 8.91865C48.4375 8.98993 48.3275 9.07438 48.2462 9.17038V12.4866H46.9453V7.75639H47.9077L48.0561 8.07906C48.3616 7.8045 48.7728 7.67284 49.2749 7.67284C49.834 7.67284 50.2892 7.84215 50.6245 8.19239L50.6249 8.19282L50.5322 8.28152L50.6241 8.192L50.6245 8.19239C50.9628 8.54011 51.1241 9.01996 51.1241 9.61399V12.4866H49.8232ZM48.523 8.80365C48.3504 8.88998 48.2153 8.99719 48.1178 9.12528L48.2462 8.60718M47.959 8.17502L48.0176 8.30241ZM48.0176 8.30241C48.0477 8.26697 48.0794 8.23341 48.1125 8.20172ZM55.1369 12.3165C54.8947 12.4001 54.5494 12.4418 54.101 12.4418C53.6555 12.4418 53.313 12.3165 53.0735 12.0659C52.834 11.8125 52.7142 11.4533 52.7142 10.9882V8.72429H52.1963V7.8847H52.7142V6.97411L53.7585 6.58982V7.8847H54.9865V8.72429H53.7585V10.6833C53.7585 11.0036 53.8086 11.2305 53.9089 11.3642C54.0091 11.4951 54.1846 11.5605 54.4352 11.5605C54.6372 11.5605 54.8283 11.5162 55.0086 11.4275C55.052 11.4062 55.0948 11.3823 55.1369 11.3558V12.3165ZM54.0112 11.2867C54.0767 11.3718 54.2037 11.4322 54.4352 11.4322C54.6611 11.4322 54.8714 11.3711 55.0687 11.2472L55.2652 11.1237V12.408L55.1788 12.4378C54.9166 12.5283 54.5546 12.5702 54.101 12.5702C53.631 12.5702 53.2508 12.4372 52.9807 12.1546L52.9802 12.154C52.7115 11.8698 52.5859 11.4749 52.5859 10.9882V8.85261H52.068V7.75639H52.5859V6.8846L53.8868 6.40587V7.75639H55.1149V8.85261H53.8868V10.6833C53.8868 10.997 53.9373 11.1878 54.0112 11.2867ZM59.0113 9.04475L58.8901 8.96521C58.7244 8.85639 58.5442 8.80248 58.3466 8.80248C58.1492 8.80248 57.9669 8.88992 57.7967 9.08749C57.632 9.28185 57.5476 9.52015 57.5476 9.81032V12.4866H56.2467V7.75639H57.5476V7.9996C57.8327 7.78097 58.1805 7.67284 58.5846 7.67284C58.9508 7.67284 59.2498 7.72806 59.4672 7.85276L59.5719 7.91283L59.0113 9.04475ZM57.5476 8.16582C57.8222 7.92272 58.1679 7.80116 58.5846 7.80116C58.8741 7.80116 59.1084 7.83696 59.2876 7.90856C59.295 7.91149 59.3023 7.91449 59.3094 7.91754C59.3427 7.93175 59.374 7.94726 59.4033 7.96407L58.9606 8.85795C58.9242 8.83407 58.8872 8.81251 58.8494 8.79329C58.6935 8.71387 58.5259 8.67416 58.3466 8.67416C58.1043 8.67416 57.8885 8.78416 57.6991 9.00415C57.5125 9.22414 57.4193 9.49286 57.4193 9.81032V12.3583H56.375V7.8847H57.4193V8.29405C57.4601 8.2481 57.5029 8.20535 57.5476 8.16582ZM64.1798 12.219C64.1125 12.3068 64.04 12.363 63.9622 12.3875C63.8563 12.4237 63.7352 12.4418 63.5988 12.4418C63.4484 12.4418 63.3133 12.3862 63.1936 12.2748C63.1172 12.2037 63.0567 12.1287 63.012 12.0497C62.9867 12.0048 62.9664 11.9587 62.9513 11.9114C62.9258 11.9533 62.8952 11.9932 62.8595 12.0312C62.7624 12.1342 62.6273 12.2224 62.4542 12.2956C62.2203 12.3931 61.9753 12.4418 61.7191 12.4418C61.2373 12.4418 60.8586 12.3221 60.5829 12.0826C60.3073 11.8404 60.1694 11.4978 60.1694 11.0551C60.1694 10.5371 60.3629 10.1319 60.75 9.83955C61.1399 9.54716 61.6926 9.40097 62.4083 9.40097C62.4982 9.40097 62.6001 9.41221 62.714 9.4347C62.7553 9.44286 62.7982 9.4525 62.8427 9.46362C62.8427 9.41689 62.8401 9.37224 62.8348 9.32966C62.781 8.89266 62.4509 8.67416 61.8444 8.67416C61.5084 8.67416 61.2194 8.72207 60.9772 8.8179C60.9363 8.83406 60.8968 8.85159 60.8586 8.87048L60.6331 8.06014C60.9923 7.88749 61.4197 7.80116 61.9154 7.80116C62.5977 7.80116 63.0975 7.95711 63.415 8.26899C63.7324 8.57809 63.8911 9.16566 63.8911 10.0317V10.9882C63.8911 11.5842 64.0109 11.9587 64.2504 12.1119C64.2323 12.1433 64.2139 12.1721 64.195 12.1984C64.19 12.2055 64.1849 12.2123 64.1798 12.219ZM63.5047 8.17725C63.8619 8.52524 64.0195 9.16033 64.0195 10.0317V10.9882C64.0195 11.279 64.0489 11.5071 64.1032 11.677C64.1574 11.8466 64.2331 11.9485 64.3195 12.0038L64.4226 12.0697L64.3617 12.1757C64.2683 12.3384 64.1514 12.4618 64.0023 12.5094C63.8809 12.5508 63.7458 12.5702 63.5988 12.5702C63.413 12.5702 63.2474 12.5001 63.1062 12.3687C63.033 12.3006 62.9714 12.2277 62.9225 12.15C62.8134 12.2555 62.6722 12.3427 62.5043 12.4138L62.5036 12.4141C62.2539 12.5182 61.992 12.5702 61.7191 12.5702C61.2164 12.5702 60.8044 12.445 60.4988 12.1795L60.4982 12.179C60.1891 11.9074 60.0411 11.5264 60.0411 11.0551C60.0411 10.5001 60.2511 10.0557 60.6727 9.73717L60.673 9.7369C61.0933 9.42166 61.6773 9.27265 62.4083 9.27265C62.4976 9.27265 62.5954 9.28258 62.7009 9.30164C62.6745 9.15456 62.6096 9.04816 62.5135 8.97218C62.3795 8.86619 62.1637 8.80248 61.8444 8.80248C61.4653 8.80248 61.1575 8.86577 60.9155 8.9855L60.7766 9.05424L60.4806 7.99103L60.5775 7.94448C60.9577 7.76172 61.4051 7.67284 61.9154 7.67284C62.6136 7.67284 63.1531 7.83199 63.5047 8.17725ZM62.7227 10.3591C62.6 10.3371 62.5101 10.3271 62.4501 10.3271C62.0479 10.3271 61.7685 10.3937 61.5931 10.5087C61.4272 10.6174 61.342 10.7773 61.342 11.0091C61.342 11.1845 61.3919 11.2942 61.4719 11.3631C61.5554 11.4351 61.6942 11.4823 61.9112 11.4823C62.2047 11.4823 62.4013 11.409 62.5254 11.2849C62.6495 11.1608 62.7227 10.9643 62.7227 10.6708V10.3591ZM62.8511 10.2531C62.6728 10.2169 62.5392 10.1988 62.4501 10.1988C61.6258 10.1988 61.2137 10.4689 61.2137 11.0091C61.2137 11.4101 61.4462 11.6106 61.9112 11.6106C62.5378 11.6106 62.8511 11.2973 62.8511 10.6708V10.2531ZM65.3852 12.4866V6.11063H66.7279V11.2651H69.4931V12.4866H65.3852ZM66.5995 11.3934V6.23895H65.5135V12.3583H69.3647V11.3934H66.5995ZM74.3249 12.219C74.2577 12.3068 74.1851 12.363 74.1073 12.3875C74.0015 12.4237 73.8804 12.4418 73.7439 12.4418C73.5936 12.4418 73.4585 12.3862 73.3388 12.2748C73.2624 12.2037 73.2018 12.1287 73.1572 12.0497C73.1318 12.0048 73.1116 11.9587 73.0965 11.9114C73.071 11.9533 73.0404 11.9932 73.0047 12.0312C72.9075 12.1342 72.7725 12.2224 72.5994 12.2956C72.3655 12.3931 72.1205 12.4418 71.8643 12.4418C71.3825 12.4418 71.0038 12.3221 70.7281 12.0826C70.4524 11.8404 70.3146 11.4978 70.3146 11.0551C70.3146 10.5371 70.5081 10.1319 70.8952 9.83955C71.2851 9.54716 71.8378 9.40097 72.5535 9.40097C72.6434 9.40097 72.7453 9.41221 72.8592 9.4347C72.9005 9.44286 72.9434 9.4525 72.9879 9.46362C72.9879 9.41689 72.9853 9.37224 72.98 9.32966C72.9262 8.89266 72.596 8.67416 71.9896 8.67416C71.6536 8.67416 71.3645 8.72207 71.1224 8.8179C71.0815 8.83406 71.042 8.85159 71.0038 8.87048L70.7782 8.06014C71.1375 7.88749 71.5649 7.80116 72.0606 7.80116C72.7428 7.80116 73.2427 7.95711 73.5601 8.26899C73.8776 8.57809 74.0363 9.16566 74.0363 10.0317V10.9882C74.0363 11.5842 74.1561 11.9587 74.3955 12.1119C74.3775 12.1433 74.3591 12.1721 74.3402 12.1984C74.3351 12.2055 74.33 12.2123 74.3249 12.219ZM73.6499 8.17725C74.0071 8.52524 74.1646 9.16033 74.1646 10.0317V10.9882C74.1646 11.279 74.194 11.5071 74.2484 11.677C74.3026 11.8466 74.3783 11.9485 74.4647 12.0038L74.5677 12.0697L74.5068 12.1757C74.4135 12.3384 74.2966 12.4618 74.1475 12.5094C74.0261 12.5508 73.891 12.5702 73.7439 12.5702C73.5582 12.5702 73.3926 12.5001 73.2514 12.3687C73.1781 12.3006 73.1165 12.2277 73.0677 12.15C72.9586 12.2555 72.8174 12.3427 72.6495 12.4138L72.6488 12.4141C72.3991 12.5182 72.1372 12.5702 71.8643 12.5702C71.3616 12.5702 70.9496 12.445 70.644 12.1795L70.6434 12.179C70.3343 11.9074 70.1863 11.5264 70.1863 11.0551C70.1863 10.5001 70.3962 10.0557 70.8179 9.73717L70.8182 9.7369C71.2385 9.42166 71.8225 9.27265 72.5535 9.27265C72.6428 9.27265 72.7405 9.28258 72.8461 9.30164C72.8196 9.15456 72.7548 9.04816 72.6587 8.97218C72.5247 8.86619 72.3089 8.80248 71.9896 8.80248C71.6104 8.80248 71.3027 8.86577 71.0607 8.9855L70.9217 9.05424L70.6258 7.99103L70.7227 7.94448C71.1029 7.76172 71.5502 7.67284 72.0606 7.67284C72.7588 7.67284 73.2983 7.83199 73.6499 8.17725ZM72.8679 10.3591C72.7452 10.3371 72.6552 10.3271 72.5952 10.3271C72.193 10.3271 71.9137 10.3937 71.7383 10.5087C71.5723 10.6174 71.4872 10.7773 71.4872 11.0091C71.4872 11.1845 71.5371 11.2942 71.617 11.3631C71.7006 11.4351 71.8394 11.4823 72.0564 11.4823C72.3499 11.4823 72.5465 11.409 72.6705 11.2849C72.7946 11.1608 72.8679 10.9643 72.8679 10.6708V10.3591ZM72.9962 10.2531C72.818 10.2169 72.6844 10.1988 72.5952 10.1988C71.771 10.1988 71.3588 10.4689 71.3588 11.0091C71.3588 11.4101 71.5914 11.6106 72.0564 11.6106C72.683 11.6106 72.9962 11.2973 72.9962 10.6708V10.2531ZM76.1678 12.5702H75.3842V6.1169L76.6851 5.80469V7.84213C76.9293 7.72934 77.1905 7.67284 77.4673 7.67284C78.1513 7.67284 78.714 7.89091 79.1425 8.33415C79.5697 8.77326 79.7802 9.33588 79.7802 10.0108C79.7802 10.7835 79.5715 11.4107 79.1405 11.8773C78.7084 12.3422 78.1245 12.5702 77.4047 12.5702C77.0138 12.5702 76.6664 12.4775 76.3672 12.2889L76.1678 12.5702ZM76.3354 12.1119C76.3526 12.1246 76.3701 12.137 76.3877 12.149C76.6748 12.3442 77.0138 12.4418 77.4047 12.4418C78.0953 12.4418 78.6425 12.2246 79.0463 11.7902C79.45 11.353 79.6519 10.7599 79.6519 10.0108C79.6519 9.36476 79.4514 8.83567 79.0504 8.42354C78.6494 8.00862 78.1217 7.80116 77.4673 7.80116C77.1885 7.80116 76.9278 7.86231 76.6851 7.98459C76.6417 8.00643 76.5989 8.03022 76.5567 8.05596V5.96745L75.5125 6.21807V12.4418H76.1014L76.3354 12.1119ZM78.1517 11.1128L78.1523 11.1121C78.3334 10.9072 78.4376 10.5623 78.4376 10.0484C78.4376 9.61291 78.3333 9.31009 78.1474 9.11584C77.9625 8.92265 77.6758 8.81501 77.2627 8.81501C77.0018 8.81501 76.8149 8.88224 76.6851 9.00271V11.2355C76.8077 11.3625 76.9685 11.428 77.1791 11.428C77.6675 11.428 77.9785 11.3114 78.1517 11.1128ZM76.5567 11.2848V8.94985C76.7183 8.77441 76.9536 8.68669 77.2627 8.68669C78.1315 8.68669 78.5659 9.1406 78.5659 10.0484C78.5659 10.5747 78.4601 10.9576 78.2484 11.1971C78.0396 11.4366 77.6831 11.5563 77.1791 11.5563C76.9174 11.5563 76.7099 11.4658 76.5567 11.2848ZM30.9297 22.7521V16.3847L31.0535 16.3804C31.9187 16.3498 32.4657 16.3343 32.6912 16.3343C33.6088 16.3343 34.3501 16.6048 34.8997 17.1572C35.4514 17.7061 35.7226 18.4329 35.7226 19.3239C35.7226 20.4425 35.4533 21.3052 34.892 21.8878C34.3299 22.4714 33.4961 22.7521 32.4155 22.7521H30.9297ZM34.809 17.2479C34.2882 16.7244 33.5823 16.4627 32.6912 16.4627C32.4685 16.4627 31.924 16.478 31.058 16.5086V22.6238H32.4155C34.5347 22.6238 35.5943 21.5238 35.5943 19.3239C35.5943 18.4607 35.3325 17.7687 34.809 17.2479ZM33.8973 20.9829L33.8976 20.9824C34.1858 20.6145 34.3381 20.0894 34.3381 19.3908C34.3381 18.7539 34.1899 18.3002 33.9161 18.0057C33.644 17.713 33.2273 17.5559 32.6411 17.5559C32.5512 17.5559 32.4287 17.562 32.2724 17.5746V21.5157C32.4102 21.5256 32.5567 21.5306 32.7121 21.5306C33.2251 21.5306 33.6148 21.3467 33.8973 20.9829ZM32.144 21.6338V17.4568C32.3585 17.4373 32.5241 17.4276 32.6411 17.4276C33.858 17.4276 34.4665 18.082 34.4665 19.3908C34.4665 20.1064 34.3105 20.6634 33.9986 21.0616C33.6895 21.4598 33.2607 21.6589 32.7121 21.6589C32.5088 21.6589 32.3195 21.6505 32.144 21.6338ZM37.2167 17.5423C37.0764 17.3986 37.0048 17.223 37.0048 17.0224C37.0048 16.8217 37.0765 16.6469 37.2178 16.5056C37.3612 16.3621 37.5371 16.2884 37.7388 16.2884C37.94 16.2884 38.1147 16.3619 38.2555 16.5056C38.3992 16.6465 38.4727 16.8212 38.4727 17.0224C38.4727 17.224 38.399 17.3999 38.2555 17.5433C38.1142 17.6846 37.9395 17.7564 37.7388 17.7564C37.5381 17.7564 37.3625 17.6847 37.2189 17.5444L37.2167 17.5423ZM38.1648 16.5963C38.0479 16.4766 37.9058 16.4167 37.7388 16.4167C37.5717 16.4167 37.4283 16.4766 37.3085 16.5963C37.1916 16.7133 37.1331 16.8553 37.1331 17.0224C37.1331 17.1895 37.1916 17.3329 37.3085 17.4526C37.4283 17.5696 37.5717 17.628 37.7388 17.628C37.9058 17.628 38.0479 17.5696 38.1648 17.4526C38.2845 17.3329 38.3444 17.1895 38.3444 17.0224C38.3444 16.8553 38.2845 16.7133 38.1648 16.5963ZM37.0716 22.7521V19.1348H36.4993V18.0219H38.385V22.7521H37.0716ZM37.1999 19.0065V22.6238H38.2567V18.1502H36.6277V19.0065H37.1999ZM39.9554 16.3824L41.2563 16.0702V21.2621C41.2563 21.7967 41.4141 22.0465 41.6602 22.1257L41.8057 22.1725L41.7344 22.3077C41.6432 22.4806 41.517 22.6148 41.3553 22.7046C41.1944 22.794 41.0055 22.8356 40.7938 22.8356C40.5238 22.8356 40.3039 22.7396 40.1571 22.5359C40.016 22.3399 39.9554 22.0617 39.9554 21.7215V16.3824ZM41.5519 22.3598C41.3856 22.5915 41.1329 22.7073 40.7938 22.7073C40.3204 22.7073 40.0837 22.3787 40.0837 21.7215V16.4835L41.128 16.2329V21.2621C41.128 21.7429 41.253 22.0544 41.5029 22.1963C41.5396 22.2171 41.5789 22.2343 41.6209 22.2478C41.5998 22.2878 41.5768 22.3251 41.5519 22.3598ZM43.1514 17.5423C43.0111 17.3986 42.9395 17.223 42.9395 17.0224C42.9395 16.8217 43.0112 16.6469 43.1525 16.5056C43.2959 16.3621 43.4719 16.2884 43.6735 16.2884C43.8747 16.2884 44.0494 16.3619 44.1903 16.5056C44.334 16.6464 44.4075 16.8212 44.4075 17.0224C44.4075 17.224 44.3337 17.3999 44.1903 17.5433C44.049 17.6846 43.8742 17.7564 43.6735 17.7564C43.4728 17.7564 43.2972 17.6847 43.1536 17.5444L43.1514 17.5423ZM43.0063 22.7521V19.1348H42.4341V18.0219H44.3197V22.7521H43.0063ZM43.1346 19.0065V22.6238H44.1914V18.1502H42.5624V19.0065H43.1346ZM45.32 23.7966L46.1508 22.7712L46.2513 22.8633C46.5951 23.1782 46.9715 23.3309 47.3844 23.3309C47.6736 23.3309 47.9017 23.2878 48.0745 23.2088C48.2439 23.1314 48.2919 23.0448 48.2919 22.9579C48.2919 22.8679 48.2591 22.8113 48.1913 22.7697C48.1133 22.7219 47.9797 22.6894 47.7728 22.6894C47.6638 22.6894 47.496 22.7026 47.266 22.7303C47.0338 22.7583 46.8535 22.773 46.7286 22.773C46.3579 22.773 46.0568 22.7072 45.8455 22.5558C45.6264 22.3986 45.5226 22.163 45.5226 21.8719C45.5226 21.6869 45.5983 21.5138 45.7324 21.3548C45.8147 21.2572 45.9062 21.1748 46.007 21.1083C45.5744 20.7623 45.3555 20.2952 45.3555 19.7166C45.3555 19.2018 45.546 18.7712 45.9249 18.4344C46.3013 18.0969 46.7642 17.93 47.305 17.93C47.6782 17.93 48.0049 17.9926 48.2803 18.1235L48.7096 17.6241L49.6464 18.4742L49.1173 18.861C49.2627 19.1225 49.3339 19.4215 49.3339 19.7542C49.3339 20.292 49.1682 20.7351 48.8276 21.0696L48.7377 20.978C49.0496 20.6717 49.2055 20.2638 49.2055 19.7542C49.2055 19.3977 49.1192 19.0886 48.9466 18.8269L49.4436 18.4635L48.721 17.8077L48.3117 18.2838C48.0415 18.1335 47.706 18.0583 47.305 18.0583C46.7926 18.0583 46.361 18.2156 46.0101 18.5303C45.6592 18.8422 45.4838 19.2376 45.4838 19.7166C45.4838 20.2733 45.6981 20.7141 46.1268 21.039C46.1655 21.0684 46.206 21.0968 46.2482 21.1242C46.2029 21.1433 46.1592 21.1654 46.1171 21.1906C46.0116 21.2537 45.9161 21.336 45.8305 21.4375C45.7108 21.5795 45.6509 21.7243 45.6509 21.8719C45.6509 22.3871 46.0101 22.6447 46.7286 22.6447C46.8455 22.6447 47.0196 22.6307 47.2507 22.6029C47.4818 22.575 47.6559 22.5611 47.7728 22.5611C48.2044 22.5611 48.4203 22.6934 48.4203 22.9579C48.4203 23.1139 48.3228 23.2364 48.1279 23.3255C47.9329 23.4146 47.6851 23.4592 47.3844 23.4592C46.9754 23.4592 46.6011 23.3201 46.2617 23.0421C46.229 23.0153 46.1967 22.9873 46.1647 22.9579L45.5047 23.7725C45.5395 23.7979 45.5747 23.8225 45.61 23.8463C46.1371 24.2008 46.7215 24.3781 47.3635 24.3781C47.9371 24.3781 48.4272 24.2486 48.8338 23.9897C49.2403 23.7335 49.4436 23.3798 49.4436 22.9287C49.4436 22.1128 48.9354 21.7048 47.919 21.7048C47.7742 21.7048 47.6002 21.7257 47.3969 21.7675C47.1936 21.8093 47.0488 21.8301 46.9625 21.8301C46.7703 21.8301 46.6743 21.7744 46.6743 21.6631C46.6743 21.599 46.7383 21.5377 46.8664 21.4793C46.9973 21.418 47.0725 21.3874 47.092 21.3874L47.2632 21.4124C47.3885 21.4264 47.4888 21.4333 47.564 21.4333C48.0374 21.4333 48.4286 21.2816 48.7377 20.978L48.8276 21.0696C48.4922 21.399 48.0676 21.5616 47.564 21.5616C47.4819 21.5616 47.3764 21.5541 47.249 21.54L47.2446 21.5395L47.0983 21.518C47.0911 21.5206 47.0815 21.5242 47.0694 21.5292C47.0348 21.5433 46.9855 21.5652 46.9208 21.5955L46.9197 21.596C46.862 21.6224 46.8284 21.6452 46.811 21.6618C46.8072 21.6654 46.8047 21.6682 46.8031 21.6702C46.8032 21.6712 46.8035 21.6722 46.8035 21.6722C46.8042 21.6729 46.8062 21.6748 46.8107 21.6774C46.8296 21.6883 46.8746 21.7018 46.9625 21.7018C47.0344 21.7018 47.1678 21.6836 47.3711 21.6418C47.5795 21.599 47.7627 21.5765 47.919 21.5765C48.441 21.5765 48.8563 21.6807 49.1428 21.9107C49.4347 22.1451 49.5719 22.4926 49.5719 22.9287C49.5719 23.4271 49.3433 23.8201 48.9027 24.0979M48.9027 24.0979C48.4719 24.3723 47.9568 24.5064 47.3635 24.5064C46.6512 24.5064 46.0052 24.2959 45.4291 23.8762L45.32 23.7966M47.8208 19.2358L47.82 19.2349C47.7044 19.108 47.5549 19.0429 47.3593 19.0429C47.1492 19.0429 46.9884 19.1077 46.8652 19.2309C46.7418 19.3544 46.6773 19.5139 46.6773 19.7207C46.6773 19.9604 46.7421 20.1403 46.8609 20.2733C46.9806 20.4015 47.142 20.4696 47.3593 20.4696C47.5782 20.4696 47.7299 20.4021 47.8341 20.2805C47.9421 20.1545 48.0037 19.9732 48.0037 19.7207C48.0037 19.5254 47.9422 19.3665 47.8208 19.2358ZM46.7662 20.3598C46.6213 20.1983 46.5489 19.9853 46.5489 19.7207C46.5489 19.484 46.6241 19.2905 46.7745 19.1401C46.9249 18.9898 47.1198 18.9146 47.3593 18.9146C47.5876 18.9146 47.7728 18.9925 47.9148 19.1485C48.0596 19.3044 48.132 19.4952 48.132 19.7207C48.132 19.9936 48.0652 20.2081 47.9315 20.364C47.7979 20.5199 47.6071 20.5979 47.3593 20.5979C47.1115 20.5979 46.9137 20.5186 46.7662 20.3598ZM54.6564 20.8348H51.4998C51.5379 21.096 51.6435 21.2949 51.8105 21.4413C52.0069 21.6134 52.2775 21.706 52.6366 21.706C53.0912 21.706 53.4157 21.588 53.6318 21.3718L53.7569 21.2468L54.2891 22.2947L54.2086 22.3601C53.8086 22.6842 53.2259 22.8356 52.482 22.8356C51.7734 22.8356 51.1978 22.6279 50.7706 22.2007L50.7699 22.2001C50.3449 21.769 50.1399 21.1748 50.1399 20.435C50.1399 19.7019 50.367 19.0967 50.8288 18.632C51.2897 18.1711 51.846 17.9383 52.4904 17.9383C53.1665 17.9383 53.7218 18.141 54.1427 18.5559C54.562 18.9692 54.7698 19.4961 54.7698 20.1259C54.7698 20.269 54.7378 20.4742 54.679 20.7348L54.6564 20.8348ZM51.3703 20.8348C51.3648 20.7933 51.3608 20.7505 51.3584 20.7065H54.5538C54.6123 20.4475 54.6415 20.254 54.6415 20.1259C54.6415 19.5272 54.4452 19.0343 54.0526 18.6472C53.6599 18.2602 53.1392 18.0666 52.4904 18.0666C51.8805 18.0666 51.357 18.2852 50.9198 18.7224C50.4854 19.1596 50.2682 19.7305 50.2682 20.435C50.2682 21.1507 50.4659 21.709 50.8613 22.11C51.2595 22.5082 51.7998 22.7073 52.482 22.7073C53.2116 22.7073 53.7602 22.5583 54.1278 22.2604L53.7226 21.4626C53.6913 21.4938 53.6582 21.5231 53.6233 21.5505C53.3816 21.7397 53.0526 21.8343 52.6366 21.8343C52.2551 21.8343 51.9515 21.7355 51.726 21.5377C51.5282 21.3644 51.4097 21.1301 51.3703 20.8348ZM53.5931 19.9212C53.5882 19.877 53.582 19.8342 53.5744 19.7929C53.4704 19.2241 53.1146 18.9396 52.5071 18.9396C51.9515 18.9396 51.5919 19.2241 51.4285 19.7929C51.4166 19.8342 51.4058 19.877 51.396 19.9212H53.5931ZM51.5624 19.7929H53.4438C53.3978 19.5614 53.3074 19.3942 53.1812 19.2802C53.0308 19.1442 52.8119 19.068 52.5071 19.068C52.2336 19.068 52.0244 19.1424 51.8673 19.2812C51.7367 19.3966 51.6332 19.5644 51.5624 19.7929ZM58.6585 22.7521V20.0382C58.6585 19.6684 58.5861 19.4267 58.4672 19.2854L58.4665 19.2845C58.3556 19.1501 58.1623 19.068 57.8512 19.068C57.7224 19.068 57.5777 19.1042 57.4153 19.1841C57.2728 19.2553 57.1628 19.3398 57.0814 19.4358V22.7521H55.7805V18.0219H56.7429L56.8913 18.3445C57.1968 18.07 57.6081 17.9383 58.1101 17.9383C58.6692 17.9383 59.1244 18.1076 59.4596 18.4577L59.4601 18.4583L59.3674 18.547L59.4596 18.4577C59.798 18.8055 59.9594 19.2854 59.9594 19.8795V22.7521H58.6585ZM57.3583 19.0691C57.1856 19.1554 57.0506 19.2627 56.9531 19.3908L57.1429 18.776M56.7943 18.4405L56.8528 18.5679ZM56.8528 18.5679C56.883 18.5324 56.9146 18.4989 56.9478 18.4672ZM65.0668 18.4713L64.483 19.4915L64.3645 19.3797C64.1483 19.1758 63.8539 19.068 63.4668 19.068C63.1032 19.068 62.8272 19.1879 62.6236 19.4208C62.4217 19.6523 62.3127 19.982 62.3127 20.4267C62.3127 20.8776 62.4202 21.192 62.6125 21.3939C62.8037 21.5946 63.0997 21.706 63.5252 21.706C63.8811 21.706 64.1924 21.5893 64.4645 21.3531L64.5929 21.2417L65.0973 22.3216L65.0008 22.3818C64.6907 22.5752 64.4107 22.703 64.1626 22.7575C63.9255 22.8101 63.6485 22.8356 63.3331 22.8356C62.6164 22.8356 62.0351 22.6267 61.605 22.1966L61.6043 22.1959C61.1766 21.7623 60.9701 21.1668 60.9701 20.4267C60.9701 19.6933 61.1988 19.0892 61.6637 18.6272C62.1302 18.1638 62.7615 17.9383 63.5419 17.9383C64.0884 17.9383 64.5688 18.0924 64.9772 18.4031L65.0668 18.4713ZM64.1351 22.6321C64.3634 22.582 64.6294 22.4623 64.9329 22.2729L64.5486 21.45C64.5149 21.4793 64.4806 21.5069 64.4457 21.5328C64.1749 21.7338 63.8681 21.8343 63.5252 21.8343C62.6314 21.8343 62.1844 21.3651 62.1844 20.4267C62.1844 19.9616 62.2986 19.5982 62.5269 19.3365C62.7581 19.0719 63.0713 18.9396 63.4668 18.9396C63.8254 18.9396 64.1208 19.0271 64.3529 19.2021C64.3875 19.2283 64.4207 19.2563 64.4525 19.2863L64.8995 18.5052C64.5152 18.2128 64.0627 18.0666 63.5419 18.0666C62.7873 18.0666 62.1914 18.2838 61.7542 18.7183C61.317 19.1527 61.0984 19.7221 61.0984 20.4267C61.0984 21.1423 61.2975 21.702 61.6957 22.1058C62.0967 22.5068 62.6425 22.7073 63.3331 22.7073C63.6422 22.7073 63.9095 22.6823 64.1351 22.6321ZM70.2919 20.8348H67.1353C67.1734 21.096 67.279 21.2949 67.446 21.4413C67.6424 21.6134 67.9129 21.706 68.272 21.706C68.7267 21.706 69.0511 21.588 69.2673 21.3718L69.3924 21.2468L69.9246 22.2947L69.844 22.3601C69.4441 22.6842 68.8613 22.8356 68.1175 22.8356C67.4089 22.8356 66.8333 22.6279 66.406 22.2007L66.4054 22.2001C65.9803 21.769 65.7753 21.1748 65.7753 20.435C65.7753 19.7019 66.0025 19.0967 66.4642 18.632C66.9251 18.1711 67.4814 17.9383 68.1258 17.9383C68.802 17.9383 69.3573 18.141 69.7781 18.5559C70.1974 18.9692 70.4053 19.4961 70.4053 20.1259C70.4053 20.269 70.3733 20.4742 70.3144 20.7348L70.2919 20.8348ZM67.0058 20.8348C67.0002 20.7933 66.9963 20.7505 66.9938 20.7065H70.1893C70.2478 20.4475 70.277 20.254 70.277 20.1259C70.277 19.5272 70.0807 19.0343 69.688 18.6472C69.2954 18.2602 68.7747 18.0666 68.1258 18.0666C67.516 18.0666 66.9925 18.2852 66.5553 18.7224C66.1208 19.1596 65.9036 19.7305 65.9036 20.435C65.9036 21.1507 66.1014 21.709 66.4968 22.11C66.895 22.5082 67.4352 22.7073 68.1175 22.7073C68.8471 22.7073 69.3956 22.5583 69.7632 22.2604L69.358 21.4626C69.3268 21.4938 69.2937 21.5231 69.2588 21.5505C69.017 21.7397 68.6881 21.8343 68.272 21.8343C67.8905 21.8343 67.587 21.7355 67.3614 21.5377C67.1637 21.3644 67.0451 21.1301 67.0058 20.8348ZM69.2286 19.9212C69.2237 19.877 69.2174 19.8342 69.2099 19.7929C69.1059 19.2241 68.7501 18.9396 68.1425 18.9396C67.5869 18.9396 67.2274 19.2241 67.0639 19.7929C67.0521 19.8342 67.0412 19.877 67.0314 19.9212H69.2286ZM67.1978 19.7929H69.0793C69.0333 19.5614 68.9428 19.3942 68.8167 19.2802C68.6663 19.1442 68.4474 19.068 68.1425 19.068C67.8691 19.068 67.6599 19.1424 67.5028 19.2812C67.3722 19.3966 67.2686 19.5644 67.1978 19.7929ZM44.0995 16.5963C43.9826 16.4766 43.8406 16.4167 43.6735 16.4167C43.5064 16.4167 43.363 16.4766 43.2432 16.5963C43.1263 16.7133 43.0678 16.8553 43.0678 17.0224C43.0678 17.1895 43.1263 17.3329 43.2432 17.4526C43.363 17.5696 43.5064 17.628 43.6735 17.628C43.8406 17.628 43.9826 17.5696 44.0995 17.4526C44.2193 17.3329 44.2791 17.1895 44.2791 17.0224C44.2791 16.8553 44.2193 16.7133 44.0995 16.5963Z" fill="white"/>
<path fill-rule="evenodd" clip-rule="evenodd" d="M13.2737 2.49855C12.9608 2.35788 12.6026 2.35788 12.2897 2.49855L2.45065 6.92142C2.0198 7.1151 1.74266 7.54354 1.74266 8.01592V15.0978C1.74266 18.4756 2.7822 20.9236 4.76404 22.7536C6.67454 24.5176 9.36125 25.6084 12.4288 26.5523C12.6588 26.6231 12.9047 26.6231 13.1346 26.5523C16.2204 25.6028 18.9006 24.4565 20.8068 22.6665C22.775 20.8181 23.8208 18.3788 23.8208 15.0978V8.01592C23.8208 7.54354 23.5436 7.1151 23.1128 6.92142L13.2737 2.49855ZM4.14266 15.0978V8.79216L12.7817 4.90871L21.4208 8.79216V15.0978C21.4208 17.7979 20.5924 19.5753 19.1638 20.917C17.732 22.2616 15.6096 23.2529 12.7813 24.1484C9.93673 23.2516 7.82001 22.3087 6.39219 20.9903C4.97722 19.6837 4.14266 17.915 4.14266 15.0978ZM13.2546 8.60343L15.5583 9.93049L17.6033 11.1101L13.0082 13.4202L8.2776 11.0487L10.224 9.93049L12.5154 8.60343L12.885 8.39454L13.2546 8.60343ZM18.2193 12.4617V14.5383V17.1801V17.5979L17.8497 17.8191L15.5583 19.1462L13.2546 20.4609L12.885 20.6698L12.5154 20.4609L10.224 19.1462L7.93266 17.8191L7.55076 17.5979V17.1801V14.5383V12.3511L12.6633 14.9069C12.6694 14.9069 12.6725 14.91 12.6756 14.9131C12.6787 14.9162 12.6817 14.9192 12.6879 14.9192H12.7002L12.7125 14.9315H12.7249C12.7945 14.9662 12.8859 14.9792 12.9683 14.9908H12.9683L12.9836 14.993H12.9959H13.0082H13.0328C13.1191 14.9807 13.2053 14.9684 13.2916 14.9315L13.3039 14.9192H13.3162C13.3224 14.9192 13.3254 14.9162 13.3285 14.9131C13.3316 14.91 13.3347 14.9069 13.3408 14.9069L18.2193 12.4617Z" fill="white"/>
</svg>
