<svg width="13" height="10" viewBox="0 0 13 10" fill="none" xmlns="http://www.w3.org/2000/svg">
<path fill-rule="evenodd" clip-rule="evenodd" d="M5.54036 8.01627V1H1V8.01627H5.54036ZM5.54036 0H5.77576H6.54036H6.77576H11.3161H12.3161V1V8.01627V9.01627H11.3161H6.77576H6.54036H5.77576H5.54036H1H0V8.01627V1V0H1H5.54036ZM6.77576 8.01627H11.3161V1H6.77576V8.01627ZM4.83101 3.90172L1.9447 3.90172L1.9447 2.90172L4.83101 2.90172V3.90172ZM1.9447 6.13303L4.83101 6.13303V5.13303L1.9447 5.13303L1.9447 6.13303ZM10.3714 6.13303L7.48507 6.13303V5.13303L10.3714 5.13303V6.13303ZM7.48507 3.90172L10.3714 3.90172V2.90172L7.48507 2.90172V3.90172Z" fill="white"/>
</svg>
