<svg width="22" height="21" viewBox="0 0 22 21" fill="none" xmlns="http://www.w3.org/2000/svg">
<path d="M13.2652 8.61884C12.7327 8.54716 12.5689 8.74173 12.6508 9.25373C12.6815 9.43806 12.743 9.45854 12.9068 9.4483C13.0911 9.43806 13.2652 9.42782 13.4393 9.36638C13.4188 9.15133 13.3881 8.93629 13.3676 8.72125C13.3676 8.6598 13.3471 8.61884 13.2755 8.6086L13.2652 8.61884Z" fill="#895EF6"/>
<path d="M20.0848 7.81996C19.6649 7.86092 19.6547 8.02476 19.7571 8.33197C19.7878 8.41389 19.7673 8.50605 19.7673 8.59821C20.0233 8.65965 20.2691 8.55725 20.5251 8.54701C20.5353 8.40365 20.5046 8.26028 20.4944 8.11692C20.4841 7.79948 20.3817 7.79948 20.0848 7.81996Z" fill="#895EF6"/>
<path d="M12.3538 9.5196C12.2207 9.55032 11.9135 9.47864 11.934 9.7244C11.9544 9.90872 11.8111 10.2979 12.1388 10.2979C12.2924 10.2979 12.7634 10.5231 12.7225 10.0214C12.702 9.8268 12.8351 9.4684 12.3538 9.5196Z" fill="#895EF6"/>
<path d="M19.0817 9.29354C19.092 9.44715 19.092 9.50859 19.2968 9.46763C19.86 9.35499 19.8497 9.37547 19.9317 9.92843C19.9726 10.164 19.8805 10.1947 19.6859 10.2049C19.3889 10.2254 19.1022 10.2766 18.8053 10.3073C18.4673 10.338 18.1089 10.3278 17.7812 10.42C17.3921 10.5224 17.3409 10.3073 17.3614 10.0513C17.3921 9.69291 17.2078 9.68267 16.9415 9.73387C16.5217 9.80555 16.45 9.76459 16.4602 9.32426C16.4602 9.10922 16.3988 9.06826 16.2145 9.09898C15.7025 9.19114 15.7025 9.1809 15.641 8.63817C15.6308 8.52553 15.5898 8.38217 15.4874 8.41289C15.1085 8.53577 14.7194 8.41289 14.3303 8.49481C14.1152 8.53577 14.0948 8.64841 14.1152 8.8225C14.1767 9.32426 14.1665 9.32426 13.6647 9.36522C13.5828 9.36522 13.5111 9.36522 13.4292 9.36522C13.4292 9.44715 13.4292 9.51883 13.4394 9.60075C13.5418 10.1742 13.5213 10.2049 12.9581 10.2561C12.825 10.2664 12.7738 10.3176 12.784 10.4404C12.784 10.5531 12.7635 10.676 12.784 10.7886C12.8455 11.0344 12.7226 11.1061 12.5178 11.0856C11.9034 11.0344 11.3094 11.2699 10.6848 11.2494C10.2342 11.2392 10.2342 11.3006 10.2137 10.8398C10.2137 10.5224 10.1113 10.4712 9.81437 10.5838C9.41501 10.7374 9.40477 10.7374 9.38429 10.3073C9.37405 10.0206 9.32285 9.78507 8.93372 9.90796C8.62651 10.0104 8.52411 9.83627 8.49339 9.54955C8.49339 9.45739 8.53435 9.2833 8.40123 9.29354C8.02234 9.29354 7.63322 9.20138 7.27481 9.35499C6.88568 9.51883 6.48632 9.37547 6.09719 9.44715C6.07671 9.44715 6.01527 9.42667 6.01527 9.40619C5.98455 9.20138 5.90263 8.98634 5.95383 8.79178C5.99479 8.63817 6.20983 8.59721 6.39416 8.60745C7.03929 8.63817 7.67418 8.50505 8.30907 8.44361C9.39453 8.33097 10.4697 8.1876 11.545 8.05448C12.3949 7.95208 13.2448 7.85992 14.105 7.76776C15.0266 7.66536 15.938 7.55271 16.8596 7.44007C17.4023 7.37863 17.9348 7.30695 18.5697 7.22503C17.6276 6.67206 17.5047 5.81188 17.3819 4.93123C17.2897 4.2349 17.3716 3.52832 17.2692 2.83199C17.2283 2.55551 17.1771 2.2995 16.8801 2.17662C16.5831 2.05374 16.3169 2.13566 16.0711 2.33022C15.3646 2.85247 14.7297 3.4464 14.146 4.10177C14.0436 4.21442 13.9616 4.24514 13.7978 4.21442C12.8147 4.01985 11.8214 3.96865 10.8179 4.1325C10.3878 4.20418 10.0397 3.97889 9.70173 3.82529C9.11804 3.54881 8.70844 3.02656 8.22715 2.59647C7.86874 2.26878 7.56154 1.86942 7.08025 1.66461C6.6092 1.47005 6.13815 1.50077 5.87191 1.91038C5.42134 2.59647 5.16533 3.35424 5.02197 4.16322C4.82741 5.24867 4.72501 6.33413 4.81717 7.45031C4.86837 8.0852 4.96053 8.69961 4.70453 9.36522C4.1618 10.8193 4.1618 12.3246 4.61236 13.8197C4.63285 13.9016 4.64309 13.9733 4.66357 14.0552C4.89909 14.8744 5.37014 15.581 5.75926 16.3183C7.26457 19.1958 10.5721 20.9059 13.8695 20.3017C16.3169 19.8512 18.1089 18.5097 19.3377 16.3695C19.7269 15.6937 19.8805 14.9256 20.2082 14.2293C20.9147 12.7138 20.9454 11.1573 20.3003 9.61099C20.2594 9.51883 20.2696 9.35499 20.0955 9.38571C19.8293 9.43691 19.8088 9.29354 19.8088 9.0785C19.8088 8.9249 19.7576 8.7713 19.7371 8.61769C19.6757 8.63817 19.6142 8.66889 19.5528 8.67913C19.0101 8.75082 19.0101 8.75081 19.051 9.29354H19.0817Z" fill="#895EF6"/>
<path d="M21.508 7.64566C21.3441 7.6559 21.2213 7.68663 21.2417 7.91191C21.2929 8.43416 21.2929 8.43416 20.8014 8.52632C20.7195 8.5468 20.6273 8.5468 20.5352 8.55704C20.6068 9.02809 20.8936 9.41722 21.0267 9.85754C21.1189 10.1852 21.2008 10.5027 21.2929 10.8304C21.2929 11.3936 21.4056 11.9465 21.2929 12.5097C21.2417 12.7965 21.2008 13.0934 21.1598 13.3904V13.4006C20.9345 14.0765 20.6171 14.7011 20.3816 15.377C19.378 18.1828 17.4119 19.9748 14.5447 20.7428C13.193 21.1013 11.831 21.0501 10.4691 20.7121C9.69082 20.5176 8.95352 20.2206 8.26743 19.8008C6.95669 19.002 5.98387 17.8756 5.26706 16.5341C4.94961 15.9402 4.63217 15.3463 4.31472 14.7626C4.17136 14.2915 4.03824 13.8205 3.89488 13.3494C3.81295 12.6326 3.71055 11.9056 3.75151 11.1785C3.85391 10.9328 3.82319 10.6665 3.86415 10.4105C3.93584 10.0214 3.98704 9.61178 4.15088 9.25337C4.42736 8.66968 4.3352 8.06551 4.27376 7.48182C4.17136 6.48852 4.27376 5.51571 4.39664 4.54289C4.41712 4.40977 4.42736 4.26641 4.4376 4.13328C4.51953 3.83632 4.60145 3.53935 4.67313 3.24239C4.67313 3.19119 4.69361 3.13999 4.70385 3.08879C4.90865 2.62798 5.06226 2.14669 5.34898 1.72684C5.76883 1.10219 6.28084 0.866668 7.05909 0.97931C7.47894 1.04075 7.63254 1.33772 7.90903 1.5118C8.53368 1.90093 8.90232 2.58702 9.50649 3.0171C9.97754 3.34479 10.4486 3.59055 11.0835 3.52911C11.9232 3.44719 12.7833 3.42671 13.623 3.62127C13.7766 3.652 13.8586 3.58031 13.9507 3.48815C14.4525 2.98638 14.944 2.47438 15.5175 2.04429C16.0192 1.67564 16.5313 1.38892 17.1969 1.68588C17.586 1.85996 17.6782 2.20813 17.842 2.52558C17.9239 3.58031 17.842 4.65553 18.1082 5.70003C18.2721 6.36564 18.7841 6.71381 19.2654 7.07221C19.4497 7.20534 19.7569 7.08245 20.0027 7.06197C20.5352 7.01077 21.0779 6.94933 21.6001 6.86741C21.8357 6.82645 21.8869 6.90837 21.9176 7.12341C21.979 7.6047 21.9995 7.6047 21.4977 7.63542L21.508 7.64566Z" fill="white"/>
<path d="M13.4277 9.36621V9.3753H13.4368V9.36621H13.4277Z" fill="#895EF6"/>
<path d="M21.6099 6.87718C21.0774 6.9591 20.5449 7.02054 20.0124 7.07174C19.7667 7.09222 19.4595 7.22534 19.2751 7.08198C18.7939 6.71333 18.2818 6.36517 18.118 5.7098C17.8518 4.6653 17.9337 3.59008 17.8518 2.53534C17.6879 2.2179 17.5958 1.86973 17.2066 1.69565C16.541 1.39868 16.029 1.68541 15.5272 2.05405C14.9538 2.4739 14.4623 2.98591 13.9605 3.49792C13.8683 3.59008 13.7966 3.66176 13.6328 3.63104C12.7931 3.43648 11.9329 3.45696 11.0932 3.53888C10.4584 3.60032 9.98731 3.3648 9.51626 3.02687C8.91209 2.59678 8.54344 1.92093 7.91879 1.52156C7.6423 1.34748 7.47846 1.05052 7.06885 0.989075C6.2906 0.876433 5.76835 1.11196 5.35875 1.73661C5.08226 2.1667 4.92866 2.63774 4.71361 3.09855C4.71361 3.14975 4.69313 3.20095 4.68289 3.25215C4.60097 3.54912 4.51905 3.84608 4.44737 4.14305C4.43713 4.27617 4.42689 4.41953 4.40641 4.55266C4.28353 5.52547 4.18113 6.50853 4.28353 7.49159C4.34497 8.08552 4.43713 8.68969 4.16065 9.26314C3.98656 9.62154 3.93536 10.0312 3.87392 10.4203C3.83296 10.6763 3.86368 10.9425 3.76128 11.1883C3.72032 11.9153 3.82272 12.6322 3.90464 13.3592C4.048 13.8303 4.18113 14.3013 4.32449 14.7724C4.64193 15.3663 4.95938 15.9602 5.27682 16.5439C6.00388 17.8854 6.96645 19.0118 8.2772 19.8105C8.96329 20.2304 9.69034 20.5273 10.4788 20.7219C11.8408 21.0598 13.2027 21.111 14.5544 20.7526C17.4319 19.9846 19.3878 18.1926 20.3913 15.3868C20.6268 14.7212 20.9443 14.0863 21.1696 13.4104V13.4002C21.2105 13.1032 21.2515 12.8165 21.3027 12.5195C21.4153 11.9563 21.3027 11.3931 21.3027 10.8299C21.2105 10.5124 21.1286 10.1848 21.0365 9.85707C20.9033 9.4065 20.6166 9.01737 20.5449 8.55656C20.2889 8.55656 20.0432 8.66921 19.7872 8.60777C19.8179 8.76137 19.8691 8.91497 19.8588 9.06857C19.8588 9.28362 19.8691 9.42698 20.1456 9.37578C20.3094 9.34506 20.3094 9.5089 20.3504 9.60106C20.9955 11.1576 20.9648 12.7038 20.2582 14.2194C19.9305 14.9157 19.7769 15.6837 19.3878 16.3596C18.159 18.4998 16.3669 19.8412 13.9195 20.2918C10.6222 20.896 7.32486 19.1859 5.80931 16.3084C5.42019 15.5608 4.94914 14.8645 4.71361 14.0453C4.69313 13.9736 4.67265 13.8917 4.66241 13.8098C4.21185 12.3147 4.20161 10.8094 4.75458 9.3553C5.00034 8.69993 4.90818 8.07528 4.86722 7.44039C4.7853 6.33445 4.87746 5.24899 5.07202 4.15329C5.21538 3.34432 5.48163 2.58654 5.92196 1.90045C6.1882 1.49084 6.66949 1.46012 7.1303 1.65469C7.61158 1.85949 7.91879 2.25886 8.2772 2.58654C8.75848 3.01663 9.16809 3.53888 9.75178 3.81536C10.0897 3.97921 10.4379 4.19425 10.868 4.12257C11.8613 3.94849 12.8546 4.00993 13.8479 4.20449C14.0117 4.23521 14.0936 4.20449 14.196 4.09185C14.7797 3.43648 15.4146 2.84255 16.1212 2.3203C16.3772 2.13597 16.6332 2.05405 16.9301 2.1667C17.2271 2.28958 17.2783 2.54558 17.3193 2.82207C17.4217 3.5184 17.3398 4.22497 17.4319 4.9213C17.5548 5.80196 17.6777 6.66213 18.6198 7.2151C17.9849 7.29702 17.4524 7.36871 16.9097 7.43015C15.988 7.54279 15.0767 7.65543 14.1551 7.75783C13.3051 7.86023 12.4552 7.95239 11.595 8.04456C10.5198 8.16744 9.43434 8.32104 8.35912 8.43368C7.72423 8.50536 7.08934 8.63849 6.4442 8.59753C6.25988 8.59753 6.04484 8.62825 6.00388 8.78185C5.96292 8.96617 6.0346 9.19146 6.06532 9.39626C6.06532 9.41674 6.11652 9.44746 6.14724 9.43722C6.53637 9.36554 6.93573 9.5089 7.32486 9.34506C7.68327 9.2017 8.07239 9.29386 8.45128 9.28362C8.5844 9.28362 8.5332 9.4577 8.54344 9.53962C8.56392 9.81611 8.66632 9.99019 8.98377 9.89803C9.37289 9.77515 9.41386 10.0107 9.43434 10.2974C9.45482 10.7275 9.45482 10.7275 9.86442 10.5739C10.1614 10.4612 10.2535 10.5124 10.2638 10.8299C10.274 11.2907 10.2843 11.2293 10.7348 11.2395C11.3595 11.2497 11.9432 11.0244 12.5678 11.0756C12.7726 11.0961 12.8955 11.0244 12.8341 10.7787C12.8034 10.666 12.8341 10.5534 12.8341 10.4305C12.8341 10.3076 12.8648 10.2564 13.0082 10.2462C13.5714 10.1848 13.5918 10.154 13.4894 9.59082C13.4792 9.51914 13.4894 9.43722 13.4792 9.3553C13.3051 9.41674 13.131 9.42698 12.9467 9.43722C12.7829 9.43722 12.7214 9.42698 12.6907 9.24266C12.6088 8.73065 12.7829 8.53608 13.3051 8.60777C13.3768 8.61801 13.387 8.65897 13.3973 8.72041C13.4178 8.93545 13.4485 9.1505 13.469 9.36554C13.5509 9.36554 13.6226 9.36554 13.7045 9.36554C14.2063 9.32458 14.2165 9.32458 14.1551 8.82281C14.1346 8.63849 14.1551 8.53609 14.3701 8.49512C14.749 8.4132 15.1381 8.53609 15.5272 8.4132C15.6296 8.38248 15.6706 8.52584 15.6808 8.63849C15.7423 9.18122 15.7423 9.19146 16.2543 9.09929C16.4386 9.06857 16.5103 9.10953 16.5001 9.32458C16.5001 9.76491 16.5615 9.80587 16.9813 9.73419C17.2476 9.68298 17.4217 9.69322 17.4012 10.0516C17.3807 10.3076 17.4422 10.5227 17.821 10.4203C18.1487 10.3281 18.4969 10.3384 18.8451 10.3076C19.142 10.2667 19.4287 10.2257 19.7257 10.2052C19.9203 10.195 20.0022 10.1643 19.9715 9.92875C19.8793 9.37578 19.8998 9.3553 19.3366 9.46794C19.1318 9.5089 19.1318 9.44746 19.1215 9.29386C19.0806 8.74089 19.0806 8.75113 19.6233 8.67945C19.6848 8.67945 19.7462 8.63849 19.8076 8.61801C19.8076 8.61801 19.8076 8.61801 19.8076 8.60777C19.8076 8.60777 19.8076 8.60777 19.8179 8.60777C19.8179 8.5156 19.8281 8.42344 19.8076 8.34152C19.695 8.02408 19.7155 7.86023 20.1353 7.82951C20.4323 7.79879 20.5347 7.80903 20.5449 8.12648C20.5449 8.26984 20.5859 8.4132 20.5756 8.55656C20.6678 8.55656 20.7497 8.54633 20.8419 8.52584C21.3334 8.43368 21.3334 8.43368 21.2822 7.91143C21.2617 7.69639 21.3744 7.66567 21.5485 7.64519C22.0502 7.60423 22.0298 7.60423 21.9683 7.13318C21.9376 6.91814 21.8864 6.83622 21.6509 6.87718H21.6099ZM12.7214 10.0209C12.7624 10.5227 12.2811 10.2974 12.1377 10.2974C11.8101 10.2974 11.9534 9.90827 11.9329 9.72395C11.9125 9.47818 12.2197 9.53962 12.3528 9.51914C12.8341 9.46794 12.701 9.82635 12.7214 10.0209Z" fill="#895EF6"/>
<path d="M19.7649 8.61816C19.7649 8.61816 19.7649 8.61816 19.7559 8.61816C19.7559 8.61816 19.7559 8.61816 19.7559 8.62726L19.7649 8.61816Z" fill="#895EF6"/>
<path d="M20.5234 8.54688V8.55597H20.5325V8.54688H20.5234Z" fill="#895EF6"/>
<path d="M3.89965 2.30469C3.89965 2.30469 3.87713 2.41733 3.86586 2.47365C3.71943 2.3948 3.75322 2.33848 3.89965 2.30469Z" fill="#895EF6"/>
<path d="M0.633401 3.05912C0.633401 3.05912 0.610873 3.05912 0.599609 3.04785C0.599609 3.04785 0.622137 3.05912 0.633401 3.07038V3.05912Z" fill="#A144FB"/>
<path d="M20.4702 8.37606C20.4702 8.27468 20.4814 8.16204 20.4589 8.07193C20.335 7.72275 20.3575 7.54253 20.8193 7.50874C21.146 7.47494 21.2586 7.48621 21.2699 7.83539C21.2699 7.99309 21.315 8.15078 21.3037 8.31974C21.0221 8.31974 20.7405 8.45491 20.4589 8.37606L20.4702 8.38732V8.37606Z" fill="#FDFDFD"/>
<path d="M13.4975 9.20915C13.306 9.27673 13.1032 9.28799 12.9005 9.29926C12.7203 9.29926 12.6527 9.28799 12.6189 9.08524C12.5288 8.52205 12.7203 8.30803 13.2947 8.38688C13.3736 8.39814 13.3848 8.4432 13.3961 8.51078C13.4186 8.74733 13.4524 8.98387 13.4749 9.22041L13.4975 9.20915Z" fill="#FDFDFD"/>
<path d="M12.3034 9.37849C12.8328 9.32217 12.6864 9.71641 12.7089 9.93042C12.754 10.4824 12.2246 10.2346 12.0669 10.2346C11.7065 10.2346 11.8642 9.80652 11.8416 9.60377C11.8191 9.33344 12.157 9.40102 12.3034 9.37849Z" fill="#FDFDFD"/>
<path d="M17.7766 11.0342C18.137 11.0792 18.4975 11.113 18.8354 11.2707C19.4437 11.5411 19.6577 11.9691 19.4437 12.5999C19.286 13.073 19.0156 13.4672 18.6777 13.8276C18.3736 14.1543 18.0019 14.2669 17.5851 14.1543C16.8867 13.9628 16.301 13.5911 15.8955 12.9716C15.4787 12.3183 15.659 11.6875 16.3573 11.3496C16.8079 11.1356 17.2922 11.068 17.7766 11.0342Z" fill="#895EF6"/>
<path d="M20.7733 13.3324C20.7733 14.1772 20.2327 14.9319 19.4329 15.236C19.2865 15.2923 19.1739 15.3599 19.095 15.5289C18.7909 16.1934 18.0137 16.5764 17.2815 16.4525C17.0225 16.4074 16.7634 16.3962 16.5043 16.4525C15.3779 16.6778 14.3867 16.2272 13.8686 15.2473C13.7221 14.9657 13.4631 14.9093 13.2378 14.7742C13.0688 14.6728 12.8548 14.5714 12.99 14.3236C13.1026 14.0983 13.2941 14.1321 13.5081 14.2222C13.9249 14.4137 14.2741 14.6277 14.4881 15.0783C14.8485 15.8105 15.7609 16.0808 16.6958 15.8105C17.1126 15.6865 17.4843 15.4951 17.7884 15.1797C18.0475 14.9206 18.3403 14.7854 18.712 14.7516C19.5231 14.6841 19.8948 14.3687 20.1088 13.6253C20.2102 13.2986 20.1426 13.0057 19.9736 12.7241C19.861 12.5439 19.8384 12.375 20.0412 12.2398C20.2665 12.0934 20.3904 12.2398 20.503 12.4087C20.6832 12.6903 20.7733 12.9945 20.7621 13.3324H20.7733Z" fill="#895EF6"/>
<path d="M17.1574 18.2653C16.5041 18.2765 15.9747 18.1076 15.5016 17.7809C15.389 17.7021 15.1863 17.6232 15.2764 17.4543C15.3665 17.2628 15.5354 17.3867 15.6706 17.443C16.9096 17.9161 18.1487 17.6457 19.016 16.7221C19.1512 16.5869 19.2751 16.4405 19.3201 16.2603C19.3426 16.1589 19.399 16.0688 19.4778 16.0801C19.6355 16.1026 19.5567 16.2378 19.5567 16.3279C19.5003 16.9361 19.1849 17.4092 18.7119 17.7696C18.2162 18.1301 17.7094 18.2878 17.1687 18.2878L17.1574 18.2653Z" fill="#895EF6"/>
<path d="M6.17196 7.24011C5.83404 6.03487 5.83404 4.86342 5.96921 3.68071C5.99174 3.45543 5.99174 3.23015 6.10438 3.0274C6.12691 2.98234 6.10438 2.89223 6.19449 2.88097C6.2846 2.8697 6.29587 2.94855 6.30713 3.00487C6.55494 3.84967 7.10687 4.51424 7.57995 5.22387C7.71512 5.41535 7.85029 5.58431 8.0643 5.66316C8.18821 5.70821 8.21073 5.80959 8.23326 5.88844C8.26705 6.0236 8.10936 6.03487 8.03051 6.0574C7.32088 6.27141 6.75769 6.72197 6.1607 7.24011H6.17196Z" fill="#895EF6"/>
</svg>
