<svg width="24" height="25" viewBox="0 0 24 25" fill="none" xmlns="http://www.w3.org/2000/svg">
<path fill-rule="evenodd" clip-rule="evenodd" d="M4.75 5.32031C4.75 5.18224 4.86193 5.07031 5 5.07031H9C9.13807 5.07031 9.25 5.18224 9.25 5.32031V9.32031C9.25 9.45838 9.13807 9.57031 9 9.57031H5C4.86193 9.57031 4.75 9.45838 4.75 9.32031V5.32031ZM5 3.57031C4.0335 3.57031 3.25 4.35381 3.25 5.32031V9.32031C3.25 10.2868 4.0335 11.0703 5 11.0703H9C9.9665 11.0703 10.75 10.2868 10.75 9.32031V5.32031C10.75 4.35381 9.9665 3.57031 9 3.57031H5ZM14.75 5.32031C14.75 5.18224 14.8619 5.07031 15 5.07031H19C19.1381 5.07031 19.25 5.18224 19.25 5.32031V9.32031C19.25 9.45838 19.1381 9.57031 19 9.57031H15C14.8619 9.57031 14.75 9.45838 14.75 9.32031V5.32031ZM15 3.57031C14.0335 3.57031 13.25 4.35381 13.25 5.32031V9.32031C13.25 10.2868 14.0335 11.0703 15 11.0703H19C19.9665 11.0703 20.75 10.2868 20.75 9.32031V5.32031C20.75 4.35381 19.9665 3.57031 19 3.57031H15ZM5 15.0703C4.86193 15.0703 4.75 15.1822 4.75 15.3203V19.3203C4.75 19.4584 4.86193 19.5703 5 19.5703H9C9.13807 19.5703 9.25 19.4584 9.25 19.3203V15.3203C9.25 15.1822 9.13807 15.0703 9 15.0703H5ZM3.25 15.3203C3.25 14.3538 4.0335 13.5703 5 13.5703H9C9.9665 13.5703 10.75 14.3538 10.75 15.3203V19.3203C10.75 20.2868 9.9665 21.0703 9 21.0703H5C4.0335 21.0703 3.25 20.2868 3.25 19.3203V15.3203ZM14.75 15.3203C14.75 15.1822 14.8619 15.0703 15 15.0703H19C19.1381 15.0703 19.25 15.1822 19.25 15.3203V19.3203C19.25 19.4584 19.1381 19.5703 19 19.5703H15C14.8619 19.5703 14.75 19.4584 14.75 19.3203V15.3203ZM15 13.5703C14.0335 13.5703 13.25 14.3538 13.25 15.3203V19.3203C13.25 20.2868 14.0335 21.0703 15 21.0703H19C19.9665 21.0703 20.75 20.2868 20.75 19.3203V15.3203C20.75 14.3538 19.9665 13.5703 19 13.5703H15Z" fill="white" />
</svg>
