<svg width="29" height="29" viewBox="0 0 29 29" fill="none" xmlns="http://www.w3.org/2000/svg">
<path d="M14.5 29C22.5081 29 29 22.5081 29 14.5C29 6.49187 22.5081 0 14.5 0C6.49187 0 0 6.49187 0 14.5C0 22.5081 6.49187 29 14.5 29Z" fill="white"/>
<path fill-rule="evenodd" clip-rule="evenodd" d="M15.5875 11.694L18.85 9.79092V13.5972L15.5875 11.694ZM18.85 19.8503L14.5 22.3878L10.15 19.8503V15.4097L14.5 17.9472L18.85 15.4097V19.8503ZM10.15 9.79092L13.4125 11.694L10.15 13.5972V9.79092ZM15.0438 12.6003L18.3063 14.5034L15.0438 16.4065V12.6003ZM13.9562 16.4065L10.6938 14.5034L13.9562 12.6003V16.4065ZM18.3063 8.88467L14.5 11.0597L10.6938 8.88467L14.5 6.61904L18.3063 8.88467ZM9.0625 8.52217V20.394L14.5 23.4753L19.9375 20.394V8.52217L14.5 5.44092L9.0625 8.52217Z" fill="#13B5EC"/>
</svg>
