<svg xmlns="http://www.w3.org/2000/svg" width="84" height="13" viewBox="0 0 84 13" fill="none">
<g opacity="0.8" clip-path="url(#clip0_33435_186434)">
<path d="M45.2746 2.56927V5.36168H45.2997C45.7615 4.7553 46.421 4.45196 47.2781 4.45196C47.6605 4.45196 48.0224 4.51437 48.363 4.63891C48.7038 4.76345 49.0068 4.95124 49.2713 5.20256C49.5353 5.45361 49.7423 5.76734 49.8915 6.14405C50.0413 6.52048 50.1156 6.95538 50.1156 7.44847C50.1156 8.00425 50.0137 8.52068 49.8086 8.99775C49.6036 9.47509 49.2847 9.85714 48.8522 10.1447C48.4194 10.432 47.8823 10.5763 47.2408 10.5763C46.3145 10.5763 45.655 10.2814 45.2618 9.69212H45.237V10.4236H43.4779V2.56927H45.2746ZM38.5249 4.28798C41.9433 4.28798 41.6509 7.95666 41.6509 7.95666H36.9714C37.1607 8.68674 37.7897 9.16662 38.6565 9.16662C39.7006 9.16662 40.2633 8.53634 40.2633 8.53634L41.2568 9.55063C40.7454 10.0581 40.0586 10.5216 38.6414 10.5216C36.45 10.5216 35.2814 9.07244 35.2814 7.53638C35.2814 6.00031 36.1581 4.28798 38.5249 4.28798ZM81.0899 4.28531C82.5606 4.28531 83.4955 4.84559 83.4955 4.84559L82.8915 6.14017C80.9342 5.12587 80.0478 5.84077 80.0478 6.19808C80.0478 6.55567 80.3983 6.58463 81.7616 6.83595C83.1253 7.08728 83.7586 7.65684 83.7586 8.57471C83.7586 9.49258 82.9692 10.5072 81.0412 10.5072C79.1124 10.5072 78.2362 9.88869 78.2362 9.88869L78.8205 8.60367C80.3302 9.56033 82.0441 9.25081 82.0441 8.68126C82.0441 8.25366 81.4744 8.16305 80.8609 8.09146L80.5968 8.06101C80.4796 8.04718 80.3635 8.03238 80.2522 8.01443C79.4731 7.88877 78.3142 7.47354 78.3142 6.27539C78.3142 5.07752 79.6195 4.28531 81.0899 4.28531ZM72.4795 2.16007V6.90376L75.0359 4.44954H77.1251L74.5914 6.88183L77.3734 10.5072H75.299L73.3966 8.02882L72.4795 8.90902V10.5072H70.7701V2.16007H72.4795ZM66.3532 4.24691C67.5656 4.24691 68.6272 4.84992 69.214 5.75374L67.7689 6.60273C67.4982 6.08884 66.9654 5.7394 66.3532 5.7394C65.4656 5.7394 64.7461 6.47257 64.7461 7.37695C64.7461 8.28105 65.4656 9.0145 66.3532 9.0145C66.9372 9.0145 67.4469 8.69599 67.7285 8.22089L69.1799 9.0502C68.5867 9.92562 67.5431 10.5073 66.3532 10.5073C64.5055 10.5073 63.0077 9.10558 63.0077 7.37695C63.0077 5.64803 64.5055 4.24691 66.3532 4.24691ZM58.4096 4.24663C60.2568 4.24663 61.7551 5.64832 61.7551 7.37667C61.7551 9.10558 60.2568 10.507 58.4096 10.507C56.5613 10.507 55.0641 9.10558 55.0641 7.37667C55.0641 5.64832 56.5613 4.24663 58.4096 4.24663ZM28.034 4.42064V10.4494H26.1786V4.42064H28.034ZM24.5125 2.59463V4.10174H20.3635V6.10166H24.0302V7.59443H20.3635V10.4492H18.5078V2.59463H24.5125ZM31.9937 5.174C31.9937 5.174 32.6512 4.14509 34.0097 4.30477V5.98561C34.0097 5.98561 32.5342 5.6089 31.9937 7.13063V10.449H30.226V4.42059H31.916L31.9937 5.13071V5.174ZM53.2955 2.13089V10.4055H51.4256V2.13089H53.2955ZM46.7377 5.77662C45.7123 5.77662 45.1995 6.40015 45.1995 7.64779C45.1995 8.12064 45.3316 8.5173 45.5955 8.83779C45.8598 9.15799 46.2579 9.31823 46.7906 9.31823C47.1457 9.31823 47.4339 9.22574 47.6554 9.04076C47.8766 8.8555 48.0335 8.62919 48.1264 8.36128C48.2195 8.09365 48.2659 7.8263 48.2659 7.55951C48.2659 7.04674 48.1443 6.62196 47.9011 6.28377C47.6579 5.94558 47.2698 5.77662 46.7377 5.77662ZM58.4096 5.7394C57.5215 5.7394 56.8022 6.47229 56.8022 7.37667C56.8022 8.28133 57.5215 9.0145 58.4096 9.0145C59.2969 9.0145 60.0161 8.28133 60.0161 7.37667C60.0161 6.47229 59.2969 5.7394 58.4096 5.7394ZM38.554 5.60168C37.6499 5.60168 37.1473 6.15858 36.9776 6.88417H40.0076C39.9928 6.69553 39.6935 5.60168 38.554 5.60168ZM27.1063 1.58008C27.7083 1.58008 28.1969 2.02791 28.1969 2.58004C28.1969 3.13217 27.7083 3.58 27.1063 3.58C26.5041 3.58 26.0155 3.13217 26.0155 2.58004C26.0155 2.02791 26.5041 1.58008 27.1063 1.58008Z" fill="white"/>
<path d="M12.3075 0.173828C12.587 0.173828 12.8136 0.400383 12.8136 0.679852V12.3184C12.8136 12.5979 12.587 12.8244 12.3075 12.8244H0.506024C0.226555 12.8244 0 12.5979 0 12.3184V0.679852C0 0.400383 0.226555 0.173828 0.506024 0.173828H12.3075ZM6.40675 3.68788L2.84743 9.31037H9.96607L6.40675 3.68788Z" fill="white"/>
</g>
<defs>
<clipPath id="clip0_33435_186434">
<rect width="84" height="12.6506" fill="white" transform="translate(0 0.173828)"/>
</clipPath>
</defs>
</svg>