<svg width="27" height="27" viewBox="0 0 27 27" fill="none" xmlns="http://www.w3.org/2000/svg">
<path fill-rule="evenodd" clip-rule="evenodd" d="M10.4706 4.97017L13.704 3.0411C13.796 2.9863 13.9104 2.9863 14.0024 3.0411L22.5237 8.12389C22.6157 8.17869 22.6726 8.28036 22.6732 8.38995L22.6847 11.8857C22.6847 11.9966 22.6278 12.0989 22.5352 12.1537L19.3062 14.0801C19.1081 14.199 18.8589 14.0511 18.8583 13.8141L18.8474 10.6768C18.8474 10.5673 18.7899 10.4656 18.6979 10.4108L10.4706 5.50492C10.2712 5.38609 10.2712 5.08966 10.4706 4.97083V4.97017ZM8.3823 20.8054L5.14953 18.877C5.05687 18.8222 5 18.7205 5 18.6096V8.444C5 8.33441 5.05687 8.23274 5.14889 8.17662L8.0743 6.41788C8.16696 6.36176 8.28134 6.36176 8.37336 6.41788L11.6023 8.34431C11.8004 8.46315 11.8017 8.75891 11.6029 8.87841L8.9785 10.4563C8.88649 10.5111 8.82961 10.6127 8.82961 10.7236V20.5393C8.82961 20.777 8.58104 20.9255 8.38167 20.8067L8.3823 20.8054ZM22.6847 18.6087V14.7526L22.6841 14.7519H22.6834C22.6834 14.5136 22.4348 14.3657 22.2355 14.4845L14.0082 19.393C13.9155 19.4472 13.8024 19.4478 13.7104 19.393L11.0757 17.8337C10.8764 17.7168 10.6284 17.8647 10.6284 18.1017V21.9532C10.6284 22.0642 10.6866 22.1665 10.7792 22.2213L13.7161 23.9589C13.8088 24.0137 13.9219 24.0137 14.0139 23.9589L22.5352 18.8761C22.6278 18.8207 22.6847 18.7196 22.6847 18.6087Z" fill="white"/>
</svg>
