<svg width="14" height="22" viewBox="0 0 14 22" fill="none" xmlns="http://www.w3.org/2000/svg">
<path d="M9.03302 6.76936C9.03302 3.61556 7.56564 0.898444 6.44169 0.00891182C6.44169 0.00891182 6.36364 -0.0396081 6.36364 0.0897784C6.26997 6.18712 3.28838 7.85297 1.63367 10.0687C-2.15967 15.2118 1.36829 20.8401 4.9587 21.8752C6.97244 22.4575 4.49038 20.8401 4.17817 17.4437C3.80352 13.3195 9.03302 10.1819 9.03302 6.76936Z" fill="white"/>
<path d="M11 8.85295C10.9844 8.83678 10.9532 8.83678 10.922 8.85295C10.922 8.85295 10.922 8.85295 10.9064 8.86912C10.8439 9.62927 10.0322 11.2789 9.01751 12.7831C5.5676 17.8938 7.53452 20.3522 8.64286 21.6784C9.28289 22.4547 8.64286 21.6784 10.2507 20.8859C10.3756 20.8212 13.3728 19.1715 13.7007 15.4355C14.0285 11.7965 11.7962 9.51606 11 8.85295Z" fill="white"/>
</svg>
