<svg width="16" height="17" viewBox="0 0 16 17" fill="none" xmlns="http://www.w3.org/2000/svg">
<path d="M8.08643 10.9941C7.53791 10.9941 7.07812 11.4209 7.07812 11.9301C7.07812 12.4393 7.53791 12.8661 8.08643 12.8661C8.61479 12.8661 9.09474 12.4393 9.07054 11.9526C9.09474 11.4172 8.63899 10.9941 8.08643 10.9941Z" fill="#2FF6D3"/>
<path d="M7.83701 4.42291C7.35705 4.5502 7.05859 4.95455 7.05859 5.44501C7.08279 5.74078 7.10296 6.04029 7.12716 6.33606C7.19572 7.46299 7.26429 8.56746 7.33285 9.69438C7.35705 10.0763 7.67568 10.3533 8.08707 10.3533C8.49846 10.3533 8.82112 10.0575 8.84129 9.67192C8.84129 9.43979 8.84129 9.22639 8.86549 8.99052C8.90985 8.26794 8.95825 7.54536 9.00262 6.82278C9.02682 6.35478 9.07118 5.88679 9.09538 5.4188C9.09538 5.25032 9.07118 5.10056 9.00262 4.9508C8.79692 4.53148 8.31697 4.31808 7.83701 4.42291Z" fill="#2FF6D3"/>
<circle cx="8" cy="8.63477" r="7" stroke="#2FF6D3" stroke-width="2"/>
</svg>
