<svg width="23" height="22" viewBox="0 0 23 22" fill="none" xmlns="http://www.w3.org/2000/svg">
<path d="M11.6035 13.8838C10.9331 13.8838 10.3711 14.4054 10.3711 15.0278C10.3711 15.6501 10.9331 16.1718 11.6035 16.1718C12.2492 16.1718 12.8358 15.6501 12.8063 15.0552C12.8358 14.4009 12.2788 13.8838 11.6035 13.8838Z" fill="#F3BA2F"/>
<path d="M11.2991 5.85212C10.7124 6.0077 10.3477 6.5019 10.3477 7.10135C10.3772 7.46285 10.4019 7.82892 10.4315 8.19042C10.5153 9.56778 10.5991 10.9177 10.6829 12.295C10.7124 12.7618 11.1019 13.1004 11.6047 13.1004C12.1075 13.1004 12.5019 12.7389 12.5265 12.2676C12.5265 11.9839 12.5265 11.723 12.5561 11.4348C12.6103 10.5516 12.6695 9.66845 12.7237 8.78529C12.7533 8.2133 12.8075 7.64131 12.8371 7.06932C12.8371 6.8634 12.8075 6.68036 12.7237 6.49733C12.4723 5.98482 11.8857 5.72399 11.2991 5.85212Z" fill="#F3BA2F"/>
<circle cx="11.5" cy="11" r="10" stroke="#F3BA2F" stroke-width="2"/>
</svg>
