<svg width="26" height="22" viewBox="0 0 26 22" xmlns="http://www.w3.org/2000/svg">
<path d="M12.9268 15.4175C12.204 15.4175 11.5981 15.9799 11.5981 16.6509C11.5981 17.3218 12.204 17.8843 12.9268 17.8843C13.6231 17.8843 14.2555 17.3218 14.2236 16.6805C14.2555 15.975 13.655 15.4175 12.9268 15.4175Z" />
<path d="M25.2254 19.7885C26.0598 18.4515 26.0651 16.858 25.236 15.5259L16.913 2.1461C16.0893 0.799238 14.6011 0 12.9323 0C11.2634 0 9.77527 0.804172 8.95148 2.14117L0.617871 15.5358C-0.211238 16.8827 -0.205923 18.4861 0.633815 19.8231C1.46292 21.1453 2.94575 21.9396 4.60397 21.9396H21.2287C22.8922 21.9396 24.3857 21.1354 25.2254 19.7885ZM23.4184 18.8216C22.956 19.5616 22.1375 20.0007 21.2233 20.0007H4.59866C3.69514 20.0007 2.88198 19.5715 2.43022 18.8462C1.97314 18.1111 1.96783 17.233 2.4249 16.4929L10.7585 3.10321C11.2103 2.36811 12.0181 1.93396 12.9323 1.93396C13.8411 1.93396 14.6543 2.37305 15.106 3.10815L23.4343 16.4979C23.8807 17.2182 23.8754 18.0865 23.4184 18.8216Z"/>
<path d="M12.5975 6.75894C11.9651 6.92668 11.5718 7.45951 11.5718 8.10581C11.6037 8.49556 11.6302 8.89024 11.6621 9.28C11.7525 10.765 11.8428 12.2204 11.9332 13.7054C11.9651 14.2086 12.3849 14.5737 12.9271 14.5737C13.4692 14.5737 13.8943 14.184 13.9209 13.6758C13.9209 13.3699 13.9209 13.0887 13.9528 12.7779C14.0113 11.8257 14.075 10.8735 14.1335 9.92136C14.1654 9.30466 14.2239 8.68797 14.2557 8.07127C14.2557 7.84926 14.2239 7.65192 14.1335 7.45458C13.8625 6.90201 13.23 6.6208 12.5975 6.75894Z" />
</svg>
