<svg width="11" height="15" viewBox="0 0 11 15" fill="none" xmlns="http://www.w3.org/2000/svg">
<path fill-rule="evenodd" clip-rule="evenodd" d="M10.4828 0.346072C10.4828 0.172732 10.3216 0.0443704 10.1527 0.0831117L2.11713 1.92566C1.94893 1.96423 1.85968 2.14861 1.93377 2.30446L3.05587 4.66473C3.12865 4.81781 3.04389 4.99929 2.87978 5.04175L0.711914 5.60256C0.592858 5.63336 0.509697 5.74078 0.509697 5.86375V8.96095C0.509697 9.13738 0.676248 9.26632 0.847049 9.22214L3.18681 8.61685C3.30586 8.58605 3.38903 8.47864 3.38903 8.35567V5.37759C3.38903 5.37468 3.39297 5.37379 3.39422 5.37642C3.39478 5.37761 3.39612 5.37823 3.3974 5.37788L10.2841 3.49478C10.4014 3.46271 10.4828 3.35614 10.4828 3.23455V0.346072ZM0.40918 13.8291C0.40918 14.007 0.578326 14.1362 0.749945 14.0894L6.68727 12.4702C6.84941 12.426 6.9321 12.2459 6.85994 12.0941L5.74918 9.75772C5.6785 9.60903 5.75631 9.43226 5.9137 9.38397L10.2942 8.03994C10.4075 8.00518 10.4849 7.90054 10.4849 7.78202V4.89036C10.4849 4.71597 10.3219 4.5874 10.1523 4.62799L4.33022 6.02131C4.16341 6.06123 4.07571 6.24462 4.14935 6.39952L5.25256 8.72005C5.32428 8.87091 5.24306 9.05003 5.08232 9.09548L0.605548 10.3615C0.489381 10.3944 0.40918 10.5004 0.40918 10.6211V13.8291Z" fill="rgba(255, 255, 255, 0.5)"/>
</svg>
