<svg width="74" height="67" viewBox="0 0 74 67" fill="none" xmlns="http://www.w3.org/2000/svg">
<path d="M62 42.246C62 54.139 52.1683 63.8125 40 63.8125C27.8317 63.8125 18 54.139 18 42.246C18 39.9428 18.8682 36.9981 20.3471 33.6922C21.8161 30.4083 23.8437 26.863 26.0652 23.3875C30.5073 16.4378 35.6736 9.84669 38.5497 6.3119C39.3093 5.37843 40.6907 5.37843 41.4503 6.3119C44.3264 9.84669 49.4927 16.4378 53.9348 23.3875C56.1563 26.863 58.1839 30.4083 59.6529 33.6922C61.1318 36.9981 62 39.9428 62 42.246Z" stroke="#2FF6D3" stroke-width="2"/>
<path d="M32.8125 40.0078H46.4688" stroke="#2FF6D3" stroke-width="2" stroke-linecap="round"/>
<path d="M39.6406 33.1797L39.6406 46.8359" stroke="#2FF6D3" stroke-width="2" stroke-linecap="round"/>
<circle cx="15" cy="46" r="15" fill="#00132F"/>
<circle cx="15" cy="46" r="11.5" fill="#00132F" stroke="white"/>
<path d="M16.6953 40.5625V52H15.25V42.3672L12.3359 43.4297V42.125L16.4688 40.5625H16.6953Z" fill="white"/>
</svg>
