<svg width="40" height="38" viewBox="0 0 40 38" fill="none" xmlns="http://www.w3.org/2000/svg">
<mask id="path-1-inside-1_18570_14106" fill="white">
<path fill-rule="evenodd" clip-rule="evenodd" d="M7.14058 23.2116C11.0842 26.235 15.7108 26.821 17.4744 24.5206C17.4948 24.494 17.5147 24.4671 17.5342 24.44C17.5718 24.4042 17.6071 24.365 17.6397 24.3225L18.7038 22.9345C19.0399 22.4962 18.9569 21.8685 18.5186 21.5325L18.0167 21.1477C17.5503 19.0821 15.9492 16.7378 13.5272 14.881C11.1052 13.0242 8.42561 12.0867 6.30981 12.1726L5.82486 11.8008C5.38656 11.4648 4.75885 11.5477 4.42283 11.986L3.35908 13.3735C3.30136 13.4371 3.2461 13.5033 3.1934 13.572C1.42977 15.8725 3.19698 20.1882 7.14058 23.2116Z"/>
</mask>
<path d="M17.5342 24.44L16.8453 23.715L16.7766 23.7803L16.7214 23.8573L17.5342 24.44ZM18.0167 21.1477L17.0413 21.3679L17.121 21.721L17.4083 21.9413L18.0167 21.1477ZM6.30981 12.1726L5.70139 12.9662L5.98867 13.1865L6.35037 13.1718L6.30981 12.1726ZM5.82486 11.8008L6.43329 11.0072L5.82486 11.8008ZM3.35908 13.3735L4.09959 14.0456L4.12746 14.0149L4.1527 13.9819L3.35908 13.3735ZM16.6808 23.9121C16.1052 24.6629 14.9442 25.0849 13.2506 24.8704C11.5853 24.6595 9.60554 23.8413 7.749 22.418L6.53215 24.0052C8.6192 25.6052 10.9245 26.5918 12.9993 26.8546C15.0459 27.1138 17.08 26.6786 18.268 25.129L16.6808 23.9121ZM16.7214 23.8573C16.7082 23.8758 16.6947 23.8941 16.6808 23.9121L18.268 25.129C18.2949 25.0939 18.3212 25.0584 18.3469 25.0226L16.7214 23.8573ZM16.8461 23.7141C16.8455 23.7149 16.8452 23.7152 16.8453 23.715L18.223 25.1649C18.2984 25.0932 18.3688 25.0151 18.4333 24.9309L16.8461 23.7141ZM17.9102 22.3261L16.8461 23.7141L18.4333 24.9309L19.4974 23.543L17.9102 22.3261ZM17.9102 22.3261L17.9102 22.3261L19.4974 23.543C20.1695 22.6664 20.0037 21.4109 19.1271 20.7389L17.9102 22.3261ZM17.4083 21.9413L17.9102 22.3261L19.1271 20.7389L18.6251 20.3541L17.4083 21.9413ZM12.9188 15.6746C15.2105 17.4315 16.6399 19.5904 17.0413 21.3679L18.9921 20.9274C18.4607 18.5739 16.688 16.0441 14.1356 14.0874L12.9188 15.6746ZM6.35037 13.1718C8.17119 13.0978 10.6271 13.9177 12.9188 15.6746L14.1356 14.0874C11.5833 12.1307 8.68003 11.0755 6.26925 11.1734L6.35037 13.1718ZM5.21644 12.5944L5.70139 12.9662L6.91823 11.379L6.43329 11.0072L5.21644 12.5944ZM5.21644 12.5944L5.21644 12.5944L6.43329 11.0072C5.55669 10.3351 4.30126 10.501 3.62921 11.3776L5.21644 12.5944ZM4.1527 13.9819L5.21644 12.5944L3.62921 11.3776L2.56547 12.7651L4.1527 13.9819ZM3.98701 14.1805C4.02285 14.1337 4.06039 14.0888 4.09959 14.0456L2.61858 12.7015C2.54233 12.7855 2.46935 12.8729 2.39978 12.9636L3.98701 14.1805ZM7.749 22.418C5.89246 20.9947 4.5883 19.2952 3.9522 17.7418C3.30534 16.162 3.41143 14.9312 3.98701 14.1805L2.39978 12.9636C1.21174 14.5133 1.31962 16.5906 2.10136 18.4997C2.89386 20.4351 4.4451 22.4052 6.53215 24.0052L7.749 22.418Z" fill="#2FF6D3" mask="url(#path-1-inside-1_18570_14106)"/>
<path d="M18.6737 22.1335C17.8717 23.1797 16.4199 23.6659 14.6075 23.4923C12.8033 23.3195 10.7221 22.4932 8.81282 21.0295C6.9035 19.5657 5.56519 17.7704 4.9299 16.073C4.29169 14.3678 4.38427 12.8396 5.18633 11.7934C5.98839 10.7472 7.44012 10.261 9.25257 10.4346C11.0567 10.6074 13.1379 11.4337 15.0472 12.8974C16.9566 14.3612 18.2949 16.1565 18.9302 17.8539C19.5684 19.5591 19.4758 21.0873 18.6737 22.1335Z" fill="#00132F" stroke="#2FF6D3"/>
<mask id="path-4-inside-2_18570_14106" fill="white">
<path fill-rule="evenodd" clip-rule="evenodd" d="M31.8483 16.6953C36.027 14.0062 38.1428 9.85019 36.5741 7.41265C36.5553 7.38348 36.5361 7.35469 36.5165 7.32627C36.4969 7.28366 36.4741 7.24191 36.448 7.20133L35.5015 5.73062C35.2026 5.26619 34.5839 5.13199 34.1194 5.43087L33.6015 5.76418C31.4976 5.49832 28.7415 6.21184 26.1677 7.86819C23.5939 9.52455 21.8027 11.7374 21.173 13.7624L20.669 14.0868C20.2046 14.3856 20.0704 15.0044 20.3693 15.4688L21.3158 16.9396C21.3188 16.9442 21.3218 16.9489 21.3249 16.9535C21.3613 17.0205 21.4003 17.0863 21.4419 17.1509C23.0105 19.5884 27.6697 19.3845 31.8483 16.6953Z"/>
</mask>
<path d="M36.5165 7.32627L35.6077 7.74359L35.6442 7.82311L35.694 7.89509L36.5165 7.32627ZM36.448 7.20133L35.6071 7.7425L36.448 7.20133ZM35.5015 5.73062L36.3424 5.18945L35.5015 5.73062ZM34.1194 5.43087L33.5783 4.58995L34.1194 5.43087ZM33.6015 5.76418L33.4761 6.75629L33.8369 6.80188L34.1427 6.6051L33.6015 5.76418ZM21.173 13.7624L21.7142 14.6033L22.02 14.4066L22.1279 14.0593L21.173 13.7624ZM20.3693 15.4688L19.5284 16.01L20.3693 15.4688ZM21.3158 16.9396L22.1567 16.3984L21.3158 16.9396ZM21.3249 16.9535L22.2033 16.4756L22.1818 16.4361L22.1569 16.3987L21.3249 16.9535ZM35.7332 7.95381C36.2451 8.74933 36.2498 9.98471 35.4753 11.506C34.7137 13.0019 33.2744 14.5884 31.3071 15.8544L32.3895 17.5362C34.6009 16.1131 36.3088 14.2771 37.2576 12.4133C38.1936 10.5749 38.4717 8.51351 37.415 6.87148L35.7332 7.95381ZM35.694 7.89509C35.7074 7.91441 35.7204 7.93398 35.7332 7.95381L37.415 6.87148C37.3902 6.83297 37.3649 6.79496 37.3389 6.75746L35.694 7.89509ZM35.6071 7.7425C35.6076 7.74331 35.6077 7.74366 35.6077 7.74359L37.4252 6.90895C37.3861 6.82365 37.3406 6.74051 37.2889 6.66017L35.6071 7.7425ZM34.6606 6.27178L35.6071 7.7425L37.2889 6.66017L36.3424 5.18945L34.6606 6.27178ZM34.6606 6.27178L34.6606 6.27178L36.3424 5.18945C35.7447 4.2606 34.5071 3.9922 33.5783 4.58995L34.6606 6.27178ZM34.1427 6.6051L34.6606 6.27178L33.5783 4.58995L33.0603 4.92327L34.1427 6.6051ZM26.7088 8.70911C29.1444 7.14173 31.6667 6.52765 33.4761 6.75629L33.7269 4.77207C31.3284 4.469 28.3386 5.28195 25.6265 7.02727L26.7088 8.70911ZM22.1279 14.0593C22.6694 12.3178 24.2733 10.2765 26.7088 8.70911L25.6265 7.02727C22.9145 8.7726 20.9359 11.157 20.2181 13.4655L22.1279 14.0593ZM21.2102 14.9277L21.7142 14.6033L20.6319 12.9215L20.1279 13.2458L21.2102 14.9277ZM21.2102 14.9277L21.2102 14.9277L20.1279 13.2458C19.199 13.8436 18.9306 15.0812 19.5284 16.01L21.2102 14.9277ZM22.1567 16.3984L21.2102 14.9277L19.5284 16.01L20.4748 17.4807L22.1567 16.3984ZM22.1569 16.3987C22.1568 16.3986 22.1567 16.3985 22.1567 16.3984L20.4748 17.4807C20.4808 17.49 20.4868 17.4992 20.4929 17.5083L22.1569 16.3987ZM22.2828 16.6097C22.2545 16.5658 22.228 16.5211 22.2033 16.4756L20.4465 17.4314C20.4946 17.5198 20.5461 17.6068 20.601 17.692L22.2828 16.6097ZM31.3071 15.8544C29.3399 17.1204 27.2996 17.7732 25.6226 17.8466C23.9172 17.9212 22.7947 17.4052 22.2828 16.6097L20.601 17.692C21.6577 19.3341 23.6491 19.9349 25.7101 19.8447C27.7995 19.7532 30.178 18.9594 32.3895 17.5362L31.3071 15.8544Z" fill="#2FF6D3" mask="url(#path-4-inside-2_18570_14106)"/>
<path d="M34.7276 5.47504C35.441 6.58359 35.4077 8.11421 34.6316 9.76124C33.859 11.4007 32.3777 13.08 30.3546 14.3819C28.3315 15.6839 26.1894 16.3364 24.3772 16.3604C22.5566 16.3845 21.1497 15.7807 20.4363 14.6721C19.7229 13.5636 19.7562 12.0329 20.5323 10.3859C21.3049 8.74641 22.7862 7.06718 24.8094 5.76521C26.8325 4.46324 28.9745 3.81073 30.7868 3.78677C32.6073 3.76269 34.0142 4.3665 34.7276 5.47504Z" fill="#00132F" stroke="#2FF6D3"/>
<mask id="path-7-inside-3_18570_14106" fill="white">
<path fill-rule="evenodd" clip-rule="evenodd" d="M31.8483 33.0518C36.027 30.3626 38.1428 26.2066 36.5741 23.7691C36.5553 23.7399 36.5361 23.7111 36.5165 23.6827C36.4969 23.6401 36.4741 23.5984 36.448 23.5578L35.5015 22.0871C35.2026 21.6226 34.5839 21.4884 34.1194 21.7873L33.6015 22.1206C31.4976 21.8548 28.7415 22.5683 26.1677 24.2246C23.5939 25.881 21.8027 28.0939 21.173 30.1189L20.669 30.4432C20.2046 30.7421 20.0704 31.3609 20.3693 31.8253L21.3158 33.296C21.3188 33.3007 21.3218 33.3053 21.3249 33.3099C21.3613 33.3769 21.4003 33.4427 21.4419 33.5073C23.0105 35.9449 27.6697 35.7409 31.8483 33.0518Z"/>
</mask>
<path d="M36.5165 23.6827L35.6077 24.1L35.6442 24.1796L35.694 24.2515L36.5165 23.6827ZM36.448 23.5578L35.6071 24.0989L36.448 23.5578ZM35.5015 22.0871L36.3424 21.5459L35.5015 22.0871ZM33.6015 22.1206L33.4761 23.1127L33.8369 23.1583L34.1427 22.9615L33.6015 22.1206ZM21.173 30.1189L21.7142 30.9598L22.02 30.763L22.1279 30.4158L21.173 30.1189ZM20.3693 31.8253L19.5284 32.3665L20.3693 31.8253ZM21.3158 33.296L22.1567 32.7548L21.3158 33.296ZM21.3249 33.3099L22.2033 32.832L22.1818 32.7925L22.1569 32.7551L21.3249 33.3099ZM35.7332 24.3103C36.2451 25.1058 36.2498 26.3412 35.4753 27.8624C34.7137 29.3583 33.2744 30.9449 31.3071 32.2109L32.3895 33.8927C34.6009 32.4695 36.3088 30.6335 37.2576 28.7698C38.1936 26.9314 38.4717 24.87 37.415 23.2279L35.7332 24.3103ZM35.694 24.2515C35.7074 24.2709 35.7204 24.2904 35.7332 24.3103L37.415 23.2279C37.3902 23.1894 37.3649 23.1514 37.3389 23.1139L35.694 24.2515ZM35.6071 24.0989C35.6076 24.0998 35.6077 24.1001 35.6077 24.1L37.4252 23.2654C37.3861 23.1801 37.3406 23.097 37.2889 23.0166L35.6071 24.0989ZM34.6606 22.6282L35.6071 24.0989L37.2889 23.0166L36.3424 21.5459L34.6606 22.6282ZM34.6606 22.6282L34.6606 22.6282L36.3424 21.5459C35.7447 20.617 34.5071 20.3486 33.5783 20.9464L34.6606 22.6282ZM34.1427 22.9615L34.6606 22.6282L33.5783 20.9464L33.0603 21.2797L34.1427 22.9615ZM26.7088 25.0656C29.1444 23.4982 31.6667 22.8841 33.4761 23.1127L33.7269 21.1285C31.3284 20.8254 28.3386 21.6384 25.6265 23.3837L26.7088 25.0656ZM22.1279 30.4158C22.6694 28.6742 24.2733 26.6329 26.7088 25.0656L25.6265 23.3837C22.9145 25.129 20.9359 27.5135 20.2181 29.822L22.1279 30.4158ZM21.2102 31.2841L21.7142 30.9598L20.6319 29.278L20.1279 29.6023L21.2102 31.2841ZM21.2102 31.2841L21.2102 31.2841L20.1279 29.6023C19.199 30.2 18.9306 31.4376 19.5284 32.3665L21.2102 31.2841ZM22.1567 32.7548L21.2102 31.2841L19.5284 32.3665L20.4748 33.8372L22.1567 32.7548ZM22.1569 32.7551C22.1568 32.755 22.1567 32.7549 22.1567 32.7548L20.4748 33.8372C20.4808 33.8464 20.4868 33.8556 20.4929 33.8648L22.1569 32.7551ZM22.2828 32.9662C22.2545 32.9222 22.228 32.8775 22.2033 32.832L20.4465 33.7878C20.4946 33.8763 20.5461 33.9632 20.601 34.0485L22.2828 32.9662ZM31.3071 32.2109C29.3399 33.4768 27.2996 34.1296 25.6226 34.203C23.9172 34.2777 22.7947 33.7617 22.2828 32.9662L20.601 34.0485C21.6577 35.6905 23.6491 36.2913 25.7101 36.2011C27.7995 36.1096 30.178 35.3159 32.3895 33.8927L31.3071 32.2109Z" fill="#2FF6D3" mask="url(#path-7-inside-3_18570_14106)"/>
<path d="M34.7276 21.8334C35.441 22.942 35.4077 24.4726 34.6316 26.1196C33.859 27.7591 32.3777 29.4384 30.3546 30.7403C28.3315 32.0423 26.1894 32.6948 24.3772 32.7188C22.5566 32.7429 21.1497 32.1391 20.4363 31.0305C19.7229 29.922 19.7562 28.3913 20.5323 26.7443C21.3049 25.1048 22.7862 23.4256 24.8094 22.1236C26.8325 20.8216 28.9745 20.1691 30.7868 20.1452C32.6073 20.1211 34.0142 20.7249 34.7276 21.8334Z" fill="#00132F" stroke="#2FF6D3"/>
<path d="M15.6055 6.73167V12.3375C15.6055 13.1115 16.2329 13.7389 17.0069 13.7389C17.7809 13.7389 18.4084 13.1115 18.4084 12.3375V7.19882C18.4084 5.39281 19.8724 3.92876 21.6784 3.92876C23.4845 3.92876 24.9485 5.39282 24.9485 7.19882V12.3375C24.9485 13.1115 25.576 13.7389 26.35 13.7389C27.124 13.7389 27.7514 13.1115 27.7514 12.3375V6.73167C27.7514 3.37766 25.0325 0.658691 21.6784 0.658691C18.3244 0.658691 15.6055 3.37765 15.6055 6.73167Z" fill="#00132F" stroke="#2FF6D3"/>
<path d="M13.3047 14.936C13.3047 13.003 14.8717 11.436 16.8047 11.436H26.5565C28.4895 11.436 30.0565 13.003 30.0565 14.936V26.1058C30.0565 27.7029 28.9753 29.0974 27.4286 29.4954L25.7923 29.9165C23.0951 30.6105 20.2661 30.6105 17.5689 29.9165L15.9325 29.4954C14.3858 29.0974 13.3047 27.7029 13.3047 26.1058V14.936Z" fill="#00132F" stroke="#2FF6D3"/>
<mask id="path-12-inside-4_18570_14106" fill="white">
<path fill-rule="evenodd" clip-rule="evenodd" d="M24.0191 23.3173C25.1511 22.5639 25.897 21.2764 25.897 19.8147C25.897 17.4927 24.0147 15.6104 21.6927 15.6104C19.3706 15.6104 17.4883 17.4927 17.4883 19.8147C17.4883 21.2784 18.2362 22.5674 19.3708 23.3204C19.3632 23.3969 19.3594 23.4745 19.3594 23.553V24.4873C19.3594 25.7774 20.4051 26.8231 21.6951 26.8231C22.9851 26.8231 24.0309 25.7774 24.0309 24.4873V23.553C24.0309 23.4735 24.0269 23.3948 24.0191 23.3173Z"/>
</mask>
<path d="M24.0191 23.3173L23.4651 22.4848L22.9641 22.8182L23.0241 23.417L24.0191 23.3173ZM19.3708 23.3204L20.366 23.4188L20.4252 22.8199L19.9238 22.4872L19.3708 23.3204ZM24.897 19.8147C24.897 20.9278 24.3303 21.9089 23.4651 22.4848L24.5732 24.1498C25.9719 23.2189 26.897 21.6251 26.897 19.8147H24.897ZM21.6927 16.6104C23.4624 16.6104 24.897 18.045 24.897 19.8147H26.897C26.897 16.9404 24.5669 14.6104 21.6927 14.6104V16.6104ZM18.4883 19.8147C18.4883 18.045 19.9229 16.6104 21.6927 16.6104V14.6104C18.8184 14.6104 16.4883 16.9404 16.4883 19.8147H18.4883ZM19.9238 22.4872C19.0565 21.9116 18.4883 20.9293 18.4883 19.8147H16.4883C16.4883 21.6275 17.416 23.2232 18.8179 24.1536L19.9238 22.4872ZM20.3594 23.553C20.3594 23.5074 20.3616 23.4627 20.366 23.4188L18.3757 23.222C18.3649 23.3312 18.3594 23.4416 18.3594 23.553H20.3594ZM20.3594 24.4873V23.553H18.3594V24.4873H20.3594ZM21.6951 25.8231C20.9574 25.8231 20.3594 25.2251 20.3594 24.4873H18.3594C18.3594 26.3296 19.8528 27.8231 21.6951 27.8231V25.8231ZM23.0309 24.4873C23.0309 25.2251 22.4329 25.8231 21.6951 25.8231V27.8231C23.5374 27.8231 25.0309 26.3296 25.0309 24.4873H23.0309ZM23.0309 23.553V24.4873H25.0309V23.553H23.0309ZM23.0241 23.417C23.0286 23.4615 23.0309 23.5068 23.0309 23.553H25.0309C25.0309 23.4401 25.0252 23.3282 25.0142 23.2176L23.0241 23.417Z" fill="#2FF6D3" mask="url(#path-12-inside-4_18570_14106)"/>
</svg>
