<svg width="74" height="67" viewBox="0 0 74 67" fill="none" xmlns="http://www.w3.org/2000/svg">
<path d="M65.9936 37.6086C64.5962 45.2146 61.0844 51.6467 56.5846 55.907C52.0842 60.168 46.6583 62.2104 41.3548 61.236C40.6827 61.1126 40.0177 61.0466 39.3929 60.9926C39.2594 60.9811 39.1286 60.9702 38.9999 60.9594C38.5124 60.9187 38.0558 60.8806 37.6045 60.8223C36.4778 60.677 35.5442 60.4221 34.7437 59.8185C31.3909 57.2902 28.8246 52.9576 27.3776 47.689C25.9343 42.434 25.6313 36.337 26.7232 30.3939C27.7796 24.6436 30.1121 19.1996 33.179 14.8569C36.2535 10.5033 40.0143 7.32678 43.89 5.99194C44.9986 5.61011 46.1067 5.64252 47.3363 5.86275C47.9561 5.97376 48.585 6.12802 49.2602 6.29419L49.2803 6.29914C49.9393 6.46136 50.6404 6.63392 51.362 6.76648C56.6655 7.74085 61.0111 11.5785 63.7031 17.1608C66.3947 22.7424 67.3909 30.0027 65.9936 37.6086Z" stroke="#2FF6D3" stroke-width="2"/>
<path d="M60.2949 36.6188C57.4693 51.9985 45.3113 62.2488 33.4825 60.0757C21.6538 57.9025 13.933 44 16.7586 28.6203C19.5842 13.2406 31.7422 2.99031 43.571 5.16349C55.3998 7.33668 63.1205 21.2391 60.2949 36.6188Z" fill="#00132F" stroke="#2FF6D3" stroke-width="2"/>
<path d="M25.2908 26.323L26.0046 29.629L27.8718 26.7972L29.5159 27.0993L26.6464 31.2679L27.8961 36.3703L26.2519 36.0682L25.4747 32.618L23.522 35.5667L21.8716 35.2635L24.8471 30.9374L23.6528 26.0221L25.2908 26.323Z" fill="#2FF6D3"/>
<path d="M36.3453 25.0465L37.8964 25.3315L36.3672 33.6552C36.1933 34.6019 35.8987 35.3673 35.4836 35.9513C35.0684 36.5354 34.5745 36.9428 34.0019 37.1737C33.4345 37.3996 32.8364 37.4548 32.2077 37.3393C31.5583 37.22 31.0085 36.9539 30.5585 36.541C30.1094 36.1225 29.7968 35.5669 29.6204 34.8742C29.4482 34.1822 29.4491 33.3629 29.6231 32.4162L31.1523 24.0924L32.7034 24.3774L31.1741 32.7011C31.0641 33.3 31.0479 33.807 31.1256 34.2221C31.2043 34.6316 31.3634 34.9527 31.6029 35.1853C31.8423 35.418 32.1482 35.5685 32.5204 35.6369C32.8927 35.7053 33.23 35.6729 33.5324 35.5398C33.8389 35.4075 34.1017 35.1639 34.3208 34.8092C34.541 34.4487 34.7061 33.9691 34.8161 33.3702L36.3453 25.0465Z" fill="#2FF6D3"/>
<path d="M42.6438 35.7634C42.6909 35.5068 42.7039 35.2733 42.6827 35.0631C42.6656 34.8536 42.6019 34.6533 42.4916 34.462C42.3814 34.2708 42.2122 34.0746 41.984 33.8735C41.7611 33.6675 41.4683 33.4457 41.1057 33.2081C40.7091 32.9466 40.3492 32.6712 40.0261 32.3819C39.7082 32.0876 39.442 31.7675 39.2276 31.4216C39.0143 31.0699 38.8688 30.6865 38.7912 30.2713C38.7145 29.8504 38.7234 29.3834 38.8177 28.8701C38.9109 28.3625 39.0723 27.9146 39.3019 27.5264C39.5355 27.139 39.8228 26.8203 40.1638 26.5705C40.5099 26.3157 40.8946 26.1417 41.3179 26.0485C41.7423 25.9496 42.1923 25.9439 42.668 26.0312C43.3381 26.1544 43.8836 26.4315 44.3047 26.8626C44.7299 27.2944 45.0199 27.8223 45.1747 28.4462C45.3336 29.0708 45.3491 29.731 45.2213 30.4268L43.6764 30.143C43.7518 29.7324 43.7542 29.3584 43.6836 29.0212C43.6182 28.679 43.4741 28.3931 43.2512 28.1635C43.0324 27.9347 42.7286 27.7845 42.3398 27.7131C41.9716 27.6455 41.6514 27.6662 41.3791 27.7754C41.1068 27.8845 40.8865 28.0593 40.7184 28.2996C40.5502 28.5399 40.4358 28.8254 40.375 29.1562C40.332 29.39 40.332 29.6111 40.375 29.8195C40.419 30.0221 40.5065 30.2209 40.6374 30.416C40.7694 30.6053 40.9443 30.7937 41.1621 30.9811C41.38 31.1685 41.6423 31.3582 41.9491 31.5501C42.4119 31.8474 42.8063 32.1557 43.1325 32.475C43.4597 32.7886 43.7186 33.1251 43.9091 33.4844C44.0997 33.8436 44.2203 34.2343 44.2711 34.6563C44.3228 35.0726 44.3026 35.5317 44.2104 36.0336C44.114 36.5583 43.9505 37.0176 43.72 37.4115C43.4904 37.7997 43.2057 38.1159 42.8658 38.36C42.5311 38.5992 42.1506 38.7621 41.7242 38.8489C41.3029 38.9307 40.8504 38.9271 40.3664 38.8382C39.9321 38.7584 39.5187 38.5999 39.1261 38.3627C38.7377 38.1263 38.4017 37.814 38.1181 37.4258C37.8356 37.032 37.638 36.5712 37.5255 36.0435C37.4139 35.5101 37.4189 34.9126 37.5405 34.251L39.0978 34.5371C39.0234 34.9421 39.0096 35.2962 39.0565 35.5996C39.1075 35.9038 39.2073 36.1638 39.3557 36.3797C39.5053 36.59 39.6921 36.7599 39.9163 36.8895C40.1446 37.0199 40.3973 37.1106 40.6745 37.1615C41.0384 37.2283 41.3556 37.2129 41.6258 37.1152C41.9002 37.0182 42.123 36.8528 42.2942 36.6189C42.4654 36.3851 42.582 36.0999 42.6438 35.7634Z" fill="#2FF6D3"/>
<path d="M47.6197 39.9939L45.6902 39.6394L46.0153 37.9393L47.9325 38.2915C48.4909 38.3941 48.9892 38.3117 49.4274 38.0444C49.8698 37.7778 50.2437 37.3484 50.5492 36.756C50.8589 36.1643 51.0933 35.4351 51.2526 34.5682L51.3768 33.8924C51.5004 33.2194 51.5541 32.6132 51.5377 32.0737C51.5255 31.5349 51.4444 31.069 51.2942 30.6759C51.1483 30.2835 50.9369 29.9676 50.6602 29.7281C50.3877 29.4894 50.0508 29.3332 49.6496 29.2595L47.627 28.8879L47.9413 27.1769L49.9639 27.5485C50.5637 27.6587 51.0861 27.8991 51.5311 28.2698C51.9771 28.6347 52.3324 29.1097 52.5969 29.6948C52.8655 30.2807 53.0305 30.9536 53.0919 31.7136C53.1532 32.4736 53.1016 33.3013 52.9371 34.1967L52.8161 34.8555C52.6516 35.7508 52.4056 36.5428 52.0781 37.2314C51.7507 37.92 51.3573 38.4903 50.8979 38.9425C50.4396 39.3889 49.9325 39.7054 49.3765 39.8922C48.8258 40.074 48.2402 40.1079 47.6197 39.9939ZM48.8409 27.3422L46.5526 39.7979L44.9953 39.5117L47.2836 27.0561L48.8409 27.3422Z" fill="#2FF6D3"/>
<circle cx="15" cy="46" r="15" fill="#00132F"/>
<circle cx="15" cy="46" r="11.5" fill="#00132F" stroke="white"/>
<path d="M19.3984 50.8125V52H11.9531V50.9609L15.6797 46.8125C16.138 46.3021 16.4922 45.8698 16.7422 45.5156C16.9974 45.1562 17.1745 44.8359 17.2734 44.5547C17.3776 44.2682 17.4297 43.9766 17.4297 43.6797C17.4297 43.3047 17.3516 42.9661 17.1953 42.6641C17.0443 42.3568 16.8203 42.112 16.5234 41.9297C16.2266 41.7474 15.8672 41.6562 15.4453 41.6562C14.9401 41.6562 14.5182 41.7552 14.1797 41.9531C13.8464 42.1458 13.5964 42.4167 13.4297 42.7656C13.263 43.1146 13.1797 43.5156 13.1797 43.9688H11.7344C11.7344 43.3281 11.875 42.7422 12.1562 42.2109C12.4375 41.6797 12.8542 41.2578 13.4062 40.9453C13.9583 40.6276 14.638 40.4688 15.4453 40.4688C16.1641 40.4688 16.7786 40.5964 17.2891 40.8516C17.7995 41.1016 18.1901 41.4557 18.4609 41.9141C18.737 42.3672 18.875 42.8984 18.875 43.5078C18.875 43.8411 18.8177 44.1797 18.7031 44.5234C18.5938 44.862 18.4401 45.2005 18.2422 45.5391C18.0495 45.8776 17.8229 46.2109 17.5625 46.5391C17.3073 46.8672 17.0339 47.1901 16.7422 47.5078L13.6953 50.8125H19.3984Z" fill="white"/>
</svg>
