<svg xmlns="http://www.w3.org/2000/svg" width="74" height="61" viewBox="0 0 74 61" fill="none">
<rect x="1" y="1" width="72" height="47" rx="3" stroke="#2FF6D3" stroke-width="2"/>
<path d="M25.4375 59.9375L48.5625 59.9375" stroke="#2FF6D3" stroke-width="2" stroke-linecap="round"/>
<path d="M2.3125 42L71.6875 42" stroke="#2FF6D3" stroke-width="2" stroke-linecap="round"/>
<path d="M34.6875 53L34.6875 59.9375" stroke="#2FF6D3" stroke-width="2" stroke-linecap="round"/>
<path d="M38.1562 53L38.1563 59.9375" stroke="#2FF6D3" stroke-width="2" stroke-linecap="round"/>
<path fill-rule="evenodd" clip-rule="evenodd" d="M36.4668 24.1669C37.5395 24.1669 38.4091 23.2973 38.4091 22.2246C38.4091 21.1518 37.5395 20.2822 36.4668 20.2822C35.394 20.2822 34.5244 21.1518 34.5244 22.2246C34.5244 23.2973 35.394 24.1669 36.4668 24.1669ZM36.4668 26.1669C38.6441 26.1669 40.4091 24.4019 40.4091 22.2246C40.4091 20.0473 38.6441 18.2822 36.4668 18.2822C34.2895 18.2822 32.5244 20.0473 32.5244 22.2246C32.5244 24.4019 34.2895 26.1669 36.4668 26.1669Z" fill="#2FF6D3"/>
<mask id="path-7-inside-1_12064_19260" fill="white">
<path fill-rule="evenodd" clip-rule="evenodd" d="M39.7035 11.0396C39.7035 10.4873 39.2557 10.0396 38.7035 10.0396H34.141C33.5887 10.0396 33.141 10.4873 33.141 11.0396V13.4993C32.8625 13.6111 32.5905 13.7357 32.3257 13.8722L30.5555 12.102C30.1649 11.7115 29.5318 11.7115 29.1413 12.102L25.9151 15.3282C25.5246 15.7187 25.5246 16.3518 25.9151 16.7424L27.8671 18.6944C27.773 18.9188 27.6871 19.1476 27.61 19.3803H24.8438C24.2915 19.3803 23.8438 19.828 23.8438 20.3803V24.9428C23.8438 25.4951 24.2915 25.9428 24.8437 25.9428H27.8004C27.8655 26.1066 27.935 26.2682 28.0088 26.4273L25.9151 28.521C25.5246 28.9115 25.5246 29.5447 25.9151 29.9352L29.1413 33.1614C29.5318 33.5519 30.165 33.5519 30.5555 33.1614L32.6358 31.0812C32.8016 31.1592 32.9701 31.2326 33.141 31.3013V34.1958C33.141 34.7481 33.5887 35.1958 34.141 35.1958H38.7035C39.2557 35.1958 39.7035 34.7481 39.7035 34.1958V31.5134C39.9465 31.4337 40.1852 31.3446 40.4192 31.2465L42.289 33.1163C42.6795 33.5068 43.3127 33.5068 43.7032 33.1163L46.9294 29.8901C47.3199 29.4996 47.3199 28.8664 46.9294 28.4759L45.2414 26.7879C45.3827 26.5136 45.5113 26.2317 45.6262 25.9428H48C48.5523 25.9428 49 25.4951 49 24.9428V20.3803C49 19.828 48.5523 19.3803 48 19.3803H45.8166C45.6964 19.0177 45.5551 18.6647 45.3942 18.3228L46.9295 16.7875C47.32 16.3969 47.32 15.7638 46.9295 15.3733L43.7033 12.1471C43.3128 11.7566 42.6796 11.7566 42.2891 12.1471L40.7403 13.6958C40.4048 13.5403 40.0587 13.4036 39.7035 13.2871V11.0396Z"/>
</mask>
<path d="M33.141 13.4993L33.8865 15.3551L35.141 14.8512V13.4993H33.141ZM32.3257 13.8722L30.9115 15.2864L31.9441 16.319L33.2421 15.6499L32.3257 13.8722ZM30.5555 12.102L29.1412 13.5162L29.1412 13.5162L30.5555 12.102ZM29.1413 12.102L27.727 10.6878L27.727 10.6878L29.1413 12.102ZM25.9151 15.3282L27.3293 16.7424L27.3293 16.7424L25.9151 15.3282ZM25.9151 16.7424L24.5009 18.1566H24.5009L25.9151 16.7424ZM27.8671 18.6944L29.7114 19.4679L30.2308 18.2297L29.2813 17.2802L27.8671 18.6944ZM27.61 19.3803V21.3803H29.0539L29.5083 20.0098L27.61 19.3803ZM27.8004 25.9428L29.6587 25.2036L29.1572 23.9428H27.8004V25.9428ZM28.0088 26.4273L29.423 27.8415L30.4108 26.8538L29.8234 25.5864L28.0088 26.4273ZM25.9151 28.521L27.3293 29.9352L27.3293 29.9352L25.9151 28.521ZM25.9151 29.9352L27.3293 28.521L27.3293 28.521L25.9151 29.9352ZM29.1413 33.1614L27.7271 34.5756L27.7271 34.5756L29.1413 33.1614ZM30.5555 33.1614L31.9697 34.5756L30.5555 33.1614ZM32.6358 31.0812L33.4873 29.2715L32.2154 28.6731L31.2215 29.667L32.6358 31.0812ZM33.141 31.3013H35.141V29.9494L33.8865 29.4454L33.141 31.3013ZM39.7035 31.5134L39.0803 29.613L37.7035 30.0645V31.5134H39.7035ZM40.4192 31.2465L41.8334 29.8322L40.8839 28.8827L39.6456 29.4021L40.4192 31.2465ZM43.7032 33.1163L42.289 31.7021L43.7032 33.1163ZM46.9294 29.8901L48.3436 31.3044L46.9294 29.8901ZM45.2414 26.7879L43.4637 25.8714L42.7945 27.1695L43.8271 28.2021L45.2414 26.7879ZM45.6262 25.9428V23.9428H44.2694L43.7678 25.2036L45.6262 25.9428ZM45.8166 19.3803L43.9182 20.0098L44.3727 21.3803H45.8166V19.3803ZM45.3942 18.3228L43.98 16.9085L42.9861 17.9024L43.5845 19.1743L45.3942 18.3228ZM46.9295 16.7875L45.5153 15.3733L45.5152 15.3733L46.9295 16.7875ZM46.9295 15.3733L45.5152 16.7875L45.5152 16.7875L46.9295 15.3733ZM43.7033 12.1471L42.2891 13.5613L42.2891 13.5613L43.7033 12.1471ZM42.2891 12.1471L43.7033 13.5613L43.7033 13.5613L42.2891 12.1471ZM40.7403 13.6958L39.8994 15.5104L41.1668 16.0978L42.1546 15.11L40.7403 13.6958ZM39.7035 13.2871H37.7035V14.7361L39.0803 15.1876L39.7035 13.2871ZM38.7035 12.0396C38.1512 12.0396 37.7035 11.5918 37.7035 11.0396H41.7035C41.7035 9.3827 40.3603 8.03955 38.7035 8.03955V12.0396ZM34.141 12.0396H38.7035V8.03955H34.141V12.0396ZM35.141 11.0396C35.141 11.5918 34.6932 12.0396 34.141 12.0396V8.03955C32.4841 8.03955 31.141 9.38269 31.141 11.0396H35.141ZM35.141 13.4993V11.0396H31.141V13.4993H35.141ZM33.2421 15.6499C33.4515 15.5419 33.6665 15.4435 33.8865 15.3551L32.3954 11.6434C32.0585 11.7788 31.7295 11.9294 31.4092 12.0945L33.2421 15.6499ZM29.1412 13.5162L30.9115 15.2864L33.7399 12.458L31.9697 10.6878L29.1412 13.5162ZM30.5555 13.5162C30.1649 13.9067 29.5318 13.9067 29.1412 13.5162L31.9697 10.6878C30.7981 9.5162 28.8986 9.5162 27.727 10.6878L30.5555 13.5162ZM27.3293 16.7424L30.5555 13.5162L27.727 10.6878L24.5009 13.9139L27.3293 16.7424ZM27.3293 15.3282C27.7198 15.7187 27.7198 16.3518 27.3293 16.7424L24.5009 13.9139C23.3293 15.0855 23.3293 16.985 24.5009 18.1566L27.3293 15.3282ZM29.2813 17.2802L27.3293 15.3282L24.5009 18.1566L26.4529 20.1086L29.2813 17.2802ZM29.5083 20.0098C29.5693 19.826 29.6371 19.6453 29.7114 19.4679L26.0228 17.9208C25.9089 18.1924 25.805 18.4692 25.7116 18.7509L29.5083 20.0098ZM24.8438 21.3803H27.61V17.3803H24.8438V21.3803ZM25.8438 20.3803C25.8438 20.9326 25.396 21.3803 24.8438 21.3803V17.3803C23.1869 17.3803 21.8438 18.7235 21.8438 20.3803H25.8438ZM25.8438 24.9428V20.3803H21.8438V24.9428H25.8438ZM24.8437 23.9428C25.396 23.9428 25.8438 24.3905 25.8438 24.9428H21.8438C21.8438 26.5997 23.1869 27.9428 24.8437 27.9428V23.9428ZM27.8004 23.9428H24.8437V27.9428H27.8004V23.9428ZM29.8234 25.5864C29.7651 25.4606 29.7102 25.3329 29.6587 25.2036L25.942 26.6821C26.0208 26.8803 26.105 27.0757 26.1942 27.2683L29.8234 25.5864ZM27.3293 29.9352L29.423 27.8415L26.5946 25.0131L24.5009 27.1068L27.3293 29.9352ZM27.3293 28.521C27.7199 28.9115 27.7199 29.5447 27.3293 29.9352L24.5009 27.1068C23.3293 28.2784 23.3293 30.1779 24.5009 31.3494L27.3293 28.521ZM30.5555 31.7472L27.3293 28.521L24.5009 31.3494L27.7271 34.5756L30.5555 31.7472ZM29.1413 31.7472C29.5318 31.3567 30.165 31.3567 30.5555 31.7472L27.7271 34.5756C28.8987 35.7472 30.7982 35.7472 31.9697 34.5756L29.1413 31.7472ZM31.2215 29.667L29.1413 31.7472L31.9697 34.5756L34.05 32.4954L31.2215 29.667ZM33.8865 29.4454C33.7515 29.3912 33.6184 29.3332 33.4873 29.2715L31.7842 32.8908C31.9849 32.9852 32.1887 33.0741 32.3955 33.1571L33.8865 29.4454ZM35.141 34.1958V31.3013H31.141V34.1958H35.141ZM34.141 33.1958C34.6932 33.1958 35.141 33.6435 35.141 34.1958H31.141C31.141 35.8527 32.4841 37.1958 34.141 37.1958V33.1958ZM38.7035 33.1958H34.141V37.1958H38.7035V33.1958ZM37.7035 34.1958C37.7035 33.6435 38.1512 33.1958 38.7035 33.1958V37.1958C40.3603 37.1958 41.7035 35.8527 41.7035 34.1958H37.7035ZM37.7035 31.5134V34.1958H41.7035V31.5134H37.7035ZM39.6456 29.4021C39.4607 29.4796 39.2722 29.55 39.0803 29.613L40.3267 33.4138C40.6207 33.3174 40.9096 33.2095 41.1927 33.0908L39.6456 29.4021ZM43.7032 31.7021L41.8334 29.8322L39.0049 32.6607L40.8748 34.5305L43.7032 31.7021ZM42.289 31.7021C42.6795 31.3116 43.3127 31.3116 43.7032 31.7021L40.8748 34.5305C42.0464 35.7021 43.9459 35.7021 45.1174 34.5305L42.289 31.7021ZM45.5152 28.4759L42.289 31.7021L45.1174 34.5305L48.3436 31.3044L45.5152 28.4759ZM45.5152 29.8901C45.1247 29.4996 45.1247 28.8664 45.5152 28.4759L48.3436 31.3044C49.5152 30.1328 49.5152 28.2333 48.3436 27.0617L45.5152 29.8901ZM43.8271 28.2021L45.5152 29.8901L48.3436 27.0617L46.6556 25.3737L43.8271 28.2021ZM43.7678 25.2036C43.6771 25.4317 43.5755 25.6546 43.4637 25.8714L47.019 27.7043C47.19 27.3727 47.3455 27.0316 47.4845 26.6821L43.7678 25.2036ZM48 23.9428H45.6262V27.9428H48V23.9428ZM47 24.9428C47 24.3905 47.4477 23.9428 48 23.9428V27.9428C49.6569 27.9428 51 26.5997 51 24.9428H47ZM47 20.3803V24.9428H51V20.3803H47ZM48 21.3803C47.4477 21.3803 47 20.9326 47 20.3803H51C51 18.7235 49.6569 17.3803 48 17.3803V21.3803ZM45.8166 21.3803H48V17.3803H45.8166V21.3803ZM43.5845 19.1743C43.7117 19.4445 43.8233 19.7234 43.9182 20.0098L47.715 18.7509C47.5694 18.312 47.3985 17.8849 47.2039 17.4713L43.5845 19.1743ZM45.5152 15.3733L43.98 16.9085L46.8084 19.737L48.3437 18.2017L45.5152 15.3733ZM45.5152 16.7875C45.1247 16.3969 45.1247 15.7638 45.5153 15.3733L48.3437 18.2017C49.5152 17.0301 49.5152 15.1306 48.3437 13.959L45.5152 16.7875ZM42.2891 13.5613L45.5152 16.7875L48.3437 13.959L45.1175 10.7329L42.2891 13.5613ZM43.7033 13.5613C43.3128 13.9518 42.6796 13.9518 42.2891 13.5613L45.1175 10.7329C43.9459 9.56129 42.0464 9.56129 40.8749 10.7329L43.7033 13.5613ZM42.1546 15.11L43.7033 13.5613L40.8749 10.7329L39.3261 12.2816L42.1546 15.11ZM39.0803 15.1876C39.3608 15.2796 39.6342 15.3875 39.8994 15.5104L41.5813 11.8812C41.1753 11.6931 40.7566 11.5277 40.3266 11.3867L39.0803 15.1876ZM37.7035 11.0396V13.2871H41.7035V11.0396H37.7035Z" fill="#2FF6D3" mask="url(#path-7-inside-1_12064_19260)"/>
</svg>