<svg width="29" height="38" viewBox="0 0 29 38" fill="none" xmlns="http://www.w3.org/2000/svg">
<circle cx="14.7695" cy="13" r="7.5" stroke="#2FF6D3"/>
<path d="M16.3526 1.64913C15.4317 0.895711 14.1074 0.89571 13.1865 1.64913L11.6292 2.92324C11.3661 3.13844 11.0378 3.25794 10.698 3.26216L8.68601 3.28717C7.49628 3.30196 6.48181 4.1532 6.26065 5.32229L5.88665 7.29934C5.82348 7.63327 5.64879 7.93586 5.39118 8.15753L3.866 9.46995C2.96411 10.246 2.73415 11.5502 3.31621 12.5879L4.30054 14.3429C4.46679 14.6393 4.52747 14.9833 4.47262 15.3187L4.14787 17.3045C3.95584 18.4787 4.61798 19.6256 5.73091 20.0464L7.61298 20.758C7.93087 20.8782 8.19852 21.1028 8.37209 21.395L9.39973 23.1249C10.0074 24.1478 11.2518 24.6008 12.3749 24.2078L14.2741 23.5431C14.5948 23.4309 14.9442 23.4309 15.265 23.5431L17.1642 24.2078C18.2872 24.6008 19.5317 24.1478 20.1393 23.1249L21.167 21.395C21.3405 21.1028 21.6082 20.8782 21.9261 20.758L23.8081 20.0464C24.9211 19.6256 25.5832 18.4787 25.3912 17.3045L25.0664 15.3187C25.0116 14.9833 25.0723 14.6393 25.2385 14.3429L26.2228 12.5879C26.8049 11.5502 26.5749 10.246 25.6731 9.46995L24.1479 8.15753C23.8903 7.93586 23.7156 7.63327 23.6524 7.29935L23.2784 5.32229C23.0573 4.1532 22.0428 3.30196 20.853 3.28717L18.8411 3.26216C18.5013 3.25794 18.1729 3.13844 17.9099 2.92324L16.3526 1.64913Z" stroke="#2FF6D3"/>
<path d="M8.26963 21.0003L3.93453 30.5617C3.5588 31.3904 4.39515 32.2495 5.23362 31.8962L7.57355 30.9101C8.00429 30.7286 8.50331 30.8697 8.77524 31.2498L10.0249 32.997C10.5588 33.7434 11.732 33.4367 11.8323 32.5245L12.7695 24" stroke="#2FF6D3"/>
<path d="M20.7695 22L25.2122 30.1947C25.6418 30.9872 24.886 31.8989 24.0276 31.6235L21.8806 30.9348C21.4273 30.7894 20.9344 30.9837 20.7022 31.3992L19.8493 32.9254C19.3823 33.7613 18.1208 33.5261 17.9863 32.5781L16.7695 24" stroke="#2FF6D3"/>
</svg>