<svg width="27" height="27" viewBox="0 0 27 27" fill="none" xmlns="http://www.w3.org/2000/svg">
<g clip-path="url(#clip0_34965_136151)">
<path d="M13.5028 0C6.04343 0 0 6.04343 0 13.5028C0 20.9566 6.04343 27 13.5028 27C20.9623 27 27 20.9566 27 13.5028C27 6.04343 20.9566 0 13.5028 0Z" fill="white"/>
<path fill-rule="evenodd" clip-rule="evenodd" d="M19.361 12.5377L17.7738 8.03203C17.6191 7.60288 17.1995 7.31148 16.7246 7.30616H16.719C16.2441 7.30616 15.8244 7.59229 15.6698 8.02675L13.4941 14.2581L11.3184 8.02679C11.2386 7.81352 11.0951 7.62997 10.9074 7.50106C10.7197 7.37214 10.4969 7.30411 10.2692 7.3062H10.2637C10.0352 7.30412 9.81178 7.37276 9.62393 7.50272C9.43608 7.63267 9.29305 7.81756 9.21444 8.03203L7.63337 12.5395H6.10995C5.49698 12.5395 5 13.0164 5 13.6045C5 14.1927 5.49691 14.6695 6.10995 14.6695H6.8879L5.99503 17.2034C5.80176 17.7597 6.11099 18.3637 6.69081 18.5544C6.80495 18.5918 6.92414 18.6115 7.04424 18.6127C7.5081 18.6127 7.93881 18.3319 8.09345 17.8869L10.2802 11.6826L12.4451 17.8964C12.5249 18.1097 12.6684 18.2932 12.8561 18.4221C13.0438 18.551 13.2666 18.6191 13.4943 18.617C13.9692 18.617 14.3889 18.3309 14.5435 17.8964L16.7083 11.6826L18.8951 17.8922C19.0884 18.4485 19.7179 18.7505 20.3033 18.5598C20.8831 18.3743 21.1979 17.7703 20.9991 17.2087L20.1121 14.6729H20.89C21.503 14.6729 22 14.196 22 13.6079C22 13.0198 21.5031 12.543 20.89 12.543L19.361 12.5377Z" fill="#E51B44"/>
<path fill-rule="evenodd" clip-rule="evenodd" d="M15.6264 8.15088L14.1587 12.3545L15.3709 15.5205L16.7079 11.6828L15.6478 8.70467C15.6144 8.60204 15.5976 8.49472 15.5981 8.38679C15.5979 8.32635 15.6034 8.26603 15.6147 8.20665C15.6204 8.18118 15.624 8.16349 15.6264 8.15088Z" fill="#E51B44"/>
<path fill-rule="evenodd" clip-rule="evenodd" d="M9.1825 8.12305L7.70251 12.3425L8.92606 15.5245L10.2803 11.6825L9.20356 8.67896C9.16999 8.57594 9.15314 8.46821 9.15366 8.35986C9.15346 8.29924 9.15904 8.23873 9.17031 8.17917C9.17604 8.15352 9.18004 8.13573 9.1825 8.12305Z" fill="#E51B44"/>
<path fill-rule="evenodd" clip-rule="evenodd" d="M16.7556 11.8187L16.7557 11.8184L16.7395 11.7729L16.7556 11.8187Z" fill="#E51B44"/>
</g>
<defs>
<clipPath id="clip0_34965_136151">
<rect width="27" height="27" fill="white"/>
</clipPath>
</defs>
</svg>
