<svg width="27" height="27" viewBox="0 0 27 27" fill="none" xmlns="http://www.w3.org/2000/svg">
<path fill-rule="evenodd" clip-rule="evenodd" d="M0 13.0341L1.89846 16.4376C1.89846 16.4376 8.58421 12.4165 12.0899 10.3297C12.7351 9.94553 13.3302 9.78843 13.8718 9.78779C16.2714 9.78521 17.6173 12.8566 17.6173 12.8566L17.62 12.855L17.6208 12.8566L20.7323 10.9969C16.3323 3.09662 10.2085 6.92963 10.2085 6.92963L0 13.0341ZM27.0003 14.5491L25.1019 11.1455L15.1229 17.1257C11.6173 19.2303 9.59546 14.5988 9.59546 14.5988L6.48047 16.4585C10.8805 24.3587 17.0043 20.5293 17.0043 20.5293L27.0003 14.5491ZM22.2749 9.98539C22.994 9.98539 23.577 9.38158 23.577 8.63674C23.577 7.8919 22.994 7.28809 22.2749 7.28809C21.5557 7.28809 20.9727 7.8919 20.9727 8.63674C20.9727 9.38158 21.5557 9.98539 22.2749 9.98539ZM6.09291 19.5558C5.88974 20.0609 5.41261 20.3895 4.88423 20.388C4.16449 20.3861 3.58203 19.7812 3.58203 19.0358C3.58203 18.4886 3.90051 17.9953 4.38881 17.7862C4.87711 17.5771 5.43895 17.6935 5.81208 18.0809C6.18521 18.4684 6.29607 19.0506 6.09291 19.5558ZM13.7057 16.352C15.0835 16.352 16.2004 15.1953 16.2004 13.7683C16.2004 12.3413 15.0835 11.1846 13.7057 11.1846C12.3279 11.1846 11.2109 12.3413 11.2109 13.7683C11.2109 14.4536 11.4738 15.1107 11.9416 15.5953C12.4095 16.0798 13.044 16.352 13.7057 16.352Z" fill="white"/>
</svg>
