<svg width="24" height="25" viewBox="0 0 24 25" fill="none" xmlns="http://www.w3.org/2000/svg">
<path fill-rule="evenodd" clip-rule="evenodd" d="M8.75 7.32031C8.75 5.52539 10.2051 4.07031 12 4.07031C13.7949 4.07031 15.25 5.52539 15.25 7.32031C15.25 9.11524 13.7949 10.5703 12 10.5703C10.2051 10.5703 8.75 9.11524 8.75 7.32031ZM12 2.57031C9.37665 2.57031 7.25 4.69696 7.25 7.32031C7.25 9.94367 9.37665 12.0703 12 12.0703C14.6234 12.0703 16.75 9.94367 16.75 7.32031C16.75 4.69696 14.6234 2.57031 12 2.57031ZM7.7019 17.0222C8.3114 16.4127 9.13805 16.0703 10 16.0703H14C14.862 16.0703 15.6886 16.4127 16.2981 17.0222C16.9076 17.6317 17.25 18.4584 17.25 19.3203V21.3203C17.25 21.7345 17.5858 22.0703 18 22.0703C18.4142 22.0703 18.75 21.7345 18.75 21.3203V19.3203C18.75 18.0605 18.2496 16.8524 17.3588 15.9616C16.468 15.0708 15.2598 14.5703 14 14.5703H10C8.74022 14.5703 7.53204 15.0708 6.64124 15.9616C5.75044 16.8524 5.25 18.0605 5.25 19.3203V21.3203C5.25 21.7345 5.58579 22.0703 6 22.0703C6.41421 22.0703 6.75 21.7345 6.75 21.3203V19.3203C6.75 18.4584 7.09241 17.6317 7.7019 17.0222Z" fill="white"/>
</svg>
