<svg width="74" height="62" viewBox="0 0 74 62" fill="none" xmlns="http://www.w3.org/2000/svg">
<rect x="11" y="1" width="62" height="60" rx="9" stroke="#2FF6D3" stroke-width="2"/>
<path d="M46.7071 31.7071C47.0976 31.3166 47.0976 30.6834 46.7071 30.2929L40.3431 23.9289C39.9526 23.5384 39.3195 23.5384 38.9289 23.9289C38.5384 24.3195 38.5384 24.9526 38.9289 25.3431L44.5858 31L38.9289 36.6569C38.5384 37.0474 38.5384 37.6805 38.9289 38.0711C39.3195 38.4616 39.9526 38.4616 40.3431 38.0711L46.7071 31.7071ZM8.74228e-08 32L46 32L46 30L-8.74228e-08 30L8.74228e-08 32Z" fill="#2FF6D3"/>
<line x1="63.7334" y1="11.6809" x2="53.4143" y2="22" stroke="#2FF6D3" stroke-width="2" stroke-linecap="round"/>
<line x1="63.4618" y1="21.9999" x2="53.1426" y2="11.6808" stroke="#2FF6D3" stroke-width="2" stroke-linecap="round"/>
</svg>