<svg width="58" height="62" viewBox="0 0 58 62" fill="none" xmlns="http://www.w3.org/2000/svg">
<rect x="1.146" y="6.85291" width="55.7082" height="53.9382" rx="9" stroke="#2FF6D3" stroke-width="2"/>
<circle cx="41.8564" cy="22.116" r="6.26313" fill="#2FF6D3"/>
<mask id="path-3-inside-1_1175_332" fill="white">
<path fill-rule="evenodd" clip-rule="evenodd" d="M10.146 0C4.62315 0 0.145996 4.47716 0.145996 10V17.8529C0.145996 12.3301 4.62315 7.85291 10.146 7.85291H47.8542C48.0921 7.85291 48.328 7.86121 48.5618 7.87755C47.5885 3.37422 43.582 0 38.7875 0H10.146Z"/>
</mask>
<path d="M48.5618 7.87755L48.4223 9.87268L51.0793 10.0584L50.5167 7.45506L48.5618 7.87755ZM2.146 10C2.146 5.58173 5.72772 2 10.146 2V-2C3.51858 -2 -1.854 3.3726 -1.854 10H2.146ZM2.146 17.8529V10H-1.854V17.8529H2.146ZM2.146 17.8529C2.146 13.4346 5.72772 9.85291 10.146 9.85291V5.85291C3.51858 5.85291 -1.854 11.2255 -1.854 17.8529H2.146ZM10.146 9.85291H47.8542V5.85291H10.146V9.85291ZM47.8542 9.85291C48.0455 9.85291 48.235 9.85959 48.4223 9.87268L48.7013 5.88242C48.4211 5.86284 48.1387 5.85291 47.8542 5.85291V9.85291ZM38.7875 2C42.6207 2 45.8284 4.69793 46.6069 8.30005L50.5167 7.45506C49.3486 2.05051 44.5434 -2 38.7875 -2V2ZM10.146 2H38.7875V-2H10.146V2Z" fill="#2FF6D3" mask="url(#path-3-inside-1_1175_332)"/>
</svg>