<svg width="22" height="22" viewBox="0 0 22 22" fill="none" xmlns="http://www.w3.org/2000/svg">
<path d="M9.81553 9.81603C10.5937 10.0066 11.4064 10.0066 12.1846 9.81603C12.4019 8.93163 12.8572 8.12362 13.5011 7.47966C14.1451 6.8357 14.9531 6.38037 15.8375 6.16308C16.0167 5.43002 16.027 4.66581 15.8676 3.92818C15.7082 3.19055 15.3832 2.4988 14.9173 1.90518C14.4513 1.31156 13.8565 0.831599 13.1779 0.501551C12.4992 0.171502 11.7544 0 10.9998 0C10.2451 0 9.50033 0.171502 8.82167 0.501551C8.14301 0.831599 7.54824 1.31156 7.08227 1.90518C6.61631 2.4988 6.29134 3.19055 6.13192 3.92818C5.9725 4.66581 5.9828 5.43002 6.16204 6.16308C7.04653 6.38029 7.85466 6.83557 8.49872 7.47954C9.14279 8.12351 9.59819 8.93156 9.81553 9.81603Z" fill="white"/>
<path d="M12.184 12.183C11.4058 11.9924 10.5932 11.9924 9.81498 12.183C9.59752 13.0673 9.14214 13.8752 8.49821 14.5191C7.85427 15.1631 7.04635 15.6184 6.16204 15.8359C5.9828 16.569 5.9725 17.3332 6.13192 18.0708C6.29134 18.8084 6.61631 19.5002 7.08227 20.0938C7.54824 20.6874 8.14301 21.1674 8.82167 21.4974C9.50033 21.8275 10.2451 21.999 10.9998 21.999C11.7544 21.999 12.4992 21.8275 13.1779 21.4974C13.8565 21.1674 14.4513 20.6874 14.9173 20.0938C15.3832 19.5002 15.7082 18.8084 15.8676 18.0708C16.027 17.3332 16.0168 16.569 15.8375 15.8359C14.953 15.6187 14.1449 15.1634 13.5008 14.5194C12.8568 13.8755 12.4014 13.0674 12.184 12.183Z" fill="white"/>
<path d="M17.0223 6.02161C16.6233 6.02155 16.2258 6.06949 15.8383 6.16439C15.6211 7.04867 15.1658 7.85657 14.5219 8.50044C13.8781 9.14431 13.0702 9.59956 12.1859 9.81678C11.9953 10.595 11.9953 11.4076 12.1859 12.1858C13.0702 12.4032 13.8781 12.8586 14.5219 13.5025C15.1658 14.1465 15.621 14.9544 15.8383 15.8388C16.5223 16.0058 17.234 16.026 17.9264 15.8978C18.6188 15.7697 19.2761 15.4961 19.8551 15.0953C20.434 14.6944 20.9213 14.1754 21.2849 13.5724C21.6485 12.9693 21.8801 12.2961 21.9644 11.597C22.0487 10.8979 21.9838 10.1889 21.774 9.51672C21.5642 8.84456 21.2142 8.22453 20.7472 7.69755C20.2801 7.17057 19.7066 6.74862 19.0646 6.45954C18.4225 6.17046 17.7264 6.02083 17.0223 6.02051V6.02161Z" fill="white"/>
<path d="M9.81603 12.1844C10.0066 11.4063 10.0066 10.5936 9.81603 9.81541C8.9317 9.59816 8.12374 9.14292 7.47978 8.49906C6.83583 7.8552 6.38046 7.04731 6.16308 6.16301C5.43002 5.98378 4.66581 5.97348 3.92818 6.1329C3.19055 6.29232 2.4988 6.61728 1.90518 7.08325C1.31156 7.54921 0.831599 8.14399 0.501551 8.82265C0.171502 9.5013 0 10.2461 0 11.0008C0 11.7554 0.171502 12.5002 0.501551 13.1789C0.831599 13.8575 1.31156 14.4523 1.90518 14.9183C2.4988 15.3842 3.19055 15.7092 3.92818 15.8686C4.66581 16.028 5.43002 16.0177 6.16308 15.8385C6.38025 14.9539 6.83552 14.1457 7.47948 13.5015C8.12345 12.8574 8.93152 12.4019 9.81603 12.1844Z" fill="white"/>
<path d="M12.1855 9.81799C13.0699 9.60053 13.8778 9.14514 14.5217 8.50121C15.1657 7.85727 15.621 7.04936 15.8385 6.16504C14.9541 6.38233 14.1461 6.83766 13.5021 7.48162C12.8582 8.12558 12.4028 8.93359 12.1855 9.81799Z" fill="white"/>
<path d="M12.1855 12.1846C12.4028 13.069 12.8582 13.877 13.5021 14.5209C14.1461 15.1649 14.9541 15.6202 15.8385 15.8375C15.621 14.9532 15.1657 14.1453 14.5217 13.5013C13.8778 12.8574 13.0699 12.402 12.1855 12.1846Z" fill="white"/>
<path d="M9.81506 9.81799C9.5976 8.93367 9.14221 8.12575 8.49828 7.48182C7.85434 6.83788 7.04643 6.3825 6.16211 6.16504C6.37957 7.04936 6.83495 7.85727 7.47889 8.50121C8.12282 9.14514 8.93074 9.60053 9.81506 9.81799Z" fill="white"/>
<path d="M9.81506 12.1846C8.93074 12.402 8.12282 12.8574 7.47889 13.5013C6.83495 14.1453 6.37957 14.9532 6.16211 15.8375C7.04643 15.6201 7.85434 15.1647 8.49828 14.5207C9.14221 13.8768 9.5976 13.0689 9.81506 12.1846Z" fill="white"/>
<path d="M12.1855 9.81799C13.0699 9.60053 13.8778 9.14514 14.5217 8.50121C15.1657 7.85727 15.621 7.04936 15.8385 6.16504C14.9541 6.38233 14.1461 6.83766 13.5021 7.48162C12.8582 8.12558 12.4028 8.93359 12.1855 9.81799Z" fill="white"/>
<path d="M12.1855 12.1846C12.4028 13.069 12.8582 13.877 13.5021 14.5209C14.1461 15.1649 14.9541 15.6202 15.8385 15.8375C15.621 14.9532 15.1657 14.1453 14.5217 13.5013C13.8778 12.8574 13.0699 12.402 12.1855 12.1846Z" fill="white"/>
<path d="M9.81506 9.81799C9.5976 8.93367 9.14221 8.12575 8.49828 7.48182C7.85434 6.83788 7.04643 6.3825 6.16211 6.16504C6.37957 7.04936 6.83495 7.85727 7.47889 8.50121C8.12282 9.14514 8.93074 9.60053 9.81506 9.81799Z" fill="white"/>
<path d="M9.81506 12.1846C8.93074 12.402 8.12282 12.8574 7.47889 13.5013C6.83495 14.1453 6.37957 14.9532 6.16211 15.8375C7.04643 15.6201 7.85434 15.1647 8.49828 14.5207C9.14221 13.8768 9.5976 13.0689 9.81506 12.1846Z" fill="white"/>
</svg>
