<svg width="27" height="27" viewBox="0 0 27 27" fill="none" xmlns="http://www.w3.org/2000/svg">
<path fill-rule="evenodd" clip-rule="evenodd" d="M13.7498 8.6808L10.1571 12.2735L10.1572 12.2733L8.06686 10.1829L13.7498 4.5L19.4345 10.1846L17.3441 12.275L13.7498 8.6808ZM6.59071 11.6588L4.50024 13.7495L6.59056 15.8396L8.68102 13.7491L6.59071 11.6588ZM13.7498 18.8183L10.1571 15.2258L8.0639 17.3132L8.06686 17.3162L13.7498 22.9991L19.4345 17.3145L19.4355 17.3134L17.344 15.2241L13.7498 18.8183ZM20.9089 11.66L18.8185 13.7504L20.9089 15.8408L22.9993 13.7503L20.9089 11.66ZM15.8713 13.7483H15.8705L15.8725 13.7493L15.8714 13.7505L13.7503 15.8717L11.6309 13.752L11.628 13.749L11.6309 13.7461L12.0024 13.3746L12.1825 13.1944L13.7503 11.6271L15.8713 13.7483Z" fill="white"/>
</svg>
