<svg xmlns="http://www.w3.org/2000/svg" width="27" height="27" viewBox="0 0 27 27" fill="none">
<path fill-rule="evenodd" clip-rule="evenodd" d="M13.5 27C20.9558 27 27 20.9558 27 13.5C27 6.04416 20.9558 0 13.5 0C6.04416 0 0 6.04416 0 13.5C0 20.9558 6.04416 27 13.5 27ZM9.5634 17.0856C8.7588 17.0856 8.1 16.8966 7.587 16.5186C7.0794 16.1352 6.8256 15.5844 6.8256 14.877C6.8256 14.7258 6.8418 14.5476 6.8742 14.3316C6.9606 13.8456 7.0848 13.2624 7.2468 12.5766C7.7058 10.719 8.8938 9.7902 10.8054 9.7902C11.3238 9.7902 11.7936 9.8766 12.204 10.0548C12.6144 10.2222 12.9384 10.4814 13.176 10.827C13.4136 11.1672 13.5324 11.5722 13.5324 12.042C13.5324 12.1824 13.5162 12.3606 13.4838 12.5766C13.3812 13.176 13.2624 13.7646 13.1166 14.3316C12.879 15.255 12.474 15.9516 11.8908 16.4106C11.313 16.8642 10.5354 17.0856 9.5634 17.0856ZM9.7092 15.6276C10.0872 15.6276 10.4058 15.5142 10.6704 15.2928C10.9404 15.0714 11.1348 14.7312 11.2482 14.2668C11.4048 13.6296 11.5236 13.0788 11.6046 12.6036C11.6316 12.4632 11.6478 12.3174 11.6478 12.1662C11.6478 11.5506 11.3292 11.2428 10.6866 11.2428C10.3086 11.2428 9.9846 11.3562 9.7146 11.5776C9.45 11.799 9.261 12.1392 9.1476 12.6036C9.0234 13.0572 8.9046 13.608 8.7804 14.2668C8.7534 14.4018 8.7372 14.5422 8.7372 14.6934C8.7318 15.3198 9.0612 15.6276 9.7092 15.6276ZM13.8294 16.9182C13.8726 16.9668 13.9266 16.9884 14.0022 16.9884H15.3792C15.4494 16.9884 15.5142 16.9668 15.5736 16.9182C15.6384 16.8696 15.6708 16.8102 15.687 16.7346L16.1514 14.5152H17.5176C18.4032 14.5152 19.0998 14.3316 19.6074 13.959C20.1258 13.5864 20.466 13.014 20.6334 12.2364C20.6712 12.0528 20.6928 11.8746 20.6928 11.7072C20.6928 11.1186 20.4606 10.6704 20.0016 10.3572C19.548 10.0494 18.9486 9.8928 18.198 9.8928H15.5034C15.4332 9.8928 15.3684 9.9144 15.309 9.963C15.2442 10.0116 15.2064 10.071 15.1956 10.1466L13.797 16.7346C13.7862 16.8048 13.797 16.8642 13.8294 16.9182ZM18.3276 12.8844C18.117 13.041 17.874 13.1166 17.5878 13.1166H16.4268L16.8102 11.3022H18.0252C18.3006 11.3022 18.5004 11.3562 18.6138 11.4642C18.7272 11.5668 18.7866 11.718 18.7866 11.9124C18.7866 11.9988 18.7758 12.1014 18.7542 12.2148C18.684 12.5064 18.5436 12.7278 18.3276 12.8844Z" fill="white"/>
</svg>