<svg width="19" height="17" viewBox="0 0 19 17" fill="none" xmlns="http://www.w3.org/2000/svg">
<path d="M14.3864 5.19585C14.0392 4.99407 13.5927 4.99407 13.1958 5.19585L10.4178 6.86053L8.53264 7.91988L5.80418 9.58457C5.45692 9.78635 5.01044 9.78635 4.61358 9.58457L2.48042 8.273C2.13316 8.07122 1.88512 7.66766 1.88512 7.21365V4.69139C1.88512 4.28783 2.08355 3.88427 2.48042 3.63205L4.61358 2.37092C4.96084 2.16914 5.40731 2.16914 5.80418 2.37092L7.93734 3.68249C8.2846 3.88427 8.53264 4.28783 8.53264 4.74184V6.40653L10.4178 5.29674V3.5816C10.4178 3.17804 10.2193 2.77448 9.82245 2.52226L5.85379 0.151335C5.50653 -0.0504451 5.06005 -0.0504451 4.66319 0.151335L0.5953 2.5727C0.198433 2.77448 0 3.17804 0 3.5816V8.32344C0 8.727 0.198433 9.13056 0.5953 9.38279L4.61358 11.7537C4.96084 11.9555 5.40731 11.9555 5.80418 11.7537L8.53264 10.1395L10.4178 9.02967L13.1462 7.41543C13.4935 7.21365 13.9399 7.21365 14.3368 7.41543L16.47 8.67656C16.8172 8.87834 17.0653 9.2819 17.0653 9.73591V12.2582C17.0653 12.6617 16.8668 13.0653 16.47 13.3175L14.3864 14.5786C14.0392 14.7804 13.5927 14.7804 13.1958 14.5786L11.0627 13.3175C10.7154 13.1157 10.4674 12.7122 10.4674 12.2582V10.6439L8.58224 11.7537V13.4184C8.58224 13.822 8.78068 14.2255 9.17755 14.4777L13.1958 16.8487C13.5431 17.0504 13.9896 17.0504 14.3864 16.8487L18.4047 14.4777C18.752 14.276 19 13.8724 19 13.4184V8.62611C19 8.22255 18.8016 7.81899 18.4047 7.56677L14.3864 5.19585Z" fill="white"/>
</svg>
