<svg width="21" height="17" viewBox="0 0 21 17" fill="none" xmlns="http://www.w3.org/2000/svg">
<path fill-rule="evenodd" clip-rule="evenodd" d="M11.5618 2.92487C12.4267 2.02066 13.6677 1.5223 14.9836 1.66624C17.261 1.91535 18.9373 4.00803 18.6941 6.36794C18.5594 7.67532 17.8636 8.77807 16.8802 9.45777C16.1868 9.90154 15.6038 10.0497 15.2161 10.0945C14.8051 10.1419 14.5124 10.5141 14.5623 10.9259C14.6122 11.3377 14.9857 11.633 15.3966 11.5856C16.0005 11.5159 16.8064 11.294 17.7053 10.716L17.7149 10.7098L17.7242 10.7034C19.0619 9.78417 20.0038 8.29083 20.1852 6.53105C20.5105 3.37475 18.2657 0.516327 15.1374 0.174145C13.3338 -0.0231367 11.6427 0.663734 10.4762 1.88316C10.1908 2.18158 10.2024 2.65668 10.5021 2.94434C10.8019 3.232 11.2763 3.22328 11.5618 2.92487ZM1.75 9.82037C1.75 7.19701 3.87665 5.07037 6.5 5.07037C9.12335 5.07037 11.25 7.19701 11.25 9.82037C11.25 12.4437 9.12335 14.5704 6.5 14.5704C3.87665 14.5704 1.75 12.4437 1.75 9.82037ZM6.5 3.57037C3.04822 3.57037 0.25 6.36859 0.25 9.82037C0.25 13.2721 3.04822 16.0704 6.5 16.0704C9.95178 16.0704 12.75 13.2721 12.75 9.82037C12.75 6.36859 9.95178 3.57037 6.5 3.57037Z" fill="white"/>
</svg>
