<svg width="13" height="14" viewBox="0 0 13 14" fill="none" xmlns="http://www.w3.org/2000/svg">
<g opacity="0.4">
<mask id="path-1-inside-1_7089_11406" fill="white">
<path fill-rule="evenodd" clip-rule="evenodd" d="M1.72312 10.9383C2.29356 12.0384 2.94032 12.4424 3.43709 12.4424C3.93386 12.4424 4.58062 12.0384 5.15106 10.9383C5.70125 9.87719 6.06579 8.35482 6.06579 6.6286C6.06579 4.90239 5.70125 3.38002 5.15106 2.31893C4.58062 1.21879 3.93386 0.814842 3.43709 0.814842C2.94032 0.814842 2.29357 1.21879 1.72313 2.31893C1.17293 3.38002 0.808392 4.90239 0.808392 6.6286C0.808392 8.35482 1.17293 9.87719 1.72312 10.9383ZM3.69036e-05 6.6286C3.67435e-05 10.2895 1.53886 13.2572 3.43709 13.2572C5.33532 13.2572 6.87415 10.2895 6.87415 6.6286C6.87415 2.96773 5.33532 -6.7264e-08 3.43709 -1.50238e-07C1.53886 -2.33213e-07 3.70636e-05 2.96773 3.69036e-05 6.6286Z"/>
</mask>
<path fill-rule="evenodd" clip-rule="evenodd" d="M1.72312 10.9383C2.29356 12.0384 2.94032 12.4424 3.43709 12.4424C3.93386 12.4424 4.58062 12.0384 5.15106 10.9383C5.70125 9.87719 6.06579 8.35482 6.06579 6.6286C6.06579 4.90239 5.70125 3.38002 5.15106 2.31893C4.58062 1.21879 3.93386 0.814842 3.43709 0.814842C2.94032 0.814842 2.29357 1.21879 1.72313 2.31893C1.17293 3.38002 0.808392 4.90239 0.808392 6.6286C0.808392 8.35482 1.17293 9.87719 1.72312 10.9383ZM3.69036e-05 6.6286C3.67435e-05 10.2895 1.53886 13.2572 3.43709 13.2572C5.33532 13.2572 6.87415 10.2895 6.87415 6.6286C6.87415 2.96773 5.33532 -6.7264e-08 3.43709 -1.50238e-07C1.53886 -2.33213e-07 3.70636e-05 2.96773 3.69036e-05 6.6286Z" fill="white"/>
<path d="M1.72312 10.9383L0.835371 11.3986L0.835371 11.3986L1.72312 10.9383ZM5.15106 10.9383L6.03881 11.3986L6.03881 11.3986L5.15106 10.9383ZM5.15106 2.31893L6.03881 1.85861L6.03881 1.85861L5.15106 2.31893ZM1.72313 2.31893L0.835371 1.85861L0.835371 1.85861L1.72313 2.31893ZM3.43709 11.4424C3.49869 11.4424 3.11554 11.4512 2.61088 10.478L0.835371 11.3986C1.47159 12.6256 2.38196 13.4424 3.43709 13.4424L3.43709 11.4424ZM4.2633 10.478C3.75864 11.4512 3.3755 11.4424 3.43709 11.4424L3.43709 13.4424C4.49222 13.4424 5.40259 12.6256 6.03881 11.3986L4.2633 10.478ZM5.06579 6.6286C5.06579 8.22802 4.72577 9.58607 4.2633 10.478L6.03881 11.3986C6.67674 10.1683 7.06579 8.48161 7.06579 6.6286L5.06579 6.6286ZM4.2633 2.77924C4.72577 3.67114 5.06579 5.02919 5.06579 6.6286L7.06579 6.6286C7.06579 4.7756 6.67674 3.0889 6.03881 1.85861L4.2633 2.77924ZM3.43709 1.81484C3.3755 1.81484 3.75864 1.80597 4.2633 2.77924L6.03881 1.85861C5.40259 0.631611 4.49222 -0.185158 3.43709 -0.185158L3.43709 1.81484ZM2.61088 2.77924C3.11554 1.80597 3.49869 1.81484 3.43709 1.81484L3.43709 -0.185158C2.38196 -0.185158 1.47159 0.631611 0.835371 1.85861L2.61088 2.77924ZM1.80839 6.6286C1.80839 5.02919 2.14842 3.67114 2.61088 2.77924L0.835371 1.85861C0.19744 3.0889 -0.191608 4.7756 -0.191608 6.6286L1.80839 6.6286ZM2.61088 10.478C2.14842 9.58607 1.80839 8.22802 1.80839 6.6286L-0.191608 6.6286C-0.191608 8.48161 0.19744 10.1683 0.835371 11.3986L2.61088 10.478ZM3.43709 12.2572C3.05174 12.2572 2.45461 11.9357 1.89448 10.8554C1.36025 9.82511 1.00004 8.3323 1.00004 6.6286L-0.999963 6.6286C-0.999963 8.58579 -0.590765 10.4073 0.118972 11.7761C0.802811 13.0949 1.92421 14.2572 3.43709 14.2572L3.43709 12.2572ZM5.87415 6.6286C5.87415 8.3323 5.51393 9.82512 4.9797 10.8554C4.41957 11.9357 3.82244 12.2572 3.43709 12.2572L3.43709 14.2572C4.94997 14.2572 6.07137 13.0949 6.75521 11.7761C7.46495 10.4073 7.87415 8.58579 7.87415 6.6286L5.87415 6.6286ZM3.43709 1C3.82244 1 4.41957 1.32154 4.9797 2.40179C5.51393 3.43209 5.87415 4.92491 5.87415 6.6286L7.87415 6.6286C7.87415 4.67142 7.46495 2.84994 6.75521 1.48116C6.07137 0.162324 4.94997 -1 3.43709 -1L3.43709 1ZM1.00004 6.6286C1.00004 4.92491 1.36025 3.43209 1.89448 2.40179C2.45461 1.32154 3.05174 1 3.43709 1L3.43709 -1C1.92421 -1 0.802812 0.162324 0.118973 1.48116C-0.590765 2.84994 -0.999963 4.67142 -0.999963 6.6286L1.00004 6.6286Z" fill="white" mask="url(#path-1-inside-1_7089_11406)"/>
</g>
<g opacity="0.7">
<mask id="path-3-inside-2_7089_11406" fill="white">
<path fill-rule="evenodd" clip-rule="evenodd" d="M4.66917 10.9383C5.23961 12.0384 5.88637 12.4424 6.38314 12.4424C6.8799 12.4424 7.52666 12.0384 8.0971 10.9383C8.6473 9.87719 9.01184 8.35482 9.01184 6.6286C9.01184 4.90239 8.6473 3.38002 8.0971 2.31893C7.52666 1.21879 6.8799 0.814842 6.38314 0.814842C5.88637 0.814842 5.23961 1.21879 4.66917 2.31893C4.11897 3.38002 3.75444 4.90239 3.75444 6.6286C3.75444 8.35482 4.11897 9.87719 4.66917 10.9383ZM2.94608 6.6286C2.94608 10.2895 4.4849 13.2572 6.38314 13.2572C8.28137 13.2572 9.82019 10.2895 9.82019 6.6286C9.82019 2.96773 8.28137 -6.7264e-08 6.38314 -1.50238e-07C4.4849 -2.33213e-07 2.94608 2.96773 2.94608 6.6286Z"/>
</mask>
<path fill-rule="evenodd" clip-rule="evenodd" d="M4.66917 10.9383C5.23961 12.0384 5.88637 12.4424 6.38314 12.4424C6.8799 12.4424 7.52666 12.0384 8.0971 10.9383C8.6473 9.87719 9.01184 8.35482 9.01184 6.6286C9.01184 4.90239 8.6473 3.38002 8.0971 2.31893C7.52666 1.21879 6.8799 0.814842 6.38314 0.814842C5.88637 0.814842 5.23961 1.21879 4.66917 2.31893C4.11897 3.38002 3.75444 4.90239 3.75444 6.6286C3.75444 8.35482 4.11897 9.87719 4.66917 10.9383ZM2.94608 6.6286C2.94608 10.2895 4.4849 13.2572 6.38314 13.2572C8.28137 13.2572 9.82019 10.2895 9.82019 6.6286C9.82019 2.96773 8.28137 -6.7264e-08 6.38314 -1.50238e-07C4.4849 -2.33213e-07 2.94608 2.96773 2.94608 6.6286Z" fill="white"/>
<path d="M4.66917 10.9383L3.78142 11.3986L3.78142 11.3986L4.66917 10.9383ZM8.0971 10.9383L8.98486 11.3986L8.98486 11.3986L8.0971 10.9383ZM8.0971 2.31893L8.98486 1.85861L8.98486 1.85861L8.0971 2.31893ZM4.66917 2.31893L3.78142 1.85861L3.78142 1.85861L4.66917 2.31893ZM6.38314 11.4424C6.44473 11.4424 6.06158 11.4512 5.55692 10.478L3.78142 11.3986C4.41764 12.6256 5.32801 13.4424 6.38314 13.4424L6.38314 11.4424ZM7.20935 10.478C6.70469 11.4512 6.32154 11.4424 6.38314 11.4424L6.38314 13.4424C7.43826 13.4424 8.34864 12.6256 8.98486 11.3986L7.20935 10.478ZM8.01184 6.6286C8.01184 8.22802 7.67181 9.58607 7.20935 10.478L8.98486 11.3986C9.62279 10.1683 10.0118 8.48161 10.0118 6.6286L8.01184 6.6286ZM7.20935 2.77924C7.67181 3.67114 8.01184 5.02919 8.01184 6.6286L10.0118 6.6286C10.0118 4.7756 9.62279 3.0889 8.98486 1.85861L7.20935 2.77924ZM6.38314 1.81484C6.32154 1.81484 6.70469 1.80597 7.20935 2.77924L8.98486 1.85861C8.34864 0.631611 7.43827 -0.185158 6.38314 -0.185158L6.38314 1.81484ZM5.55692 2.77924C6.06158 1.80597 6.44473 1.81484 6.38314 1.81484L6.38314 -0.185158C5.32801 -0.185158 4.41764 0.631611 3.78142 1.85861L5.55692 2.77924ZM4.75444 6.6286C4.75444 5.02919 5.09446 3.67114 5.55693 2.77924L3.78142 1.85861C3.14348 3.0889 2.75444 4.7756 2.75444 6.6286L4.75444 6.6286ZM5.55692 10.478C5.09446 9.58607 4.75444 8.22802 4.75444 6.6286L2.75444 6.6286C2.75444 8.48161 3.14348 10.1683 3.78142 11.3986L5.55692 10.478ZM6.38314 12.2572C5.99778 12.2572 5.40066 11.9357 4.84053 10.8554C4.30629 9.82511 3.94608 8.3323 3.94608 6.6286L1.94608 6.6286C1.94608 8.58579 2.35528 10.4073 3.06502 11.7761C3.74886 13.0949 4.87026 14.2572 6.38314 14.2572L6.38314 12.2572ZM8.82019 6.6286C8.82019 8.3323 8.45998 9.82512 7.92575 10.8554C7.36562 11.9357 6.76849 12.2572 6.38314 12.2572L6.38314 14.2572C7.89602 14.2572 9.01742 13.0949 9.70125 11.7761C10.411 10.4073 10.8202 8.58579 10.8202 6.6286L8.82019 6.6286ZM6.38314 1C6.76849 1 7.36562 1.32154 7.92575 2.40179C8.45998 3.43209 8.82019 4.92491 8.82019 6.6286L10.8202 6.6286C10.8202 4.67142 10.411 2.84994 9.70126 1.48116C9.01742 0.162324 7.89602 -1 6.38314 -1L6.38314 1ZM3.94608 6.6286C3.94608 4.92491 4.3063 3.43209 4.84053 2.40179C5.40066 1.32154 5.99778 1 6.38314 1L6.38314 -1C4.87026 -1 3.74886 0.162324 3.06502 1.48116C2.35528 2.84994 1.94608 4.67142 1.94608 6.6286L3.94608 6.6286Z" fill="white" mask="url(#path-3-inside-2_7089_11406)"/>
</g>
<path d="M6.87414 9.32011C5.56016 9.32011 4.4281 8.1535 4.4281 6.62856C4.4281 5.10362 5.56016 3.93701 6.87414 3.93701C8.18813 3.93701 9.32019 5.10362 9.32019 6.62856C9.32019 8.1535 8.18813 9.32011 6.87414 9.32011Z" fill="white" stroke="white"/>
<mask id="path-6-inside-3_7089_11406" fill="white">
<path fill-rule="evenodd" clip-rule="evenodd" d="M7.61528 10.9383C8.18572 12.0384 8.83248 12.4424 9.32924 12.4424C9.82601 12.4424 10.4728 12.0384 11.0432 10.9383C11.5934 9.87719 11.9579 8.35482 11.9579 6.6286C11.9579 4.90239 11.5934 3.38002 11.0432 2.31893C10.4728 1.21879 9.82601 0.814842 9.32924 0.814842C8.83248 0.814842 8.18572 1.21879 7.61528 2.31893C7.06508 3.38002 6.70054 4.90239 6.70054 6.6286C6.70054 8.35482 7.06508 9.87719 7.61528 10.9383ZM5.89219 6.6286C5.89219 10.2895 7.43101 13.2572 9.32924 13.2572C11.2275 13.2572 12.7663 10.2895 12.7663 6.6286C12.7663 2.96773 11.2275 -6.7264e-08 9.32924 -1.50238e-07C7.43101 -2.33213e-07 5.89219 2.96773 5.89219 6.6286Z"/>
</mask>
<path fill-rule="evenodd" clip-rule="evenodd" d="M7.61528 10.9383C8.18572 12.0384 8.83248 12.4424 9.32924 12.4424C9.82601 12.4424 10.4728 12.0384 11.0432 10.9383C11.5934 9.87719 11.9579 8.35482 11.9579 6.6286C11.9579 4.90239 11.5934 3.38002 11.0432 2.31893C10.4728 1.21879 9.82601 0.814842 9.32924 0.814842C8.83248 0.814842 8.18572 1.21879 7.61528 2.31893C7.06508 3.38002 6.70054 4.90239 6.70054 6.6286C6.70054 8.35482 7.06508 9.87719 7.61528 10.9383ZM5.89219 6.6286C5.89219 10.2895 7.43101 13.2572 9.32924 13.2572C11.2275 13.2572 12.7663 10.2895 12.7663 6.6286C12.7663 2.96773 11.2275 -6.7264e-08 9.32924 -1.50238e-07C7.43101 -2.33213e-07 5.89219 2.96773 5.89219 6.6286Z" fill="white"/>
<path d="M7.61528 10.9383L6.72752 11.3986L6.72752 11.3986L7.61528 10.9383ZM11.0432 10.9383L11.931 11.3986L11.931 11.3986L11.0432 10.9383ZM11.0432 2.31893L11.931 1.85861L11.931 1.85861L11.0432 2.31893ZM7.61528 2.31893L6.72752 1.85861L6.72752 1.85861L7.61528 2.31893ZM9.32924 11.4424C9.39084 11.4424 9.00769 11.4512 8.50303 10.478L6.72752 11.3986C7.36374 12.6256 8.27411 13.4424 9.32924 13.4424L9.32924 11.4424ZM10.1555 10.478C9.6508 11.4512 9.26765 11.4424 9.32924 11.4424L9.32924 13.4424C10.3844 13.4424 11.2947 12.6256 11.931 11.3986L10.1555 10.478ZM10.9579 6.6286C10.9579 8.22802 10.6179 9.58607 10.1555 10.478L11.931 11.3986C12.5689 10.1683 12.9579 8.48161 12.9579 6.6286L10.9579 6.6286ZM10.1555 2.77924C10.6179 3.67114 10.9579 5.02919 10.9579 6.6286L12.9579 6.6286C12.9579 4.7756 12.5689 3.0889 11.931 1.85861L10.1555 2.77924ZM9.32924 1.81484C9.26765 1.81484 9.6508 1.80597 10.1555 2.77924L11.931 1.85861C11.2947 0.631611 10.3844 -0.185158 9.32924 -0.185158L9.32924 1.81484ZM8.50303 2.77924C9.00769 1.80597 9.39084 1.81484 9.32924 1.81484L9.32924 -0.185158C8.27411 -0.185158 7.36374 0.631611 6.72752 1.85861L8.50303 2.77924ZM7.70054 6.6286C7.70054 5.02919 8.04057 3.67114 8.50303 2.77924L6.72752 1.85861C6.08959 3.0889 5.70054 4.7756 5.70054 6.6286L7.70054 6.6286ZM8.50303 10.478C8.04057 9.58607 7.70054 8.22802 7.70054 6.6286L5.70054 6.6286C5.70054 8.48161 6.08959 10.1683 6.72752 11.3986L8.50303 10.478ZM9.32924 12.2572C8.94389 12.2572 8.34676 11.9357 7.78663 10.8554C7.2524 9.82511 6.89219 8.3323 6.89219 6.6286L4.89219 6.6286C4.89219 8.58579 5.30139 10.4073 6.01112 11.7761C6.69496 13.0949 7.81636 14.2572 9.32924 14.2572L9.32924 12.2572ZM11.7663 6.6286C11.7663 8.3323 11.4061 9.82512 10.8719 10.8554C10.3117 11.9357 9.7146 12.2572 9.32924 12.2572L9.32924 14.2572C10.8421 14.2572 11.9635 13.0949 12.6474 11.7761C13.3571 10.4073 13.7663 8.58579 13.7663 6.6286L11.7663 6.6286ZM9.32924 1C9.7146 1 10.3117 1.32154 10.8719 2.40179C11.4061 3.43209 11.7663 4.92491 11.7663 6.6286L13.7663 6.6286C13.7663 4.67142 13.3571 2.84994 12.6474 1.48116C11.9635 0.162324 10.8421 -1 9.32924 -1L9.32924 1ZM6.89219 6.6286C6.89219 4.92491 7.2524 3.43209 7.78663 2.40179C8.34676 1.32154 8.94389 1 9.32924 1L9.32924 -1C7.81636 -1 6.69496 0.162324 6.01112 1.48116C5.30139 2.84994 4.89219 4.67142 4.89219 6.6286L6.89219 6.6286Z" fill="white" mask="url(#path-6-inside-3_7089_11406)"/>
</svg>
