<svg width="24" height="25" viewBox="0 0 24 25" fill="none" xmlns="http://www.w3.org/2000/svg">
<g >
<path fill-rule="evenodd" clip-rule="evenodd" d="M8.13136 5.14621C8.99938 3.41016 9.83711 3.07031 10.1972 3.07031C10.5573 3.07031 11.395 3.41016 12.263 5.14621C12.4634 5.54695 12.6486 5.99402 12.8141 6.48145C10.0175 6.734 7.82617 9.08452 7.82617 11.9469C7.82617 14.8092 10.0175 17.1597 12.8141 17.4122C12.6486 17.8997 12.4634 18.3467 12.263 18.7474C11.395 20.4835 10.5573 20.8233 10.1972 20.8233C9.83711 20.8233 8.99938 20.4835 8.13135 18.7474C7.31515 17.115 6.75 14.7139 6.75 11.9468C6.75 9.17976 7.31515 6.77862 8.13136 5.14621ZM14.415 17.3243C14.1882 18.0941 13.915 18.7975 13.6047 19.4182C12.6511 21.3254 11.4235 22.3233 10.1972 22.3233C8.9709 22.3233 7.74331 21.3254 6.78971 19.4183C5.84894 17.5367 5.25 14.8963 5.25 11.9468C5.25 8.99731 5.84895 6.35693 6.78971 4.47539C7.74331 2.5682 8.9709 1.57031 10.1972 1.57031C11.4235 1.57031 12.6511 2.5682 13.6047 4.47539C13.9151 5.09618 14.1882 5.79959 14.415 6.56945C16.9182 7.07922 18.8019 9.29306 18.8019 11.9469C18.8019 14.6007 16.9182 16.8145 14.415 17.3243Z" fill="red"/>
</g>
</svg>
