<svg width="31" height="30" viewBox="0 0 31 30" fill="none" xmlns="http://www.w3.org/2000/svg">
<circle cx="15.4486" cy="14.8395" r="14.6078" fill="#00132F"/>
<path opacity="0.4" fill-rule="evenodd" clip-rule="evenodd" d="M9.33356 20.4952C10.0821 21.9388 10.9308 22.4688 11.5826 22.4688C12.2345 22.4688 13.0832 21.9388 13.8317 20.4952C14.5537 19.1028 15.032 17.1051 15.032 14.84C15.032 12.5748 14.5537 10.5771 13.8317 9.18476C13.0832 7.74116 12.2345 7.21109 11.5826 7.21109C10.9308 7.21109 10.0821 7.74116 9.33356 9.18476C8.61158 10.5771 8.13324 12.5748 8.13324 14.84C8.13324 17.1051 8.61158 19.1028 9.33356 20.4952ZM7.07251 14.84C7.07251 19.6438 9.09176 23.5381 11.5826 23.5381C14.0735 23.5381 16.0928 19.6438 16.0928 14.84C16.0928 10.0361 14.0735 6.14185 11.5826 6.14185C9.09176 6.14185 7.07251 10.0361 7.07251 14.84Z" fill="#2FF6D3"/>
<path opacity="0.7" fill-rule="evenodd" clip-rule="evenodd" d="M13.1993 20.4952C13.9478 21.9388 14.7965 22.4688 15.4484 22.4688C16.1002 22.4688 16.9489 21.9388 17.6974 20.4952C18.4194 19.1028 18.8978 17.1051 18.8978 14.84C18.8978 12.5748 18.4194 10.5771 17.6974 9.18476C16.9489 7.74116 16.1002 7.21109 15.4484 7.21109C14.7965 7.21109 13.9478 7.74116 13.1993 9.18476C12.4773 10.5771 11.999 12.5748 11.999 14.84C11.999 17.1051 12.4773 19.1028 13.1993 20.4952ZM10.9382 14.84C10.9382 19.6438 12.9575 23.5381 15.4484 23.5381C17.9392 23.5381 19.9585 19.6438 19.9585 14.84C19.9585 10.0361 17.9392 6.14185 15.4484 6.14185C12.9575 6.14185 10.9382 10.0361 10.9382 14.84Z" fill="#2FF6D3"/>
<path d="M16.0927 19.0256C13.9576 19.0256 12.2268 17.1506 12.2268 14.8376C12.2268 12.5247 13.9576 10.6497 16.0927 10.6497C18.2277 10.6497 19.9585 12.5247 19.9585 14.8376C19.9585 17.1506 18.2277 19.0256 16.0927 19.0256Z" fill="url(#paint0_linear_12037_3745)"/>
<path fill-rule="evenodd" clip-rule="evenodd" d="M17.065 20.4952C17.8135 21.9388 18.6622 22.4688 19.3141 22.4688C19.9659 22.4688 20.8146 21.9388 21.5632 20.4952C22.2851 19.1028 22.7635 17.1051 22.7635 14.84C22.7635 12.5748 22.2851 10.5771 21.5632 9.18476C20.8146 7.74116 19.9659 7.21109 19.3141 7.21109C18.6622 7.21109 17.8135 7.74116 17.065 9.18476C16.343 10.5771 15.8647 12.5748 15.8647 14.84C15.8647 17.1051 16.343 19.1028 17.065 20.4952ZM14.804 14.84C14.804 19.6438 16.8232 23.5381 19.3141 23.5381C21.805 23.5381 23.8242 19.6438 23.8242 14.84C23.8242 10.0361 21.805 6.14185 19.3141 6.14185C16.8232 6.14185 14.804 10.0361 14.804 14.84Z" fill="#2FF6D3"/>
<defs>
<linearGradient id="paint0_linear_12037_3745" x1="16.2003" y1="14.8376" x2="12.2268" y2="14.8376" gradientUnits="userSpaceOnUse">
<stop stop-color="white"/>
<stop offset="1" stop-color="white" stop-opacity="0"/>
</linearGradient>
</defs>
</svg>