<svg width="14" height="15" viewBox="0 0 14 15" fill="none" xmlns="http://www.w3.org/2000/svg">
<path opacity="0.4" fill-rule="evenodd" clip-rule="evenodd" d="M1.79299 12.1048C2.3878 13.2519 3.06219 13.6731 3.58018 13.6731C4.09816 13.6731 4.77255 13.2519 5.36736 12.1048C5.94106 10.9984 6.32117 9.41096 6.32117 7.611C6.32117 5.81105 5.94106 4.22364 5.36736 3.11721C4.77255 1.97008 4.09816 1.54887 3.58018 1.54887C3.06219 1.54887 2.3878 1.97008 1.79299 3.11721C1.21929 4.22364 0.839177 5.81105 0.839177 7.611C0.839177 9.41096 1.21929 10.9984 1.79299 12.1048ZM-0.00371153 7.611C-0.00371169 11.4283 1.60085 14.5228 3.58018 14.5228C5.5595 14.5228 7.16406 11.4283 7.16406 7.611C7.16406 3.79373 5.5595 0.699219 3.58018 0.699219C1.60085 0.699219 -0.00371136 3.79373 -0.00371153 7.611Z" fill="#2FF6D3"/>
<path opacity="0.7" fill-rule="evenodd" clip-rule="evenodd" d="M4.8633 12.1048C5.45811 13.2519 6.1325 13.6731 6.65049 13.6731C7.16848 13.6731 7.84287 13.2519 8.43767 12.1048C9.01138 10.9984 9.39149 9.41096 9.39149 7.611C9.39149 5.81105 9.01138 4.22364 8.43768 3.11721C7.84287 1.97008 7.16848 1.54887 6.65049 1.54887C6.1325 1.54887 5.45811 1.97008 4.8633 3.11721C4.2896 4.22364 3.90949 5.81105 3.90949 7.611C3.90949 9.41096 4.2896 10.9984 4.8633 12.1048ZM3.0666 7.611C3.0666 11.4283 4.67116 14.5228 6.65049 14.5228C8.62981 14.5228 10.2344 11.4283 10.2344 7.611C10.2344 3.79373 8.62981 0.699219 6.65049 0.699219C4.67116 0.699219 3.0666 3.79373 3.0666 7.611Z" fill="#2FF6D3"/>
<path d="M7.16247 10.937C5.46591 10.937 4.09057 9.44709 4.09057 7.60915C4.09057 5.7712 5.46591 4.28125 7.16247 4.28125C8.85904 4.28125 10.2344 5.7712 10.2344 7.60915C10.2344 9.44709 8.85904 10.937 7.16247 10.937Z" fill="url(#paint0_linear_18186_63702)"/>
<path fill-rule="evenodd" clip-rule="evenodd" d="M7.94143 12.1048C8.53623 13.2519 9.21062 13.6731 9.72861 13.6731C10.2466 13.6731 10.921 13.2519 11.5158 12.1048C12.0895 10.9984 12.4696 9.41096 12.4696 7.611C12.4696 5.81105 12.0895 4.22364 11.5158 3.11721C10.921 1.97008 10.2466 1.54887 9.72861 1.54887C9.21062 1.54887 8.53623 1.97008 7.94143 3.11721C7.36772 4.22364 6.98761 5.81105 6.98761 7.611C6.98761 9.41096 7.36772 10.9984 7.94143 12.1048ZM6.14473 7.611C6.14473 11.4283 7.74929 14.5228 9.72861 14.5228C11.7079 14.5228 13.3125 11.4283 13.3125 7.611C13.3125 3.79373 11.7079 0.699219 9.72861 0.699219C7.74929 0.699219 6.14473 3.79373 6.14473 7.611Z" fill="#2FF6D3"/>
<defs>
<linearGradient id="paint0_linear_18186_63702" x1="7.248" y1="7.60915" x2="4.09057" y2="7.60914" gradientUnits="userSpaceOnUse">
<stop stop-color="white"/>
<stop offset="1" stop-color="white" stop-opacity="0"/>
</linearGradient>
</defs>
</svg>
