<svg width="59" height="16" viewBox="0 0 59 16" fill="none" xmlns="http://www.w3.org/2000/svg">
<path d="M14.4286 4.05963L14.1088 3.49803C14.0837 3.45401 14.0488 3.41639 14.0068 3.38809C13.9648 3.3598 13.9168 3.3416 13.8665 3.33491C13.8163 3.32822 13.7652 3.33323 13.7173 3.34954C13.6693 3.36585 13.6258 3.39303 13.59 3.42895L12.8545 4.16389C12.8007 4.21794 12.7672 4.28892 12.7598 4.3648C12.7523 4.44068 12.7713 4.51681 12.8135 4.5803C13.0817 4.99017 13.2967 5.43252 13.4532 5.89668C13.7455 6.76437 13.8271 7.68918 13.6913 8.59466C13.5555 9.50015 13.2061 10.3603 12.6721 11.104C12.138 11.8478 11.4346 12.4537 10.6201 12.8718C9.80546 13.2899 8.90306 13.5081 7.98744 13.5084C7.04487 13.511 6.11628 13.2805 5.28433 12.8374L6.52842 11.5927C7.29934 11.8842 8.13999 11.9379 8.94172 11.7467C9.74344 11.5555 10.4694 11.1282 11.0257 10.5201C11.5821 9.91193 11.9432 9.15091 12.0625 8.33538C12.1817 7.51984 12.0537 6.68727 11.6948 5.94529C11.672 5.89778 11.6382 5.85643 11.5961 5.8247C11.554 5.79298 11.5049 5.77181 11.453 5.76298C11.4011 5.75414 11.3477 5.7579 11.2976 5.77393C11.2474 5.78996 11.2017 5.81779 11.1645 5.8551L10.42 6.59452C10.3803 6.63417 10.3514 6.68331 10.3361 6.73728C10.3207 6.79124 10.3194 6.84823 10.3324 6.90283L10.3963 7.1702C10.5064 7.63856 10.4773 8.12886 10.3127 8.58093C10.1481 9.03301 9.85508 9.42719 9.46963 9.71511C9.08418 10.003 8.62305 10.1722 8.14285 10.2017C7.66264 10.2313 7.18425 10.1201 6.76637 9.88163L6.43824 9.69358C6.37553 9.65746 6.30264 9.64308 6.23092 9.65268C6.1592 9.66229 6.09266 9.69533 6.04166 9.74667L3.00273 12.785C2.96956 12.8181 2.94385 12.858 2.92734 12.9019C2.91082 12.9458 2.90388 12.9928 2.90696 13.0396C2.91005 13.0864 2.92311 13.132 2.94525 13.1734C2.96739 13.2147 2.99811 13.2509 3.03535 13.2794L3.4831 13.6229C4.77434 14.6179 6.35984 15.1553 7.99 15.1503C9.28783 15.1487 10.5625 14.8066 11.6868 14.1583C12.8112 13.51 13.7458 12.5782 14.3974 11.4558C15.049 10.3334 15.3948 9.0597 15.4002 7.76188C15.4057 6.46406 15.0707 5.1875 14.4286 4.05963Z" fill="rgba(255, 255, 255, 0.5)"/>
<path d="M12.4991 1.84991C11.208 0.854492 9.62243 0.316895 7.99218 0.321811C6.69372 0.32282 5.41825 0.664558 4.29323 1.31288C3.16821 1.9612 2.23301 2.8934 1.58109 4.01635C0.929171 5.13929 0.583351 6.41365 0.578184 7.7121C0.573017 9.01055 0.908683 10.2876 1.55165 11.4157L1.87147 11.9767C1.89665 12.0207 1.93163 12.0582 1.97368 12.0865C2.01573 12.1148 2.06373 12.133 2.11395 12.1398C2.16417 12.1465 2.21528 12.1416 2.26329 12.1254C2.31131 12.1092 2.35496 12.0822 2.39085 12.0464L3.12516 11.3121C3.17857 11.258 3.21178 11.1871 3.21923 11.1115C3.22668 11.0358 3.20792 10.9598 3.1661 10.8963C2.89763 10.4866 2.68267 10.0442 2.52646 9.57996C2.23411 8.71227 2.15247 7.78745 2.28829 6.88197C2.4241 5.97648 2.77348 5.11632 3.30753 4.37259C3.84158 3.62885 4.54498 3.0229 5.35957 2.60482C6.17416 2.18674 7.07656 1.96853 7.99218 1.96824C8.93473 1.96611 9.86316 2.19728 10.6947 2.64114L9.44992 3.88524C8.82638 3.64892 8.15478 3.56753 7.49284 3.64806C6.8309 3.72859 6.19841 3.96865 5.64973 4.34758C5.10104 4.72652 4.65257 5.23302 4.34285 5.82355C4.03313 6.41407 3.87142 7.07097 3.87162 7.73779C3.87162 7.80623 3.89017 8.11838 3.89593 8.17211C3.94637 8.64452 4.0777 9.10474 4.28419 9.53262C4.30705 9.58014 4.34097 9.62149 4.3831 9.65321C4.42522 9.68492 4.47434 9.70609 4.52633 9.71492C4.57832 9.72375 4.63167 9.72 4.68191 9.70397C4.73215 9.68795 4.77781 9.66011 4.81509 9.62281L5.55963 8.87763C5.59928 8.83808 5.6282 8.78907 5.64364 8.73524C5.65909 8.68141 5.66055 8.62452 5.6479 8.56996L5.58393 8.30195C5.47372 7.83359 5.50269 7.34323 5.66728 6.8911C5.83188 6.43897 6.12493 6.04474 6.51045 5.75684C6.89597 5.46894 7.35718 5.29989 7.83744 5.27046C8.3177 5.24103 8.7961 5.35249 9.21389 5.59116L9.54202 5.77922C9.60482 5.81501 9.67763 5.82921 9.74927 5.81961C9.82092 5.81002 9.88743 5.77718 9.9386 5.72613L12.9769 2.68784C13.0101 2.65465 13.0359 2.61476 13.0524 2.57082C13.069 2.52688 13.076 2.47992 13.073 2.43306C13.07 2.3862 13.057 2.34052 13.0349 2.29908C13.0128 2.25764 12.9821 2.22139 12.9449 2.19276L12.4991 1.84991Z" fill="rgba(255, 255, 255, 0.5)"/>
<path d="M24.9809 9.78226C24.9254 9.73726 24.8558 9.71345 24.7845 9.71509C24.7131 9.71673 24.6446 9.74371 24.5913 9.79121C24.1148 10.1609 23.5621 10.5031 22.7543 10.5031C21.2754 10.5031 20.0723 9.25775 20.0723 7.72582C20.0723 6.19388 21.271 4.93763 22.7434 4.93763C23.383 4.93763 24.0739 5.20692 24.5817 5.65275C24.6104 5.68595 24.6459 5.71245 24.686 5.73036C24.726 5.74827 24.7694 5.75715 24.8133 5.75637C24.8513 5.75335 24.8881 5.74205 24.9213 5.72327C24.9544 5.70448 24.9831 5.67866 25.0052 5.64763L25.4862 5.15255C25.5168 5.12292 25.541 5.08729 25.5571 5.04788C25.5733 5.00847 25.5812 4.96615 25.5802 4.92356C25.5784 4.88028 25.5677 4.83784 25.5488 4.79889C25.5299 4.75993 25.5031 4.72529 25.4702 4.69712C24.6303 3.96538 23.7867 3.63916 22.7319 3.63916C20.4804 3.63916 18.6484 5.4826 18.6484 7.7482C18.6493 8.83124 19.0797 9.86972 19.8452 10.6358C20.6107 11.402 21.6489 11.8332 22.7319 11.8349C23.2407 11.8409 23.7456 11.7462 24.2176 11.5563C24.6897 11.3664 25.1195 11.085 25.4823 10.7283C25.5142 10.6958 25.5392 10.6573 25.5559 10.615C25.5726 10.5727 25.5806 10.5275 25.5796 10.482C25.5787 10.4458 25.5706 10.4102 25.5556 10.3772C25.5407 10.3442 25.5192 10.3146 25.4926 10.2901L24.9809 9.78226Z" fill="rgba(255, 255, 255, 0.5)"/>
<path d="M28.4828 3.75049H27.7543C27.673 3.75322 27.5958 3.78682 27.5384 3.84445C27.481 3.90208 27.4477 3.97941 27.4453 4.06071V11.4166C27.4475 11.498 27.4808 11.5755 27.5382 11.6332C27.5956 11.691 27.6729 11.7247 27.7543 11.7274H28.4828C28.5642 11.7247 28.6415 11.691 28.6989 11.6332C28.7563 11.5755 28.7895 11.498 28.7918 11.4166V4.06071C28.7894 3.97941 28.7561 3.90208 28.6987 3.84445C28.6413 3.78682 28.5641 3.75322 28.4828 3.75049Z" fill="rgba(255, 255, 255, 0.5)"/>
<path d="M37.1001 6.22653C37.1001 4.86154 35.9762 3.75049 34.5946 3.75049H31.5902C31.5081 3.75083 31.4296 3.78366 31.3717 3.8418C31.3138 3.89994 31.2812 3.97866 31.2813 4.06071V11.4166C31.2811 11.4987 31.3135 11.5776 31.3714 11.6359C31.4294 11.6942 31.508 11.7271 31.5902 11.7274H32.3079C32.3893 11.7247 32.4666 11.691 32.524 11.6332C32.5814 11.5755 32.6146 11.498 32.6168 11.4166V8.68083H34.1225L35.5649 11.5688C35.5912 11.6161 35.6297 11.6555 35.6764 11.6829C35.7231 11.7102 35.7763 11.7245 35.8304 11.7242H36.6913C36.7457 11.726 36.7996 11.7134 36.8476 11.6877C36.8955 11.662 36.9359 11.6241 36.9644 11.5778C36.9917 11.5289 37.006 11.4738 37.006 11.4178C37.006 11.3619 36.9917 11.3068 36.9644 11.2579L35.501 8.53052C36.4898 8.09108 37.1001 7.21733 37.1001 6.22653ZM35.7536 6.24892C35.7536 6.94165 35.1824 7.5282 34.5063 7.5282H32.6392V5.02657H34.5038C35.1811 5.02657 35.751 5.58625 35.751 6.24892H35.7536Z" fill="rgba(255, 255, 255, 0.5)"/>
<path d="M44.9458 9.78226C44.8904 9.73726 44.8207 9.71345 44.7494 9.71509C44.678 9.71673 44.6095 9.74371 44.5562 9.79121C44.0797 10.1609 43.5271 10.5031 42.7192 10.5031C41.2404 10.5031 40.0372 9.25775 40.0372 7.72582C40.0372 6.19388 41.2352 4.93763 42.7077 4.93763C43.3473 4.93763 44.0381 5.20692 44.5466 5.65275C44.5754 5.68627 44.6113 5.71297 44.6517 5.73089C44.6921 5.74882 44.7359 5.75752 44.7801 5.75637C44.8181 5.75335 44.855 5.74205 44.8881 5.72327C44.9213 5.70448 44.9499 5.67866 44.972 5.64763L45.453 5.15255C45.4835 5.12289 45.5076 5.08724 45.5237 5.04783C45.5397 5.00842 45.5475 4.9661 45.5464 4.92356C45.5449 4.88029 45.5344 4.83782 45.5155 4.79884C45.4967 4.75986 45.47 4.72522 45.437 4.69712C44.5991 3.96538 43.7554 3.63916 42.7006 3.63916C40.4491 3.63916 38.6172 5.4826 38.6172 7.7482C38.618 8.83124 39.0484 9.86972 39.8139 10.6358C40.5795 11.402 41.6176 11.8332 42.7006 11.8349C43.2094 11.8408 43.7143 11.7461 44.1864 11.5562C44.6584 11.3663 45.0882 11.0849 45.4511 10.7283C45.483 10.6957 45.508 10.6571 45.5247 10.6147C45.5414 10.5723 45.5494 10.5269 45.5483 10.4814C45.5475 10.4452 45.5394 10.4095 45.5244 10.3766C45.5095 10.3436 45.488 10.314 45.4613 10.2895L44.9458 9.78226Z" fill="rgba(255, 255, 255, 0.5)"/>
<path d="M51.6439 10.4923H48.7527V4.06071C48.7503 3.97941 48.717 3.90208 48.6596 3.84445C48.6022 3.78682 48.525 3.75322 48.4437 3.75049H47.7152C47.6331 3.75083 47.5546 3.78366 47.4967 3.8418C47.4388 3.89994 47.4062 3.97866 47.4063 4.06071V11.4166C47.4061 11.4987 47.4385 11.5776 47.4964 11.6359C47.5544 11.6942 47.633 11.7271 47.7152 11.7274H51.6439C51.6846 11.7274 51.7249 11.7192 51.7625 11.7036C51.8001 11.6879 51.8343 11.665 51.863 11.6361C51.8918 11.6073 51.9146 11.573 51.9301 11.5353C51.9456 11.4977 51.9535 11.4573 51.9535 11.4166V10.8057C51.9539 10.7648 51.9462 10.7241 51.9308 10.6862C51.9155 10.6482 51.8927 10.6136 51.864 10.5845C51.8352 10.5554 51.8009 10.5322 51.7631 10.5164C51.7254 10.5006 51.6848 10.4924 51.6439 10.4923Z" fill="rgba(255, 255, 255, 0.5)"/>
<path d="M58.1912 4.99526C58.2733 4.99492 58.3518 4.96209 58.4097 4.90395C58.4676 4.84581 58.5002 4.76709 58.5002 4.68504V4.06267C58.5002 3.98061 58.4676 3.9019 58.4097 3.84376C58.3518 3.78561 58.2733 3.75278 58.1912 3.75244H53.7777C53.6956 3.75278 53.6171 3.78561 53.5592 3.84376C53.5013 3.9019 53.4687 3.98061 53.4688 4.06267V11.4185C53.4686 11.5007 53.501 11.5796 53.5589 11.6378C53.6169 11.6961 53.6955 11.729 53.7777 11.7294H58.1912C58.2734 11.729 58.3521 11.6961 58.41 11.6378C58.4679 11.5796 58.5003 11.5007 58.5002 11.4185V10.8077C58.5002 10.7256 58.4676 10.6469 58.4097 10.5888C58.3518 10.5306 58.2733 10.4978 58.1912 10.4974H54.8011V8.30284H57.6482C57.7303 8.30267 57.8091 8.26991 57.8671 8.21175C57.9251 8.15359 57.9577 8.07478 57.9577 7.99261V7.37088C57.9555 7.28936 57.9222 7.21178 57.8647 7.154C57.8071 7.09622 57.7297 7.0626 57.6482 7.06002H54.803V4.99526H58.1912Z" fill="rgba(255, 255, 255, 0.5)"/>
</svg>
