<svg width="85" height="17" viewBox="0 0 85 17" fill="none" xmlns="http://www.w3.org/2000/svg">
<g opacity="0.85">
<path opacity="0.4" fill-rule="evenodd" clip-rule="evenodd" d="M2.03673 12.9451C2.71183 14.2471 3.47725 14.7252 4.06516 14.7252C4.65307 14.7252 5.41849 14.2471 6.09359 12.9451C6.74473 11.6894 7.17615 9.88768 7.17615 7.84476C7.17615 5.80184 6.74473 4.00016 6.09359 2.74438C5.41849 1.4424 4.65307 0.964342 4.06516 0.964342C3.47725 0.964342 2.71183 1.4424 2.03673 2.74438C1.38559 4.00016 0.954171 5.80184 0.954171 7.84476C0.954171 9.88768 1.38559 11.6894 2.03673 12.9451ZM-0.00249325 7.84476C-0.00249344 12.1773 1.81866 15.6895 4.06516 15.6895C6.31166 15.6895 8.13281 12.1773 8.13281 7.84476C8.13281 3.51222 6.31166 -7.9605e-08 4.06516 -1.77803e-07C1.81866 -2.76001e-07 -0.00249306 3.51222 -0.00249325 7.84476Z" fill="#2FF6D3"/>
<path opacity="0.7" fill-rule="evenodd" clip-rule="evenodd" d="M5.52111 12.9451C6.1962 14.2471 6.96163 14.7252 7.54953 14.7252C8.13744 14.7252 8.90286 14.2471 9.57796 12.9451C10.2291 11.6894 10.6605 9.88768 10.6605 7.84476C10.6605 5.80184 10.2291 4.00016 9.57796 2.74438C8.90286 1.4424 8.13744 0.964342 7.54953 0.964342C6.96163 0.964342 6.1962 1.4424 5.52111 2.74438C4.86996 4.00016 4.43855 5.80184 4.43855 7.84476C4.43855 9.88768 4.86996 11.6894 5.52111 12.9451ZM3.48188 7.84476C3.48188 12.1773 5.30303 15.6895 7.54953 15.6895C9.79604 15.6895 11.6172 12.1773 11.6172 7.84476C11.6172 3.51222 9.79604 -7.9605e-08 7.54953 -1.77803e-07C5.30303 -2.76001e-07 3.48188 3.51222 3.48188 7.84476Z" fill="#2FF6D3"/>
<path d="M8.13063 11.6206C6.20505 11.6206 4.64407 9.92955 4.64407 7.84351C4.64407 5.75747 6.20505 4.06641 8.13063 4.06641C10.0562 4.06641 11.6172 5.75747 11.6172 7.84351C11.6172 9.92955 10.0562 11.6206 8.13063 11.6206Z" fill="url(#paint0_linear_25269_134106)"/>
<path fill-rule="evenodd" clip-rule="evenodd" d="M9.01329 12.9451C9.68839 14.2471 10.4538 14.7252 11.0417 14.7252C11.6296 14.7252 12.3951 14.2471 13.0701 12.9451C13.7213 11.6894 14.1527 9.88768 14.1527 7.84476C14.1527 5.80184 13.7213 4.00016 13.0702 2.74438C12.3951 1.4424 11.6296 0.964342 11.0417 0.964342C10.4538 0.964342 9.68839 1.4424 9.01329 2.74438C8.36215 4.00016 7.93073 5.80184 7.93073 7.84476C7.93073 9.88768 8.36215 11.6894 9.01329 12.9451ZM6.97407 7.84476C6.97407 12.1773 8.79522 15.6895 11.0417 15.6895C13.2882 15.6895 15.1094 12.1773 15.1094 7.84476C15.1094 3.51222 13.2882 -7.9605e-08 11.0417 -1.77803e-07C8.79522 -2.76001e-07 6.97407 3.51222 6.97407 7.84476Z" fill="#2FF6D3"/>
<path d="M21.0014 11.0395C20.6614 11.0395 20.3692 10.9158 20.1246 10.6682C19.8801 10.4207 19.7578 10.1249 19.7578 9.78074V5.77799C19.7578 5.43386 19.8801 5.13803 20.1246 4.8905C20.3692 4.64297 20.6614 4.51921 21.0014 4.51921H26.1816V5.72365H21.2519C21.0849 5.72365 20.9895 5.73573 20.9656 5.75988C20.9477 5.77799 20.9388 5.87157 20.9388 6.04061V9.51812C20.9388 9.68716 20.9477 9.78376 20.9656 9.80791C20.9895 9.82602 21.0849 9.83508 21.2519 9.83508H26.1816V11.0395H21.0014Z" fill="white"/>
<path d="M27.8123 11.0395V4.06641H28.9843V5.78705H31.8472C32.1812 5.78705 32.4705 5.91081 32.7151 6.15834C32.9596 6.39984 33.0819 6.69265 33.0819 7.03677V11.0395H31.9099V7.29034C31.9099 7.1213 31.8979 7.02772 31.8741 7.00961C31.8562 6.98546 31.7637 6.97338 31.5967 6.97338H29.2974C29.1304 6.97338 29.035 6.98546 29.0111 7.00961C28.9932 7.02772 28.9843 7.1213 28.9843 7.29034V11.0395H27.8123Z" fill="white"/>
<path d="M35.7384 11.0395C35.3984 11.0395 35.1061 10.9188 34.8616 10.6773C34.623 10.4298 34.5037 10.1339 34.5037 9.7898V7.81559H38.6013V7.29034C38.6013 7.1213 38.5894 7.02772 38.5655 7.00961C38.5476 6.98546 38.4552 6.97338 38.2882 6.97338H34.5037V5.78705H38.5387C38.8787 5.78705 39.1679 5.91081 39.4065 6.15834C39.6511 6.39984 39.7733 6.69265 39.7733 7.03677V11.0395H35.7384ZM35.9889 9.85319H38.6013V8.8842H35.6757V9.53623C35.6757 9.70527 35.6847 9.80187 35.7026 9.82602C35.7264 9.84413 35.8219 9.85319 35.9889 9.85319Z" fill="white"/>
<path d="M41.4315 11.0395V5.78705H42.6035V11.0395H41.4315ZM41.4315 5.2618V4.06641H42.6035V5.2618H41.4315Z" fill="white"/>
<path d="M44.3581 11.0395V5.78705H48.3931C48.7331 5.78705 49.0224 5.91081 49.2609 6.15834C49.5055 6.39984 49.6278 6.69265 49.6278 7.03677V11.0395H48.4557V7.29034C48.4557 7.1213 48.4438 7.02772 48.4199 7.00961C48.4021 6.98546 48.3096 6.97338 48.1426 6.97338H45.8433C45.6763 6.97338 45.5808 6.98546 45.557 7.00961C45.5391 7.02772 45.5301 7.1213 45.5301 7.29034V11.0395H44.3581Z" fill="white"/>
<path d="M51.3213 11.0395V4.52826H56.5104C56.8563 4.52826 57.1516 4.65203 57.3961 4.89956C57.6407 5.14709 57.7629 5.44292 57.7629 5.78705V7.54391C57.7629 7.88804 57.6407 8.18387 57.3961 8.4314C57.1516 8.67893 56.8563 8.80269 56.5104 8.80269L52.5022 8.81175V11.0395H51.3213ZM52.8154 7.59825H56.2599C56.4209 7.59825 56.5134 7.58919 56.5372 7.57108C56.5611 7.54693 56.573 7.45335 56.573 7.29034V6.04061C56.573 5.87157 56.5611 5.77799 56.5372 5.75988C56.5134 5.73573 56.4209 5.72365 56.2599 5.72365H52.8154C52.6484 5.72365 52.5529 5.73573 52.5291 5.75988C52.5112 5.77799 52.5022 5.87157 52.5022 6.04061V7.29034C52.5022 7.45335 52.5112 7.54693 52.5291 7.57108C52.5529 7.58919 52.6484 7.59825 52.8154 7.59825Z" fill="white"/>
<path d="M60.3039 11.0395C59.964 11.0395 59.6717 10.9188 59.4272 10.6773C59.1886 10.4298 59.0693 10.1339 59.0693 9.7898V7.03677C59.0693 6.69265 59.1886 6.39984 59.4272 6.15834C59.6717 5.91081 59.964 5.78705 60.3039 5.78705H63.1043C63.4442 5.78705 63.7335 5.91081 63.9721 6.15834C64.2166 6.39984 64.3389 6.69265 64.3389 7.03677V9.7898C64.3389 10.1339 64.2166 10.4298 63.9721 10.6773C63.7335 10.9188 63.4442 11.0395 63.1043 11.0395H60.3039ZM60.5544 9.85319H62.8538C63.0208 9.85319 63.1132 9.84413 63.1311 9.82602C63.155 9.80187 63.1669 9.70527 63.1669 9.53623V7.29034C63.1669 7.1213 63.155 7.02772 63.1311 7.00961C63.1132 6.98546 63.0208 6.97338 62.8538 6.97338H60.5544C60.3874 6.97338 60.292 6.98546 60.2682 7.00961C60.2503 7.02772 60.2413 7.1213 60.2413 7.29034V9.53623C60.2413 9.70527 60.2503 9.80187 60.2682 9.82602C60.292 9.84413 60.3874 9.85319 60.5544 9.85319Z" fill="white"/>
<path d="M65.7876 11.0395V7.03677C65.7876 6.69265 65.9069 6.39984 66.1455 6.15834C66.39 5.91081 66.6823 5.78705 67.0222 5.78705H69.9031V6.97338H67.2728C67.1057 6.97338 67.0103 6.98546 66.9865 7.00961C66.9686 7.02772 66.9596 7.1213 66.9596 7.29034V11.0395H65.7876Z" fill="white"/>
<path d="M72.4212 11.0395C72.0813 11.0395 71.789 10.9188 71.5445 10.6773C71.3059 10.4298 71.1866 10.1339 71.1866 9.7898V4.17508H72.3586V5.78705H74.3806V6.97338H72.3586V9.53623C72.3586 9.70527 72.3676 9.80187 72.3855 9.82602C72.4093 9.84413 72.5047 9.85319 72.6718 9.85319H74.3806V11.0395H72.4212Z" fill="white"/>
<path fill-rule="evenodd" clip-rule="evenodd" d="M80.2796 10.5511L76.715 15.8508C76.6317 15.9673 76.5207 16.0256 76.3819 16.0256H74.5332C74.4722 16.0256 74.425 15.9979 74.3917 15.9424C74.3806 15.9146 74.375 15.8896 74.375 15.8674C74.375 15.8396 74.3833 15.8119 74.4 15.7841L79.0679 8.78024L80.2796 10.5511ZM77.5628 4.36384L77.1565 3.73615C77.1398 3.70839 77.1315 3.67786 77.1315 3.64455C77.1315 3.62234 77.137 3.59736 77.1481 3.5696C77.1814 3.51409 77.2286 3.48633 77.2897 3.48633H79.1384C79.2772 3.48633 79.3882 3.5474 79.4715 3.66953L80.9371 5.93456L82.4027 3.66953C82.486 3.5474 82.597 3.48633 82.7358 3.48633H84.5844C84.6455 3.48633 84.6899 3.51409 84.7177 3.5696C84.7343 3.59736 84.7427 3.62512 84.7427 3.65287C84.7427 3.68063 84.7343 3.70839 84.7177 3.73615L82.1112 7.74992L84.7177 11.772C84.7343 11.7942 84.7427 11.8192 84.7427 11.847C84.7427 11.8747 84.7343 11.9025 84.7177 11.9302C84.6899 11.9858 84.6455 12.0135 84.5844 12.0135H82.7358C82.597 12.0135 82.486 11.9552 82.4027 11.8386L82.2395 11.5865L82.2576 11.586L77.5677 4.33789L77.5628 4.36384Z" fill="white"/>
</g>
<defs>
<linearGradient id="paint0_linear_25269_134106" x1="8.2277" y1="7.84351" x2="4.64407" y2="7.84351" gradientUnits="userSpaceOnUse">
<stop stop-color="white"/>
<stop offset="1" stop-color="white" stop-opacity="0"/>
</linearGradient>
</defs>
</svg>
