<svg width="38" height="38" viewBox="0 0 38 38" fill="none" xmlns="http://www.w3.org/2000/svg">
<path d="M3.27881 14.9473L3.27878 14.9473L3.28151 14.9524C3.82295 15.9474 4.61952 16.7401 5.65541 17.33C6.71188 17.9316 8.01141 18.2163 9.52637 18.2163C11.0279 18.2163 12.3148 17.9316 13.3586 17.3293C14.3949 16.7388 15.1802 15.9441 15.6952 14.9448C16.2149 13.962 16.4727 12.8876 16.4727 11.7305V10.189C16.4727 9.00727 16.2159 7.91918 15.6952 6.93462C15.18 5.93484 14.3943 5.1399 13.3573 4.54939C12.3002 3.94745 10.9937 3.66309 9.46631 3.66309C7.97617 3.66309 6.69061 3.94851 5.63539 4.54939C4.59851 5.13984 3.80716 5.93407 3.27881 6.93207C2.75722 7.9173 2.5 9.00625 2.5 10.189V11.7305C2.5 12.8886 2.75816 13.9639 3.27881 14.9473ZM10.9313 12.6685L10.9281 12.6757L10.9251 12.6829C10.8132 12.9576 10.6449 13.1754 10.4163 13.3459C10.2164 13.4829 9.92641 13.5728 9.50635 13.5728C9.10644 13.5728 8.80062 13.4857 8.56441 13.3375C8.32277 13.1639 8.14354 12.9434 8.02136 12.6685C7.89006 12.3731 7.82422 12.062 7.82422 11.7305V10.189C7.82422 9.82596 7.89191 9.50214 8.02136 9.21088C8.14403 8.93486 8.32301 8.72266 8.56251 8.563L8.56839 8.55907L8.57416 8.55499C8.79491 8.39862 9.08257 8.30664 9.46631 8.30664C9.88347 8.30664 10.1822 8.4018 10.3985 8.55499L10.4043 8.55907L10.4102 8.563C10.6463 8.7204 10.8156 8.92771 10.9251 9.19646L10.9281 9.20372L10.9313 9.21088C11.0607 9.50214 11.1284 9.82596 11.1284 10.189V11.7305C11.1284 12.062 11.0626 12.3731 10.9313 12.6685ZM22.115 23.3431L22.115 23.343L22.1123 23.3481C21.5912 24.3324 21.3335 25.4145 21.3335 26.585V28.1265C21.3335 29.2969 21.5912 30.379 22.1123 31.3633L22.1123 31.3634L22.115 31.3684C22.6574 32.3653 23.4622 33.1581 24.5115 33.7475C25.5798 34.3475 26.8846 34.6323 28.3999 34.6323C29.9021 34.6323 31.1894 34.3474 32.2334 33.7445C33.257 33.1534 34.0345 32.3586 34.5487 31.3607C35.0689 30.3771 35.3262 29.2959 35.3262 28.1265V26.585C35.3262 25.4156 35.0689 24.3343 34.5487 23.3507C34.0337 22.3513 33.2485 21.5566 32.2122 20.9662C31.1671 20.3631 29.8662 20.0791 28.3398 20.0791C26.8494 20.0791 25.5585 20.3646 24.4915 20.9639L24.4889 20.9654C23.453 21.5553 22.6565 22.348 22.115 23.3431ZM29.8624 29.1456L29.86 29.1538L29.8578 29.1621C29.7941 29.4079 29.6621 29.6047 29.4457 29.7651C29.2782 29.8862 28.9523 29.9888 28.3799 29.9888C28.0763 29.9888 27.8048 29.91 27.5541 29.751C27.2892 29.5696 27.077 29.3362 26.9151 29.0448C26.7563 28.759 26.6777 28.4556 26.6777 28.1265V26.585C26.6777 26.2377 26.7445 25.9202 26.8749 25.6269C26.9975 25.3509 27.1765 25.1387 27.416 24.979L27.4219 24.9751L27.4277 24.971C27.6461 24.8163 27.9394 24.7227 28.3398 24.7227C28.7403 24.7227 29.0336 24.8163 29.252 24.971L29.2578 24.9751L29.2637 24.979C29.5032 25.1387 29.6821 25.3509 29.8048 25.6269C29.9352 25.9202 30.002 26.2377 30.002 26.585V28.1265C30.002 28.4969 29.9542 28.8357 29.8624 29.1456Z" stroke="#2FF6D3"/>
<rect x="24.9888" y="3.68479" width="4.75206" height="33.6567" rx="2.37603" transform="rotate(30.5655 24.9888 3.68479)" stroke="#2FF6D3"/>
</svg>
