<svg xmlns="http://www.w3.org/2000/svg" width="32" height="32" viewBox="0 0 32 32" fill="none">
<rect x="8" y="14.4497" width="15.3818" height="13.5522" rx="3" stroke="#2FF6D3" stroke-width="2"/>
<path d="M11.3605 14.6256L10.0233 10.4574C9.2184 7.94845 10.5998 5.26206 13.1088 4.45718V4.45718C15.6177 3.6523 18.3041 5.03371 19.109 7.54266L19.3283 8.22645" stroke="#2FF6D3" stroke-width="2"/>
<mask id="path-3-outside-1_15786_51821" maskUnits="userSpaceOnUse" x="12.3184" y="16.938" width="7" height="9" fill="black">
<rect fill="white" x="12.3184" y="16.938" width="7" height="9"/>
<path fill-rule="evenodd" clip-rule="evenodd" d="M16.1482 22.3114C16.1482 21.8876 16.448 21.5303 16.7262 21.2106C16.9359 20.9696 17.0629 20.6548 17.0629 20.3102C17.0629 19.5524 16.4485 18.938 15.6906 18.938C14.9327 18.938 14.3184 19.5524 14.3184 20.3102C14.3184 20.6548 14.4454 20.9698 14.6552 21.2108C14.9334 21.5305 15.2334 21.8879 15.2334 22.3118V23.0532C15.2334 23.3058 15.4382 23.5106 15.6908 23.5106C15.9434 23.5106 16.1482 23.3058 16.1482 23.0532V22.3114Z"/>
</mask>
<path d="M15.0629 20.3102C15.0629 20.1541 15.1225 20.0069 15.2174 19.8977L18.2349 22.5235C18.7493 21.9324 19.0629 21.1554 19.0629 20.3102H15.0629ZM15.6906 20.938C15.3439 20.938 15.0629 20.6569 15.0629 20.3102H19.0629C19.0629 18.4478 17.5531 16.938 15.6906 16.938V20.938ZM16.3184 20.3102C16.3184 20.6569 16.0373 20.938 15.6906 20.938V16.938C13.8282 16.938 12.3184 18.4478 12.3184 20.3102H16.3184ZM16.1637 19.8977C16.2587 20.0068 16.3184 20.1541 16.3184 20.3102H12.3184C12.3184 21.1556 12.632 21.9327 13.1466 22.5239L16.1637 19.8977ZM17.2334 23.0532V22.3118H13.2334V23.0532H17.2334ZM14.1482 22.3114V23.0532H18.1482V22.3114H14.1482ZM13.2334 23.0532C13.2334 24.4104 14.3336 25.5106 15.6908 25.5106V21.5106C16.5428 21.5106 17.2334 22.2013 17.2334 23.0532H13.2334ZM13.1466 22.5239C13.215 22.6025 13.2586 22.6537 13.2939 22.6983C13.328 22.7415 13.3376 22.7578 13.3353 22.7539C13.3329 22.75 13.2334 22.5861 13.2334 22.3118H17.2334C17.2334 21.6136 16.9839 21.059 16.762 20.6905C16.5499 20.3383 16.2935 20.0467 16.1637 19.8977L13.1466 22.5239ZM15.6908 25.5106C17.048 25.5106 18.1482 24.4104 18.1482 23.0532H14.1482C14.1482 22.2013 14.8389 21.5106 15.6908 21.5106V25.5106ZM15.2174 19.8977C15.0877 20.0468 14.8314 20.3383 14.6194 20.6905C14.3976 21.059 14.1482 21.6134 14.1482 22.3114H18.1482C18.1482 22.5856 18.0488 22.7495 18.0464 22.7535C18.044 22.7574 18.0536 22.7411 18.0878 22.6978C18.123 22.6533 18.1665 22.6021 18.2349 22.5235L15.2174 19.8977Z" fill="#2FF6D3" mask="url(#path-3-outside-1_15786_51821)"/>
</svg>