<svg width="22" height="22" viewBox="0 0 22 22" fill="none" xmlns="http://www.w3.org/2000/svg">
<path d="M11.1059 13.8838C10.4355 13.8838 9.87354 14.4054 9.87354 15.0278C9.87354 15.6501 10.4355 16.1718 11.1059 16.1718C11.7517 16.1718 12.3383 15.6501 12.3087 15.0552C12.3383 14.4009 11.7813 13.8838 11.1059 13.8838Z" fill="#F3BA2F"/>
<path d="M10.8005 5.85212C10.2139 6.0077 9.84912 6.5019 9.84912 7.10135C9.8787 7.46285 9.90335 7.82892 9.93292 8.19042C10.0167 9.56778 10.1005 10.9177 10.1843 12.295C10.2139 12.7618 10.6033 13.1004 11.1061 13.1004C11.609 13.1004 12.0033 12.7389 12.028 12.2676C12.028 11.9839 12.028 11.723 12.0575 11.4348C12.1118 10.5516 12.1709 9.66845 12.2251 8.78529C12.2547 8.2133 12.309 7.64131 12.3385 7.06932C12.3385 6.8634 12.309 6.68036 12.2251 6.49733C11.9737 5.98482 11.3871 5.72399 10.8005 5.85212Z" fill="#F3BA2F"/>
<circle cx="11" cy="11" r="10" stroke="#F3BA2F" stroke-width="2"/>
</svg>
