<svg xmlns="http://www.w3.org/2000/svg" width="72" height="29" viewBox="0 0 72 29" fill="none">
<g opacity="0.8">
<path d="M35.6464 13.9232C34.9903 13.6516 34.1889 13.4252 33.2424 13.2436H33.2223C32.3027 13.0765 31.6128 12.923 31.153 12.7833C30.6932 12.6444 30.3316 12.4561 30.0677 12.219C29.8038 11.9822 29.6722 11.6546 29.6722 11.2362C29.6722 10.6229 29.8955 10.156 30.3416 9.83549C30.7881 9.51497 31.3762 9.35446 32.1064 9.35446C32.9045 9.35446 33.5497 9.56349 34.0437 9.98183C34.487 10.3575 34.7586 10.8348 34.8583 11.4129C34.878 11.5281 34.9726 11.6131 35.086 11.6144L37.3307 11.6318C37.4683 11.633 37.5785 11.5111 37.5648 11.3697C37.4896 10.5964 37.2422 9.89315 36.823 9.26035C36.3564 8.55669 35.714 8.00932 34.8957 7.61869C34.0775 7.22852 33.1478 7.0332 32.1064 7.0332C31.1192 7.0332 30.2302 7.22149 29.4389 7.59795C28.648 7.97446 28.0326 8.49697 27.5929 9.16623C27.1532 9.83549 26.9336 10.5881 26.9336 11.4245C26.9336 12.3446 27.1294 13.0835 27.5217 13.6408C27.9139 14.1985 28.4276 14.6202 29.0632 14.9059C29.6988 15.1917 30.4627 15.4181 31.3553 15.5856L31.4567 15.6063C32.4029 15.7875 33.1101 15.948 33.5767 16.0873C34.0433 16.2271 34.4114 16.4219 34.6821 16.6728C34.9525 16.9237 35.0876 17.2654 35.0876 17.6974C35.0876 18.3111 34.8442 18.7917 34.3575 19.1401C33.8708 19.4888 33.2416 19.663 32.4708 19.663C31.5508 19.663 30.8074 19.4225 30.2394 18.9414C29.7225 18.5039 29.4184 17.9421 29.3271 17.2562C29.3114 17.1377 29.2157 17.0477 29.0998 17.046L26.8579 17.0112C26.7216 17.0091 26.6113 17.1277 26.6218 17.2679C26.6853 18.1113 26.9412 18.8714 27.3893 19.5481C27.8829 20.2941 28.5624 20.8795 29.4281 21.3046C30.2933 21.73 31.2873 21.9423 32.4101 21.9423C33.4512 21.9423 34.3845 21.7474 35.2095 21.3569C36.0342 20.9666 36.6802 20.4263 37.1469 19.7363C37.6135 19.0463 37.8468 18.2693 37.8468 17.4047C37.8468 16.4846 37.6437 15.7423 37.2382 15.1775C36.8327 14.6132 36.3021 14.1952 35.6464 13.9232Z" fill="white"/>
<path d="M49.4303 19.5594H49.0799C48.8772 19.5594 48.7179 19.5039 48.6033 19.3919C48.4882 19.2808 48.4307 19.0992 48.4307 18.8483V14.8543C48.4307 13.5858 48.0385 12.6205 47.2544 11.9583C46.47 11.2965 45.5463 10.959 44.0994 10.959C42.7333 10.959 41.666 11.265 40.8277 11.8642C40.0634 12.4107 39.6028 13.1592 39.4451 14.1108C39.4206 14.2588 39.5292 14.3944 39.6744 14.3944H41.736C41.8394 14.3944 41.9319 14.3244 41.9593 14.2215C42.0534 13.8695 42.261 13.5821 42.582 13.3594C42.9537 13.1015 43.3954 12.9726 43.9771 12.9726C45.0741 12.9726 45.8541 13.6696 45.8541 14.7079V15.0326C45.8541 15.1653 45.7499 15.2727 45.6212 15.2727H43.7538C42.2393 15.2727 41.0896 15.5796 40.3055 16.1928C39.5211 16.8065 39.1289 17.6777 39.1289 18.8064C39.1289 19.7825 39.4873 20.5493 40.2042 21.1065C40.742 21.5245 41.3849 21.7658 42.0466 21.8716C42.5522 21.9525 43.0716 21.9819 43.5785 21.8981C44.1094 21.8106 44.5407 21.585 44.9723 21.2633C45.3601 20.9747 45.6835 20.6048 45.9788 20.1537C46.1228 19.8986 46.5006 20.001 46.5006 20.2959V20.6504C46.5002 21.2948 47.0066 21.8173 47.6318 21.8173H49.4303C49.559 21.8173 49.6633 21.7099 49.6633 21.5772V19.7991C49.6633 19.6664 49.559 19.5594 49.4303 19.5594ZM45.8545 17.4057C45.8545 17.9216 45.7495 18.371 45.5399 18.7542C45.1006 19.5578 44.3146 19.9774 43.43 19.9774C42.9159 19.9774 42.5036 19.8522 42.1926 19.6013C41.8813 19.3505 41.726 19.0158 41.726 18.5974C41.726 18.1239 41.8986 17.7577 42.2433 17.4998C42.5881 17.2423 43.078 17.1129 43.714 17.1129H45.6216C45.7503 17.1129 45.8545 17.2204 45.8545 17.353V17.4057Z" fill="white"/>
<path d="M56.946 7.18555H54.2633C52.8481 7.18555 51.7008 8.36812 51.7008 9.82692V10.9875C51.7008 11.1202 51.5966 11.2277 51.4679 11.2277H49.936C49.8073 11.2277 49.7031 11.335 49.7031 11.4677V13.2665C49.7031 13.3992 49.8073 13.5066 49.936 13.5066H51.4679C51.5966 13.5066 51.7008 13.614 51.7008 13.7467V21.5763C51.7008 21.709 51.805 21.8164 51.9337 21.8164H54.0239C54.1527 21.8164 54.2568 21.709 54.2568 21.5763V13.7467C54.2568 13.614 54.361 13.5066 54.4898 13.5066H56.9255C57.0543 13.5066 57.1586 13.3992 57.1586 13.2665V11.4677C57.1586 11.335 57.0543 11.2277 56.9255 11.2277H54.4898C54.361 11.2277 54.2568 11.1202 54.2568 10.9875V9.94469C54.2568 9.67932 54.4656 9.46452 54.7227 9.46452H56.9456C57.0744 9.46452 57.1785 9.35709 57.1785 9.2244V7.4256C57.1785 7.29292 57.0748 7.18555 56.946 7.18555Z" fill="white"/>
<path d="M67.1844 13.3905C66.7318 12.6101 66.1124 12.0105 65.3284 11.5922C64.5444 11.1742 63.6375 10.959 62.6106 10.959C61.5832 10.959 60.6964 11.1916 59.9124 11.6444C59.1278 12.0976 58.5192 12.7387 58.0866 13.568C57.6541 14.3978 57.4375 15.3697 57.4375 16.4852C57.4375 17.6006 57.6609 18.5311 58.1066 19.3604C58.5535 20.1897 59.1924 20.8275 60.0238 21.2737C60.8552 21.7198 61.8324 21.9429 62.9552 21.9429C63.8204 21.9429 64.5946 21.7792 65.2781 21.4516C65.9604 21.1244 66.5118 20.6745 66.9306 20.1031C67.2895 19.6138 67.5346 19.078 67.6655 18.4962C67.6998 18.3453 67.5895 18.2002 67.4386 18.2002H65.3392C65.2386 18.2002 65.1501 18.2674 65.1181 18.3657C64.9701 18.8164 64.7089 19.1726 64.3346 19.4338C63.9152 19.7266 63.3946 19.8729 62.7724 19.8729C62.2586 19.8729 61.8089 19.7614 61.4238 19.5383C61.0381 19.3156 60.7341 19.0017 60.5106 18.5974C60.4226 18.4378 60.3506 18.269 60.2935 18.0953C60.2318 17.9087 60.1872 17.7163 60.1569 17.5214C60.1466 17.4534 60.1369 17.3846 60.1289 17.3157C60.1129 17.1739 60.2221 17.05 60.3604 17.05H67.6015C67.7192 17.05 67.8198 16.9604 67.8329 16.8397C67.8432 16.7514 67.8501 16.6614 67.8535 16.5689C67.8604 16.4018 67.8638 16.2484 67.8638 16.109C67.8638 15.0778 67.6369 14.1713 67.1844 13.3905ZM65.0089 15.2304H60.4735C60.3249 15.2304 60.2124 15.0882 60.2455 14.9385C60.3181 14.6105 60.4432 14.3144 60.6221 14.049C60.8518 13.7078 61.1495 13.4461 61.5146 13.2649C61.8798 13.0837 62.2786 12.9929 62.7112 12.9929C63.4146 12.9929 63.9964 13.1882 64.4558 13.5784C64.8506 13.9134 65.1106 14.3662 65.2364 14.9372C65.2695 15.0873 65.1581 15.2304 65.0089 15.2304Z" fill="white"/>
<path d="M21.4069 14.498H19.4189C18.8251 14.498 18.344 14.994 18.344 15.606V18.5804C18.344 19.1924 17.8629 19.6883 17.2692 19.6883H9.36007C8.7663 19.6883 8.28516 20.1843 8.28516 20.7963V22.8456C8.28516 23.4576 8.7663 23.9535 9.36007 23.9535H17.7269C18.3207 23.9535 18.7949 23.4576 18.7949 22.8456V21.2014C18.7949 20.5894 19.2761 20.1552 19.8698 20.1552H21.4065C22.0002 20.1552 22.4814 19.6593 22.4814 19.0472V15.5931C22.4814 14.9811 22.0006 14.498 21.4069 14.498Z" fill="white"/>
<path d="M8.28229 10.4259C8.28229 9.81387 8.76343 9.31793 9.3572 9.31793H17.2614C17.8552 9.31793 18.3363 8.82199 18.3363 8.20999V6.16071C18.3363 5.54867 17.8552 5.05273 17.2614 5.05273H8.89897C8.30526 5.05273 7.82411 5.54867 7.82411 6.16071V7.73976C7.82411 8.35176 7.34303 8.8477 6.74926 8.8477H5.2194C4.62565 8.8477 4.14453 9.34364 4.14453 9.9557V13.4135C4.14453 14.0256 4.62766 14.4966 5.22142 14.4966H7.20943C7.8032 14.4966 8.28434 14.0007 8.28434 13.3887L8.28229 10.4259Z" fill="white"/>
<path d="M12.3771 12.3438H14.2867C14.9091 12.3438 15.4139 12.8646 15.4139 13.5056V15.474C15.4139 16.1155 14.9087 16.6359 14.2867 16.6359H12.3771C11.7549 16.6359 11.25 16.1151 11.25 15.474V13.5056C11.25 12.8642 11.7553 12.3438 12.3771 12.3438Z" fill="white"/>
</g>
</svg>