<svg width="18" height="18" viewBox="0 0 18 18" fill="none" xmlns="http://www.w3.org/2000/svg">
<g opacity="0.7">
<mask id="path-1-inside-1_23688_95434" fill="white">
<path fill-rule="evenodd" clip-rule="evenodd" d="M6.75477 2.00001C6.75479 0.895436 7.65023 0 8.75479 0H9.99022C11.0948 0 11.9902 0.895437 11.9902 2.00001L11.9902 2.66857C12.5248 2.92144 13.0223 3.24004 13.4722 3.61394L14.1288 3.23488C15.0854 2.6826 16.3086 3.01034 16.8609 3.96692L17.4786 5.03684C18.0309 5.99341 17.7031 7.21658 16.7465 7.76886L15.9584 8.22389C15.9865 8.47872 16.0009 8.73768 16.0009 9C16.0009 9.26256 15.9865 9.52173 15.9583 9.77678L16.7412 10.2288C17.6977 10.7811 18.0255 12.0043 17.4732 12.9608L16.8555 14.0308C16.3032 14.9873 15.08 15.3151 14.1235 14.7628L13.4717 14.3865C13.0219 14.7602 12.5245 15.0787 11.99 15.3315L11.99 16C11.99 17.1046 11.0945 18 9.98998 18H8.75454C7.64998 18 6.75456 17.1046 6.75458 16L6.75458 15.6318C6.06529 15.3985 5.42416 15.0606 4.85003 14.6372L4.27574 14.9688C3.31915 15.521 2.09596 15.1933 1.54367 14.2367L0.925946 13.1668C0.373658 12.2102 0.701414 10.9871 1.65801 10.4348L2.0997 10.1798C2.03461 9.79623 2.00071 9.40208 2.00071 9C2.00071 8.59805 2.03459 8.20402 2.09964 7.8206L1.65268 7.56253C0.696095 7.01023 0.368342 5.78704 0.920624 4.83046L1.53834 3.76054C2.09062 2.80396 3.3138 2.47623 4.27039 3.02853L4.84973 3.36303C5.42399 2.93946 6.06528 2.60153 6.75477 2.36811L6.75477 2.00001Z"/>
</mask>
<path d="M6.75477 2.00001L7.75477 2.00003V2.00003L6.75477 2.00001ZM11.9902 2.00001L12.9902 2.00003V2.00003L11.9902 2.00001ZM11.9902 2.66857L10.9902 2.66855L10.9902 3.30181L11.5626 3.57256L11.9902 2.66857ZM13.4722 3.61394L12.8331 4.38302L13.3689 4.82831L13.9722 4.47997L13.4722 3.61394ZM14.1288 3.23488L14.6288 4.10091L14.1288 3.23488ZM16.8609 3.96692L17.7269 3.46691V3.46691L16.8609 3.96692ZM17.4786 5.03684L16.6126 5.53684L17.4786 5.03684ZM16.7465 7.76886L17.2465 8.63489L16.7465 7.76886ZM15.9584 8.22389L15.4584 7.35786L14.8928 7.68439L14.9644 8.33353L15.9584 8.22389ZM15.9583 9.77678L14.9644 9.66705L14.8927 10.3162L15.4583 10.6428L15.9583 9.77678ZM16.7412 10.2288L17.2412 9.36275L16.7412 10.2288ZM17.4732 12.9608L18.3392 13.4608L17.4732 12.9608ZM16.8555 14.0308L15.9895 13.5308V13.5308L16.8555 14.0308ZM14.1235 14.7628L14.6235 13.8967L14.1235 14.7628ZM13.4717 14.3865L13.9717 13.5205L13.3684 13.1721L12.8326 13.6173L13.4717 14.3865ZM11.99 15.3315L11.5625 14.4275L10.99 14.6983L10.99 15.3315L11.99 15.3315ZM11.99 16L10.99 16V16L11.99 16ZM8.75454 18L8.75454 19H8.75454V18ZM6.75458 16L5.75458 16V16L6.75458 16ZM6.75458 15.6318L7.75458 15.6319L7.75459 14.9147L7.07528 14.6847L6.75458 15.6318ZM4.85003 14.6372L5.44359 13.8324L4.91686 13.4439L4.35004 13.7712L4.85003 14.6372ZM4.27574 14.9688L4.77574 15.8348H4.77574L4.27574 14.9688ZM1.54367 14.2367L0.677649 14.7367H0.677649L1.54367 14.2367ZM0.925946 13.1668L1.79197 12.6668H1.79197L0.925946 13.1668ZM1.65801 10.4348L1.15801 9.56875H1.15801L1.65801 10.4348ZM2.0997 10.1798L2.5997 11.0458L3.20198 10.6981L3.0856 10.0124L2.0997 10.1798ZM2.09964 7.8206L3.08555 7.98788L3.20188 7.30229L2.59966 6.95458L2.09964 7.8206ZM1.65268 7.56253L1.15267 8.42855H1.15267L1.65268 7.56253ZM0.920624 4.83046L1.78665 5.33046L0.920624 4.83046ZM1.53834 3.76054L2.40437 4.26054L1.53834 3.76054ZM4.27039 3.02853L3.77037 3.89455H3.77037L4.27039 3.02853ZM4.84973 3.36303L4.34972 4.22905L4.91658 4.55633L5.44333 4.16779L4.84973 3.36303ZM6.75477 2.36811L7.07544 3.3153L7.75476 3.08531L7.75477 2.36812L6.75477 2.36811ZM8.75479 -1C7.09793 -1 5.7548 0.343154 5.75477 2L7.75477 2.00003C7.75478 1.44772 8.20252 1 8.75479 1V-1ZM9.99022 -1H8.75479V1H9.99022V-1ZM12.9902 2.00003C12.9902 0.343173 11.6471 -1 9.99022 -1V1C10.5425 1 10.9902 1.4477 10.9902 2L12.9902 2.00003ZM12.9902 2.66858L12.9902 2.00003L10.9902 2L10.9902 2.66855L12.9902 2.66858ZM11.5626 3.57256C12.0206 3.78914 12.4471 4.06222 12.8331 4.38302L14.1114 2.84487C13.5976 2.41786 13.0291 2.05374 12.4177 1.76458L11.5626 3.57256ZM13.6288 2.36885L12.9722 2.74791L13.9722 4.47997L14.6288 4.10091L13.6288 2.36885ZM17.7269 3.46691C16.8985 2.03204 15.0637 1.54044 13.6288 2.36885L14.6288 4.10091C15.1071 3.82476 15.7187 3.98864 15.9948 4.46693L17.7269 3.46691ZM18.3446 4.53683L17.7269 3.46691L15.9948 4.46693L16.6126 5.53684L18.3446 4.53683ZM17.2465 8.63489C18.6814 7.80648 19.1731 5.97171 18.3446 4.53683L16.6126 5.53684C16.8887 6.01511 16.7248 6.62669 16.2465 6.90283L17.2465 8.63489ZM16.4584 9.08992L17.2465 8.63489L16.2465 6.90283L15.4584 7.35786L16.4584 9.08992ZM14.9644 8.33353C14.9885 8.55202 15.0009 8.77438 15.0009 9H17.0009C17.0009 8.70098 16.9845 8.40542 16.9524 8.11425L14.9644 8.33353ZM15.0009 9C15.0009 9.22582 14.9885 9.44837 14.9644 9.66705L16.9523 9.88651C16.9845 9.5951 17.0009 9.29929 17.0009 9H15.0009ZM17.2412 9.36275L16.4583 8.91076L15.4583 10.6428L16.2411 11.0948L17.2412 9.36275ZM18.3392 13.4608C19.1677 12.026 18.676 10.1912 17.2412 9.36275L16.2411 11.0948C16.7195 11.3709 16.8833 11.9826 16.6072 12.4608L18.3392 13.4608ZM17.7215 14.5308L18.3392 13.4608L16.6072 12.4608L15.9895 13.5308L17.7215 14.5308ZM13.6234 15.6288C15.0583 16.4572 16.8931 15.9656 17.7215 14.5308L15.9895 13.5308C15.7133 14.009 15.1018 14.1729 14.6235 13.8967L13.6234 15.6288ZM12.9717 15.2525L13.6234 15.6288L14.6235 13.8967L13.9717 13.5205L12.9717 15.2525ZM12.8326 13.6173C12.4467 13.938 12.0203 14.211 11.5625 14.4275L12.4175 16.2355C13.0288 15.9465 13.5971 15.5825 14.1108 15.1556L12.8326 13.6173ZM12.99 16L12.99 15.3315L10.99 15.3315L10.99 16L12.99 16ZM9.98998 19C11.6468 19 12.99 17.6568 12.99 16L10.99 16C10.99 16.5523 10.5422 17 9.98998 17V19ZM8.75454 19H9.98998V17H8.75454V19ZM5.75458 16C5.75456 17.6568 7.09768 19 8.75454 19L8.75454 17C8.20228 17 7.75457 16.5523 7.75458 16L5.75458 16ZM5.75458 15.6318L5.75458 16L7.75458 16L7.75458 15.6319L5.75458 15.6318ZM7.07528 14.6847C6.48532 14.4849 5.93601 14.1956 5.44359 13.8324L4.25648 15.442C4.91231 15.9257 5.64525 16.312 6.43389 16.579L7.07528 14.6847ZM4.77574 15.8348L5.35003 15.5032L4.35004 13.7712L3.77575 14.1027L4.77574 15.8348ZM0.677649 14.7367C1.50608 16.1716 3.34086 16.6632 4.77574 15.8348L3.77575 14.1027C3.29744 14.3789 2.68583 14.215 2.40969 13.7367L0.677649 14.7367ZM0.0599241 13.6668L0.677649 14.7367L2.40969 13.7367L1.79197 12.6668L0.0599241 13.6668ZM1.15801 9.56875C-0.27687 10.3972 -0.768517 12.2319 0.0599242 13.6668L1.79197 12.6668C1.51583 12.1885 1.6797 11.5769 2.158 11.3008L1.15801 9.56875ZM1.59971 9.31374L1.15801 9.56875L2.158 11.3008L2.5997 11.0458L1.59971 9.31374ZM3.0856 10.0124C3.02985 9.68395 3.00071 9.34577 3.00071 9H1.00071C1.00071 9.45838 1.03936 9.90851 1.1138 10.3471L3.0856 10.0124ZM3.00071 9C3.00071 8.65434 3.02983 8.31627 3.08555 7.98788L1.11373 7.65331C1.03934 8.09177 1.00071 8.54177 1.00071 9H3.00071ZM1.15267 8.42855L1.59963 8.68662L2.59966 6.95458L2.15269 6.69652L1.15267 8.42855ZM0.0545992 4.33046C-0.773829 5.76534 -0.282191 7.60011 1.15267 8.42855L2.15269 6.69652C1.67438 6.42035 1.51051 5.80874 1.78665 5.33046L0.0545992 4.33046ZM0.672318 3.26054L0.0545992 4.33046L1.78665 5.33046L2.40437 4.26054L0.672318 3.26054ZM4.7704 2.16251C3.33553 1.33407 1.50075 1.82566 0.672318 3.26054L2.40437 4.26054C2.6805 3.78227 3.29207 3.6184 3.77037 3.89455L4.7704 2.16251ZM5.34975 2.49701L4.7704 2.16251L3.77037 3.89455L4.34972 4.22905L5.34975 2.49701ZM5.44333 4.16779C5.93586 3.8045 6.48532 3.51508 7.07544 3.3153L6.4341 1.42091C5.64525 1.68798 4.91211 2.07442 4.25613 2.55827L5.44333 4.16779ZM5.75477 2L5.75477 2.36809L7.75477 2.36812L7.75477 2.00003L5.75477 2Z" fill="white" mask="url(#path-1-inside-1_23688_95434)"/>
<circle cx="9" cy="9" r="2.5" stroke="white"/>
</g>
</svg>
