<svg xmlns="http://www.w3.org/2000/svg" width="28" height="28" viewBox="0 0 28 28" fill="none">
<circle cx="14" cy="14" r="13.5" fill="#00132F" stroke="#25E0BF"/>
<circle cx="13.9375" cy="13.9365" r="10.5" fill="#25E0BF"/>
<path d="M12.2933 19.8868C11.8889 19.8868 11.264 19.5361 10.6783 18.3648C10.1191 17.2463 9.74208 15.6259 9.74208 13.7766C9.74208 11.9273 10.1191 10.3069 10.6783 9.1884C11.264 8.01715 11.8889 7.66645 12.2933 7.66645C12.6978 7.66645 13.3227 8.01715 13.9083 9.1884C14.4676 10.3069 14.8446 11.9273 14.8446 13.7766C14.8446 15.6259 14.4676 17.2463 13.9083 18.3648C13.3227 19.5361 12.6978 19.8868 12.2933 19.8868ZM8.49604 13.7766C8.49604 15.7877 8.90319 17.6182 9.57078 18.9534C10.2324 20.2766 11.1834 21.1712 12.2933 21.1712C13.4033 21.1712 14.3543 20.2766 15.0159 18.9534C15.6835 17.6182 16.0906 15.7877 16.0906 13.7766C16.0906 11.7656 15.6835 9.93502 15.0159 8.59983C14.3543 7.27661 13.4033 6.38203 12.2933 6.38203C11.1834 6.38203 10.2324 7.27661 9.57078 8.59983C8.90319 9.93502 8.49604 11.7656 8.49604 13.7766Z" fill="#00132F" stroke="#00132F" stroke-width="0.4"/>
<path d="M14.0297 18.2134C13.5104 18.2134 12.4762 17.8863 11.8546 16.9072C11.5341 16.4024 11.3132 16.0368 11.1682 15.5995C11.0237 15.164 10.9508 14.6451 10.9508 13.8368C10.9508 12.2294 11.3668 10.8221 11.9834 9.85101C12.5899 8.89571 13.4717 8.82077 14.0297 8.82077C14.3099 8.82077 14.5469 8.84057 14.7906 8.96779C15.0361 9.09593 15.3112 9.34563 15.632 9.85101C16.2486 10.8221 16.6646 12.2295 16.6646 13.8368C16.6646 15.4441 16.2486 16.8515 15.632 17.8225C15.4761 18.0681 15.3382 18.2028 15.2201 18.2761C15.1061 18.3469 14.9997 18.3672 14.8899 18.3635C14.7735 18.3596 14.6561 18.3294 14.5115 18.2923L14.5066 18.291C14.3681 18.2555 14.2031 18.2134 14.0297 18.2134ZM10.4101 13.8368C10.4101 15.5895 10.659 17.1957 11.1994 18.3717C11.7414 19.5514 12.5971 20.332 13.8077 20.332C15.0038 20.332 16.0578 19.5689 16.8028 18.3954C17.5494 17.2195 18.0047 15.6072 18.0047 13.8368C18.0047 12.0663 17.5494 10.454 16.8028 9.27814C16.0578 8.10466 15.0038 7.3415 13.8077 7.3415C12.5971 7.3415 11.7414 8.12212 11.1994 9.30184C10.659 10.4778 10.4101 12.0841 10.4101 13.8368Z" fill="#25E0BF" stroke="#25E0BF" stroke-width="0.4"/>
<path d="M13.9718 11.0904C14.3555 10.323 15.7305 10.4509 16.37 10.6108L16.8497 9.17188H14.9311L13.4922 9.65151V10.6108L13.9718 11.0904Z" fill="#25E0BF"/>
<path d="M16.0958 17.1892C15.5265 17.8312 14.2315 17.3518 13.6551 17.0318L12.8194 18.2975L14.6726 18.7941L16.1866 18.7032L16.4349 17.7766L16.0958 17.1892Z" fill="#25E0BF"/>
<path d="M13.9766 14.9278V11.5703C13.9766 11.5703 15.4155 13.0092 16.8544 12.5296C18.2933 12.05 16.7328 16.7247 15.8951 15.8871C15.4155 15.4074 13.9766 14.9278 13.9766 14.9278Z" fill="#25E0BF"/>
<mask id="path-8-inside-1_24842_110658" fill="white">
<path fill-rule="evenodd" clip-rule="evenodd" d="M14.0378 7.58357C14.0378 7.13642 14.4003 6.77393 14.8475 6.77393C15.2946 6.77393 15.6571 7.13642 15.6571 7.58357V8.09852C16.0436 8.13471 16.4035 8.20981 16.737 8.32382C17.2256 8.48565 17.646 8.72577 17.9983 9.04419C18.3505 9.3574 18.6204 9.74107 18.8079 10.1952C18.8816 10.3737 18.9408 10.5622 18.9855 10.7608C19.1068 11.2996 18.6414 11.7534 18.0891 11.7534H17.4837C17.0195 11.7534 16.6689 11.3671 16.5325 10.9234C16.4586 10.6833 16.3506 10.4823 16.2086 10.3205C16.0723 10.1587 15.9075 10.0386 15.7143 9.96032C15.5211 9.8768 15.3081 9.83503 15.0751 9.83503C14.7286 9.83503 14.4445 9.89768 14.2229 10.023C14.0013 10.1482 13.8394 10.3179 13.7371 10.5319C13.6406 10.7407 13.5923 10.9808 13.5923 11.2523C13.5923 11.5185 13.6434 11.7508 13.7457 11.9492C13.8536 12.1475 14.0383 12.3302 14.2996 12.4973C14.561 12.6591 14.9189 12.8261 15.3734 12.9984C16.112 13.2594 16.7597 13.5413 17.3165 13.8441C17.8733 14.1468 18.3079 14.5174 18.6204 14.9559C18.9329 15.3944 19.0891 15.953 19.0891 16.6316C19.0891 17.305 18.9187 17.8792 18.5778 18.3542C18.2369 18.824 17.7597 19.1842 17.1461 19.4347C16.7006 19.6128 16.2043 19.7263 15.6571 19.7751V20.3534C15.6571 20.8006 15.2946 21.1631 14.8475 21.1631C14.4003 21.1631 14.0378 20.8006 14.0378 20.3534V19.7292C13.8435 19.6999 13.6495 19.6617 13.4559 19.6148C12.9389 19.4843 12.4702 19.2755 12.0497 18.9884C11.6293 18.7013 11.2941 18.3203 11.0441 17.8452C10.9228 17.6122 10.831 17.3534 10.7685 17.0688C10.6502 16.5293 11.1168 16.0756 11.6691 16.0756H12.1483C12.6869 16.0756 13.076 16.5347 13.2855 17.0309C13.3934 17.2815 13.5355 17.4824 13.7116 17.6338C13.8934 17.78 14.0979 17.8844 14.3252 17.947C14.5524 18.0097 14.7825 18.041 15.0155 18.041C15.3791 18.041 15.6774 17.981 15.9103 17.8609C16.149 17.7408 16.3279 17.5764 16.4472 17.3676C16.5722 17.1536 16.6347 16.9135 16.6347 16.6472C16.6347 16.3497 16.5751 16.0965 16.4558 15.8877C16.3421 15.6789 16.1546 15.4936 15.8933 15.3318C15.6376 15.1699 15.291 15.0133 14.8536 14.862C14.115 14.601 13.4644 14.3243 12.902 14.032C12.3452 13.7344 11.9105 13.3664 11.5981 12.9279C11.2856 12.4842 11.1293 11.9231 11.1293 11.2445C11.1293 10.5972 11.2969 10.036 11.6321 9.56098C11.9674 9.08595 12.4304 8.72055 13.0213 8.46476C13.3336 8.3281 13.6725 8.22721 14.0378 8.16211V7.58357Z"/>
</mask>
<path fill-rule="evenodd" clip-rule="evenodd" d="M14.0378 7.58357C14.0378 7.13642 14.4003 6.77393 14.8475 6.77393C15.2946 6.77393 15.6571 7.13642 15.6571 7.58357V8.09852C16.0436 8.13471 16.4035 8.20981 16.737 8.32382C17.2256 8.48565 17.646 8.72577 17.9983 9.04419C18.3505 9.3574 18.6204 9.74107 18.8079 10.1952C18.8816 10.3737 18.9408 10.5622 18.9855 10.7608C19.1068 11.2996 18.6414 11.7534 18.0891 11.7534H17.4837C17.0195 11.7534 16.6689 11.3671 16.5325 10.9234C16.4586 10.6833 16.3506 10.4823 16.2086 10.3205C16.0723 10.1587 15.9075 10.0386 15.7143 9.96032C15.5211 9.8768 15.3081 9.83503 15.0751 9.83503C14.7286 9.83503 14.4445 9.89768 14.2229 10.023C14.0013 10.1482 13.8394 10.3179 13.7371 10.5319C13.6406 10.7407 13.5923 10.9808 13.5923 11.2523C13.5923 11.5185 13.6434 11.7508 13.7457 11.9492C13.8536 12.1475 14.0383 12.3302 14.2996 12.4973C14.561 12.6591 14.9189 12.8261 15.3734 12.9984C16.112 13.2594 16.7597 13.5413 17.3165 13.8441C17.8733 14.1468 18.3079 14.5174 18.6204 14.9559C18.9329 15.3944 19.0891 15.953 19.0891 16.6316C19.0891 17.305 18.9187 17.8792 18.5778 18.3542C18.2369 18.824 17.7597 19.1842 17.1461 19.4347C16.7006 19.6128 16.2043 19.7263 15.6571 19.7751V20.3534C15.6571 20.8006 15.2946 21.1631 14.8475 21.1631C14.4003 21.1631 14.0378 20.8006 14.0378 20.3534V19.7292C13.8435 19.6999 13.6495 19.6617 13.4559 19.6148C12.9389 19.4843 12.4702 19.2755 12.0497 18.9884C11.6293 18.7013 11.2941 18.3203 11.0441 17.8452C10.9228 17.6122 10.831 17.3534 10.7685 17.0688C10.6502 16.5293 11.1168 16.0756 11.6691 16.0756H12.1483C12.6869 16.0756 13.076 16.5347 13.2855 17.0309C13.3934 17.2815 13.5355 17.4824 13.7116 17.6338C13.8934 17.78 14.0979 17.8844 14.3252 17.947C14.5524 18.0097 14.7825 18.041 15.0155 18.041C15.3791 18.041 15.6774 17.981 15.9103 17.8609C16.149 17.7408 16.3279 17.5764 16.4472 17.3676C16.5722 17.1536 16.6347 16.9135 16.6347 16.6472C16.6347 16.3497 16.5751 16.0965 16.4558 15.8877C16.3421 15.6789 16.1546 15.4936 15.8933 15.3318C15.6376 15.1699 15.291 15.0133 14.8536 14.862C14.115 14.601 13.4644 14.3243 12.902 14.032C12.3452 13.7344 11.9105 13.3664 11.5981 12.9279C11.2856 12.4842 11.1293 11.9231 11.1293 11.2445C11.1293 10.5972 11.2969 10.036 11.6321 9.56098C11.9674 9.08595 12.4304 8.72055 13.0213 8.46476C13.3336 8.3281 13.6725 8.22721 14.0378 8.16211V7.58357Z" fill="#00132F"/>
<path d="M15.6571 8.09852H15.4571V8.28066L15.6385 8.29764L15.6571 8.09852ZM16.737 8.32382L16.6723 8.51308L16.6741 8.51368L16.737 8.32382ZM17.9983 9.04419L17.8642 9.19256L17.8654 9.19366L17.9983 9.04419ZM18.8079 10.1952L18.623 10.2715L18.623 10.2715L18.8079 10.1952ZM18.9855 10.7608L18.7904 10.8048V10.8048L18.9855 10.7608ZM16.5325 10.9234L16.7236 10.8646L16.5325 10.9234ZM16.2086 10.3205L16.0556 10.4494L16.0583 10.4524L16.2086 10.3205ZM15.7143 9.96032L15.6349 10.1439L15.6392 10.1457L15.7143 9.96032ZM13.7371 10.5319L13.5567 10.4457L13.5556 10.4479L13.7371 10.5319ZM13.7457 11.9492L13.5679 12.0408L13.57 12.0448L13.7457 11.9492ZM14.2996 12.4973L14.1919 12.6658L14.1943 12.6673L14.2996 12.4973ZM15.3734 12.9984L15.3025 13.1855L15.3068 13.187L15.3734 12.9984ZM17.3165 13.8441L17.221 14.0198H17.221L17.3165 13.8441ZM18.5778 18.3542L18.7397 18.4717L18.7403 18.4708L18.5778 18.3542ZM17.1461 19.4347L17.2203 19.6205L17.2217 19.6199L17.1461 19.4347ZM15.6571 19.7751L15.6394 19.5759L15.4571 19.5922V19.7751H15.6571ZM14.0378 19.7292H14.2378V19.5571L14.0677 19.5315L14.0378 19.7292ZM13.4559 19.6148L13.407 19.8088L13.4088 19.8092L13.4559 19.6148ZM12.0497 18.9884L12.1625 18.8233H12.1625L12.0497 18.9884ZM11.0441 17.8452L10.8667 17.9376L10.8671 17.9384L11.0441 17.8452ZM10.7685 17.0688L10.5732 17.1117H10.5732L10.7685 17.0688ZM13.2855 17.0309L13.1012 17.1087L13.1018 17.11L13.2855 17.0309ZM13.7116 17.6338L13.5811 17.7856L13.5863 17.7897L13.7116 17.6338ZM14.3252 17.947L14.3783 17.7542H14.3783L14.3252 17.947ZM15.9103 17.8609L15.8204 17.6822L15.8187 17.6831L15.9103 17.8609ZM16.4472 17.3676L16.2745 17.2667L16.2736 17.2684L16.4472 17.3676ZM16.4558 15.8877L16.28 15.9833L16.2821 15.9869L16.4558 15.8877ZM15.8933 15.3318L15.7863 15.5008L15.788 15.5018L15.8933 15.3318ZM14.8536 14.862L14.7869 15.0505L14.7882 15.051L14.8536 14.862ZM12.902 14.032L12.8077 14.2084L12.8097 14.2094L12.902 14.032ZM11.5981 12.9279L11.4345 13.0431L11.4352 13.044L11.5981 12.9279ZM11.6321 9.56098L11.7956 9.67629V9.67629L11.6321 9.56098ZM13.0213 8.46476L13.1007 8.64831L13.1014 8.648L13.0213 8.46476ZM14.0378 8.16211L14.0729 8.359L14.2378 8.32962V8.16211H14.0378ZM14.8475 6.57393C14.2899 6.57393 13.8378 7.02596 13.8378 7.58357H14.2378C14.2378 7.24687 14.5108 6.97393 14.8475 6.97393V6.57393ZM15.8571 7.58357C15.8571 7.02596 15.4051 6.57393 14.8475 6.57393V6.97393C15.1842 6.97393 15.4571 7.24687 15.4571 7.58357H15.8571ZM15.8571 8.09852V7.58357H15.4571V8.09852H15.8571ZM16.8017 8.13458C16.4519 8.01499 16.0763 7.93691 15.6758 7.89939L15.6385 8.29764C16.0108 8.33252 16.3551 8.40464 16.6723 8.51307L16.8017 8.13458ZM18.1324 8.89583C17.7579 8.55726 17.3126 8.30378 16.7999 8.13396L16.6741 8.51368C17.1386 8.66751 17.5342 8.89428 17.8642 9.19256L18.1324 8.89583ZM18.9928 10.1189C18.7942 9.63797 18.507 9.22892 18.1312 8.89473L17.8654 9.19366C18.194 9.48587 18.4466 9.84418 18.623 10.2715L18.9928 10.1189ZM19.1806 10.7169C19.1335 10.5078 19.071 10.3084 18.9928 10.1189L18.623 10.2715C18.6922 10.439 18.748 10.6166 18.7904 10.8048L19.1806 10.7169ZM18.0891 11.9534C18.7341 11.9534 19.3374 11.4132 19.1806 10.7169L18.7904 10.8048C18.8762 11.186 18.5487 11.5534 18.0891 11.5534V11.9534ZM17.4837 11.9534H18.0891V11.5534H17.4837V11.9534ZM16.3413 10.9822C16.4915 11.4705 16.8966 11.9534 17.4837 11.9534V11.5534C17.1425 11.5534 16.8463 11.2636 16.7236 10.8646L16.3413 10.9822ZM16.0583 10.4524C16.1789 10.5898 16.2744 10.7646 16.3413 10.9822L16.7236 10.8646C16.6428 10.602 16.5224 10.3749 16.3589 10.1886L16.0583 10.4524ZM15.6392 10.1457C15.8017 10.2116 15.9399 10.312 16.0557 10.4494L16.3616 10.1916C16.2046 10.0053 16.0132 9.86568 15.7894 9.77496L15.6392 10.1457ZM15.0751 10.035C15.2837 10.035 15.4694 10.0723 15.6349 10.1439L15.7937 9.77674C15.5729 9.68128 15.3325 9.63503 15.0751 9.63503V10.035ZM14.3214 10.1971C14.504 10.0938 14.7511 10.035 15.0751 10.035V9.63503C14.706 9.63503 14.385 9.70155 14.1245 9.84886L14.3214 10.1971ZM13.9176 10.6181C14.0009 10.4439 14.1327 10.3037 14.3214 10.1971L14.1245 9.84886C13.87 9.99277 13.678 10.1919 13.5567 10.4457L13.9176 10.6181ZM13.7923 11.2523C13.7923 11.0047 13.8363 10.7941 13.9187 10.6159L13.5556 10.4479C13.4449 10.6874 13.3923 10.957 13.3923 11.2523H13.7923ZM13.9234 11.8575C13.8383 11.6925 13.7923 11.4927 13.7923 11.2523H13.3923C13.3923 11.5443 13.4485 11.8091 13.5679 12.0408L13.9234 11.8575ZM14.4073 12.3288C14.1643 12.1734 14.0082 12.0133 13.9213 11.8536L13.57 12.0448C13.699 12.2818 13.9122 12.487 14.1919 12.6658L14.4073 12.3288ZM15.4443 12.8114C14.9957 12.6414 14.651 12.4796 14.4049 12.3272L14.1943 12.6673C14.471 12.8386 14.8421 13.0109 15.3025 13.1854L15.4443 12.8114ZM17.412 13.6683C16.8441 13.3595 16.1864 13.0736 15.4401 12.8098L15.3068 13.187C16.0377 13.4452 16.6753 13.7231 17.221 14.0198L17.412 13.6683ZM18.7833 14.8399C18.4503 14.3726 17.9908 13.9831 17.412 13.6683L17.221 14.0198C17.7558 14.3106 18.1655 14.6623 18.4575 15.072L18.7833 14.8399ZM19.2891 16.6316C19.2891 15.9223 19.1256 15.3201 18.7833 14.8399L18.4575 15.072C18.7402 15.4687 18.8891 15.9837 18.8891 16.6316H19.2891ZM18.7403 18.4708C19.1091 17.9568 19.2891 17.3402 19.2891 16.6316H18.8891C18.8891 17.2697 18.7282 17.8015 18.4153 18.2376L18.7403 18.4708ZM17.2217 19.6199C17.8648 19.3573 18.3739 18.9757 18.7397 18.4717L18.4159 18.2367C18.0999 18.6723 17.6546 19.0111 17.0705 19.2496L17.2217 19.6199ZM15.6749 19.9743C16.2387 19.924 16.7544 19.8067 17.2203 19.6205L17.0718 19.249C16.6469 19.419 16.1699 19.5286 15.6394 19.5759L15.6749 19.9743ZM15.4571 19.7751V20.3534H15.8571V19.7751H15.4571ZM15.4571 20.3534C15.4571 20.6901 15.1842 20.9631 14.8475 20.9631V21.3631C15.4051 21.3631 15.8571 20.9111 15.8571 20.3534H15.4571ZM14.8475 20.9631C14.5108 20.9631 14.2378 20.6901 14.2378 20.3534H13.8378C13.8378 20.9111 14.2899 21.3631 14.8475 21.3631V20.9631ZM14.2378 20.3534V19.7292H13.8378V20.3534H14.2378ZM13.4088 19.8092C13.608 19.8575 13.8077 19.8967 14.008 19.927L14.0677 19.5315C13.8792 19.503 13.691 19.466 13.503 19.4205L13.4088 19.8092ZM11.9369 19.1536C12.3777 19.4546 12.8682 19.6728 13.407 19.8088L13.5049 19.4209C13.0096 19.2959 12.5626 19.0965 12.1625 18.8233L11.9369 19.1536ZM10.8671 17.9384C11.1315 18.4407 11.4881 18.8471 11.9369 19.1536L12.1625 18.8233C11.7705 18.5556 11.4567 18.1999 11.2211 17.7521L10.8671 17.9384ZM10.5732 17.1117C10.639 17.4116 10.7364 17.6873 10.8667 17.9376L11.2215 17.7529C11.1092 17.5371 11.0229 17.2952 10.9639 17.0259L10.5732 17.1117ZM11.6691 15.8756C11.0241 15.8756 10.4204 16.4154 10.5732 17.1117L10.9639 17.0259C10.8799 16.6433 11.2096 16.2756 11.6691 16.2756V15.8756ZM12.1483 15.8756H11.6691V16.2756H12.1483V15.8756ZM13.4697 16.9531C13.2515 16.4361 12.8125 15.8756 12.1483 15.8756V16.2756C12.5613 16.2756 12.9006 16.6333 13.1012 17.1087L13.4697 16.9531ZM13.8419 17.4822C13.6926 17.3538 13.5672 17.1793 13.4691 16.9518L13.1018 17.11C13.2197 17.3837 13.3783 17.6111 13.5812 17.7855L13.8419 17.4822ZM14.3783 17.7542C14.1771 17.6988 13.9972 17.6068 13.8369 17.478L13.5863 17.7897C13.7896 17.9532 14.0187 18.07 14.272 18.1398L14.3783 17.7542ZM15.0155 17.841C14.8007 17.841 14.5885 17.8121 14.3783 17.7542L14.272 18.1398C14.5164 18.2072 14.7644 18.241 15.0155 18.241V17.841ZM15.8187 17.6831C15.6229 17.784 15.3589 17.841 15.0155 17.841V18.241C15.3993 18.241 15.7319 18.1779 16.002 18.0387L15.8187 17.6831ZM16.2736 17.2684C16.1759 17.4393 16.028 17.5778 15.8204 17.6822L16.0002 18.0396C16.2699 17.9039 16.4799 17.7135 16.6209 17.4668L16.2736 17.2684ZM16.4347 16.6472C16.4347 16.8807 16.3803 17.0856 16.2745 17.2667L16.6199 17.4685C16.7641 17.2216 16.8347 16.9462 16.8347 16.6472H16.4347ZM16.2821 15.9869C16.3805 16.1591 16.4347 16.3763 16.4347 16.6472H16.8347C16.8347 16.3231 16.7696 16.0339 16.6294 15.7885L16.2821 15.9869ZM15.788 15.5018C16.0283 15.6506 16.1872 15.8127 16.2801 15.9833L16.6314 15.7921C16.497 15.5451 16.281 15.3366 15.9986 15.1617L15.788 15.5018ZM14.7882 15.051C15.2179 15.1997 15.5486 15.3503 15.7863 15.5008L16.0002 15.1628C15.7266 14.9896 15.3642 14.827 14.919 14.673L14.7882 15.051ZM12.8097 14.2094C13.3821 14.5069 14.0415 14.7871 14.7869 15.0505L14.9202 14.6734C14.1884 14.4148 13.5467 14.1417 12.9942 13.8545L12.8097 14.2094ZM11.4352 13.044C11.7684 13.5116 12.2284 13.8988 12.8077 14.2084L12.9962 13.8556C12.462 13.5701 12.0527 13.2212 11.7609 12.8119L11.4352 13.044ZM10.9293 11.2445C10.9293 11.9539 11.093 12.5581 11.4345 13.0431L11.7616 12.8128C11.4782 12.4104 11.3293 11.8922 11.3293 11.2445H10.9293ZM11.4687 9.44567C11.107 9.95822 10.9293 10.5608 10.9293 11.2445H11.3293C11.3293 10.6336 11.4868 10.1138 11.7956 9.67629L11.4687 9.44567ZM12.9418 8.28122C12.321 8.54999 11.8274 8.93746 11.4687 9.44567L11.7956 9.67629C12.1073 9.23445 12.5398 8.89111 13.1007 8.64831L12.9418 8.28122ZM14.0027 7.96521C13.6233 8.03284 13.2691 8.13802 12.9411 8.28153L13.1014 8.648C13.3982 8.51817 13.7217 8.42159 14.0729 8.359L14.0027 7.96521ZM13.8378 7.58357V8.16211H14.2378V7.58357H13.8378Z" fill="#25E0BF" mask="url(#path-8-inside-1_24842_110658)"/>
</svg>