<svg width="22" height="22" viewBox="0 0 22 22" fill="none" xmlns="http://www.w3.org/2000/svg">
<mask id="path-1-inside-1_18243_63976" fill="white">
<path fill-rule="evenodd" clip-rule="evenodd" d="M4.93213 18.1855C3.48281 18.5905 2.60156 19.1251 2.60156 19.7113C2.60156 20.9754 6.70062 22.0001 11.7571 22.0001C16.8135 22.0001 20.9126 20.9754 20.9126 19.7113C20.9126 19.1251 20.0313 18.5905 18.582 18.1855C16.9056 18.6539 14.469 18.9487 11.7571 18.9487C9.04513 18.9487 6.60859 18.6539 4.93213 18.1855Z"/>
</mask>
<path d="M4.93213 18.1855L5.20121 17.2224L4.93213 17.1473L4.66305 17.2224L4.93213 18.1855ZM18.582 18.1855L18.8511 17.2224L18.582 17.1473L18.3129 17.2224L18.582 18.1855ZM3.60156 19.7113C3.60156 19.9529 3.43375 19.9336 3.7633 19.7222C4.04514 19.5413 4.52014 19.3389 5.20121 19.1487L4.66305 17.2224C3.89479 17.4371 3.20451 17.7045 2.6834 18.0388C2.21 18.3424 1.60156 18.8835 1.60156 19.7113H3.60156ZM11.7571 21.0001C9.28598 21.0001 7.0824 20.7488 5.52568 20.3596C4.73963 20.1631 4.17446 19.945 3.82988 19.7413C3.41836 19.4981 3.60156 19.4555 3.60156 19.7113H1.60156C1.60156 20.5991 2.29715 21.1586 2.81222 21.4631C3.39423 21.8071 4.16984 22.0822 5.04061 22.2999C6.79754 22.7391 9.17171 23.0001 11.7571 23.0001V21.0001ZM19.9126 19.7113C19.9126 19.4555 20.0958 19.4981 19.6843 19.7413C19.3397 19.945 18.7745 20.1631 17.9885 20.3596C16.4317 20.7488 14.2282 21.0001 11.7571 21.0001V23.0001C14.3424 23.0001 16.7166 22.7391 18.4735 22.2999C19.3443 22.0822 20.1199 21.8071 20.7019 21.4631C21.217 21.1586 21.9126 20.5991 21.9126 19.7113H19.9126ZM18.3129 19.1487C18.994 19.3389 19.469 19.5414 19.7508 19.7222C20.0804 19.9336 19.9126 19.9529 19.9126 19.7113H21.9126C21.9126 18.8835 21.3041 18.3424 20.8307 18.0388C20.3096 17.7045 19.6193 17.4371 18.8511 17.2224L18.3129 19.1487ZM18.3129 17.2224C16.7508 17.6589 14.4108 17.9487 11.7571 17.9487V19.9487C14.5272 19.9487 17.0603 19.649 18.8511 19.1487L18.3129 17.2224ZM11.7571 17.9487C9.10335 17.9487 6.76332 17.6589 5.20121 17.2224L4.66305 19.1487C6.45386 19.649 8.98692 19.9487 11.7571 19.9487V17.9487Z" fill="white" mask="url(#path-1-inside-1_18243_63976)"/>
<mask id="path-3-inside-2_18243_63976" fill="white">
<path fill-rule="evenodd" clip-rule="evenodd" d="M4.25763 16.1613C3.21407 16.5331 2.60156 16.9859 2.60156 17.4746C2.60156 18.7387 6.70062 19.7635 11.7571 19.7635C16.8135 19.7635 20.9126 18.7387 20.9126 17.4746C20.9126 16.2309 16.945 15.2189 12.0016 15.1865C9.10468 16.7178 6.13381 17.0618 4.25763 16.1613Z"/>
</mask>
<path d="M4.25763 16.1613L4.69033 15.2598L4.31462 15.0794L3.92204 15.2193L4.25763 16.1613ZM12.0016 15.1865L12.0081 14.1865L11.7566 14.1849L11.5342 14.3024L12.0016 15.1865ZM3.60156 17.4746C3.60156 17.6807 3.47258 17.7033 3.65258 17.5632C3.81701 17.4352 4.11927 17.2722 4.59321 17.1033L3.92204 15.2193C3.35243 15.4222 2.82666 15.6715 2.42395 15.9851C2.0368 16.2865 1.60156 16.7799 1.60156 17.4746H3.60156ZM11.7571 18.7635C9.28598 18.7635 7.0824 18.5121 5.52569 18.1229C4.73963 17.9264 4.17446 17.7083 3.82988 17.5047C3.41836 17.2614 3.60156 17.2188 3.60156 17.4746H1.60156C1.60156 18.3625 2.29715 18.922 2.81222 19.2264C3.39423 19.5704 4.16984 19.8455 5.04061 20.0632C6.79754 20.5025 9.17171 20.7635 11.7571 20.7635V18.7635ZM19.9126 17.4746C19.9126 17.2188 20.0958 17.2614 19.6843 17.5047C19.3397 17.7083 18.7745 17.9264 17.9885 18.1229C16.4317 18.5121 14.2282 18.7635 11.7571 18.7635V20.7635C14.3424 20.7635 16.7166 20.5025 18.4735 20.0632C19.3443 19.8455 20.1199 19.5704 20.7019 19.2264C21.217 18.922 21.9126 18.3625 21.9126 17.4746H19.9126ZM11.995 16.1865C14.4108 16.2023 16.5532 16.4583 18.0626 16.845C18.825 17.0404 19.3696 17.2551 19.6999 17.4538C20.0926 17.6901 19.9126 17.7274 19.9126 17.4746H21.9126C21.9126 16.6 21.2366 16.0444 20.731 15.7401C20.1628 15.3983 19.4066 15.1248 18.5591 14.9076C16.8488 14.4694 14.5358 14.2031 12.0081 14.1865L11.995 16.1865ZM11.5342 14.3024C8.76791 15.7647 6.15637 15.9634 4.69033 15.2598L3.82492 17.0628C6.11125 18.1602 9.44144 17.6709 12.4689 16.0706L11.5342 14.3024Z" fill="white" mask="url(#path-3-inside-2_18243_63976)"/>
<path d="M2.44381 15.2488C3.37178 16.669 5.14151 17.2381 7.10324 17.1422C9.07875 17.0457 11.3543 16.2782 13.4813 14.8883C15.6083 13.4984 17.2249 11.7226 18.1066 9.95207C18.9822 8.19394 19.1716 6.34463 18.2436 4.92452C17.3156 3.5044 15.5459 2.9353 13.5842 3.03117C11.6087 3.12771 9.3331 3.89515 7.20609 5.28504C5.07908 6.67492 3.46248 8.45081 2.5808 10.2213C1.70527 11.9794 1.51584 13.8287 2.44381 15.2488Z" stroke="white"/>
<path d="M10.8516 0.816406C10.8516 0.540264 10.6277 0.316406 10.3516 0.316406C10.0754 0.316406 9.85156 0.540264 9.85156 0.816406L10.8516 0.816406ZM9.99801 11.7621C10.1933 11.9573 10.5099 11.9573 10.7051 11.7621L13.8871 8.58009C14.0824 8.38483 14.0824 8.06825 13.8871 7.87299C13.6918 7.67772 13.3753 7.67772 13.18 7.87299L10.3516 10.7014L7.52314 7.87299C7.32787 7.67772 7.01129 7.67772 6.81603 7.87299C6.62077 8.06825 6.62077 8.38483 6.81603 8.58009L9.99801 11.7621ZM9.85156 0.816406L9.85156 11.4085L10.8516 11.4085L10.8516 0.816406L9.85156 0.816406Z" fill="white"/>
</svg>
