<svg width="24" height="25" viewBox="0 0 24 25" fill="none" xmlns="http://www.w3.org/2000/svg">
<path fill-rule="evenodd" clip-rule="evenodd" d="M12.0025 3.5708C12.4167 3.5708 12.7525 3.90659 12.7525 4.3208L12.7525 14.5076L14.4697 12.7905C14.7626 12.4976 15.2374 12.4976 15.5303 12.7905C15.8232 13.0834 15.8232 13.5582 15.5303 13.8511L12.5303 16.8511C12.2532 17.1282 11.8095 17.1453 11.5119 16.8902L8.01191 13.8902C7.69741 13.6207 7.66099 13.1472 7.93056 12.8327C8.20012 12.5182 8.6736 12.4818 8.98809 12.7514L11.2525 14.6923L11.2525 4.3208C11.2525 3.90659 11.5883 3.5708 12.0025 3.5708ZM17.1768 7.7887C16.4209 7.56628 15.4178 7.56418 14.1014 7.87906C13.6985 7.97541 13.2938 7.72695 13.1975 7.3241C13.1011 6.92125 13.3496 6.51656 13.7524 6.42021C15.2198 6.06923 16.5073 6.02812 17.6002 6.3497C18.7151 6.67774 19.5662 7.3658 20.1648 8.34721C21.1045 9.88779 20.8225 11.813 19.8821 13.563C18.9318 15.3312 17.2455 17.0667 15.0701 18.3936C12.8948 19.7205 10.5798 20.4256 8.57277 20.4612C6.5864 20.4965 4.74563 19.8661 3.80593 18.3256C2.86622 16.785 3.14821 14.8598 4.08866 13.1098C5.0389 11.3416 6.72529 9.60602 8.90063 8.27914C9.25425 8.06344 9.71577 8.17525 9.93147 8.52887C10.1472 8.88249 10.0354 9.34402 9.68174 9.55971C7.69331 10.7726 6.21324 12.3251 5.40995 13.8199C4.59686 15.3329 4.53825 16.6456 5.0865 17.5445C5.63476 18.4433 6.82878 18.992 8.54615 18.9615C10.2428 18.9314 12.3006 18.3259 14.289 17.1131C16.2774 15.9002 17.7575 14.3477 18.5608 12.8529C19.3739 11.3399 19.4325 10.0271 18.8842 9.12831C18.4666 8.44357 17.9107 8.00465 17.1768 7.7887Z" fill="white" />
</svg>
