<svg width="74" height="67" viewBox="0 0 74 67" fill="none" xmlns="http://www.w3.org/2000/svg">
<path d="M57.4141 56.9152C57.4011 56.9359 57.372 56.9747 57.3122 57.0319C57.1543 57.1829 56.8669 57.3763 56.4055 57.5898C55.4886 58.0141 54.0983 58.4219 52.3012 58.7737C48.7235 59.474 43.7371 59.914 38.1992 59.914C32.6614 59.914 27.675 59.474 24.0973 58.7737C22.3001 58.4219 20.9099 58.0141 19.9929 57.5898C19.5316 57.3763 19.2442 57.1829 19.0863 57.0319C19.0265 56.9747 18.9974 56.9359 18.9844 56.9152C18.9844 56.5731 18.9844 56.0908 18.9844 55.5212C18.9843 54.1033 18.9843 52.1446 18.9843 50.4621C19.7703 50.1469 20.8985 49.8258 22.2797 49.5178C23.9933 49.1357 26.0138 48.791 28.0811 48.5013C32.2261 47.9203 36.4833 47.5703 38.7456 47.5703C41.3934 47.5703 45.3909 47.8222 49.1537 48.3498C51.034 48.6134 52.8383 48.9435 54.3763 49.3398C55.6433 49.6662 56.6761 50.0245 57.4141 50.3992V50.4019V50.4162V50.4305V50.4449V50.4592V50.4736V50.4881V50.5025V50.517V50.5315V50.5461V50.5606V50.5752V50.5898V50.6045V50.6191V50.6338V50.6486V50.6633V50.6781V50.6929V50.7077V50.7225V50.7374V50.7523V50.7672V50.7822V50.7972V50.8121V50.8272V50.8422V50.8573V50.8724V50.8875V50.9026V50.9177V50.9329V50.9481V50.9633V50.9786V50.9938V51.0091V51.0244V51.0397V51.0551V51.0705V51.0858V51.1013V51.1167V51.1321V51.1476V51.1631V51.1786V51.1941V51.2096V51.2252V51.2408V51.2564V51.272V51.2876V51.3033V51.3189V51.3346V51.3503V51.366V51.3818V51.3975V51.4133V51.4291V51.4448V51.4607V51.4765V51.4923V51.5082V51.5241V51.5399V51.5559V51.5718V51.5877V51.6036V51.6196V51.6356V51.6516V51.6676V51.6836V51.6996V51.7156V51.7317V51.7477V51.7638V51.7799V51.796V51.8121V51.8282V51.8443V51.8605V51.8766V51.8928V51.909V51.9251V51.9413V51.9575V51.9737V51.9899V52.0062V52.0224V52.0387V52.0549V52.0712V52.0874V52.1037V52.12V52.1363V52.1526V52.1689V52.1852V52.2015V52.2179V52.2342V52.2505V52.2669V52.2832V52.2996V52.3159V52.3323V52.3487V52.3651V52.3814V52.3978V52.4142V52.4306V52.447V52.4634V52.4798V52.4962V52.5126V52.5291V52.5455V52.5619V52.5783V52.5947V52.6112V52.6276V52.644V52.6604V52.6769V52.6933V52.7097V52.7262V52.7426V52.759V52.7755V52.7919V52.8083V52.8248V52.8412V52.8576V52.8741V52.8905V52.9069V52.9233V52.9398V52.9562V52.9726V52.989V53.0054V53.0218V53.0383V53.0547V53.0711V53.0875V53.1038V53.1202V53.1366V53.153V53.1694V53.1857V53.2021V53.2185V53.2348V53.2512V53.2675V53.2839V53.3002V53.3165V53.3328V53.3491V53.3654V53.3817V53.398V53.4143V53.4306V53.4468V53.4631V53.4794V53.4956V53.5118V53.5281V53.5443V53.5605V53.5767V53.5929V53.609V53.6252V53.6414V53.6575V53.6736V53.6898V53.7059V53.722V53.7381V53.7541V53.7702V53.7863V53.8023V53.8183V53.8344V53.8504V53.8664V53.8823V53.8983V53.9142V53.9302V53.9461V53.962V53.9779V53.9938V54.0097V54.0255V54.0414V54.0572V54.073V54.0888V54.1046V54.1203V54.1361V54.1518V54.1675V54.1832V54.1989V54.2145V54.2302V54.2458V54.2614V54.277V54.2925V54.3081V54.3236V54.3391V54.3546V54.3701V54.3856V54.401V54.4164V54.4318V54.4472V54.4626V54.4779V54.4932V54.5085V54.5238V54.539V54.5543V54.5695V54.5847V54.5998V54.615V54.6301V54.6452V54.6603V54.6753V54.6904V54.7054V54.7204V54.7353V54.7502V54.7652V54.78V54.7949V54.8097V54.8246V54.8393V54.8541V54.8689V54.8836V54.8982V54.9129V54.9275V54.9421V54.9567V54.9713V54.9858V55.0003V55.0148V55.0292V55.0436V55.058V55.0724V55.0867V55.101V55.1153V55.1296V55.1438V55.158V55.1721V55.1862V55.2003V55.2144V55.2284V55.2425V55.2564V55.2704V55.2843V55.2982V55.312V55.3258V55.3396V55.3534V55.3671V55.3808V55.3945V55.4081V55.4217V55.4353V55.4488V55.4623V55.4757V55.4892V55.5026V55.5159V55.5292V55.5425V55.5558V55.569V55.5822V55.5953V55.6084V55.6215V55.6346V55.6476V55.6605V55.6735V55.6863V55.6992V55.712V55.7248V55.7376V55.7503V55.7629V55.7756V55.7881V55.8007V55.8132V55.8257V55.8381V55.8505V55.8629V55.8752V55.8875V55.8997V55.9119V55.9241V55.9362V55.9483V55.9603V55.9723V55.9842V55.9962V56.008V56.0199V56.0316V56.0434V56.0551V56.0667V56.0783V56.0899V56.1014V56.1129V56.1244V56.1358V56.1471V56.1584V56.1697V56.1809V56.1921V56.2032V56.2143V56.2253V56.2363V56.2473V56.2582V56.269V56.2798V56.2906V56.3013V56.312V56.3226V56.3331V56.3437V56.3541V56.3646V56.3749V56.3853V56.3956V56.4058V56.416V56.4261V56.4362V56.4462V56.4562V56.4662V56.476V56.4859V56.4957V56.5054V56.5151V56.5247V56.5343V56.5438V56.5533V56.5627V56.5721V56.5814V56.5907V56.5999V56.6091V56.6182V56.6273V56.6363V56.6452V56.6541V56.663V56.6718V56.6805V56.6892V56.6978V56.7064V56.7149V56.7233V56.7317V56.7401V56.7484V56.7566V56.7648V56.7729V56.781V56.789V56.797V56.8049V56.8127V56.8205V56.8282V56.8359V56.8435V56.851V56.8585V56.8659V56.8733V56.8806V56.8879V56.8951V56.9022V56.9093V56.9152ZM57.4235 56.8975C57.4237 56.8976 57.4231 56.8993 57.4214 56.9027C57.4225 56.8992 57.4234 56.8975 57.4235 56.8975ZM18.975 56.8975C18.9751 56.8975 18.976 56.8993 18.9771 56.9027C18.9754 56.8993 18.9748 56.8975 18.975 56.8975Z" fill="#00132F" stroke="#2FF6D3" stroke-width="2"/>
<path d="M57.4235 49.9715C57.4237 49.9715 57.4231 49.9732 57.4214 49.9767C57.4225 49.9732 57.4234 49.9715 57.4235 49.9715ZM57.3122 49.9563C57.3435 49.9863 57.3664 50.0112 57.383 50.0311C57.3664 50.051 57.3435 50.0759 57.3122 50.1059C57.1543 50.2569 56.8669 50.4503 56.4055 50.6638C55.4886 51.0881 54.0983 51.4959 52.3012 51.8477C48.7235 52.548 43.7371 52.988 38.1992 52.988C32.6614 52.988 27.675 52.548 24.0973 51.8477C22.3001 51.4959 20.9099 51.0881 19.9929 50.6638C19.5316 50.4503 19.2442 50.2569 19.0863 50.1059C19.055 50.0759 19.0321 50.051 19.0155 50.0311C19.0321 50.0112 19.055 49.9863 19.0863 49.9563C19.2442 49.8053 19.5316 49.6119 19.9929 49.3984C20.9099 48.9741 22.3001 48.5663 24.0973 48.2145C27.675 47.5142 32.6614 47.0742 38.1992 47.0742C43.7371 47.0742 48.7235 47.5142 52.3012 48.2145C54.0983 48.5663 55.4886 48.9741 56.4055 49.3984C56.8669 49.6119 57.1543 49.8053 57.3122 49.9563ZM18.975 49.9715C18.9751 49.9715 18.976 49.9732 18.9771 49.9767C18.9754 49.9732 18.9748 49.9715 18.975 49.9715ZM18.975 50.0907C18.9748 50.0907 18.9754 50.089 18.9771 50.0855C18.976 50.089 18.9751 50.0907 18.975 50.0907ZM57.4214 50.0855C57.4231 50.089 57.4237 50.0907 57.4235 50.0907C57.4234 50.0907 57.4225 50.089 57.4214 50.0855Z" fill="#00132F" stroke="#2FF6D3" stroke-width="2"/>
<path d="M62.4063 48.9035C62.3933 48.9242 62.3642 48.963 62.3044 49.0202C62.1465 49.1712 61.8591 49.3646 61.3977 49.5781C60.4808 50.0024 59.0905 50.4102 57.2934 50.762C53.7156 51.4623 48.7293 51.9023 43.1914 51.9023C37.6536 51.9023 32.6672 51.4623 29.0895 50.762C27.2923 50.4102 25.9021 50.0024 24.9851 49.5781C24.5238 49.3646 24.2363 49.1712 24.0785 49.0202C24.0187 48.963 23.9896 48.9242 23.9766 48.9035C23.9766 48.5614 23.9766 48.0791 23.9765 47.5095C23.9765 46.0916 23.9765 44.1329 23.9765 42.4504C24.7625 42.1351 25.8907 41.8141 27.2719 41.5061C28.9855 41.124 31.006 40.7793 33.0733 40.4895C37.2183 39.9085 41.4755 39.5586 43.7378 39.5586C46.3856 39.5586 50.3831 39.8105 54.1459 40.3381C56.0262 40.6017 57.8305 40.9318 59.3685 41.328C60.6355 41.6545 61.6683 42.0128 62.4063 42.3875V42.3902V42.4045V42.4188V42.4331V42.4475V42.4619V42.4763V42.4908V42.5053V42.5198V42.5343V42.5489V42.5635V42.5781V42.5928V42.6074V42.6221V42.6368V42.6516V42.6664V42.6812V42.696V42.7108V42.7257V42.7406V42.7555V42.7705V42.7854V42.8004V42.8154V42.8305V42.8455V42.8606V42.8757V42.8909V42.906V42.9212V42.9364V42.9516V42.9669V42.9821V42.9974V43.0127V43.028V43.0434V43.0587V43.0741V43.0895V43.105V43.1204V43.1359V43.1514V43.1669V43.1824V43.1979V43.2135V43.2291V43.2446V43.2603V43.2759V43.2915V43.3072V43.3229V43.3386V43.3543V43.37V43.3858V43.4016V43.4173V43.4331V43.4489V43.4648V43.4806V43.4965V43.5123V43.5282V43.5441V43.56V43.576V43.5919V43.6079V43.6239V43.6398V43.6558V43.6718V43.6879V43.7039V43.72V43.736V43.7521V43.7682V43.7843V43.8004V43.8165V43.8326V43.8488V43.8649V43.8811V43.8972V43.9134V43.9296V43.9458V43.962V43.9782V43.9945V44.0107V44.0269V44.0432V44.0595V44.0757V44.092V44.1083V44.1246V44.1409V44.1572V44.1735V44.1898V44.2061V44.2225V44.2388V44.2552V44.2715V44.2879V44.3042V44.3206V44.337V44.3533V44.3697V44.3861V44.4025V44.4189V44.4353V44.4517V44.4681V44.4845V44.5009V44.5173V44.5338V44.5502V44.5666V44.583V44.5994V44.6159V44.6323V44.6487V44.6652V44.6816V44.698V44.7145V44.7309V44.7473V44.7638V44.7802V44.7966V44.8131V44.8295V44.8459V44.8623V44.8788V44.8952V44.9116V44.928V44.9445V44.9609V44.9773V44.9937V45.0101V45.0265V45.0429V45.0593V45.0757V45.0921V45.1085V45.1249V45.1413V45.1577V45.174V45.1904V45.2067V45.2231V45.2395V45.2558V45.2721V45.2885V45.3048V45.3211V45.3374V45.3537V45.37V45.3863V45.4026V45.4189V45.4351V45.4514V45.4676V45.4839V45.5001V45.5163V45.5325V45.5488V45.5649V45.5811V45.5973V45.6135V45.6296V45.6458V45.6619V45.678V45.6942V45.7103V45.7263V45.7424V45.7585V45.7745V45.7906V45.8066V45.8226V45.8386V45.8546V45.8706V45.8866V45.9025V45.9185V45.9344V45.9503V45.9662V45.9821V45.9979V46.0138V46.0296V46.0455V46.0613V46.0771V46.0928V46.1086V46.1243V46.1401V46.1558V46.1715V46.1871V46.2028V46.2184V46.2341V46.2497V46.2653V46.2808V46.2964V46.3119V46.3274V46.3429V46.3584V46.3739V46.3893V46.4047V46.4201V46.4355V46.4508V46.4662V46.4815V46.4968V46.5121V46.5273V46.5426V46.5578V46.573V46.5881V46.6033V46.6184V46.6335V46.6486V46.6636V46.6786V46.6937V46.7086V46.7236V46.7385V46.7534V46.7683V46.7832V46.798V46.8128V46.8276V46.8424V46.8571V46.8718V46.8865V46.9012V46.9158V46.9304V46.945V46.9596V46.9741V46.9886V47.0031V47.0175V47.0319V47.0463V47.0607V47.075V47.0893V47.1036V47.1178V47.132V47.1462V47.1604V47.1745V47.1886V47.2027V47.2167V47.2307V47.2447V47.2587V47.2726V47.2865V47.3003V47.3141V47.3279V47.3417V47.3554V47.3691V47.3828V47.3964V47.41V47.4235V47.4371V47.4506V47.464V47.4774V47.4908V47.5042V47.5175V47.5308V47.5441V47.5573V47.5705V47.5836V47.5967V47.6098V47.6228V47.6358V47.6488V47.6617V47.6746V47.6875V47.7003V47.7131V47.7258V47.7385V47.7512V47.7638V47.7764V47.789V47.8015V47.814V47.8264V47.8388V47.8512V47.8635V47.8758V47.888V47.9002V47.9124V47.9245V47.9365V47.9486V47.9606V47.9725V47.9844V47.9963V48.0081V48.0199V48.0317V48.0434V48.055V48.0666V48.0782V48.0897V48.1012V48.1126V48.124V48.1354V48.1467V48.158V48.1692V48.1804V48.1915V48.2026V48.2136V48.2246V48.2355V48.2464V48.2573V48.2681V48.2789V48.2896V48.3002V48.3109V48.3214V48.3319V48.3424V48.3528V48.3632V48.3736V48.3838V48.3941V48.4043V48.4144V48.4245V48.4345V48.4445V48.4544V48.4643V48.4742V48.484V48.4937V48.5034V48.513V48.5226V48.5321V48.5416V48.551V48.5604V48.5697V48.579V48.5882V48.5974V48.6065V48.6155V48.6245V48.6335V48.6424V48.6512V48.66V48.6688V48.6774V48.6861V48.6946V48.7032V48.7116V48.72V48.7284V48.7367V48.7449V48.7531V48.7612V48.7693V48.7773V48.7852V48.7931V48.801V48.8088V48.8165V48.8242V48.8318V48.8393V48.8468V48.8542V48.8616V48.8689V48.8762V48.8834V48.8905V48.8976V48.9035ZM62.4157 48.8858C62.4159 48.8858 62.4153 48.8875 62.4136 48.891C62.4147 48.8875 62.4156 48.8858 62.4157 48.8858ZM23.9672 48.8858C23.9673 48.8858 23.9682 48.8875 23.9693 48.891C23.9676 48.8875 23.967 48.8858 23.9672 48.8858Z" fill="#00132F" stroke="#2FF6D3" stroke-width="2"/>
<path d="M62.4157 41.9598C62.4159 41.9598 62.4153 41.9615 62.4135 41.9649C62.4147 41.9615 62.4156 41.9598 62.4157 41.9598ZM62.3044 41.9446C62.3357 41.9745 62.3586 41.9995 62.3752 42.0194C62.3586 42.0393 62.3357 42.0642 62.3044 42.0942C62.1465 42.2452 61.8591 42.4386 61.3977 42.652C60.4808 43.0764 59.0905 43.4842 57.2934 43.8359C53.7156 44.5363 48.7293 44.9763 43.1914 44.9763C37.6536 44.9763 32.6672 44.5363 29.0895 43.8359C27.2923 43.4842 25.9021 43.0764 24.9851 42.652C24.5238 42.4386 24.2363 42.2452 24.0785 42.0942C24.0471 42.0642 24.0242 42.0393 24.0077 42.0194C24.0242 41.9995 24.0471 41.9745 24.0785 41.9446C24.2363 41.7936 24.5238 41.6002 24.9851 41.3867C25.9021 40.9624 27.2923 40.5546 29.0895 40.2028C32.6672 39.5025 37.6536 39.0625 43.1914 39.0625C48.7293 39.0625 53.7156 39.5025 57.2934 40.2028C59.0905 40.5546 60.4808 40.9624 61.3977 41.3867C61.8591 41.6002 62.1465 41.7936 62.3044 41.9446ZM23.9672 41.9598C23.9673 41.9598 23.9682 41.9615 23.9693 41.9649C23.9676 41.9615 23.967 41.9598 23.9672 41.9598ZM23.9672 42.079C23.967 42.079 23.9676 42.0772 23.9693 42.0738C23.9682 42.0772 23.9673 42.079 23.9672 42.079ZM62.4135 42.0738C62.4153 42.0772 62.4159 42.079 62.4157 42.079C62.4156 42.079 62.4147 42.0772 62.4135 42.0738Z" fill="#00132F" stroke="#2FF6D3" stroke-width="2"/>
<path d="M57.4141 42.0324C57.4011 42.0531 57.372 42.0919 57.3122 42.1491C57.1543 42.3001 56.8669 42.4935 56.4055 42.707C55.4886 43.1313 54.0983 43.5391 52.3012 43.8909C48.7235 44.5912 43.7371 45.0312 38.1992 45.0312C32.6614 45.0312 27.675 44.5912 24.0973 43.8909C22.3001 43.5391 20.9099 43.1313 19.9929 42.707C19.5316 42.4935 19.2442 42.3001 19.0863 42.1491C19.0265 42.0919 18.9974 42.0531 18.9844 42.0324C18.9844 41.6903 18.9844 41.208 18.9844 40.6384C18.9843 39.2205 18.9843 37.2618 18.9843 35.5793C19.7703 35.2641 20.8985 34.943 22.2797 34.635C23.9933 34.2529 26.0138 33.9082 28.0811 33.6184C32.2261 33.0374 36.4833 32.6875 38.7456 32.6875C41.3934 32.6875 45.3909 32.9394 49.1537 33.467C51.034 33.7306 52.8383 34.0607 54.3763 34.4569C55.6433 34.7834 56.6761 35.1417 57.4141 35.5164V35.5191V35.5334V35.5477V35.5621V35.5764V35.5908V35.6053V35.6197V35.6342V35.6487V35.6632V35.6778V35.6924V35.707V35.7217V35.7363V35.751V35.7657V35.7805V35.7953V35.8101V35.8249V35.8397V35.8546V35.8695V35.8844V35.8994V35.9143V35.9293V35.9444V35.9594V35.9745V35.9895V36.0046V36.0198V36.0349V36.0501V36.0653V36.0805V36.0958V36.111V36.1263V36.1416V36.1569V36.1723V36.1876V36.203V36.2184V36.2339V36.2493V36.2648V36.2803V36.2958V36.3113V36.3268V36.3424V36.358V36.3736V36.3892V36.4048V36.4204V36.4361V36.4518V36.4675V36.4832V36.4989V36.5147V36.5305V36.5462V36.562V36.5778V36.5937V36.6095V36.6254V36.6412V36.6571V36.673V36.689V36.7049V36.7208V36.7368V36.7528V36.7687V36.7847V36.8008V36.8168V36.8328V36.8489V36.8649V36.881V36.8971V36.9132V36.9293V36.9454V36.9615V36.9777V36.9938V37.01V37.0261V37.0423V37.0585V37.0747V37.0909V37.1071V37.1234V37.1396V37.1558V37.1721V37.1884V37.2046V37.2209V37.2372V37.2535V37.2698V37.2861V37.3024V37.3187V37.335V37.3514V37.3677V37.3841V37.4004V37.4168V37.4331V37.4495V37.4659V37.4823V37.4986V37.515V37.5314V37.5478V37.5642V37.5806V37.597V37.6134V37.6298V37.6462V37.6627V37.6791V37.6955V37.7119V37.7283V37.7448V37.7612V37.7776V37.7941V37.8105V37.8269V37.8434V37.8598V37.8762V37.8927V37.9091V37.9255V37.942V37.9584V37.9748V37.9913V38.0077V38.0241V38.0405V38.057V38.0734V38.0898V38.1062V38.1226V38.139V38.1554V38.1718V38.1882V38.2046V38.221V38.2374V38.2538V38.2702V38.2866V38.3029V38.3193V38.3357V38.352V38.3684V38.3847V38.401V38.4174V38.4337V38.45V38.4663V38.4826V38.4989V38.5152V38.5315V38.5478V38.564V38.5803V38.5965V38.6128V38.629V38.6452V38.6615V38.6777V38.6939V38.71V38.7262V38.7424V38.7585V38.7747V38.7908V38.8069V38.8231V38.8392V38.8553V38.8713V38.8874V38.9035V38.9195V38.9355V38.9515V38.9675V38.9835V38.9995V39.0155V39.0314V39.0474V39.0633V39.0792V39.0951V39.111V39.1269V39.1427V39.1585V39.1744V39.1902V39.206V39.2217V39.2375V39.2532V39.269V39.2847V39.3004V39.316V39.3317V39.3473V39.363V39.3786V39.3942V39.4097V39.4253V39.4408V39.4563V39.4718V39.4873V39.5028V39.5182V39.5336V39.549V39.5644V39.5797V39.5951V39.6104V39.6257V39.641V39.6562V39.6715V39.6867V39.7019V39.717V39.7322V39.7473V39.7624V39.7775V39.7925V39.8075V39.8226V39.8375V39.8525V39.8674V39.8823V39.8972V39.9121V39.9269V39.9417V39.9565V39.9713V39.986V40.0007V40.0154V40.0301V40.0447V40.0593V40.0739V40.0885V40.103V40.1175V40.132V40.1464V40.1608V40.1752V40.1896V40.2039V40.2182V40.2325V40.2467V40.261V40.2751V40.2893V40.3034V40.3175V40.3316V40.3456V40.3596V40.3736V40.3876V40.4015V40.4154V40.4292V40.443V40.4568V40.4706V40.4843V40.498V40.5117V40.5253V40.5389V40.5524V40.566V40.5795V40.5929V40.6063V40.6197V40.6331V40.6464V40.6597V40.673V40.6862V40.6994V40.7125V40.7256V40.7387V40.7517V40.7647V40.7777V40.7906V40.8035V40.8164V40.8292V40.842V40.8547V40.8674V40.8801V40.8927V40.9053V40.9179V40.9304V40.9429V40.9553V40.9677V40.9801V40.9924V41.0047V41.0169V41.0291V41.0413V41.0534V41.0655V41.0775V41.0895V41.1014V41.1133V41.1252V41.137V41.1488V41.1606V41.1723V41.1839V41.1955V41.2071V41.2186V41.2301V41.2416V41.2529V41.2643V41.2756V41.2869V41.2981V41.3093V41.3204V41.3315V41.3425V41.3535V41.3644V41.3753V41.3862V41.397V41.4078V41.4185V41.4291V41.4398V41.4503V41.4609V41.4713V41.4818V41.4921V41.5025V41.5127V41.523V41.5332V41.5433V41.5534V41.5634V41.5734V41.5834V41.5932V41.6031V41.6129V41.6226V41.6323V41.6419V41.6515V41.661V41.6705V41.6799V41.6893V41.6986V41.7079V41.7171V41.7263V41.7354V41.7445V41.7535V41.7624V41.7713V41.7801V41.7889V41.7977V41.8064V41.815V41.8236V41.8321V41.8405V41.8489V41.8573V41.8656V41.8738V41.882V41.8901V41.8982V41.9062V41.9142V41.922V41.9299V41.9377V41.9454V41.9531V41.9607V41.9682V41.9757V41.9831V41.9905V41.9978V42.0051V42.0123V42.0194V42.0265V42.0324ZM57.4235 42.0147C57.4237 42.0147 57.4231 42.0165 57.4214 42.0199C57.4225 42.0164 57.4234 42.0147 57.4235 42.0147ZM18.975 42.0147C18.9751 42.0147 18.976 42.0165 18.9771 42.0199C18.9754 42.0164 18.9748 42.0147 18.975 42.0147Z" fill="#00132F" stroke="#2FF6D3" stroke-width="2"/>
<path d="M57.4235 35.0887C57.4237 35.0887 57.4231 35.0904 57.4214 35.0938C57.4225 35.0904 57.4234 35.0887 57.4235 35.0887ZM57.3122 35.0735C57.3435 35.1034 57.3664 35.1284 57.383 35.1483C57.3664 35.1682 57.3435 35.1931 57.3122 35.2231C57.1543 35.3741 56.8669 35.5675 56.4055 35.781C55.4886 36.2053 54.0983 36.6131 52.3012 36.9648C48.7235 37.6652 43.7371 38.1052 38.1992 38.1052C32.6614 38.1052 27.675 37.6652 24.0973 36.9648C22.3001 36.6131 20.9099 36.2053 19.9929 35.781C19.5316 35.5675 19.2442 35.3741 19.0863 35.2231C19.055 35.1931 19.0321 35.1682 19.0155 35.1483C19.0321 35.1284 19.055 35.1035 19.0863 35.0735C19.2442 34.9225 19.5316 34.7291 19.9929 34.5156C20.9099 34.0913 22.3001 33.6835 24.0973 33.3317C27.675 32.6314 32.6614 32.1914 38.1992 32.1914C43.7371 32.1914 48.7235 32.6314 52.3012 33.3317C54.0983 33.6835 55.4886 34.0913 56.4055 34.5156C56.8669 34.7291 57.1543 34.9225 57.3122 35.0735ZM18.975 35.0887C18.9751 35.0887 18.976 35.0904 18.9771 35.0939C18.9754 35.0904 18.9748 35.0887 18.975 35.0887ZM18.975 35.2079C18.9748 35.2079 18.9754 35.2062 18.9771 35.2027C18.976 35.2061 18.9751 35.2079 18.975 35.2079ZM57.4214 35.2027C57.4231 35.2062 57.4237 35.2079 57.4235 35.2079C57.4234 35.2079 57.4225 35.2061 57.4214 35.2027Z" fill="#00132F" stroke="#2FF6D3" stroke-width="2"/>
<path d="M56.5249 35.0109C56.5085 35.029 56.4731 35.0621 56.4042 35.1081C56.2225 35.2294 55.9059 35.3699 55.4145 35.5C54.4377 35.7585 52.9978 35.9186 51.1669 35.9527C47.5218 36.0208 42.5349 35.5878 37.0812 34.6256C31.6276 33.6634 26.7935 32.3638 23.3919 31.0525C21.6832 30.3938 20.3849 29.7507 19.5557 29.1735C19.1384 28.8831 18.8889 28.6427 18.7597 28.4666C18.7107 28.3999 18.6889 28.3566 18.6796 28.334C18.7391 27.9971 18.8228 27.5221 18.9218 26.9612C19.1681 25.5648 19.5084 23.6359 19.8008 21.979C20.6296 21.8051 21.7963 21.6849 23.2101 21.6216C24.964 21.543 27.0136 21.5547 29.0999 21.6285C33.2828 21.7765 37.5361 22.1715 39.7639 22.5646C42.3714 23.0246 46.2643 23.9672 49.8783 25.1405C51.6842 25.7268 53.4037 26.3653 54.8494 27.0228C56.0405 27.5645 56.9953 28.0968 57.657 28.594L57.6565 28.5966L57.654 28.6107L57.6516 28.6248L57.6491 28.6389L57.6466 28.6531L57.6441 28.6673L57.6416 28.6815L57.6391 28.6957L57.6365 28.71L57.634 28.7243L57.6315 28.7386L57.629 28.7529L57.6264 28.7673L57.6239 28.7817L57.6213 28.7961L57.6188 28.8106L57.6162 28.825L57.6137 28.8395L57.6111 28.8541L57.6086 28.8686L57.606 28.8832L57.6034 28.8978L57.6008 28.9124L57.5982 28.927L57.5957 28.9417L57.5931 28.9564L57.5905 28.9711L57.5879 28.9859L57.5853 29.0006L57.5826 29.0154L57.58 29.0302L57.5774 29.0451L57.5748 29.0599L57.5722 29.0748L57.5695 29.0897L57.5669 29.1046L57.5643 29.1196L57.5616 29.1345L57.559 29.1495L57.5563 29.1645L57.5537 29.1796L57.551 29.1946L57.5484 29.2097L57.5457 29.2248L57.543 29.2399L57.5404 29.255L57.5377 29.2702L57.535 29.2853L57.5323 29.3005L57.5297 29.3157L57.527 29.331L57.5243 29.3462L57.5216 29.3615L57.5189 29.3768L57.5162 29.3921L57.5135 29.4074L57.5108 29.4227L57.5081 29.4381L57.5054 29.4535L57.5026 29.4689L57.4999 29.4843L57.4972 29.4997L57.4945 29.5151L57.4918 29.5306L57.489 29.5461L57.4863 29.5616L57.4836 29.5771L57.4808 29.5926L57.4781 29.6082L57.4753 29.6237L57.4726 29.6393L57.4698 29.6549L57.4671 29.6705L57.4643 29.6861L57.4616 29.7017L57.4588 29.7174L57.456 29.733L57.4533 29.7487L57.4505 29.7644L57.4477 29.7801L57.445 29.7958L57.4422 29.8115L57.4394 29.8273L57.4366 29.843L57.4339 29.8588L57.4311 29.8746L57.4283 29.8904L57.4255 29.9062L57.4227 29.922L57.4199 29.9378L57.4171 29.9537L57.4143 29.9695L57.4115 29.9854L57.4087 30.0012L57.4059 30.0171L57.4031 30.033L57.4003 30.0489L57.3975 30.0648L57.3947 30.0808L57.3919 30.0967L57.3891 30.1126L57.3863 30.1286L57.3834 30.1445L57.3806 30.1605L57.3778 30.1765L57.375 30.1925L57.3722 30.2085L57.3693 30.2245L57.3665 30.2405L57.3637 30.2565L57.3609 30.2726L57.358 30.2886L57.3552 30.3046L57.3524 30.3207L57.3495 30.3368L57.3467 30.3528L57.3439 30.3689L57.341 30.385L57.3382 30.4011L57.3353 30.4171L57.3325 30.4332L57.3297 30.4493L57.3268 30.4654L57.324 30.4816L57.3211 30.4977L57.3183 30.5138L57.3154 30.5299L57.3126 30.5461L57.3098 30.5622L57.3069 30.5783L57.3041 30.5945L57.3012 30.6106L57.2984 30.6268L57.2955 30.6429L57.2927 30.6591L57.2898 30.6753L57.287 30.6914L57.2841 30.7076L57.2813 30.7238L57.2784 30.7399L57.2755 30.7561L57.2727 30.7723L57.2698 30.7885L57.267 30.8046L57.2641 30.8208L57.2613 30.837L57.2584 30.8532L57.2556 30.8694L57.2527 30.8855L57.2499 30.9017L57.247 30.9179L57.2441 30.9341L57.2413 30.9503L57.2384 30.9665L57.2356 30.9826L57.2327 30.9988L57.2299 31.015L57.227 31.0312L57.2242 31.0474L57.2213 31.0635L57.2185 31.0797L57.2156 31.0959L57.2127 31.1121L57.2099 31.1282L57.207 31.1444L57.2042 31.1606L57.2013 31.1767L57.1985 31.1929L57.1956 31.209L57.1928 31.2252L57.1899 31.2413L57.1871 31.2575L57.1842 31.2736L57.1814 31.2897L57.1786 31.3059L57.1757 31.322L57.1729 31.3381L57.17 31.3542L57.1672 31.3704L57.1643 31.3865L57.1615 31.4026L57.1587 31.4187L57.1558 31.4347L57.153 31.4508L57.1501 31.4669L57.1473 31.483L57.1445 31.499L57.1416 31.5151L57.1388 31.5311L57.136 31.5472L57.1332 31.5632L57.1303 31.5792L57.1275 31.5953L57.1247 31.6113L57.1218 31.6273L57.119 31.6433L57.1162 31.6593L57.1134 31.6752L57.1106 31.6912L57.1078 31.7072L57.1049 31.7231L57.1021 31.739L57.0993 31.755L57.0965 31.7709L57.0937 31.7868L57.0909 31.8027L57.0881 31.8186L57.0853 31.8345L57.0825 31.8503L57.0797 31.8662L57.0769 31.882L57.0741 31.8979L57.0713 31.9137L57.0685 31.9295L57.0657 31.9453L57.063 31.9611L57.0602 31.9769L57.0574 31.9926L57.0546 32.0084L57.0518 32.0241L57.0491 32.0398L57.0463 32.0556L57.0435 32.0713L57.0408 32.0869L57.038 32.1026L57.0352 32.1183L57.0325 32.1339L57.0297 32.1495L57.027 32.1651L57.0242 32.1807L57.0215 32.1963L57.0187 32.2119L57.016 32.2274L57.0132 32.243L57.0105 32.2585L57.0078 32.274L57.005 32.2895L57.0023 32.3049L56.9996 32.3204L56.9968 32.3358L56.9941 32.3513L56.9914 32.3667L56.9887 32.382L56.986 32.3974L56.9833 32.4128L56.9806 32.4281L56.9779 32.4434L56.9752 32.4587L56.9725 32.474L56.9698 32.4892L56.9671 32.5045L56.9644 32.5197L56.9617 32.5349L56.959 32.5501L56.9564 32.5653L56.9537 32.5804L56.951 32.5955L56.9484 32.6106L56.9457 32.6257L56.943 32.6408L56.9404 32.6558L56.9377 32.6708L56.9351 32.6858L56.9324 32.7008L56.9298 32.7158L56.9272 32.7307L56.9245 32.7456L56.9219 32.7605L56.9193 32.7754L56.9167 32.7902L56.9141 32.8051L56.9114 32.8199L56.9088 32.8346L56.9062 32.8494L56.9036 32.8641L56.901 32.8788L56.8984 32.8935L56.8959 32.9082L56.8933 32.9228L56.8907 32.9374L56.8881 32.952L56.8856 32.9666L56.883 32.9811L56.8804 32.9956L56.8779 33.0101L56.8753 33.0246L56.8728 33.039L56.8702 33.0534L56.8677 33.0678L56.8652 33.0822L56.8626 33.0965L56.8601 33.1108L56.8576 33.1251L56.8551 33.1393L56.8526 33.1536L56.8501 33.1678L56.8476 33.1819L56.8451 33.1961L56.8426 33.2102L56.8401 33.2243L56.8376 33.2383L56.8351 33.2524L56.8327 33.2664L56.8302 33.2803L56.8277 33.2943L56.8253 33.3082L56.8228 33.3221L56.8204 33.3359L56.818 33.3498L56.8155 33.3636L56.8131 33.3773L56.8107 33.3911L56.8083 33.4048L56.8058 33.4184L56.8034 33.4321L56.801 33.4457L56.7986 33.4593L56.7962 33.4728L56.7939 33.4863L56.7915 33.4998L56.7891 33.5133L56.7867 33.5267L56.7844 33.5401L56.782 33.5534L56.7797 33.5667L56.7773 33.58L56.775 33.5933L56.7727 33.6065L56.7703 33.6197L56.768 33.6329L56.7657 33.646L56.7634 33.6591L56.7611 33.6721L56.7588 33.6851L56.7565 33.6981L56.7542 33.7111L56.7519 33.724L56.7497 33.7369L56.7474 33.7497L56.7451 33.7625L56.7429 33.7753L56.7406 33.788L56.7384 33.8007L56.7362 33.8134L56.7339 33.826L56.7317 33.8386L56.7295 33.8511L56.7273 33.8636L56.7251 33.8761L56.7229 33.8886L56.7207 33.901L56.7185 33.9133L56.7164 33.9256L56.7142 33.9379L56.712 33.9502L56.7099 33.9624L56.7077 33.9746L56.7056 33.9867L56.7035 33.9988L56.7013 34.0108L56.6992 34.0228L56.6971 34.0348L56.695 34.0467L56.6929 34.0586L56.6908 34.0705L56.6887 34.0823L56.6866 34.0941L56.6846 34.1058L56.6825 34.1175L56.6805 34.1291L56.6784 34.1407L56.6764 34.1523L56.6743 34.1638L56.6723 34.1753L56.6703 34.1867L56.6683 34.1981L56.6663 34.2095L56.6643 34.2208L56.6623 34.2321L56.6603 34.2433L56.6583 34.2545L56.6564 34.2656L56.6544 34.2767L56.6525 34.2877L56.6505 34.2987L56.6486 34.3097L56.6467 34.3206L56.6448 34.3315L56.6428 34.3423L56.6409 34.3531L56.6391 34.3638L56.6372 34.3745L56.6353 34.3851L56.6334 34.3957L56.6316 34.4063L56.6297 34.4168L56.6279 34.4272L56.626 34.4377L56.6242 34.448L56.6224 34.4583L56.6206 34.4686L56.6188 34.4788L56.617 34.489L56.6152 34.4991L56.6134 34.5092L56.6116 34.5192L56.6099 34.5292L56.6081 34.5392L56.6064 34.549L56.6046 34.5589L56.6029 34.5687L56.6012 34.5784L56.5995 34.5881L56.5978 34.5977L56.5961 34.6073L56.5944 34.6168L56.5927 34.6263L56.5911 34.6358L56.5894 34.6451L56.5878 34.6545L56.5861 34.6638L56.5845 34.673L56.5829 34.6822L56.5813 34.6913L56.5797 34.7004L56.5781 34.7094L56.5765 34.7184L56.5749 34.7273L56.5734 34.7362L56.5718 34.745L56.5703 34.7538L56.5687 34.7625L56.5672 34.7711L56.5657 34.7797L56.5642 34.7883L56.5627 34.7968L56.5612 34.8052L56.5597 34.8136L56.5582 34.8219L56.5568 34.8302L56.5553 34.8384L56.5539 34.8466L56.5524 34.8547L56.551 34.8628L56.5496 34.8708L56.5482 34.8787L56.5468 34.8866L56.5454 34.8944L56.5441 34.9022L56.5427 34.9099L56.5414 34.9176L56.54 34.9252L56.5387 34.9327L56.5374 34.9402L56.536 34.9477L56.5347 34.955L56.5335 34.9624L56.5322 34.9696L56.5309 34.9768L56.5296 34.984L56.5284 34.9911L56.5271 34.9981L56.5259 35.005L56.5249 35.0109ZM56.5372 34.9951C56.5374 34.9951 56.5365 34.9967 56.5342 34.9998C56.5359 34.9966 56.5371 34.9951 56.5372 34.9951ZM18.6734 28.3149C18.6736 28.315 18.6741 28.3168 18.6747 28.3204C18.6736 28.3167 18.6733 28.3149 18.6734 28.3149Z" fill="#00132F" stroke="white" stroke-width="2"/>
<path d="M57.7403 28.1747C57.7405 28.1747 57.7396 28.1763 57.7373 28.1794C57.739 28.1762 57.7402 28.1747 57.7403 28.1747ZM57.6333 28.1403C57.659 28.1753 57.6772 28.2038 57.6901 28.2263C57.6703 28.2431 57.6434 28.2636 57.6073 28.2877C57.4256 28.409 57.1089 28.5494 56.6175 28.6795C55.6408 28.9381 54.2009 29.0981 52.3699 29.1323C48.7249 29.2004 43.738 28.7673 38.2843 27.8052C32.8307 26.843 27.9966 25.5434 24.595 24.2321C22.8863 23.5734 21.588 22.9303 20.7587 22.3531C20.3415 22.0627 20.092 21.8223 19.9628 21.6462C19.9372 21.6112 19.9189 21.5827 19.9061 21.5602C19.9258 21.5435 19.9527 21.5229 19.9888 21.4988C20.1705 21.3776 20.4872 21.2371 20.9786 21.107C21.9553 20.8484 23.3953 20.6884 25.2262 20.6542C28.8712 20.5862 33.8582 21.0192 39.3118 21.9814C44.7655 22.9435 49.5995 24.2432 53.0012 25.5545C54.7099 26.2131 56.0081 26.8562 56.8374 27.4334C57.2546 27.7238 57.5041 27.9642 57.6333 28.1403ZM19.8765 21.4945C19.8767 21.4945 19.8772 21.4964 19.8778 21.5C19.8767 21.4963 19.8764 21.4945 19.8765 21.4945ZM19.8558 21.6119C19.8557 21.6118 19.8565 21.6102 19.8589 21.6072C19.8571 21.6103 19.856 21.6119 19.8558 21.6119ZM57.7184 28.2866C57.7195 28.2903 57.7197 28.2921 57.7196 28.292C57.7195 28.292 57.7189 28.2902 57.7184 28.2866Z" fill="#00132F" stroke="white" stroke-width="2"/>
<path d="M58.7875 16.884C58.7763 16.9057 58.7507 16.9469 58.696 17.0091C58.5519 17.1732 58.2822 17.3908 57.8412 17.6434C56.9645 18.1457 55.6148 18.6724 53.8549 19.1787C50.3513 20.1865 45.4219 21.0571 39.9049 21.5372C34.3879 22.0172 29.3821 22.0111 25.7571 21.6236C23.9363 21.429 22.5159 21.1432 21.5656 20.8C21.0876 20.6273 20.7844 20.4596 20.6141 20.3228C20.5495 20.271 20.5172 20.2348 20.5024 20.2154C20.4727 19.8746 20.4309 19.3941 20.3815 18.8266C20.2586 17.4141 20.0888 15.4628 19.943 13.7866C20.6987 13.4044 21.7947 12.9867 23.1441 12.5601C24.8181 12.0309 26.801 11.5124 28.8355 11.0445C32.9145 10.1064 37.1254 9.38869 39.3791 9.19258C42.017 8.96305 46.0212 8.8675 49.8156 9.06687C51.7117 9.1665 53.5378 9.33891 55.1044 9.60037C56.3949 9.81577 57.4549 10.0832 58.2226 10.3925L58.2228 10.3952L58.2241 10.4094L58.2253 10.4237L58.2266 10.438L58.2278 10.4523L58.2291 10.4666L58.2303 10.481L58.2316 10.4954L58.2328 10.5098L58.2341 10.5243L58.2353 10.5388L58.2366 10.5533L58.2379 10.5678L58.2391 10.5824L58.2404 10.597L58.2417 10.6116L58.243 10.6262L58.2442 10.6409L58.2455 10.6556L58.2468 10.6703L58.2481 10.6851L58.2494 10.6998L58.2506 10.7146L58.2519 10.7294L58.2532 10.7443L58.2545 10.7591L58.2558 10.774L58.2571 10.7889L58.2584 10.8039L58.2597 10.8188L58.261 10.8338L58.2623 10.8488L58.2636 10.8639L58.2649 10.8789L58.2662 10.894L58.2676 10.9091L58.2689 10.9242L58.2702 10.9393L58.2715 10.9545L58.2728 10.9697L58.2742 10.9849L58.2755 11.0001L58.2768 11.0154L58.2781 11.0306L58.2795 11.0459L58.2808 11.0612L58.2821 11.0765L58.2835 11.0919L58.2848 11.1073L58.2861 11.1226L58.2875 11.1381L58.2888 11.1535L58.2902 11.1689L58.2915 11.1844L58.2929 11.1999L58.2942 11.2154L58.2956 11.2309L58.2969 11.2464L58.2983 11.262L58.2996 11.2776L58.301 11.2931L58.3023 11.3087L58.3037 11.3244L58.3051 11.34L58.3064 11.3557L58.3078 11.3713L58.3092 11.387L58.3105 11.4027L58.3119 11.4185L58.3133 11.4342L58.3146 11.45L58.316 11.4657L58.3174 11.4815L58.3187 11.4973L58.3201 11.5131L58.3215 11.5289L58.3229 11.5448L58.3243 11.5606L58.3256 11.5765L58.327 11.5924L58.3284 11.6083L58.3298 11.6242L58.3312 11.6401L58.3326 11.6561L58.3339 11.672L58.3353 11.688L58.3367 11.704L58.3381 11.7199L58.3395 11.7359L58.3409 11.7519L58.3423 11.768L58.3437 11.784L58.3451 11.8001L58.3465 11.8161L58.3479 11.8322L58.3493 11.8483L58.3507 11.8643L58.3521 11.8804L58.3535 11.8966L58.3549 11.9127L58.3563 11.9288L58.3577 11.9449L58.3591 11.9611L58.3605 11.9772L58.3619 11.9934L58.3633 12.0096L58.3647 12.0258L58.3661 12.042L58.3675 12.0582L58.369 12.0744L58.3704 12.0906L58.3718 12.1068L58.3732 12.123L58.3746 12.1393L58.376 12.1555L58.3774 12.1718L58.3789 12.188L58.3803 12.2043L58.3817 12.2206L58.3831 12.2369L58.3845 12.2531L58.3859 12.2694L58.3874 12.2857L58.3888 12.302L58.3902 12.3183L58.3916 12.3346L58.393 12.3509L58.3944 12.3673L58.3959 12.3836L58.3973 12.3999L58.3987 12.4163L58.4001 12.4326L58.4016 12.4489L58.403 12.4653L58.4044 12.4816L58.4058 12.498L58.4072 12.5143L58.4087 12.5307L58.4101 12.547L58.4115 12.5634L58.4129 12.5798L58.4144 12.5961L58.4158 12.6125L58.4172 12.6289L58.4186 12.6452L58.4201 12.6616L58.4215 12.678L58.4229 12.6943L58.4243 12.7107L58.4258 12.7271L58.4272 12.7434L58.4286 12.7598L58.43 12.7762L58.4315 12.7926L58.4329 12.8089L58.4343 12.8253L58.4357 12.8417L58.4372 12.858L58.4386 12.8744L58.44 12.8908L58.4414 12.9071L58.4428 12.9235L58.4443 12.9398L58.4457 12.9562L58.4471 12.9726L58.4485 12.9889L58.45 13.0053L58.4514 13.0216L58.4528 13.0379L58.4542 13.0543L58.4556 13.0706L58.4571 13.0869L58.4585 13.1033L58.4599 13.1196L58.4613 13.1359L58.4628 13.1522L58.4642 13.1685L58.4656 13.1848L58.467 13.2011L58.4684 13.2174L58.4698 13.2337L58.4713 13.25L58.4727 13.2663L58.4741 13.2825L58.4755 13.2988L58.4769 13.3151L58.4783 13.3313L58.4797 13.3476L58.4812 13.3638L58.4826 13.38L58.484 13.3962L58.4854 13.4125L58.4868 13.4287L58.4882 13.4449L58.4896 13.461L58.491 13.4772L58.4924 13.4934L58.4938 13.5096L58.4952 13.5257L58.4967 13.5419L58.4981 13.558L58.4995 13.5741L58.5009 13.5902L58.5023 13.6063L58.5037 13.6224L58.5051 13.6385L58.5065 13.6546L58.5079 13.6707L58.5093 13.6867L58.5107 13.7027L58.512 13.7188L58.5134 13.7348L58.5148 13.7508L58.5162 13.7668L58.5176 13.7828L58.519 13.7988L58.5204 13.8147L58.5218 13.8307L58.5232 13.8466L58.5246 13.8625L58.5259 13.8784L58.5273 13.8943L58.5287 13.9102L58.5301 13.926L58.5315 13.9419L58.5328 13.9577L58.5342 13.9736L58.5356 13.9894L58.537 14.0052L58.5383 14.0209L58.5397 14.0367L58.5411 14.0524L58.5425 14.0682L58.5438 14.0839L58.5452 14.0996L58.5466 14.1153L58.5479 14.1309L58.5493 14.1466L58.5506 14.1622L58.552 14.1778L58.5534 14.1934L58.5547 14.209L58.5561 14.2246L58.5574 14.2401L58.5588 14.2557L58.5601 14.2712L58.5615 14.2867L58.5628 14.3021L58.5642 14.3176L58.5655 14.333L58.5668 14.3485L58.5682 14.3639L58.5695 14.3792L58.5709 14.3946L58.5722 14.4099L58.5735 14.4253L58.5749 14.4406L58.5762 14.4558L58.5775 14.4711L58.5788 14.4863L58.5802 14.5015L58.5815 14.5167L58.5828 14.5319L58.5841 14.5471L58.5854 14.5622L58.5868 14.5773L58.5881 14.5924L58.5894 14.6075L58.5907 14.6225L58.592 14.6375L58.5933 14.6525L58.5946 14.6675L58.5959 14.6824L58.5972 14.6974L58.5985 14.7123L58.5998 14.7272L58.6011 14.742L58.6024 14.7568L58.6037 14.7716L58.605 14.7864L58.6062 14.8012L58.6075 14.8159L58.6088 14.8306L58.6101 14.8453L58.6114 14.86L58.6126 14.8746L58.6139 14.8892L58.6152 14.9038L58.6164 14.9183L58.6177 14.9329L58.619 14.9474L58.6202 14.9618L58.6215 14.9763L58.6227 14.9907L58.624 15.0051L58.6252 15.0194L58.6265 15.0338L58.6277 15.0481L58.629 15.0624L58.6302 15.0766L58.6314 15.0908L58.6327 15.105L58.6339 15.1192L58.6351 15.1333L58.6364 15.1474L58.6376 15.1615L58.6388 15.1756L58.64 15.1896L58.6412 15.2036L58.6425 15.2175L58.6437 15.2314L58.6449 15.2453L58.6461 15.2592L58.6473 15.273L58.6485 15.2868L58.6497 15.3006L58.6509 15.3143L58.6521 15.328L58.6533 15.3417L58.6545 15.3553L58.6556 15.369L58.6568 15.3825L58.658 15.3961L58.6592 15.4096L58.6603 15.4231L58.6615 15.4365L58.6627 15.4499L58.6638 15.4633L58.665 15.4766L58.6662 15.4899L58.6673 15.5032L58.6685 15.5164L58.6696 15.5296L58.6708 15.5428L58.6719 15.556L58.6731 15.569L58.6742 15.5821L58.6753 15.5951L58.6765 15.6081L58.6776 15.6211L58.6787 15.634L58.6798 15.6469L58.6809 15.6597L58.6821 15.6725L58.6832 15.6853L58.6843 15.698L58.6854 15.7107L58.6865 15.7234L58.6876 15.736L58.6887 15.7486L58.6898 15.7611L58.6909 15.7737L58.6919 15.7861L58.693 15.7986L58.6941 15.8109L58.6952 15.8233L58.6962 15.8356L58.6973 15.8479L58.6984 15.8601L58.6994 15.8723L58.7005 15.8845L58.7016 15.8966L58.7026 15.9086L58.7036 15.9207L58.7047 15.9327L58.7057 15.9446L58.7068 15.9565L58.7078 15.9684L58.7088 15.9802L58.7099 15.992L58.7109 16.0037L58.7119 16.0154L58.7129 16.0271L58.7139 16.0387L58.7149 16.0503L58.7159 16.0618L58.7169 16.0733L58.7179 16.0847L58.7189 16.0961L58.7199 16.1075L58.7209 16.1188L58.7219 16.13L58.7228 16.1412L58.7238 16.1524L58.7248 16.1636L58.7257 16.1746L58.7267 16.1857L58.7277 16.1967L58.7286 16.2076L58.7296 16.2185L58.7305 16.2294L58.7315 16.2402L58.7324 16.251L58.7333 16.2617L58.7342 16.2724L58.7352 16.283L58.7361 16.2936L58.737 16.3041L58.7379 16.3146L58.7388 16.325L58.7397 16.3354L58.7406 16.3457L58.7415 16.356L58.7424 16.3663L58.7433 16.3765L58.7442 16.3866L58.7451 16.3967L58.7459 16.4068L58.7468 16.4168L58.7477 16.4267L58.7485 16.4366L58.7494 16.4465L58.7503 16.4563L58.7511 16.466L58.7519 16.4757L58.7528 16.4854L58.7536 16.495L58.7544 16.5045L58.7553 16.514L58.7561 16.5234L58.7569 16.5328L58.7577 16.5422L58.7585 16.5515L58.7593 16.5607L58.7601 16.5699L58.7609 16.579L58.7617 16.5881L58.7625 16.5971L58.7633 16.6061L58.7641 16.615L58.7648 16.6239L58.7656 16.6327L58.7664 16.6414L58.7671 16.6501L58.7679 16.6588L58.7686 16.6674L58.7694 16.6759L58.7701 16.6844L58.7708 16.6928L58.7716 16.7012L58.7723 16.7095L58.773 16.7178L58.7737 16.726L58.7744 16.7341L58.7751 16.7422L58.7758 16.7503L58.7765 16.7582L58.7772 16.7662L58.7779 16.774L58.7786 16.7818L58.7793 16.7896L58.7799 16.7973L58.7806 16.8049L58.7813 16.8125L58.7819 16.82L58.7826 16.8275L58.7832 16.8349L58.7838 16.8422L58.7845 16.8495L58.7851 16.8567L58.7857 16.8639L58.7863 16.871L58.787 16.8781L58.7875 16.884ZM58.7953 16.8656C58.7954 16.8655 58.795 16.8673 58.7936 16.8709C58.7945 16.8673 58.7952 16.8656 58.7953 16.8656ZM20.4915 20.1986C20.4916 20.1986 20.4926 20.2002 20.4941 20.2035C20.4921 20.2002 20.4913 20.1986 20.4915 20.1986Z" fill="#00132F" stroke="white" stroke-width="2"/>
<path d="M58.191 9.96764C58.1912 9.96763 58.1907 9.96938 58.1893 9.97295C58.1902 9.96944 58.1909 9.96765 58.191 9.96764ZM58.0788 9.9621C58.1126 9.98926 58.1376 10.0121 58.1558 10.0305C58.141 10.0518 58.1204 10.0786 58.0918 10.1112C57.9476 10.2753 57.678 10.4928 57.2369 10.7455C56.3602 11.2478 55.0105 11.7745 53.2506 12.2808C49.7471 13.2886 44.8176 14.1592 39.3006 14.6393C33.7836 15.1193 28.7779 15.1132 25.1529 14.7257C23.332 14.531 21.9117 14.2453 20.9614 13.9021C20.4833 13.7294 20.1801 13.5616 20.0098 13.4249C19.976 13.3977 19.951 13.3749 19.9327 13.3565C19.9475 13.3352 19.9682 13.3084 19.9968 13.2758C20.141 13.1117 20.4106 12.8942 20.8517 12.6415C21.7284 12.1392 23.0781 11.6125 24.8379 11.1063C28.3415 10.0984 33.2709 9.22782 38.788 8.74776C44.305 8.26769 49.3107 8.27378 52.9357 8.66131C54.7566 8.85597 56.1769 9.14169 57.1272 9.48495C57.6053 9.65765 57.9084 9.82537 58.0788 9.9621ZM19.8872 13.3007C19.8874 13.3007 19.8884 13.3023 19.8898 13.3056C19.8878 13.3023 19.8871 13.3007 19.8872 13.3007ZM19.8975 13.4194C19.8974 13.4194 19.8978 13.4176 19.8993 13.4141C19.8984 13.4176 19.8977 13.4194 19.8975 13.4194ZM58.1988 10.0814C58.2008 10.0847 58.2015 10.0863 58.2014 10.0863C58.2012 10.0864 58.2002 10.0847 58.1988 10.0814Z" fill="#00132F" stroke="white" stroke-width="2"/>
<circle cx="15" cy="46" r="15" fill="#00132F"/>
<circle cx="15" cy="46" r="11.5" fill="#00132F" stroke="white"/>
<path d="M14.0547 45.6016H15.0859C15.5911 45.6016 16.0078 45.5182 16.3359 45.3516C16.6693 45.1797 16.9167 44.9479 17.0781 44.6562C17.2448 44.3594 17.3281 44.026 17.3281 43.6562C17.3281 43.2188 17.2552 42.8516 17.1094 42.5547C16.9635 42.2578 16.7448 42.0339 16.4531 41.8828C16.1615 41.7318 15.7917 41.6562 15.3438 41.6562C14.9375 41.6562 14.5781 41.737 14.2656 41.8984C13.9583 42.0547 13.7161 42.2786 13.5391 42.5703C13.3672 42.862 13.2812 43.2057 13.2812 43.6016H11.8359C11.8359 43.0234 11.9818 42.4974 12.2734 42.0234C12.5651 41.5495 12.974 41.1719 13.5 40.8906C14.0312 40.6094 14.6458 40.4688 15.3438 40.4688C16.0312 40.4688 16.6328 40.5911 17.1484 40.8359C17.6641 41.0755 18.0651 41.4349 18.3516 41.9141C18.638 42.388 18.7812 42.9792 18.7812 43.6875C18.7812 43.974 18.7135 44.2812 18.5781 44.6094C18.4479 44.9323 18.2422 45.2344 17.9609 45.5156C17.6849 45.7969 17.3255 46.0286 16.8828 46.2109C16.4401 46.388 15.9089 46.4766 15.2891 46.4766H14.0547V45.6016ZM14.0547 46.7891V45.9219H15.2891C16.013 45.9219 16.612 46.0078 17.0859 46.1797C17.5599 46.3516 17.9323 46.5807 18.2031 46.8672C18.4792 47.1536 18.6719 47.4688 18.7812 47.8125C18.8958 48.151 18.9531 48.4896 18.9531 48.8281C18.9531 49.3594 18.862 49.8307 18.6797 50.2422C18.5026 50.6536 18.25 51.0026 17.9219 51.2891C17.599 51.5755 17.2188 51.7917 16.7812 51.9375C16.3438 52.0833 15.8672 52.1562 15.3516 52.1562C14.8568 52.1562 14.3906 52.0859 13.9531 51.9453C13.5208 51.8047 13.138 51.6016 12.8047 51.3359C12.4714 51.0651 12.2109 50.7344 12.0234 50.3438C11.8359 49.9479 11.7422 49.4974 11.7422 48.9922H13.1875C13.1875 49.388 13.2734 49.7344 13.4453 50.0312C13.6224 50.3281 13.8724 50.5599 14.1953 50.7266C14.5234 50.888 14.9089 50.9688 15.3516 50.9688C15.7943 50.9688 16.1745 50.8932 16.4922 50.7422C16.8151 50.5859 17.0625 50.3516 17.2344 50.0391C17.4115 49.7266 17.5 49.3333 17.5 48.8594C17.5 48.3854 17.401 47.9974 17.2031 47.6953C17.0052 47.388 16.724 47.1615 16.3594 47.0156C16 46.8646 15.5755 46.7891 15.0859 46.7891H14.0547Z" fill="white"/>
</svg>
