<svg width="37" height="36" viewBox="0 0 37 36" fill="none" xmlns="http://www.w3.org/2000/svg">
<mask id="path-1-inside-1_18072_66564" fill="white">
<path fill-rule="evenodd" clip-rule="evenodd" d="M8.06757 29.7578C5.69595 30.4204 4.25391 31.2953 4.25391 32.2544C4.25391 34.323 10.9615 35.9999 19.2357 35.9999C27.5098 35.9999 34.2174 34.323 34.2174 32.2544C34.2174 31.2953 32.7754 30.4204 30.4037 29.7578C27.6604 30.5243 23.6734 31.0066 19.2357 31.0066C14.7979 31.0066 10.8109 30.5243 8.06757 29.7578Z"/>
</mask>
<path d="M8.06757 29.7578L8.33665 28.7947L8.06757 28.7195L7.79848 28.7947L8.06757 29.7578ZM30.4037 29.7578L30.6728 28.7947L30.4037 28.7195L30.1347 28.7947L30.4037 29.7578ZM5.25391 32.2544C5.25391 32.3096 5.22629 32.1119 5.81133 31.7366C6.34866 31.3919 7.19443 31.0401 8.33665 30.7209L7.79848 28.7947C6.56908 29.1382 5.50802 29.555 4.73143 30.0532C4.00255 30.5208 3.25391 31.2402 3.25391 32.2544H5.25391ZM19.2357 34.9999C15.1557 34.9999 11.4956 34.5855 8.88449 33.9327C7.57127 33.6044 6.57948 33.2294 5.94008 32.8515C5.23373 32.434 5.25391 32.1998 5.25391 32.2544H3.25391C3.25391 33.3434 4.11253 34.0945 4.92242 34.5732C5.79925 35.0915 7.00148 35.5235 8.39942 35.873C11.2107 36.5758 15.0414 36.9999 19.2357 36.9999V34.9999ZM33.2174 32.2544C33.2174 32.1998 33.2376 32.434 32.5312 32.8515C31.8918 33.2294 30.9 33.6044 29.5868 33.9327C26.9757 34.5855 23.3156 34.9999 19.2357 34.9999V36.9999C23.4299 36.9999 27.2606 36.5758 30.0719 35.873C31.4698 35.5235 32.6721 35.0915 33.5489 34.5732C34.3588 34.0945 35.2174 33.3434 35.2174 32.2544H33.2174ZM30.1347 30.7209C31.2769 31.0401 32.1226 31.3919 32.66 31.7366C33.245 32.1119 33.2174 32.3096 33.2174 32.2544H35.2174C35.2174 31.2402 34.4688 30.5208 33.7399 30.0532C32.9633 29.555 31.9022 29.1382 30.6728 28.7947L30.1347 30.7209ZM30.1347 28.7947C27.5057 29.5292 23.6152 30.0066 19.2357 30.0066V32.0066C23.7316 32.0066 27.8152 31.5193 30.6728 30.7209L30.1347 28.7947ZM19.2357 30.0066C14.8561 30.0066 10.9656 29.5292 8.33665 28.7947L7.79848 30.7209C10.6561 31.5193 14.7397 32.0066 19.2357 32.0066V30.0066Z" fill="white" mask="url(#path-1-inside-1_18072_66564)"/>
<mask id="path-3-inside-2_18072_66564" fill="white">
<path fill-rule="evenodd" clip-rule="evenodd" d="M6.96418 26.4456C5.25634 27.0539 4.25391 27.795 4.25391 28.5947C4.25391 30.6633 10.9615 32.3402 19.2356 32.3402C27.5098 32.3402 34.2174 30.6633 34.2174 28.5947C34.2174 26.5596 27.7247 24.9035 19.6352 24.8506C14.8952 27.356 10.0342 27.9188 6.96418 26.4456Z"/>
</mask>
<path d="M6.96418 26.4456L7.39683 25.544L7.02116 25.3637L6.62863 25.5035L6.96418 26.4456ZM19.6352 24.8506L19.6417 23.8506L19.3902 23.849L19.1679 23.9665L19.6352 24.8506ZM5.25391 28.5947C5.25391 28.6453 5.22237 28.5181 5.58289 28.2375C5.92784 27.9689 6.49365 27.6747 7.29974 27.3876L6.62863 25.5035C5.72687 25.8248 4.93754 26.2053 4.35431 26.6593C3.78666 27.1012 3.25391 27.7445 3.25391 28.5947H5.25391ZM19.2356 31.3402C15.1557 31.3402 11.4956 30.9258 8.88449 30.273C7.57127 29.9447 6.57948 29.5697 5.94008 29.1917C5.23373 28.7742 5.25391 28.54 5.25391 28.5947H3.25391C3.25391 29.6837 4.11253 30.4348 4.92242 30.9135C5.79925 31.4317 7.00148 31.8638 8.39942 32.2133C11.2107 32.9161 15.0414 33.3401 19.2356 33.3401V31.3402ZM33.2174 28.5947C33.2174 28.54 33.2376 28.7742 32.5312 29.1917C31.8918 29.5697 30.9 29.9447 29.5868 30.273C26.9757 30.9258 23.3156 31.3402 19.2356 31.3402V33.3401C23.4299 33.3401 27.2606 32.9161 30.0719 32.2133C31.4698 31.8638 32.672 31.4317 33.5489 30.9135C34.3588 30.4348 35.2174 29.6837 35.2174 28.5947H33.2174ZM19.6286 25.8506C23.6175 25.8767 27.1777 26.2987 29.7116 26.948C30.9862 27.2746 31.9448 27.6447 32.561 28.0154C33.2396 28.4237 33.2174 28.6497 33.2174 28.5947H35.2174C35.2174 27.5222 34.3836 26.778 33.592 26.3017C32.738 25.7878 31.5678 25.359 30.2081 25.0106C27.4733 24.3099 23.7424 23.8774 19.6417 23.8506L19.6286 25.8506ZM19.1679 23.9665C14.5584 26.4029 10.0568 26.8205 7.39683 25.544L6.53153 27.3471C10.0117 29.0172 15.2319 28.3091 20.1025 25.7347L19.1679 23.9665Z" fill="white" mask="url(#path-3-inside-2_18072_66564)"/>
<path d="M4.26815 24.7786C5.69943 26.9689 8.45768 27.8871 11.6108 27.733C14.7777 27.5783 18.4475 26.3453 21.8891 24.0963C25.3308 21.8474 27.9336 18.9815 29.347 16.1433C30.7543 13.3175 31.0209 10.4226 29.5897 8.23231C28.1584 6.04196 25.4001 5.12376 22.247 5.27785C19.0801 5.43261 15.4104 6.6656 11.9687 8.91455C8.52699 11.1635 5.92418 14.0293 4.51078 16.8675C3.10353 19.6934 2.83688 22.5882 4.26815 24.7786Z" stroke="white"/>
<path d="M17.4453 1.33594C17.4453 1.0598 17.2215 0.835937 16.9453 0.835938C16.6692 0.835938 16.4453 1.0598 16.4453 1.33594L17.4453 1.33594ZM16.5918 19.022C16.787 19.2173 17.1036 19.2173 17.2989 19.022L20.4808 15.8401C20.6761 15.6448 20.6761 15.3282 20.4808 15.133C20.2856 14.9377 19.969 14.9377 19.7737 15.133L16.9453 17.9614L14.1169 15.133C13.9216 14.9377 13.605 14.9377 13.4098 15.133C13.2145 15.3282 13.2145 15.6448 13.4098 15.8401L16.5918 19.022ZM16.4453 1.33594L16.4453 18.6685L17.4453 18.6685L17.4453 1.33594L16.4453 1.33594Z" fill="white"/>
</svg>
