<svg width="24" height="25" viewBox="0 0 24 25" fill="none" xmlns="http://www.w3.org/2000/svg">
<path fill-rule="evenodd" clip-rule="evenodd" d="M3.75 3.32031C3.75 2.9061 3.41421 2.57031 3 2.57031C2.58579 2.57031 2.25 2.9061 2.25 3.32031V21.3203C2.25 21.7345 2.58579 22.0703 3 22.0703H21C21.4142 22.0703 21.75 21.7345 21.75 21.3203C21.75 20.9061 21.4142 20.5703 21 20.5703H3.75V3.32031ZM7.05107 15.3977C6.79231 15.7211 6.84475 16.1931 7.1682 16.4519C7.49164 16.7106 7.96361 16.6582 8.22237 16.3347L11.8436 11.8082L15.3013 13.537C15.6396 13.7062 16.0509 13.597 16.2608 13.2822L20.2608 7.28224C20.4905 6.93759 20.3974 6.47194 20.0527 6.24217C19.7081 6.01241 19.2424 6.10554 19.0127 6.45019L15.3799 11.8993L11.9721 10.1954C11.6558 10.0372 11.272 10.1215 11.0511 10.3977L7.05107 15.3977Z" fill="white" />
</svg>
