<svg width="44" height="44" viewBox="0 0 44 44" fill="none" xmlns="http://www.w3.org/2000/svg">
<circle cx="21.913" cy="21.913" r="21.913" fill="#192A43"/>
<g clip-path="url(#clip0)">
<path fill-rule="evenodd" clip-rule="evenodd" d="M13.2451 19.9385C14.0768 19.1936 15.3679 19.2497 16.1289 20.0637L21.2714 25.5644C22.0324 26.3784 21.9751 27.6421 21.1434 28.3869C20.3117 29.1318 19.0205 29.0757 18.2595 28.2617L13.1171 22.761C12.3561 21.947 12.4134 20.6833 13.2451 19.9385Z" fill="#2FF6D3"/>
<path fill-rule="evenodd" clip-rule="evenodd" d="M31.4274 15.4992C32.2245 16.2794 32.2245 17.5443 31.4274 18.3245L21.2091 28.3256C20.412 29.1058 19.1196 29.1058 18.3225 28.3256C17.5253 27.5454 17.5253 26.2804 18.3225 25.5002L28.5407 15.4992C29.3378 14.719 30.6302 14.719 31.4274 15.4992Z" fill="#2FF6D3"/>
</g>
<defs>
<clipPath id="clip0">
<rect width="21.1304" height="15.6522" fill="white" transform="translate(11.739 14.0869)"/>
</clipPath>
</defs>
</svg>
