<svg width="27" height="27" viewBox="0 0 27 27" fill="none" xmlns="http://www.w3.org/2000/svg">
<path fill-rule="evenodd" clip-rule="evenodd" d="M0.296876 13.3695C0.294505 20.5665 6.09745 26.373 13.2927 26.373V26.3719C20.4892 26.3719 26.2969 20.5689 26.2969 13.3766C26.2969 6.17961 20.4951 0.375424 13.301 0.373047C6.10219 0.371859 0.299248 6.17129 0.296876 13.3695ZM5.77368 14.5995C5.78228 14.5989 5.79088 14.5983 5.79977 14.5983C5.79974 14.4234 5.79623 14.2481 5.79272 14.0728C5.78433 13.6533 5.77593 13.2336 5.81519 12.8192C5.84958 12.4639 5.96581 12.0765 6.16505 11.7865C6.39157 11.4573 6.3975 11.1911 6.24451 10.8584C6.05861 10.4546 5.88271 10.0468 5.70682 9.63906C5.64819 9.50314 5.58956 9.36722 5.53056 9.23144C5.33369 8.77866 5.39536 8.38411 5.79859 8.06799C5.81009 8.05913 5.82093 8.04894 5.8316 8.03891C5.83524 8.03549 5.83885 8.03209 5.84247 8.02877C7.37869 6.57337 9.20429 5.8429 11.3193 5.83735C11.6572 5.83652 11.9952 5.8325 12.3333 5.82849C12.9635 5.821 13.5938 5.8135 14.2237 5.82665C14.6483 5.83497 14.9436 5.71732 15.1215 5.31802C15.4049 4.68222 15.8912 4.43978 16.5933 4.47662C17.1542 4.50605 17.7174 4.49995 18.2806 4.49386C18.6271 4.49011 18.9737 4.48635 19.3198 4.49088C19.9828 4.4992 20.1785 4.81294 19.8867 5.40239L19.8545 5.46731C19.5403 6.1006 19.2255 6.73505 18.8608 7.3395C18.5928 7.78396 18.6545 8.13811 18.9308 8.53622C19.3251 9.10427 19.7137 9.67631 20.1022 10.2483C20.6135 11.001 21.1248 11.7537 21.6491 12.4972C22.0677 13.0914 22.3061 13.6701 22.1128 14.4248C21.972 14.976 21.8915 15.5427 21.8111 16.1092C21.7803 16.3257 21.7496 16.5421 21.7155 16.7576C21.6313 17.2912 21.3763 17.5955 20.794 17.6454C20.169 17.6989 19.5475 17.8224 18.9344 17.9603C18.7541 18.0007 18.5798 18.1671 18.4505 18.3168C18.3462 18.4377 18.2548 18.5738 18.1639 18.7093C18.017 18.9281 17.871 19.1456 17.6725 19.2961C17.6323 19.3267 17.592 19.3573 17.5517 19.388C16.7112 20.0275 15.8611 20.6744 14.9353 21.1654C14.3511 21.4752 13.6801 21.6324 13.0176 21.7877C12.8717 21.8219 12.7263 21.856 12.5823 21.8916C11.8925 22.0624 11.1989 22.2168 10.5055 22.3711C9.91127 22.5033 9.31715 22.6355 8.72556 22.7781C8.22271 22.8993 7.90131 22.7175 7.73765 22.2718C7.58922 21.8668 7.43772 21.4626 7.28621 21.0584C6.80698 19.7799 6.32771 18.5012 5.94565 17.1938C5.78169 16.6339 5.77595 16.0278 5.77021 15.4217C5.7676 15.1466 5.76499 14.8715 5.74759 14.6007C5.75648 14.6007 5.76508 14.6001 5.77368 14.5995ZM18.3937 6.60952C18.456 6.47983 18.5183 6.35016 18.584 6.22274H18.5829C18.5677 6.18565 18.5527 6.14883 18.5377 6.112C18.5228 6.07519 18.5078 6.03838 18.4926 6.00129C18.3306 6.00129 18.1685 6.00183 18.0064 6.00236C17.6497 6.00353 17.2927 6.0047 16.9363 6.0002C16.445 5.99366 16.0745 6.1442 15.852 6.60783C15.6171 7.09654 15.2094 7.30599 14.6266 7.29727C12.9721 7.27327 11.3164 7.2809 9.66181 7.30817C9.36364 7.31254 9.01805 7.40417 8.782 7.57108C8.4421 7.81048 8.12732 8.08268 7.81228 8.3551C7.63637 8.50721 7.46039 8.65939 7.27991 8.80596C6.97271 9.05577 6.93544 9.33286 7.10146 9.67212C7.15301 9.77726 7.2061 9.88206 7.25924 9.98696C7.44595 10.3555 7.63318 10.7251 7.75538 11.1132C7.84235 11.3914 7.86268 11.8288 7.69665 12.0121C7.30588 12.443 7.25506 12.899 7.26748 13.4193C7.27991 13.9448 7.27984 14.4706 7.27977 14.9966C7.27972 15.3791 7.27967 15.7617 7.28442 16.1443C7.28781 16.3407 7.30249 16.5469 7.36913 16.7302C7.57895 17.3087 7.79373 17.8856 8.00851 18.4626C8.2631 19.1464 8.51767 19.8302 8.76393 20.5166C8.92996 20.9792 9.22586 21.0675 9.68101 20.9573C10.1033 20.856 10.5285 20.7651 10.9537 20.6742C11.3155 20.5969 11.6771 20.5196 12.0369 20.4359C12.2391 20.3889 12.4426 20.3459 12.6461 20.303C13.6471 20.0917 14.6458 19.8808 15.4737 19.1945C15.7036 19.0034 15.96 18.8419 16.2164 18.6803C16.4651 18.5236 16.7139 18.3669 16.9385 18.1832C17.1892 17.9781 17.397 17.6716 17.5066 17.3705C17.6387 17.0051 17.798 16.7727 18.2226 16.7214C18.508 16.6868 18.7917 16.6376 19.0753 16.5883C19.4001 16.5319 19.7249 16.4754 20.0523 16.4411C20.4758 16.3963 20.6305 16.1803 20.6836 15.8127C20.6972 15.7186 20.71 15.6242 20.7229 15.5297C20.7762 15.1378 20.8296 14.7444 20.9388 14.3673C21.1037 13.8 20.9411 13.3495 20.6102 12.8924C20.2313 12.3692 19.8595 11.8415 19.4878 11.3137C18.9929 10.6112 18.498 9.90868 17.9866 9.21722C17.545 8.62051 17.5122 8.07943 17.9301 7.46417C18.1118 7.19638 18.2528 6.90289 18.3937 6.60952Z" fill="white"/>
</svg>