<svg width="18" height="18" viewBox="0 0 18 18" fill="none" xmlns="http://www.w3.org/2000/svg">
<circle cx="9" cy="9" r="9" fill="#FF6767"/>
<path d="M9.00048 10.1559C8.665 10.1559 8.38379 10.4169 8.38379 10.7283C8.38379 11.0398 8.665 11.3008 9.00048 11.3008C9.32363 11.3008 9.61718 11.0398 9.60238 10.7421C9.61718 10.4146 9.33843 10.1559 9.00048 10.1559Z" fill="white"/>
<path d="M14.708 12.1846C15.0953 11.564 15.0977 10.8244 14.7129 10.2061L10.8499 3.99608C10.4676 3.37095 9.77689 3 9.00231 3C8.22774 3 7.53705 3.37324 7.15469 3.99379L3.28678 10.2107C2.90196 10.8358 2.90442 11.58 3.29418 12.2006C3.67899 12.8143 4.36723 13.1829 5.13686 13.1829H12.853C13.6251 13.1829 14.3182 12.8097 14.708 12.1846ZM13.8693 11.7357C13.6547 12.0792 13.2748 12.283 12.8505 12.283H5.1344C4.71504 12.283 4.33763 12.0838 4.12795 11.7472C3.91581 11.406 3.91334 10.9984 4.12548 10.6549L7.9934 4.44031C8.20308 4.09912 8.57803 3.89762 9.00231 3.89762C9.42413 3.89762 9.80155 4.10141 10.0112 4.4426L13.8767 10.6572C14.0839 10.9915 14.0814 11.3946 13.8693 11.7357Z" fill="white"/>
<path d="M8.84621 6.13701C8.55266 6.21487 8.37012 6.46217 8.37012 6.76214C8.38492 6.94304 8.39725 7.12622 8.41205 7.30712C8.45399 7.99636 8.49592 8.67187 8.53786 9.36111C8.55266 9.59468 8.74754 9.76412 8.99915 9.76412C9.25076 9.76412 9.4481 9.58323 9.46044 9.34737C9.46044 9.2054 9.46044 9.07488 9.47524 8.93062C9.50237 8.48868 9.53197 8.04674 9.55911 7.6048C9.57391 7.31857 9.60104 7.03234 9.61584 6.74611C9.61584 6.64307 9.60104 6.55147 9.55911 6.45988C9.4333 6.20342 9.13975 6.0729 8.84621 6.13701Z" fill="white"/>
</svg>
