<svg width="18" height="18" viewBox="0 0 18 18" fill="none" xmlns="http://www.w3.org/2000/svg">
<circle cx="9" cy="9" r="9" fill="#2FF6D3"/>
<g clip-path="url(#clip0)">
<path d="M13.7735 4.94305L9.17974 3.03577C9.06466 2.98801 8.93531 2.98798 8.82026 3.03577L4.22651 4.94305C4.05155 5.0157 3.9375 5.18651 3.9375 5.37596V7.69451C3.9375 10.887 5.86709 13.7587 8.82286 14.9652C8.93639 15.0115 9.06359 15.0115 9.17714 14.9652C12.1329 13.7588 14.0625 10.887 14.0625 7.69451V5.37596C14.0625 5.18651 13.9485 5.0157 13.7735 4.94305ZM13.125 7.69451C13.125 10.4085 11.5312 12.9068 9 14.022C6.53639 12.9366 4.875 10.482 4.875 7.69451V5.6889L9 3.97622L13.125 5.6889V7.69451ZM8.48189 9.27453L10.4967 7.25977C10.6797 7.07673 10.9765 7.0767 11.1596 7.25977C11.3426 7.44284 11.3426 7.73963 11.1596 7.92268L8.81334 10.2689C8.63025 10.452 8.33346 10.4519 8.15044 10.2689L6.84042 8.95887C6.65735 8.7758 6.65735 8.47901 6.84042 8.29597C7.02349 8.11292 7.32028 8.1129 7.50333 8.29597L8.48189 9.27453Z" fill="#00132F"/>
</g>
<defs>
<clipPath id="clip0">
<rect width="12" height="12" fill="white" transform="translate(3 3)"/>
</clipPath>
</defs>
</svg>
