<svg xmlns="http://www.w3.org/2000/svg" width="46" height="29" viewBox="0 0 46 29" fill="none">
<g id="trail-of-bits 1" opacity="0.8" clip-path="url(#clip0_33445_182535)">
<path id="Vector" d="M16.6581 27.5487L12.9348 25.5195L12.0352 28.2037L16.6511 27.5504C16.6371 27.5504 16.63 27.5504 16.6581 27.5487Z" fill="#F0F4F7"/>
<path id="Vector_2" d="M16.6554 27.5488L16.6484 27.5506C16.6658 27.5506 16.6954 27.5488 16.6554 27.5488Z" fill="#F0F4F7"/>
<path id="Vector_3" d="M29.4727 26.242L32.4699 25.3595L33.5958 21.8066L30.8283 21.996L29.4727 26.242Z" fill="#F0F4F7"/>
<path id="Vector_4" d="M36.6076 3.47954L34.3172 1.99414L33.0352 6.0716L35.5554 6.82908L36.6076 3.47954Z" fill="#F0F4F7"/>
<path id="Vector_5" d="M21.1523 2.52745C21.1523 2.52745 22.7045 3.00347 23.3165 3.1772L25.5228 3.83043L25.5613 0.798828L21.682 1.57019L21.1523 2.52745Z" fill="#F0F4F7"/>
<path id="Vector_6" d="M5.75 13.8519L8.47364 13.8588L9.44346 10.8168L6.96714 10.1602C6.70406 10.9958 6.01837 13.0163 5.75 13.8519Z" fill="#F0F4F7"/>
<path id="Vector_7" d="M0.683594 11.0239L2.72149 13.1469L3.89477 9.38047L1.39387 8.7168L0.683594 11.0239Z" fill="#F0F4F7"/>
<path id="Vector_8" d="M43.8465 23.1802C43.8044 22.1135 43.508 21.7643 42.8784 21.1094L39.5953 21.3283C40.5108 21.9033 41.072 22.6156 41.1877 23.5711C41.3158 24.6204 40.1758 25.8331 39.0727 25.8331C38.4571 25.8331 38.1502 25.3501 38.1502 24.7959C38.1677 24.3824 38.3133 23.8456 38.5308 23.4877H38.5132H35.7458C35.5283 24.0437 35.3477 24.6709 35.3477 25.2615C35.3477 27.2855 37.1382 27.8049 38.8376 27.8049C40.609 27.8049 42.0752 27.4644 42.9977 25.8331C43.4133 25.0965 43.8815 24.0402 43.8465 23.1802Z" fill="#F0F4F7"/>
<path id="Vector_9" d="M9.2021 1.07422L0.666437 1.08117L0 3.1781L3.12874 3.17462L1.58191 8.04953L4.08456 8.71315L5.82257 3.17288L8.53564 3.16941L9.2021 1.07422Z" fill="#F0F4F7"/>
<path id="Vector_10" d="M10.1351 8.57855C10.442 8.55941 10.7507 8.55941 11.0576 8.55941C11.5644 8.5577 12.3238 8.59416 12.3238 9.29258C12.3256 9.77553 12.1449 10.3853 12.0011 10.8509C11.7311 11.8012 11.4066 12.7498 11.3523 13.7175L14.1548 13.714C14.0811 12.1556 15.0562 10.7936 15.0545 9.2526C15.0545 8.21368 14.2582 7.80193 13.3358 7.64039L13.6059 7.60389C15.6139 7.33288 16.7328 5.77451 16.7311 3.82179C16.7293 1.6571 14.9019 1.04905 13.0394 1.05078L9.82118 1.05426C8.90569 3.8687 8.03761 6.69876 7.14844 9.52537L9.62299 10.1803L10.1351 8.57855ZM11.8661 3.04L12.7711 3.03826C13.441 3.03826 14.1092 3.1981 14.1109 3.98683C14.1127 4.95451 13.4077 6.58582 12.2502 6.58582L10.7665 6.58758L11.8661 3.04Z" fill="#F0F4F7"/>
<path id="Vector_11" d="M17.7164 13.748L19.1597 11.0412L22.6147 11.0378L22.5094 13.7601L25.2226 13.7584L25.4383 4.48987L23.1075 3.78973C22.8953 5.52878 22.776 7.28695 22.776 9.03118H22.7585L20.1541 9.03294C21.0906 7.27824 21.9886 5.50966 22.7971 3.69592L20.9293 3.13477L14.8945 13.7497L17.7164 13.748Z" fill="#F0F4F7"/>
<path id="Vector_12" d="M36.9248 13.7322L37.6105 11.67L33.9749 11.6753L35.3218 7.46056L32.8016 6.70312L30.5586 13.7375L36.9248 13.7322Z" fill="#F0F4F7"/>
<path id="Vector_13" d="M20.086 14.543H16.5241L13.1797 24.9077L17.4361 27.2045C19.9844 27.1089 21.7697 25.2413 21.7697 22.677C21.7697 21.692 21.1541 20.9224 20.1965 20.6531C22.0784 20.224 23.2885 19.0235 23.2885 17.0534C23.2867 15.1337 21.7855 14.543 20.086 14.543ZM18.6217 24.4856C18.1148 25.2378 17.5729 25.2917 16.7223 25.2917H15.6192L16.8311 21.5669C17.7167 21.6017 19.2899 21.388 19.2899 22.677C19.2899 23.2486 18.9479 24.02 18.6217 24.4856ZM18.4042 19.7549H17.3905L18.4568 16.4766C19.253 16.5131 20.7543 16.2629 20.7543 17.4808C20.7736 18.914 19.8511 19.7549 18.4042 19.7549Z" fill="#F0F4F7"/>
<path id="Vector_14" d="M28.7106 5.48828L26.008 14.4389L23.6211 21.6991L26.4868 21.4802L28.5563 15.0209H28.5597L31.3553 6.27179C30.9659 6.16408 29.4156 5.6707 28.7106 5.48828Z" fill="#F0F4F7"/>
<path id="Vector_15" d="M30.0527 14.5625L29.3828 16.6559H32.5133L31.0489 21.3171L33.7813 21.1313L35.2071 16.6559H37.9185L38.5884 14.5625H30.0527Z" fill="#F0F4F7"/>
<path id="Vector_16" d="M42.459 14.4355C39.6565 14.4355 37.9922 16.3692 37.9922 19.0568C37.9957 19.4477 38.3482 20.4102 39.069 20.7315L42.4398 20.5057C41.8663 20.0262 40.8526 18.8952 40.8526 18.2941C40.8526 17.4689 41.3174 16.39 42.2766 16.39C42.9273 16.39 43.3254 16.569 43.3254 17.2674C43.3254 17.7156 43.1079 18.1273 42.9817 18.5582H45.586C45.7491 18.1812 46.0017 17.3212 46.0017 16.9268C46.0034 14.9724 44.0866 14.4355 42.459 14.4355Z" fill="#F0F4F7"/>
<path id="Vector_17" d="M11.5548 14.6172C10.2798 14.6172 10.0974 15.5501 9.78173 16.5404C9.67652 16.8965 9.47656 17.3309 9.47656 17.7044C9.47656 18.4236 10.1202 18.5609 10.7183 18.5609C11.4496 18.5661 11.8389 18.3229 12.0985 17.6418C12.2756 17.1763 12.7368 15.8958 12.7368 15.4459C12.7368 14.8083 12.0879 14.6172 11.5548 14.6172ZM11.9108 15.5327C11.9108 15.6926 11.7285 16.2138 11.667 16.3962L11.3847 17.2683C11.2742 17.5984 11.1409 17.9771 10.72 17.9771C10.4815 17.9771 10.3272 17.8399 10.3272 17.5932C10.3272 17.2735 10.5762 16.6811 10.6814 16.351C10.7866 16.0227 10.9252 15.3677 11.2918 15.2409C11.3742 15.2131 11.4636 15.2027 11.5531 15.2027C11.7196 15.2027 11.9196 15.3503 11.9196 15.5275L11.9108 15.5327Z" fill="#F0F4F7"/>
<path id="Vector_18" d="M14.7984 16.8409L14.9913 16.2086H13.8829L14.1828 15.2652H15.3474L15.5525 14.6328H13.5339L12.3203 18.5105H13.1692L13.6953 16.8409H14.7984Z" fill="#F0F4F7"/>
</g>
<defs>
<clipPath id="clip0_33445_182535">
<rect width="46" height="27.4043" fill="white" transform="translate(0 0.798828)"/>
</clipPath>
</defs>
</svg>