<svg width="37" height="38" viewBox="0 0 37 38" fill="none" xmlns="http://www.w3.org/2000/svg">
<mask id="path-1-inside-1_18072_66792" fill="white">
<path fill-rule="evenodd" clip-rule="evenodd" d="M8.06757 31.7578C5.69595 32.4204 4.25391 33.2953 4.25391 34.2544C4.25391 36.323 10.9615 37.9999 19.2357 37.9999C27.5098 37.9999 34.2174 36.323 34.2174 34.2544C34.2174 33.2953 32.7754 32.4204 30.4037 31.7578C27.6604 32.5243 23.6734 33.0066 19.2357 33.0066C14.7979 33.0066 10.8109 32.5243 8.06757 31.7578Z"/>
</mask>
<path d="M8.06757 31.7578L8.33665 30.7947L8.06757 30.7195L7.79848 30.7947L8.06757 31.7578ZM30.4037 31.7578L30.6728 30.7947L30.4037 30.7195L30.1347 30.7947L30.4037 31.7578ZM5.25391 34.2544C5.25391 34.3096 5.22629 34.1119 5.81133 33.7366C6.34866 33.3919 7.19443 33.0401 8.33665 32.7209L7.79848 30.7947C6.56908 31.1382 5.50802 31.555 4.73143 32.0532C4.00255 32.5208 3.25391 33.2402 3.25391 34.2544H5.25391ZM19.2357 36.9999C15.1557 36.9999 11.4956 36.5855 8.88449 35.9327C7.57127 35.6044 6.57948 35.2294 5.94008 34.8515C5.23373 34.434 5.25391 34.1998 5.25391 34.2544H3.25391C3.25391 35.3434 4.11253 36.0945 4.92242 36.5732C5.79925 37.0915 7.00148 37.5235 8.39942 37.873C11.2107 38.5758 15.0414 38.9999 19.2357 38.9999V36.9999ZM33.2174 34.2544C33.2174 34.1998 33.2376 34.434 32.5312 34.8515C31.8918 35.2294 30.9 35.6044 29.5868 35.9327C26.9757 36.5855 23.3156 36.9999 19.2357 36.9999V38.9999C23.4299 38.9999 27.2606 38.5758 30.0719 37.873C31.4698 37.5235 32.6721 37.0915 33.5489 36.5732C34.3588 36.0945 35.2174 35.3434 35.2174 34.2544H33.2174ZM30.1347 32.7209C31.2769 33.0401 32.1226 33.3919 32.66 33.7366C33.245 34.1119 33.2174 34.3096 33.2174 34.2544H35.2174C35.2174 33.2402 34.4688 32.5208 33.7399 32.0532C32.9633 31.555 31.9022 31.1382 30.6728 30.7947L30.1347 32.7209ZM30.1347 30.7947C27.5057 31.5292 23.6152 32.0066 19.2357 32.0066V34.0066C23.7316 34.0066 27.8152 33.5193 30.6728 32.7209L30.1347 30.7947ZM19.2357 32.0066C14.8561 32.0066 10.9656 31.5292 8.33665 30.7947L7.79848 32.7209C10.6561 33.5193 14.7397 34.0066 19.2357 34.0066V32.0066Z" fill="white" mask="url(#path-1-inside-1_18072_66792)"/>
<mask id="path-3-inside-2_18072_66792" fill="white">
<path fill-rule="evenodd" clip-rule="evenodd" d="M16.2251 26.9248C9.39381 27.2732 4.25391 28.7838 4.25391 30.5946C4.25391 32.6631 10.9615 34.34 19.2356 34.34C27.5098 34.34 34.2174 32.6631 34.2174 30.5946C34.2174 29.3593 31.8252 28.2636 28.1358 27.5814C25.1098 28.781 20.7055 28.6089 16.2251 26.9248Z"/>
</mask>
<path d="M16.2251 26.9248L16.577 25.9887L16.3821 25.9155L16.1742 25.9261L16.2251 26.9248ZM28.1358 27.5814L28.3176 26.5981L28.0347 26.5458L27.7672 26.6518L28.1358 27.5814ZM5.25391 30.5946C5.25391 30.649 5.22333 30.4763 5.72746 30.1322C6.19614 29.8124 6.94285 29.4786 7.96754 29.1684C10.0032 28.5521 12.9095 28.0952 16.2761 27.9235L16.1742 25.9261C12.7095 26.1028 9.63012 26.5754 7.38801 27.2542C6.2738 27.5915 5.30858 27.9967 4.60005 28.4803C3.92697 28.9397 3.25391 29.6348 3.25391 30.5946H5.25391ZM19.2356 33.34C15.1557 33.34 11.4956 32.9256 8.88449 32.2729C7.57127 31.9446 6.57948 31.5696 5.94008 31.1916C5.23373 30.7741 5.25391 30.5399 5.25391 30.5946H3.25391C3.25391 31.6836 4.11253 32.4347 4.92242 32.9134C5.79925 33.4316 7.00148 33.8637 8.39942 34.2132C11.2107 34.916 15.0414 35.34 19.2356 35.34V33.34ZM33.2174 30.5946C33.2174 30.5399 33.2376 30.7741 32.5312 31.1916C31.8918 31.5696 30.9 31.9446 29.5868 32.2729C26.9757 32.9256 23.3156 33.34 19.2356 33.34V35.34C23.4299 35.34 27.2606 34.916 30.0719 34.2132C31.4698 33.8637 32.672 33.4316 33.5489 32.9134C34.3588 32.4347 35.2174 31.6836 35.2174 30.5946H33.2174ZM27.9539 28.5647C29.7576 28.8983 31.1793 29.3224 32.1238 29.7804C32.598 30.0103 32.9011 30.2247 33.0725 30.3992C33.2403 30.5702 33.2174 30.6327 33.2174 30.5946H35.2174C35.2174 29.9388 34.8954 29.4012 34.4995 28.9979C34.107 28.5982 33.5814 28.2644 32.9964 27.9808C31.8225 27.4116 30.2034 26.9468 28.3176 26.5981L27.9539 28.5647ZM27.7672 26.6518C25.0454 27.7308 20.9107 27.6177 16.577 25.9887L15.8733 27.8609C20.5002 29.6 25.1742 29.8312 28.5043 28.511L27.7672 26.6518Z" fill="white" mask="url(#path-3-inside-2_18072_66792)"/>
<path d="M4.49209 12.2526C3.41032 14.635 4.11381 17.4557 5.93417 20.0349C7.76249 22.6253 10.7706 25.0623 14.5141 26.7621C18.2576 28.4619 22.0721 29.1228 25.2257 28.7945C28.3656 28.4676 30.9523 27.1409 32.0341 24.7585C33.1158 22.3761 32.4124 19.5554 30.592 16.9762C28.7637 14.3858 25.7556 11.9488 22.0121 10.249C18.2686 8.54923 14.4541 7.88828 11.3004 8.2166C8.16054 8.54349 5.57387 9.87022 4.49209 12.2526Z" stroke="white"/>
<path d="M16.4453 17.9995C16.4453 18.2757 16.6692 18.4995 16.9453 18.4995C17.2215 18.4995 17.4453 18.2757 17.4453 17.9995L16.4453 17.9995ZM17.2989 0.313408C17.1036 0.118145 16.787 0.118145 16.5918 0.313408L13.4098 3.49539C13.2145 3.69065 13.2145 4.00723 13.4098 4.2025C13.605 4.39776 13.9216 4.39776 14.1169 4.2025L16.9453 1.37407L19.7737 4.2025C19.969 4.39776 20.2856 4.39776 20.4808 4.2025C20.6761 4.00723 20.6761 3.69065 20.4808 3.49539L17.2989 0.313408ZM17.4453 17.9995L17.4453 0.666962L16.4453 0.666962L16.4453 17.9995L17.4453 17.9995Z" fill="white"/>
</svg>
