<svg width="22" height="24" viewBox="0 0 22 24" fill="none" xmlns="http://www.w3.org/2000/svg">
<mask id="path-1-inside-1_18243_63977" fill="white">
<path fill-rule="evenodd" clip-rule="evenodd" d="M4.93213 20.1855C3.48281 20.5905 2.60156 21.1251 2.60156 21.7113C2.60156 22.9754 6.70062 24.0001 11.7571 24.0001C16.8135 24.0001 20.9126 22.9754 20.9126 21.7113C20.9126 21.1251 20.0313 20.5905 18.582 20.1855C16.9056 20.6539 14.469 20.9487 11.7571 20.9487C9.04513 20.9487 6.60859 20.6539 4.93213 20.1855Z"/>
</mask>
<path d="M4.93213 20.1855L5.20121 19.2224L4.93213 19.1473L4.66305 19.2224L4.93213 20.1855ZM18.582 20.1855L18.8511 19.2224L18.582 19.1473L18.3129 19.2224L18.582 20.1855ZM3.60156 21.7113C3.60156 21.9529 3.43375 21.9336 3.7633 21.7222C4.04514 21.5413 4.52014 21.3389 5.20121 21.1487L4.66305 19.2224C3.89479 19.4371 3.20451 19.7045 2.6834 20.0388C2.21 20.3424 1.60156 20.8835 1.60156 21.7113H3.60156ZM11.7571 23.0001C9.28598 23.0001 7.0824 22.7488 5.52568 22.3596C4.73963 22.1631 4.17446 21.945 3.82988 21.7413C3.41836 21.4981 3.60156 21.4555 3.60156 21.7113H1.60156C1.60156 22.5991 2.29715 23.1586 2.81222 23.4631C3.39423 23.8071 4.16984 24.0822 5.04061 24.2999C6.79754 24.7391 9.17171 25.0001 11.7571 25.0001V23.0001ZM19.9126 21.7113C19.9126 21.4555 20.0958 21.4981 19.6843 21.7413C19.3397 21.945 18.7745 22.1631 17.9885 22.3596C16.4317 22.7488 14.2282 23.0001 11.7571 23.0001V25.0001C14.3424 25.0001 16.7166 24.7391 18.4735 24.2999C19.3443 24.0822 20.1199 23.8071 20.7019 23.4631C21.217 23.1586 21.9126 22.5991 21.9126 21.7113H19.9126ZM18.3129 21.1487C18.994 21.3389 19.469 21.5414 19.7508 21.7222C20.0804 21.9336 19.9126 21.9529 19.9126 21.7113H21.9126C21.9126 20.8835 21.3041 20.3424 20.8307 20.0388C20.3096 19.7045 19.6193 19.4371 18.8511 19.2224L18.3129 21.1487ZM18.3129 19.2224C16.7508 19.6589 14.4108 19.9487 11.7571 19.9487V21.9487C14.5272 21.9487 17.0603 21.649 18.8511 21.1487L18.3129 19.2224ZM11.7571 19.9487C9.10335 19.9487 6.76332 19.6589 5.20121 19.2224L4.66305 21.1487C6.45386 21.649 8.98692 21.9487 11.7571 21.9487V19.9487Z" fill="white" mask="url(#path-1-inside-1_18243_63977)"/>
<mask id="path-3-inside-2_18243_63977" fill="white">
<path fill-rule="evenodd" clip-rule="evenodd" d="M9.91731 17.2319C5.74261 17.4448 2.60156 18.368 2.60156 19.4746C2.60156 20.7387 6.70062 21.7635 11.7571 21.7635C16.8135 21.7635 20.9126 20.7387 20.9126 19.4746C20.9126 18.7197 19.4507 18.0501 17.196 17.6332C15.3468 18.3663 12.6553 18.2611 9.91731 17.2319Z"/>
</mask>
<path d="M9.91731 17.2319L10.2692 16.2959L10.0743 16.2226L9.86638 16.2332L9.91731 17.2319ZM17.196 17.6332L17.3779 16.6499L17.095 16.5975L16.8275 16.7036L17.196 17.6332ZM3.60156 19.4746C3.60156 19.705 3.44606 19.7011 3.72128 19.5133C3.96106 19.3496 4.3749 19.1595 4.98369 18.9752C6.18757 18.6108 7.92995 18.3346 9.96825 18.2306L9.86638 16.2332C7.72998 16.3422 5.81448 16.6341 4.40416 17.061C3.70585 17.2725 3.07351 17.534 2.59388 17.8613C2.1497 18.1644 1.60156 18.6909 1.60156 19.4746H3.60156ZM11.7571 20.7635C9.28598 20.7635 7.0824 20.5121 5.52568 20.1229C4.73963 19.9264 4.17446 19.7083 3.82988 19.5047C3.41836 19.2614 3.60156 19.2188 3.60156 19.4746H1.60156C1.60156 20.3624 2.29715 20.9219 2.81222 21.2264C3.39423 21.5704 4.16984 21.8455 5.04061 22.0632C6.79754 22.5024 9.17171 22.7635 11.7571 22.7635V20.7635ZM19.9126 19.4746C19.9126 19.2188 20.0958 19.2614 19.6843 19.5047C19.3397 19.7083 18.7745 19.9264 17.9885 20.1229C16.4317 20.5121 14.2282 20.7635 11.7571 20.7635V22.7635C14.3424 22.7635 16.7166 22.5024 18.4735 22.0632C19.3443 21.8455 20.1199 21.5704 20.7019 21.2264C21.217 20.9219 21.9126 20.3624 21.9126 19.4746H19.9126ZM17.0142 18.6165C18.1005 18.8174 18.9309 19.0687 19.4635 19.3269C19.7318 19.457 19.8737 19.5648 19.9354 19.6277C19.9937 19.687 19.9126 19.6328 19.9126 19.4746H21.9126C21.9126 18.9389 21.6488 18.5179 21.3624 18.2264C21.0796 17.9383 20.7151 17.7111 20.3361 17.5273C19.5741 17.1578 18.5463 16.8659 17.3779 16.6499L17.0142 18.6165ZM16.8275 16.7036C15.2824 17.3161 12.8605 17.2699 10.2692 16.2959L9.56547 18.168C12.45 19.2522 15.4112 19.4165 17.5646 18.5628L16.8275 16.7036Z" fill="white" mask="url(#path-3-inside-2_18243_63977)"/>
<path d="M2.56617 8.18508C1.8648 9.72973 2.33307 11.5288 3.46562 13.1334C4.60613 14.7493 6.47384 16.2589 8.78737 17.3094C11.1009 18.3599 13.4667 18.7726 15.4339 18.5678C17.3874 18.3644 19.0501 17.533 19.7515 15.9883C20.4528 14.4437 19.9846 12.6446 18.852 11.04C17.7115 9.42406 15.8438 7.91448 13.5303 6.86399C11.2167 5.8135 8.85097 5.4008 6.88374 5.60561C4.93022 5.80899 3.26754 6.64043 2.56617 8.18508Z" stroke="white"/>
<path d="M9.85938 11.7773C9.85938 12.0535 10.0832 12.2773 10.3594 12.2773C10.6355 12.2773 10.8594 12.0535 10.8594 11.7773L9.85938 11.7773ZM10.7129 0.831676C10.5177 0.636414 10.2011 0.636414 10.0058 0.831676L6.82384 4.01366C6.62858 4.20892 6.62858 4.5255 6.82384 4.72076C7.0191 4.91603 7.33569 4.91603 7.53095 4.72076L10.3594 1.89234L13.1878 4.72076C13.3831 4.91603 13.6996 4.91603 13.8949 4.72076C14.0902 4.5255 14.0902 4.20892 13.8949 4.01366L10.7129 0.831676ZM10.8594 11.7773L10.8594 1.18523L9.85937 1.18523L9.85938 11.7773L10.8594 11.7773Z" fill="white"/>
</svg>
