<svg width="296" height="148" viewBox="0 0 296 148" fill="none" xmlns="http://www.w3.org/2000/svg">
<path opacity="0.1" d="M10.625 24.5605V21.2305C10.625 20.3255 10.5208 19.5247 10.3125 18.8281C10.1042 18.125 9.80469 17.5326 9.41406 17.0508C9.01693 16.569 8.5319 16.2044 7.95898 15.957C7.39258 15.7031 6.74479 15.5762 6.01562 15.5762C5.29297 15.5762 4.64518 15.7031 4.07227 15.957C3.50586 16.2044 3.02734 16.569 2.63672 17.0508C2.23958 17.5326 1.93685 18.125 1.72852 18.8281C1.52018 19.5247 1.41602 20.3255 1.41602 21.2305V24.5605C1.41602 25.4655 1.52018 26.2695 1.72852 26.9727C1.93685 27.6693 2.23958 28.2552 2.63672 28.7305C3.03385 29.2188 3.51888 29.5866 4.0918 29.834C4.66471 30.0749 5.3125 30.1953 6.03516 30.1953C6.76432 30.1953 7.41211 30.0716 7.97852 29.8242C8.54492 29.5768 9.02344 29.2122 9.41406 28.7305C9.80469 28.2552 10.1042 27.6693 10.3125 26.9727C10.5208 26.2695 10.625 25.4655 10.625 24.5605ZM3.23242 24.1992C3.23242 24.0299 3.23242 23.8639 3.23242 23.7012C3.23242 23.5384 3.23242 23.3757 3.23242 23.2129V20.8301C3.23242 20.166 3.29753 19.5833 3.42773 19.082C3.56445 18.5742 3.76953 18.1608 4.04297 17.8418C4.27083 17.5879 4.54753 17.3958 4.87305 17.2656C5.20508 17.1289 5.58594 17.0605 6.01562 17.0605C6.4388 17.0605 6.8099 17.1224 7.12891 17.2461C7.45443 17.3698 7.72786 17.5553 7.94922 17.8027C8.17708 18.0436 8.35612 18.3464 8.48633 18.7109C8.62305 19.069 8.71745 19.4824 8.76953 19.9512L3.23242 24.1992ZM8.80859 24.9414C8.80859 25.638 8.73698 26.2435 8.59375 26.7578C8.45703 27.2721 8.23893 27.6888 7.93945 28.0078C7.7181 28.2422 7.44792 28.4212 7.12891 28.5449C6.8099 28.6686 6.44531 28.7305 6.03516 28.7305C5.64453 28.7305 5.29297 28.6751 4.98047 28.5645C4.66797 28.4473 4.40104 28.278 4.17969 28.0566C3.9388 27.8223 3.74349 27.526 3.59375 27.168C3.44401 26.8034 3.33984 26.3835 3.28125 25.9082L8.80859 21.6797C8.80859 21.862 8.80859 22.0931 8.80859 22.373C8.80859 22.6465 8.80859 22.832 8.80859 22.9297V24.9414ZM19.5703 30V15.7812H19.4238L14.043 17.8516V19.502L17.7637 18.0859V30H19.5703ZM34.6484 24.5605V21.2305C34.6484 20.3255 34.5443 19.5247 34.3359 18.8281C34.1276 18.125 33.8281 17.5326 33.4375 17.0508C33.0404 16.569 32.5553 16.2044 31.9824 15.957C31.416 15.7031 30.7682 15.5762 30.0391 15.5762C29.3164 15.5762 28.6686 15.7031 28.0957 15.957C27.5293 16.2044 27.0508 16.569 26.6602 17.0508C26.263 17.5326 25.9603 18.125 25.752 18.8281C25.5436 19.5247 25.4395 20.3255 25.4395 21.2305V24.5605C25.4395 25.4655 25.5436 26.2695 25.752 26.9727C25.9603 27.6693 26.263 28.2552 26.6602 28.7305C27.0573 29.2188 27.5423 29.5866 28.1152 29.834C28.6882 30.0749 29.3359 30.1953 30.0586 30.1953C30.7878 30.1953 31.4355 30.0716 32.002 29.8242C32.5684 29.5768 33.0469 29.2122 33.4375 28.7305C33.8281 28.2552 34.1276 27.6693 34.3359 26.9727C34.5443 26.2695 34.6484 25.4655 34.6484 24.5605ZM27.2559 24.1992C27.2559 24.0299 27.2559 23.8639 27.2559 23.7012C27.2559 23.5384 27.2559 23.3757 27.2559 23.2129V20.8301C27.2559 20.166 27.321 19.5833 27.4512 19.082C27.5879 18.5742 27.793 18.1608 28.0664 17.8418C28.2943 17.5879 28.571 17.3958 28.8965 17.2656C29.2285 17.1289 29.6094 17.0605 30.0391 17.0605C30.4622 17.0605 30.8333 17.1224 31.1523 17.2461C31.4779 17.3698 31.7513 17.5553 31.9727 17.8027C32.2005 18.0436 32.3796 18.3464 32.5098 18.7109C32.6465 19.069 32.7409 19.4824 32.793 19.9512L27.2559 24.1992ZM32.832 24.9414C32.832 25.638 32.7604 26.2435 32.6172 26.7578C32.4805 27.2721 32.2624 27.6888 31.9629 28.0078C31.7415 28.2422 31.4714 28.4212 31.1523 28.5449C30.8333 28.6686 30.4688 28.7305 30.0586 28.7305C29.668 28.7305 29.3164 28.6751 29.0039 28.5645C28.6914 28.4473 28.4245 28.278 28.2031 28.0566C27.9622 27.8223 27.7669 27.526 27.6172 27.168C27.4674 26.8034 27.3633 26.3835 27.3047 25.9082L32.832 21.6797C32.832 21.862 32.832 22.0931 32.832 22.373C32.832 22.6465 32.832 22.832 32.832 22.9297V24.9414ZM43.5938 30V15.7812H43.4473L38.0664 17.8516V19.502L41.7871 18.0859V30H43.5938ZM58.6719 24.5605V21.2305C58.6719 20.3255 58.5677 19.5247 58.3594 18.8281C58.151 18.125 57.8516 17.5326 57.4609 17.0508C57.0638 16.569 56.5788 16.2044 56.0059 15.957C55.4395 15.7031 54.7917 15.5762 54.0625 15.5762C53.3398 15.5762 52.6921 15.7031 52.1191 15.957C51.5527 16.2044 51.0742 16.569 50.6836 17.0508C50.2865 17.5326 49.9837 18.125 49.7754 18.8281C49.5671 19.5247 49.4629 20.3255 49.4629 21.2305V24.5605C49.4629 25.4655 49.5671 26.2695 49.7754 26.9727C49.9837 27.6693 50.2865 28.2552 50.6836 28.7305C51.0807 29.2188 51.5658 29.5866 52.1387 29.834C52.7116 30.0749 53.3594 30.1953 54.082 30.1953C54.8112 30.1953 55.459 30.0716 56.0254 29.8242C56.5918 29.5768 57.0703 29.2122 57.4609 28.7305C57.8516 28.2552 58.151 27.6693 58.3594 26.9727C58.5677 26.2695 58.6719 25.4655 58.6719 24.5605ZM51.2793 24.1992C51.2793 24.0299 51.2793 23.8639 51.2793 23.7012C51.2793 23.5384 51.2793 23.3757 51.2793 23.2129V20.8301C51.2793 20.166 51.3444 19.5833 51.4746 19.082C51.6113 18.5742 51.8164 18.1608 52.0898 17.8418C52.3177 17.5879 52.5944 17.3958 52.9199 17.2656C53.252 17.1289 53.6328 17.0605 54.0625 17.0605C54.4857 17.0605 54.8568 17.1224 55.1758 17.2461C55.5013 17.3698 55.7747 17.5553 55.9961 17.8027C56.224 18.0436 56.403 18.3464 56.5332 18.7109C56.6699 19.069 56.7643 19.4824 56.8164 19.9512L51.2793 24.1992ZM56.8555 24.9414C56.8555 25.638 56.7839 26.2435 56.6406 26.7578C56.5039 27.2721 56.2858 27.6888 55.9863 28.0078C55.765 28.2422 55.4948 28.4212 55.1758 28.5449C54.8568 28.6686 54.4922 28.7305 54.082 28.7305C53.6914 28.7305 53.3398 28.6751 53.0273 28.5645C52.7148 28.4473 52.4479 28.278 52.2266 28.0566C51.9857 27.8223 51.7904 27.526 51.6406 27.168C51.4909 26.8034 51.3867 26.3835 51.3281 25.9082L56.8555 21.6797C56.8555 21.862 56.8555 22.0931 56.8555 22.373C56.8555 22.6465 56.8555 22.832 56.8555 22.9297V24.9414ZM67.6172 30V15.7812H67.4707L62.0898 17.8516V19.502L65.8105 18.0859V30H67.6172ZM82.6953 24.5605V21.2305C82.6953 20.3255 82.5911 19.5247 82.3828 18.8281C82.1745 18.125 81.875 17.5326 81.4844 17.0508C81.0872 16.569 80.6022 16.2044 80.0293 15.957C79.4629 15.7031 78.8151 15.5762 78.0859 15.5762C77.3633 15.5762 76.7155 15.7031 76.1426 15.957C75.5762 16.2044 75.0977 16.569 74.707 17.0508C74.3099 17.5326 74.0072 18.125 73.7988 18.8281C73.5905 19.5247 73.4863 20.3255 73.4863 21.2305V24.5605C73.4863 25.4655 73.5905 26.2695 73.7988 26.9727C74.0072 27.6693 74.3099 28.2552 74.707 28.7305C75.1042 29.2188 75.5892 29.5866 76.1621 29.834C76.735 30.0749 77.3828 30.1953 78.1055 30.1953C78.8346 30.1953 79.4824 30.0716 80.0488 29.8242C80.6152 29.5768 81.0938 29.2122 81.4844 28.7305C81.875 28.2552 82.1745 27.6693 82.3828 26.9727C82.5911 26.2695 82.6953 25.4655 82.6953 24.5605ZM75.3027 24.1992C75.3027 24.0299 75.3027 23.8639 75.3027 23.7012C75.3027 23.5384 75.3027 23.3757 75.3027 23.2129V20.8301C75.3027 20.166 75.3678 19.5833 75.498 19.082C75.6348 18.5742 75.8398 18.1608 76.1133 17.8418C76.3411 17.5879 76.6178 17.3958 76.9434 17.2656C77.2754 17.1289 77.6562 17.0605 78.0859 17.0605C78.5091 17.0605 78.8802 17.1224 79.1992 17.2461C79.5247 17.3698 79.7982 17.5553 80.0195 17.8027C80.2474 18.0436 80.4264 18.3464 80.5566 18.7109C80.6934 19.069 80.7878 19.4824 80.8398 19.9512L75.3027 24.1992ZM80.8789 24.9414C80.8789 25.638 80.8073 26.2435 80.6641 26.7578C80.5273 27.2721 80.3092 27.6888 80.0098 28.0078C79.7884 28.2422 79.5182 28.4212 79.1992 28.5449C78.8802 28.6686 78.5156 28.7305 78.1055 28.7305C77.7148 28.7305 77.3633 28.6751 77.0508 28.5645C76.7383 28.4473 76.4714 28.278 76.25 28.0566C76.0091 27.8223 75.8138 27.526 75.6641 27.168C75.5143 26.8034 75.4102 26.3835 75.3516 25.9082L80.8789 21.6797C80.8789 21.862 80.8789 22.0931 80.8789 22.373C80.8789 22.6465 80.8789 22.832 80.8789 22.9297V24.9414ZM91.6406 30V15.7812H91.4941L86.1133 17.8516V19.502L89.834 18.0859V30H91.6406ZM106.719 24.5605V21.2305C106.719 20.3255 106.615 19.5247 106.406 18.8281C106.198 18.125 105.898 17.5326 105.508 17.0508C105.111 16.569 104.626 16.2044 104.053 15.957C103.486 15.7031 102.839 15.5762 102.109 15.5762C101.387 15.5762 100.739 15.7031 100.166 15.957C99.5996 16.2044 99.1211 16.569 98.7305 17.0508C98.3333 17.5326 98.0306 18.125 97.8223 18.8281C97.6139 19.5247 97.5098 20.3255 97.5098 21.2305V24.5605C97.5098 25.4655 97.6139 26.2695 97.8223 26.9727C98.0306 27.6693 98.3333 28.2552 98.7305 28.7305C99.1276 29.2188 99.6126 29.5866 100.186 29.834C100.758 30.0749 101.406 30.1953 102.129 30.1953C102.858 30.1953 103.506 30.0716 104.072 29.8242C104.639 29.5768 105.117 29.2122 105.508 28.7305C105.898 28.2552 106.198 27.6693 106.406 26.9727C106.615 26.2695 106.719 25.4655 106.719 24.5605ZM99.3262 24.1992C99.3262 24.0299 99.3262 23.8639 99.3262 23.7012C99.3262 23.5384 99.3262 23.3757 99.3262 23.2129V20.8301C99.3262 20.166 99.3913 19.5833 99.5215 19.082C99.6582 18.5742 99.8633 18.1608 100.137 17.8418C100.365 17.5879 100.641 17.3958 100.967 17.2656C101.299 17.1289 101.68 17.0605 102.109 17.0605C102.533 17.0605 102.904 17.1224 103.223 17.2461C103.548 17.3698 103.822 17.5553 104.043 17.8027C104.271 18.0436 104.45 18.3464 104.58 18.7109C104.717 19.069 104.811 19.4824 104.863 19.9512L99.3262 24.1992ZM104.902 24.9414C104.902 25.638 104.831 26.2435 104.688 26.7578C104.551 27.2721 104.333 27.6888 104.033 28.0078C103.812 28.2422 103.542 28.4212 103.223 28.5449C102.904 28.6686 102.539 28.7305 102.129 28.7305C101.738 28.7305 101.387 28.6751 101.074 28.5645C100.762 28.4473 100.495 28.278 100.273 28.0566C100.033 27.8223 99.8372 27.526 99.6875 27.168C99.5378 26.8034 99.4336 26.3835 99.375 25.9082L104.902 21.6797C104.902 21.862 104.902 22.0931 104.902 22.373C104.902 22.6465 104.902 22.832 104.902 22.9297V24.9414ZM118.73 24.5605V21.2305C118.73 20.3255 118.626 19.5247 118.418 18.8281C118.21 18.125 117.91 17.5326 117.52 17.0508C117.122 16.569 116.637 16.2044 116.064 15.957C115.498 15.7031 114.85 15.5762 114.121 15.5762C113.398 15.5762 112.751 15.7031 112.178 15.957C111.611 16.2044 111.133 16.569 110.742 17.0508C110.345 17.5326 110.042 18.125 109.834 18.8281C109.626 19.5247 109.521 20.3255 109.521 21.2305V24.5605C109.521 25.4655 109.626 26.2695 109.834 26.9727C110.042 27.6693 110.345 28.2552 110.742 28.7305C111.139 29.2188 111.624 29.5866 112.197 29.834C112.77 30.0749 113.418 30.1953 114.141 30.1953C114.87 30.1953 115.518 30.0716 116.084 29.8242C116.65 29.5768 117.129 29.2122 117.52 28.7305C117.91 28.2552 118.21 27.6693 118.418 26.9727C118.626 26.2695 118.73 25.4655 118.73 24.5605ZM111.338 24.1992C111.338 24.0299 111.338 23.8639 111.338 23.7012C111.338 23.5384 111.338 23.3757 111.338 23.2129V20.8301C111.338 20.166 111.403 19.5833 111.533 19.082C111.67 18.5742 111.875 18.1608 112.148 17.8418C112.376 17.5879 112.653 17.3958 112.979 17.2656C113.311 17.1289 113.691 17.0605 114.121 17.0605C114.544 17.0605 114.915 17.1224 115.234 17.2461C115.56 17.3698 115.833 17.5553 116.055 17.8027C116.283 18.0436 116.462 18.3464 116.592 18.7109C116.729 19.069 116.823 19.4824 116.875 19.9512L111.338 24.1992ZM116.914 24.9414C116.914 25.638 116.842 26.2435 116.699 26.7578C116.562 27.2721 116.344 27.6888 116.045 28.0078C115.824 28.2422 115.553 28.4212 115.234 28.5449C114.915 28.6686 114.551 28.7305 114.141 28.7305C113.75 28.7305 113.398 28.6751 113.086 28.5645C112.773 28.4473 112.507 28.278 112.285 28.0566C112.044 27.8223 111.849 27.526 111.699 27.168C111.549 26.8034 111.445 26.3835 111.387 25.9082L116.914 21.6797C116.914 21.862 116.914 22.0931 116.914 22.373C116.914 22.6465 116.914 22.832 116.914 22.9297V24.9414ZM130.742 24.5605V21.2305C130.742 20.3255 130.638 19.5247 130.43 18.8281C130.221 18.125 129.922 17.5326 129.531 17.0508C129.134 16.569 128.649 16.2044 128.076 15.957C127.51 15.7031 126.862 15.5762 126.133 15.5762C125.41 15.5762 124.762 15.7031 124.189 15.957C123.623 16.2044 123.145 16.569 122.754 17.0508C122.357 17.5326 122.054 18.125 121.846 18.8281C121.637 19.5247 121.533 20.3255 121.533 21.2305V24.5605C121.533 25.4655 121.637 26.2695 121.846 26.9727C122.054 27.6693 122.357 28.2552 122.754 28.7305C123.151 29.2188 123.636 29.5866 124.209 29.834C124.782 30.0749 125.43 30.1953 126.152 30.1953C126.882 30.1953 127.529 30.0716 128.096 29.8242C128.662 29.5768 129.141 29.2122 129.531 28.7305C129.922 28.2552 130.221 27.6693 130.43 26.9727C130.638 26.2695 130.742 25.4655 130.742 24.5605ZM123.35 24.1992C123.35 24.0299 123.35 23.8639 123.35 23.7012C123.35 23.5384 123.35 23.3757 123.35 23.2129V20.8301C123.35 20.166 123.415 19.5833 123.545 19.082C123.682 18.5742 123.887 18.1608 124.16 17.8418C124.388 17.5879 124.665 17.3958 124.99 17.2656C125.322 17.1289 125.703 17.0605 126.133 17.0605C126.556 17.0605 126.927 17.1224 127.246 17.2461C127.572 17.3698 127.845 17.5553 128.066 17.8027C128.294 18.0436 128.473 18.3464 128.604 18.7109C128.74 19.069 128.835 19.4824 128.887 19.9512L123.35 24.1992ZM128.926 24.9414C128.926 25.638 128.854 26.2435 128.711 26.7578C128.574 27.2721 128.356 27.6888 128.057 28.0078C127.835 28.2422 127.565 28.4212 127.246 28.5449C126.927 28.6686 126.562 28.7305 126.152 28.7305C125.762 28.7305 125.41 28.6751 125.098 28.5645C124.785 28.4473 124.518 28.278 124.297 28.0566C124.056 27.8223 123.861 27.526 123.711 27.168C123.561 26.8034 123.457 26.3835 123.398 25.9082L128.926 21.6797C128.926 21.862 128.926 22.0931 128.926 22.373C128.926 22.6465 128.926 22.832 128.926 22.9297V24.9414ZM142.754 24.5605V21.2305C142.754 20.3255 142.65 19.5247 142.441 18.8281C142.233 18.125 141.934 17.5326 141.543 17.0508C141.146 16.569 140.661 16.2044 140.088 15.957C139.521 15.7031 138.874 15.5762 138.145 15.5762C137.422 15.5762 136.774 15.7031 136.201 15.957C135.635 16.2044 135.156 16.569 134.766 17.0508C134.368 17.5326 134.066 18.125 133.857 18.8281C133.649 19.5247 133.545 20.3255 133.545 21.2305V24.5605C133.545 25.4655 133.649 26.2695 133.857 26.9727C134.066 27.6693 134.368 28.2552 134.766 28.7305C135.163 29.2188 135.648 29.5866 136.221 29.834C136.794 30.0749 137.441 30.1953 138.164 30.1953C138.893 30.1953 139.541 30.0716 140.107 29.8242C140.674 29.5768 141.152 29.2122 141.543 28.7305C141.934 28.2552 142.233 27.6693 142.441 26.9727C142.65 26.2695 142.754 25.4655 142.754 24.5605ZM135.361 24.1992C135.361 24.0299 135.361 23.8639 135.361 23.7012C135.361 23.5384 135.361 23.3757 135.361 23.2129V20.8301C135.361 20.166 135.426 19.5833 135.557 19.082C135.693 18.5742 135.898 18.1608 136.172 17.8418C136.4 17.5879 136.676 17.3958 137.002 17.2656C137.334 17.1289 137.715 17.0605 138.145 17.0605C138.568 17.0605 138.939 17.1224 139.258 17.2461C139.583 17.3698 139.857 17.5553 140.078 17.8027C140.306 18.0436 140.485 18.3464 140.615 18.7109C140.752 19.069 140.846 19.4824 140.898 19.9512L135.361 24.1992ZM140.938 24.9414C140.938 25.638 140.866 26.2435 140.723 26.7578C140.586 27.2721 140.368 27.6888 140.068 28.0078C139.847 28.2422 139.577 28.4212 139.258 28.5449C138.939 28.6686 138.574 28.7305 138.164 28.7305C137.773 28.7305 137.422 28.6751 137.109 28.5645C136.797 28.4473 136.53 28.278 136.309 28.0566C136.068 27.8223 135.872 27.526 135.723 27.168C135.573 26.8034 135.469 26.3835 135.41 25.9082L140.938 21.6797C140.938 21.862 140.938 22.0931 140.938 22.373C140.938 22.6465 140.938 22.832 140.938 22.9297V24.9414ZM151.699 30V15.7812H151.553L146.172 17.8516V19.502L149.893 18.0859V30H151.699ZM166.777 24.5605V21.2305C166.777 20.3255 166.673 19.5247 166.465 18.8281C166.257 18.125 165.957 17.5326 165.566 17.0508C165.169 16.569 164.684 16.2044 164.111 15.957C163.545 15.7031 162.897 15.5762 162.168 15.5762C161.445 15.5762 160.798 15.7031 160.225 15.957C159.658 16.2044 159.18 16.569 158.789 17.0508C158.392 17.5326 158.089 18.125 157.881 18.8281C157.673 19.5247 157.568 20.3255 157.568 21.2305V24.5605C157.568 25.4655 157.673 26.2695 157.881 26.9727C158.089 27.6693 158.392 28.2552 158.789 28.7305C159.186 29.2188 159.671 29.5866 160.244 29.834C160.817 30.0749 161.465 30.1953 162.188 30.1953C162.917 30.1953 163.564 30.0716 164.131 29.8242C164.697 29.5768 165.176 29.2122 165.566 28.7305C165.957 28.2552 166.257 27.6693 166.465 26.9727C166.673 26.2695 166.777 25.4655 166.777 24.5605ZM159.385 24.1992C159.385 24.0299 159.385 23.8639 159.385 23.7012C159.385 23.5384 159.385 23.3757 159.385 23.2129V20.8301C159.385 20.166 159.45 19.5833 159.58 19.082C159.717 18.5742 159.922 18.1608 160.195 17.8418C160.423 17.5879 160.7 17.3958 161.025 17.2656C161.357 17.1289 161.738 17.0605 162.168 17.0605C162.591 17.0605 162.962 17.1224 163.281 17.2461C163.607 17.3698 163.88 17.5553 164.102 17.8027C164.329 18.0436 164.508 18.3464 164.639 18.7109C164.775 19.069 164.87 19.4824 164.922 19.9512L159.385 24.1992ZM164.961 24.9414C164.961 25.638 164.889 26.2435 164.746 26.7578C164.609 27.2721 164.391 27.6888 164.092 28.0078C163.87 28.2422 163.6 28.4212 163.281 28.5449C162.962 28.6686 162.598 28.7305 162.188 28.7305C161.797 28.7305 161.445 28.6751 161.133 28.5645C160.82 28.4473 160.553 28.278 160.332 28.0566C160.091 27.8223 159.896 27.526 159.746 27.168C159.596 26.8034 159.492 26.3835 159.434 25.9082L164.961 21.6797C164.961 21.862 164.961 22.0931 164.961 22.373C164.961 22.6465 164.961 22.832 164.961 22.9297V24.9414ZM178.789 24.5605V21.2305C178.789 20.3255 178.685 19.5247 178.477 18.8281C178.268 18.125 177.969 17.5326 177.578 17.0508C177.181 16.569 176.696 16.2044 176.123 15.957C175.557 15.7031 174.909 15.5762 174.18 15.5762C173.457 15.5762 172.809 15.7031 172.236 15.957C171.67 16.2044 171.191 16.569 170.801 17.0508C170.404 17.5326 170.101 18.125 169.893 18.8281C169.684 19.5247 169.58 20.3255 169.58 21.2305V24.5605C169.58 25.4655 169.684 26.2695 169.893 26.9727C170.101 27.6693 170.404 28.2552 170.801 28.7305C171.198 29.2188 171.683 29.5866 172.256 29.834C172.829 30.0749 173.477 30.1953 174.199 30.1953C174.928 30.1953 175.576 30.0716 176.143 29.8242C176.709 29.5768 177.188 29.2122 177.578 28.7305C177.969 28.2552 178.268 27.6693 178.477 26.9727C178.685 26.2695 178.789 25.4655 178.789 24.5605ZM171.396 24.1992C171.396 24.0299 171.396 23.8639 171.396 23.7012C171.396 23.5384 171.396 23.3757 171.396 23.2129V20.8301C171.396 20.166 171.462 19.5833 171.592 19.082C171.729 18.5742 171.934 18.1608 172.207 17.8418C172.435 17.5879 172.712 17.3958 173.037 17.2656C173.369 17.1289 173.75 17.0605 174.18 17.0605C174.603 17.0605 174.974 17.1224 175.293 17.2461C175.618 17.3698 175.892 17.5553 176.113 17.8027C176.341 18.0436 176.52 18.3464 176.65 18.7109C176.787 19.069 176.882 19.4824 176.934 19.9512L171.396 24.1992ZM176.973 24.9414C176.973 25.638 176.901 26.2435 176.758 26.7578C176.621 27.2721 176.403 27.6888 176.104 28.0078C175.882 28.2422 175.612 28.4212 175.293 28.5449C174.974 28.6686 174.609 28.7305 174.199 28.7305C173.809 28.7305 173.457 28.6751 173.145 28.5645C172.832 28.4473 172.565 28.278 172.344 28.0566C172.103 27.8223 171.908 27.526 171.758 27.168C171.608 26.8034 171.504 26.3835 171.445 25.9082L176.973 21.6797C176.973 21.862 176.973 22.0931 176.973 22.373C176.973 22.6465 176.973 22.832 176.973 22.9297V24.9414ZM187.734 30V15.7812H187.588L182.207 17.8516V19.502L185.928 18.0859V30H187.734ZM202.812 24.5605V21.2305C202.812 20.3255 202.708 19.5247 202.5 18.8281C202.292 18.125 201.992 17.5326 201.602 17.0508C201.204 16.569 200.719 16.2044 200.146 15.957C199.58 15.7031 198.932 15.5762 198.203 15.5762C197.48 15.5762 196.833 15.7031 196.26 15.957C195.693 16.2044 195.215 16.569 194.824 17.0508C194.427 17.5326 194.124 18.125 193.916 18.8281C193.708 19.5247 193.604 20.3255 193.604 21.2305V24.5605C193.604 25.4655 193.708 26.2695 193.916 26.9727C194.124 27.6693 194.427 28.2552 194.824 28.7305C195.221 29.2188 195.706 29.5866 196.279 29.834C196.852 30.0749 197.5 30.1953 198.223 30.1953C198.952 30.1953 199.6 30.0716 200.166 29.8242C200.732 29.5768 201.211 29.2122 201.602 28.7305C201.992 28.2552 202.292 27.6693 202.5 26.9727C202.708 26.2695 202.812 25.4655 202.812 24.5605ZM195.42 24.1992C195.42 24.0299 195.42 23.8639 195.42 23.7012C195.42 23.5384 195.42 23.3757 195.42 23.2129V20.8301C195.42 20.166 195.485 19.5833 195.615 19.082C195.752 18.5742 195.957 18.1608 196.23 17.8418C196.458 17.5879 196.735 17.3958 197.061 17.2656C197.393 17.1289 197.773 17.0605 198.203 17.0605C198.626 17.0605 198.997 17.1224 199.316 17.2461C199.642 17.3698 199.915 17.5553 200.137 17.8027C200.365 18.0436 200.544 18.3464 200.674 18.7109C200.811 19.069 200.905 19.4824 200.957 19.9512L195.42 24.1992ZM200.996 24.9414C200.996 25.638 200.924 26.2435 200.781 26.7578C200.645 27.2721 200.426 27.6888 200.127 28.0078C199.906 28.2422 199.635 28.4212 199.316 28.5449C198.997 28.6686 198.633 28.7305 198.223 28.7305C197.832 28.7305 197.48 28.6751 197.168 28.5645C196.855 28.4473 196.589 28.278 196.367 28.0566C196.126 27.8223 195.931 27.526 195.781 27.168C195.632 26.8034 195.527 26.3835 195.469 25.9082L200.996 21.6797C200.996 21.862 200.996 22.0931 200.996 22.373C200.996 22.6465 200.996 22.832 200.996 22.9297V24.9414ZM214.824 24.5605V21.2305C214.824 20.3255 214.72 19.5247 214.512 18.8281C214.303 18.125 214.004 17.5326 213.613 17.0508C213.216 16.569 212.731 16.2044 212.158 15.957C211.592 15.7031 210.944 15.5762 210.215 15.5762C209.492 15.5762 208.844 15.7031 208.271 15.957C207.705 16.2044 207.227 16.569 206.836 17.0508C206.439 17.5326 206.136 18.125 205.928 18.8281C205.719 19.5247 205.615 20.3255 205.615 21.2305V24.5605C205.615 25.4655 205.719 26.2695 205.928 26.9727C206.136 27.6693 206.439 28.2552 206.836 28.7305C207.233 29.2188 207.718 29.5866 208.291 29.834C208.864 30.0749 209.512 30.1953 210.234 30.1953C210.964 30.1953 211.611 30.0716 212.178 29.8242C212.744 29.5768 213.223 29.2122 213.613 28.7305C214.004 28.2552 214.303 27.6693 214.512 26.9727C214.72 26.2695 214.824 25.4655 214.824 24.5605ZM207.432 24.1992C207.432 24.0299 207.432 23.8639 207.432 23.7012C207.432 23.5384 207.432 23.3757 207.432 23.2129V20.8301C207.432 20.166 207.497 19.5833 207.627 19.082C207.764 18.5742 207.969 18.1608 208.242 17.8418C208.47 17.5879 208.747 17.3958 209.072 17.2656C209.404 17.1289 209.785 17.0605 210.215 17.0605C210.638 17.0605 211.009 17.1224 211.328 17.2461C211.654 17.3698 211.927 17.5553 212.148 17.8027C212.376 18.0436 212.555 18.3464 212.686 18.7109C212.822 19.069 212.917 19.4824 212.969 19.9512L207.432 24.1992ZM213.008 24.9414C213.008 25.638 212.936 26.2435 212.793 26.7578C212.656 27.2721 212.438 27.6888 212.139 28.0078C211.917 28.2422 211.647 28.4212 211.328 28.5449C211.009 28.6686 210.645 28.7305 210.234 28.7305C209.844 28.7305 209.492 28.6751 209.18 28.5645C208.867 28.4473 208.6 28.278 208.379 28.0566C208.138 27.8223 207.943 27.526 207.793 27.168C207.643 26.8034 207.539 26.3835 207.48 25.9082L213.008 21.6797C213.008 21.862 213.008 22.0931 213.008 22.373C213.008 22.6465 213.008 22.832 213.008 22.9297V24.9414ZM223.77 30V15.7812H223.623L218.242 17.8516V19.502L221.963 18.0859V30H223.77ZM238.848 24.5605V21.2305C238.848 20.3255 238.743 19.5247 238.535 18.8281C238.327 18.125 238.027 17.5326 237.637 17.0508C237.24 16.569 236.755 16.2044 236.182 15.957C235.615 15.7031 234.967 15.5762 234.238 15.5762C233.516 15.5762 232.868 15.7031 232.295 15.957C231.729 16.2044 231.25 16.569 230.859 17.0508C230.462 17.5326 230.16 18.125 229.951 18.8281C229.743 19.5247 229.639 20.3255 229.639 21.2305V24.5605C229.639 25.4655 229.743 26.2695 229.951 26.9727C230.16 27.6693 230.462 28.2552 230.859 28.7305C231.257 29.2188 231.742 29.5866 232.314 29.834C232.887 30.0749 233.535 30.1953 234.258 30.1953C234.987 30.1953 235.635 30.0716 236.201 29.8242C236.768 29.5768 237.246 29.2122 237.637 28.7305C238.027 28.2552 238.327 27.6693 238.535 26.9727C238.743 26.2695 238.848 25.4655 238.848 24.5605ZM231.455 24.1992C231.455 24.0299 231.455 23.8639 231.455 23.7012C231.455 23.5384 231.455 23.3757 231.455 23.2129V20.8301C231.455 20.166 231.52 19.5833 231.65 19.082C231.787 18.5742 231.992 18.1608 232.266 17.8418C232.493 17.5879 232.77 17.3958 233.096 17.2656C233.428 17.1289 233.809 17.0605 234.238 17.0605C234.661 17.0605 235.033 17.1224 235.352 17.2461C235.677 17.3698 235.951 17.5553 236.172 17.8027C236.4 18.0436 236.579 18.3464 236.709 18.7109C236.846 19.069 236.94 19.4824 236.992 19.9512L231.455 24.1992ZM237.031 24.9414C237.031 25.638 236.96 26.2435 236.816 26.7578C236.68 27.2721 236.462 27.6888 236.162 28.0078C235.941 28.2422 235.671 28.4212 235.352 28.5449C235.033 28.6686 234.668 28.7305 234.258 28.7305C233.867 28.7305 233.516 28.6751 233.203 28.5645C232.891 28.4473 232.624 28.278 232.402 28.0566C232.161 27.8223 231.966 27.526 231.816 27.168C231.667 26.8034 231.562 26.3835 231.504 25.9082L237.031 21.6797C237.031 21.862 237.031 22.0931 237.031 22.373C237.031 22.6465 237.031 22.832 237.031 22.9297V24.9414ZM247.793 30V15.7812H247.646L242.266 17.8516V19.502L245.986 18.0859V30H247.793ZM34.6484 52.5605V49.2305C34.6484 48.3255 34.5443 47.5247 34.3359 46.8281C34.1276 46.125 33.8281 45.5326 33.4375 45.0508C33.0404 44.569 32.5553 44.2044 31.9824 43.957C31.416 43.7031 30.7682 43.5762 30.0391 43.5762C29.3164 43.5762 28.6686 43.7031 28.0957 43.957C27.5293 44.2044 27.0508 44.569 26.6602 45.0508C26.263 45.5326 25.9603 46.125 25.752 46.8281C25.5436 47.5247 25.4395 48.3255 25.4395 49.2305V52.5605C25.4395 53.4655 25.5436 54.2695 25.752 54.9727C25.9603 55.6693 26.263 56.2552 26.6602 56.7305C27.0573 57.2188 27.5423 57.5866 28.1152 57.834C28.6882 58.0749 29.3359 58.1953 30.0586 58.1953C30.7878 58.1953 31.4355 58.0716 32.002 57.8242C32.5684 57.5768 33.0469 57.2122 33.4375 56.7305C33.8281 56.2552 34.1276 55.6693 34.3359 54.9727C34.5443 54.2695 34.6484 53.4655 34.6484 52.5605ZM27.2559 52.1992C27.2559 52.0299 27.2559 51.8639 27.2559 51.7012C27.2559 51.5384 27.2559 51.3757 27.2559 51.2129V48.8301C27.2559 48.166 27.321 47.5833 27.4512 47.082C27.5879 46.5742 27.793 46.1608 28.0664 45.8418C28.2943 45.5879 28.571 45.3958 28.8965 45.2656C29.2285 45.1289 29.6094 45.0605 30.0391 45.0605C30.4622 45.0605 30.8333 45.1224 31.1523 45.2461C31.4779 45.3698 31.7513 45.5553 31.9727 45.8027C32.2005 46.0436 32.3796 46.3464 32.5098 46.7109C32.6465 47.069 32.7409 47.4824 32.793 47.9512L27.2559 52.1992ZM32.832 52.9414C32.832 53.638 32.7604 54.2435 32.6172 54.7578C32.4805 55.2721 32.2624 55.6888 31.9629 56.0078C31.7415 56.2422 31.4714 56.4212 31.1523 56.5449C30.8333 56.6686 30.4688 56.7305 30.0586 56.7305C29.668 56.7305 29.3164 56.6751 29.0039 56.5645C28.6914 56.4473 28.4245 56.278 28.2031 56.0566C27.9622 55.8223 27.7669 55.526 27.6172 55.168C27.4674 54.8034 27.3633 54.3835 27.3047 53.9082L32.832 49.6797C32.832 49.862 32.832 50.0931 32.832 50.373C32.832 50.6465 32.832 50.832 32.832 50.9297V52.9414ZM46.6602 52.5605V49.2305C46.6602 48.3255 46.556 47.5247 46.3477 46.8281C46.1393 46.125 45.8398 45.5326 45.4492 45.0508C45.0521 44.569 44.5671 44.2044 43.9941 43.957C43.4277 43.7031 42.7799 43.5762 42.0508 43.5762C41.3281 43.5762 40.6803 43.7031 40.1074 43.957C39.541 44.2044 39.0625 44.569 38.6719 45.0508C38.2747 45.5326 37.972 46.125 37.7637 46.8281C37.5553 47.5247 37.4512 48.3255 37.4512 49.2305V52.5605C37.4512 53.4655 37.5553 54.2695 37.7637 54.9727C37.972 55.6693 38.2747 56.2552 38.6719 56.7305C39.069 57.2188 39.554 57.5866 40.127 57.834C40.6999 58.0749 41.3477 58.1953 42.0703 58.1953C42.7995 58.1953 43.4473 58.0716 44.0137 57.8242C44.5801 57.5768 45.0586 57.2122 45.4492 56.7305C45.8398 56.2552 46.1393 55.6693 46.3477 54.9727C46.556 54.2695 46.6602 53.4655 46.6602 52.5605ZM39.2676 52.1992C39.2676 52.0299 39.2676 51.8639 39.2676 51.7012C39.2676 51.5384 39.2676 51.3757 39.2676 51.2129V48.8301C39.2676 48.166 39.3327 47.5833 39.4629 47.082C39.5996 46.5742 39.8047 46.1608 40.0781 45.8418C40.306 45.5879 40.5827 45.3958 40.9082 45.2656C41.2402 45.1289 41.6211 45.0605 42.0508 45.0605C42.474 45.0605 42.8451 45.1224 43.1641 45.2461C43.4896 45.3698 43.763 45.5553 43.9844 45.8027C44.2122 46.0436 44.3913 46.3464 44.5215 46.7109C44.6582 47.069 44.7526 47.4824 44.8047 47.9512L39.2676 52.1992ZM44.8438 52.9414C44.8438 53.638 44.7721 54.2435 44.6289 54.7578C44.4922 55.2721 44.2741 55.6888 43.9746 56.0078C43.7533 56.2422 43.4831 56.4212 43.1641 56.5449C42.8451 56.6686 42.4805 56.7305 42.0703 56.7305C41.6797 56.7305 41.3281 56.6751 41.0156 56.5645C40.7031 56.4473 40.4362 56.278 40.2148 56.0566C39.974 55.8223 39.7786 55.526 39.6289 55.168C39.4792 54.8034 39.375 54.3835 39.3164 53.9082L44.8438 49.6797C44.8438 49.862 44.8438 50.0931 44.8438 50.373C44.8438 50.6465 44.8438 50.832 44.8438 50.9297V52.9414ZM55.6055 58V43.7812H55.459L50.0781 45.8516V47.502L53.7988 46.0859V58H55.6055ZM70.6836 52.5605V49.2305C70.6836 48.3255 70.5794 47.5247 70.3711 46.8281C70.1628 46.125 69.8633 45.5326 69.4727 45.0508C69.0755 44.569 68.5905 44.2044 68.0176 43.957C67.4512 43.7031 66.8034 43.5762 66.0742 43.5762C65.3516 43.5762 64.7038 43.7031 64.1309 43.957C63.5645 44.2044 63.0859 44.569 62.6953 45.0508C62.2982 45.5326 61.9954 46.125 61.7871 46.8281C61.5788 47.5247 61.4746 48.3255 61.4746 49.2305V52.5605C61.4746 53.4655 61.5788 54.2695 61.7871 54.9727C61.9954 55.6693 62.2982 56.2552 62.6953 56.7305C63.0924 57.2188 63.5775 57.5866 64.1504 57.834C64.7233 58.0749 65.3711 58.1953 66.0938 58.1953C66.8229 58.1953 67.4707 58.0716 68.0371 57.8242C68.6035 57.5768 69.082 57.2122 69.4727 56.7305C69.8633 56.2552 70.1628 55.6693 70.3711 54.9727C70.5794 54.2695 70.6836 53.4655 70.6836 52.5605ZM63.291 52.1992C63.291 52.0299 63.291 51.8639 63.291 51.7012C63.291 51.5384 63.291 51.3757 63.291 51.2129V48.8301C63.291 48.166 63.3561 47.5833 63.4863 47.082C63.623 46.5742 63.8281 46.1608 64.1016 45.8418C64.3294 45.5879 64.6061 45.3958 64.9316 45.2656C65.2637 45.1289 65.6445 45.0605 66.0742 45.0605C66.4974 45.0605 66.8685 45.1224 67.1875 45.2461C67.513 45.3698 67.7865 45.5553 68.0078 45.8027C68.2357 46.0436 68.4147 46.3464 68.5449 46.7109C68.6816 47.069 68.776 47.4824 68.8281 47.9512L63.291 52.1992ZM68.8672 52.9414C68.8672 53.638 68.7956 54.2435 68.6523 54.7578C68.5156 55.2721 68.2975 55.6888 67.998 56.0078C67.7767 56.2422 67.5065 56.4212 67.1875 56.5449C66.8685 56.6686 66.5039 56.7305 66.0938 56.7305C65.7031 56.7305 65.3516 56.6751 65.0391 56.5645C64.7266 56.4473 64.4596 56.278 64.2383 56.0566C63.9974 55.8223 63.8021 55.526 63.6523 55.168C63.5026 54.8034 63.3984 54.3835 63.3398 53.9082L68.8672 49.6797C68.8672 49.862 68.8672 50.0931 68.8672 50.373C68.8672 50.6465 68.8672 50.832 68.8672 50.9297V52.9414ZM82.6953 52.5605V49.2305C82.6953 48.3255 82.5911 47.5247 82.3828 46.8281C82.1745 46.125 81.875 45.5326 81.4844 45.0508C81.0872 44.569 80.6022 44.2044 80.0293 43.957C79.4629 43.7031 78.8151 43.5762 78.0859 43.5762C77.3633 43.5762 76.7155 43.7031 76.1426 43.957C75.5762 44.2044 75.0977 44.569 74.707 45.0508C74.3099 45.5326 74.0072 46.125 73.7988 46.8281C73.5905 47.5247 73.4863 48.3255 73.4863 49.2305V52.5605C73.4863 53.4655 73.5905 54.2695 73.7988 54.9727C74.0072 55.6693 74.3099 56.2552 74.707 56.7305C75.1042 57.2188 75.5892 57.5866 76.1621 57.834C76.735 58.0749 77.3828 58.1953 78.1055 58.1953C78.8346 58.1953 79.4824 58.0716 80.0488 57.8242C80.6152 57.5768 81.0938 57.2122 81.4844 56.7305C81.875 56.2552 82.1745 55.6693 82.3828 54.9727C82.5911 54.2695 82.6953 53.4655 82.6953 52.5605ZM75.3027 52.1992C75.3027 52.0299 75.3027 51.8639 75.3027 51.7012C75.3027 51.5384 75.3027 51.3757 75.3027 51.2129V48.8301C75.3027 48.166 75.3678 47.5833 75.498 47.082C75.6348 46.5742 75.8398 46.1608 76.1133 45.8418C76.3411 45.5879 76.6178 45.3958 76.9434 45.2656C77.2754 45.1289 77.6562 45.0605 78.0859 45.0605C78.5091 45.0605 78.8802 45.1224 79.1992 45.2461C79.5247 45.3698 79.7982 45.5553 80.0195 45.8027C80.2474 46.0436 80.4264 46.3464 80.5566 46.7109C80.6934 47.069 80.7878 47.4824 80.8398 47.9512L75.3027 52.1992ZM80.8789 52.9414C80.8789 53.638 80.8073 54.2435 80.6641 54.7578C80.5273 55.2721 80.3092 55.6888 80.0098 56.0078C79.7884 56.2422 79.5182 56.4212 79.1992 56.5449C78.8802 56.6686 78.5156 56.7305 78.1055 56.7305C77.7148 56.7305 77.3633 56.6751 77.0508 56.5645C76.7383 56.4473 76.4714 56.278 76.25 56.0566C76.0091 55.8223 75.8138 55.526 75.6641 55.168C75.5143 54.8034 75.4102 54.3835 75.3516 53.9082L80.8789 49.6797C80.8789 49.862 80.8789 50.0931 80.8789 50.373C80.8789 50.6465 80.8789 50.832 80.8789 50.9297V52.9414ZM91.6406 58V43.7812H91.4941L86.1133 45.8516V47.502L89.834 46.0859V58H91.6406ZM106.719 52.5605V49.2305C106.719 48.3255 106.615 47.5247 106.406 46.8281C106.198 46.125 105.898 45.5326 105.508 45.0508C105.111 44.569 104.626 44.2044 104.053 43.957C103.486 43.7031 102.839 43.5762 102.109 43.5762C101.387 43.5762 100.739 43.7031 100.166 43.957C99.5996 44.2044 99.1211 44.569 98.7305 45.0508C98.3333 45.5326 98.0306 46.125 97.8223 46.8281C97.6139 47.5247 97.5098 48.3255 97.5098 49.2305V52.5605C97.5098 53.4655 97.6139 54.2695 97.8223 54.9727C98.0306 55.6693 98.3333 56.2552 98.7305 56.7305C99.1276 57.2188 99.6126 57.5866 100.186 57.834C100.758 58.0749 101.406 58.1953 102.129 58.1953C102.858 58.1953 103.506 58.0716 104.072 57.8242C104.639 57.5768 105.117 57.2122 105.508 56.7305C105.898 56.2552 106.198 55.6693 106.406 54.9727C106.615 54.2695 106.719 53.4655 106.719 52.5605ZM99.3262 52.1992C99.3262 52.0299 99.3262 51.8639 99.3262 51.7012C99.3262 51.5384 99.3262 51.3757 99.3262 51.2129V48.8301C99.3262 48.166 99.3913 47.5833 99.5215 47.082C99.6582 46.5742 99.8633 46.1608 100.137 45.8418C100.365 45.5879 100.641 45.3958 100.967 45.2656C101.299 45.1289 101.68 45.0605 102.109 45.0605C102.533 45.0605 102.904 45.1224 103.223 45.2461C103.548 45.3698 103.822 45.5553 104.043 45.8027C104.271 46.0436 104.45 46.3464 104.58 46.7109C104.717 47.069 104.811 47.4824 104.863 47.9512L99.3262 52.1992ZM104.902 52.9414C104.902 53.638 104.831 54.2435 104.688 54.7578C104.551 55.2721 104.333 55.6888 104.033 56.0078C103.812 56.2422 103.542 56.4212 103.223 56.5449C102.904 56.6686 102.539 56.7305 102.129 56.7305C101.738 56.7305 101.387 56.6751 101.074 56.5645C100.762 56.4473 100.495 56.278 100.273 56.0566C100.033 55.8223 99.8372 55.526 99.6875 55.168C99.5378 54.8034 99.4336 54.3835 99.375 53.9082L104.902 49.6797C104.902 49.862 104.902 50.0931 104.902 50.373C104.902 50.6465 104.902 50.832 104.902 50.9297V52.9414ZM115.664 58V43.7812H115.518L110.137 45.8516V47.502L113.857 46.0859V58H115.664ZM130.742 52.5605V49.2305C130.742 48.3255 130.638 47.5247 130.43 46.8281C130.221 46.125 129.922 45.5326 129.531 45.0508C129.134 44.569 128.649 44.2044 128.076 43.957C127.51 43.7031 126.862 43.5762 126.133 43.5762C125.41 43.5762 124.762 43.7031 124.189 43.957C123.623 44.2044 123.145 44.569 122.754 45.0508C122.357 45.5326 122.054 46.125 121.846 46.8281C121.637 47.5247 121.533 48.3255 121.533 49.2305V52.5605C121.533 53.4655 121.637 54.2695 121.846 54.9727C122.054 55.6693 122.357 56.2552 122.754 56.7305C123.151 57.2188 123.636 57.5866 124.209 57.834C124.782 58.0749 125.43 58.1953 126.152 58.1953C126.882 58.1953 127.529 58.0716 128.096 57.8242C128.662 57.5768 129.141 57.2122 129.531 56.7305C129.922 56.2552 130.221 55.6693 130.43 54.9727C130.638 54.2695 130.742 53.4655 130.742 52.5605ZM123.35 52.1992C123.35 52.0299 123.35 51.8639 123.35 51.7012C123.35 51.5384 123.35 51.3757 123.35 51.2129V48.8301C123.35 48.166 123.415 47.5833 123.545 47.082C123.682 46.5742 123.887 46.1608 124.16 45.8418C124.388 45.5879 124.665 45.3958 124.99 45.2656C125.322 45.1289 125.703 45.0605 126.133 45.0605C126.556 45.0605 126.927 45.1224 127.246 45.2461C127.572 45.3698 127.845 45.5553 128.066 45.8027C128.294 46.0436 128.473 46.3464 128.604 46.7109C128.74 47.069 128.835 47.4824 128.887 47.9512L123.35 52.1992ZM128.926 52.9414C128.926 53.638 128.854 54.2435 128.711 54.7578C128.574 55.2721 128.356 55.6888 128.057 56.0078C127.835 56.2422 127.565 56.4212 127.246 56.5449C126.927 56.6686 126.562 56.7305 126.152 56.7305C125.762 56.7305 125.41 56.6751 125.098 56.5645C124.785 56.4473 124.518 56.278 124.297 56.0566C124.056 55.8223 123.861 55.526 123.711 55.168C123.561 54.8034 123.457 54.3835 123.398 53.9082L128.926 49.6797C128.926 49.862 128.926 50.0931 128.926 50.373C128.926 50.6465 128.926 50.832 128.926 50.9297V52.9414ZM139.688 58V43.7812H139.541L134.16 45.8516V47.502L137.881 46.0859V58H139.688ZM154.766 52.5605V49.2305C154.766 48.3255 154.661 47.5247 154.453 46.8281C154.245 46.125 153.945 45.5326 153.555 45.0508C153.158 44.569 152.673 44.2044 152.1 43.957C151.533 43.7031 150.885 43.5762 150.156 43.5762C149.434 43.5762 148.786 43.7031 148.213 43.957C147.646 44.2044 147.168 44.569 146.777 45.0508C146.38 45.5326 146.077 46.125 145.869 46.8281C145.661 47.5247 145.557 48.3255 145.557 49.2305V52.5605C145.557 53.4655 145.661 54.2695 145.869 54.9727C146.077 55.6693 146.38 56.2552 146.777 56.7305C147.174 57.2188 147.66 57.5866 148.232 57.834C148.805 58.0749 149.453 58.1953 150.176 58.1953C150.905 58.1953 151.553 58.0716 152.119 57.8242C152.686 57.5768 153.164 57.2122 153.555 56.7305C153.945 56.2552 154.245 55.6693 154.453 54.9727C154.661 54.2695 154.766 53.4655 154.766 52.5605ZM147.373 52.1992C147.373 52.0299 147.373 51.8639 147.373 51.7012C147.373 51.5384 147.373 51.3757 147.373 51.2129V48.8301C147.373 48.166 147.438 47.5833 147.568 47.082C147.705 46.5742 147.91 46.1608 148.184 45.8418C148.411 45.5879 148.688 45.3958 149.014 45.2656C149.346 45.1289 149.727 45.0605 150.156 45.0605C150.579 45.0605 150.951 45.1224 151.27 45.2461C151.595 45.3698 151.868 45.5553 152.09 45.8027C152.318 46.0436 152.497 46.3464 152.627 46.7109C152.764 47.069 152.858 47.4824 152.91 47.9512L147.373 52.1992ZM152.949 52.9414C152.949 53.638 152.878 54.2435 152.734 54.7578C152.598 55.2721 152.38 55.6888 152.08 56.0078C151.859 56.2422 151.589 56.4212 151.27 56.5449C150.951 56.6686 150.586 56.7305 150.176 56.7305C149.785 56.7305 149.434 56.6751 149.121 56.5645C148.809 56.4473 148.542 56.278 148.32 56.0566C148.079 55.8223 147.884 55.526 147.734 55.168C147.585 54.8034 147.48 54.3835 147.422 53.9082L152.949 49.6797C152.949 49.862 152.949 50.0931 152.949 50.373C152.949 50.6465 152.949 50.832 152.949 50.9297V52.9414ZM163.711 58V43.7812H163.564L158.184 45.8516V47.502L161.904 46.0859V58H163.711ZM178.789 52.5605V49.2305C178.789 48.3255 178.685 47.5247 178.477 46.8281C178.268 46.125 177.969 45.5326 177.578 45.0508C177.181 44.569 176.696 44.2044 176.123 43.957C175.557 43.7031 174.909 43.5762 174.18 43.5762C173.457 43.5762 172.809 43.7031 172.236 43.957C171.67 44.2044 171.191 44.569 170.801 45.0508C170.404 45.5326 170.101 46.125 169.893 46.8281C169.684 47.5247 169.58 48.3255 169.58 49.2305V52.5605C169.58 53.4655 169.684 54.2695 169.893 54.9727C170.101 55.6693 170.404 56.2552 170.801 56.7305C171.198 57.2188 171.683 57.5866 172.256 57.834C172.829 58.0749 173.477 58.1953 174.199 58.1953C174.928 58.1953 175.576 58.0716 176.143 57.8242C176.709 57.5768 177.188 57.2122 177.578 56.7305C177.969 56.2552 178.268 55.6693 178.477 54.9727C178.685 54.2695 178.789 53.4655 178.789 52.5605ZM171.396 52.1992C171.396 52.0299 171.396 51.8639 171.396 51.7012C171.396 51.5384 171.396 51.3757 171.396 51.2129V48.8301C171.396 48.166 171.462 47.5833 171.592 47.082C171.729 46.5742 171.934 46.1608 172.207 45.8418C172.435 45.5879 172.712 45.3958 173.037 45.2656C173.369 45.1289 173.75 45.0605 174.18 45.0605C174.603 45.0605 174.974 45.1224 175.293 45.2461C175.618 45.3698 175.892 45.5553 176.113 45.8027C176.341 46.0436 176.52 46.3464 176.65 46.7109C176.787 47.069 176.882 47.4824 176.934 47.9512L171.396 52.1992ZM176.973 52.9414C176.973 53.638 176.901 54.2435 176.758 54.7578C176.621 55.2721 176.403 55.6888 176.104 56.0078C175.882 56.2422 175.612 56.4212 175.293 56.5449C174.974 56.6686 174.609 56.7305 174.199 56.7305C173.809 56.7305 173.457 56.6751 173.145 56.5645C172.832 56.4473 172.565 56.278 172.344 56.0566C172.103 55.8223 171.908 55.526 171.758 55.168C171.608 54.8034 171.504 54.3835 171.445 53.9082L176.973 49.6797C176.973 49.862 176.973 50.0931 176.973 50.373C176.973 50.6465 176.973 50.832 176.973 50.9297V52.9414ZM187.734 58V43.7812H187.588L182.207 45.8516V47.502L185.928 46.0859V58H187.734ZM202.812 52.5605V49.2305C202.812 48.3255 202.708 47.5247 202.5 46.8281C202.292 46.125 201.992 45.5326 201.602 45.0508C201.204 44.569 200.719 44.2044 200.146 43.957C199.58 43.7031 198.932 43.5762 198.203 43.5762C197.48 43.5762 196.833 43.7031 196.26 43.957C195.693 44.2044 195.215 44.569 194.824 45.0508C194.427 45.5326 194.124 46.125 193.916 46.8281C193.708 47.5247 193.604 48.3255 193.604 49.2305V52.5605C193.604 53.4655 193.708 54.2695 193.916 54.9727C194.124 55.6693 194.427 56.2552 194.824 56.7305C195.221 57.2188 195.706 57.5866 196.279 57.834C196.852 58.0749 197.5 58.1953 198.223 58.1953C198.952 58.1953 199.6 58.0716 200.166 57.8242C200.732 57.5768 201.211 57.2122 201.602 56.7305C201.992 56.2552 202.292 55.6693 202.5 54.9727C202.708 54.2695 202.812 53.4655 202.812 52.5605ZM195.42 52.1992C195.42 52.0299 195.42 51.8639 195.42 51.7012C195.42 51.5384 195.42 51.3757 195.42 51.2129V48.8301C195.42 48.166 195.485 47.5833 195.615 47.082C195.752 46.5742 195.957 46.1608 196.23 45.8418C196.458 45.5879 196.735 45.3958 197.061 45.2656C197.393 45.1289 197.773 45.0605 198.203 45.0605C198.626 45.0605 198.997 45.1224 199.316 45.2461C199.642 45.3698 199.915 45.5553 200.137 45.8027C200.365 46.0436 200.544 46.3464 200.674 46.7109C200.811 47.069 200.905 47.4824 200.957 47.9512L195.42 52.1992ZM200.996 52.9414C200.996 53.638 200.924 54.2435 200.781 54.7578C200.645 55.2721 200.426 55.6888 200.127 56.0078C199.906 56.2422 199.635 56.4212 199.316 56.5449C198.997 56.6686 198.633 56.7305 198.223 56.7305C197.832 56.7305 197.48 56.6751 197.168 56.5645C196.855 56.4473 196.589 56.278 196.367 56.0566C196.126 55.8223 195.931 55.526 195.781 55.168C195.632 54.8034 195.527 54.3835 195.469 53.9082L200.996 49.6797C200.996 49.862 200.996 50.0931 200.996 50.373C200.996 50.6465 200.996 50.832 200.996 50.9297V52.9414ZM214.824 52.5605V49.2305C214.824 48.3255 214.72 47.5247 214.512 46.8281C214.303 46.125 214.004 45.5326 213.613 45.0508C213.216 44.569 212.731 44.2044 212.158 43.957C211.592 43.7031 210.944 43.5762 210.215 43.5762C209.492 43.5762 208.844 43.7031 208.271 43.957C207.705 44.2044 207.227 44.569 206.836 45.0508C206.439 45.5326 206.136 46.125 205.928 46.8281C205.719 47.5247 205.615 48.3255 205.615 49.2305V52.5605C205.615 53.4655 205.719 54.2695 205.928 54.9727C206.136 55.6693 206.439 56.2552 206.836 56.7305C207.233 57.2188 207.718 57.5866 208.291 57.834C208.864 58.0749 209.512 58.1953 210.234 58.1953C210.964 58.1953 211.611 58.0716 212.178 57.8242C212.744 57.5768 213.223 57.2122 213.613 56.7305C214.004 56.2552 214.303 55.6693 214.512 54.9727C214.72 54.2695 214.824 53.4655 214.824 52.5605ZM207.432 52.1992C207.432 52.0299 207.432 51.8639 207.432 51.7012C207.432 51.5384 207.432 51.3757 207.432 51.2129V48.8301C207.432 48.166 207.497 47.5833 207.627 47.082C207.764 46.5742 207.969 46.1608 208.242 45.8418C208.47 45.5879 208.747 45.3958 209.072 45.2656C209.404 45.1289 209.785 45.0605 210.215 45.0605C210.638 45.0605 211.009 45.1224 211.328 45.2461C211.654 45.3698 211.927 45.5553 212.148 45.8027C212.376 46.0436 212.555 46.3464 212.686 46.7109C212.822 47.069 212.917 47.4824 212.969 47.9512L207.432 52.1992ZM213.008 52.9414C213.008 53.638 212.936 54.2435 212.793 54.7578C212.656 55.2721 212.438 55.6888 212.139 56.0078C211.917 56.2422 211.647 56.4212 211.328 56.5449C211.009 56.6686 210.645 56.7305 210.234 56.7305C209.844 56.7305 209.492 56.6751 209.18 56.5645C208.867 56.4473 208.6 56.278 208.379 56.0566C208.138 55.8223 207.943 55.526 207.793 55.168C207.643 54.8034 207.539 54.3835 207.48 53.9082L213.008 49.6797C213.008 49.862 213.008 50.0931 213.008 50.373C213.008 50.6465 213.008 50.832 213.008 50.9297V52.9414ZM226.836 52.5605V49.2305C226.836 48.3255 226.732 47.5247 226.523 46.8281C226.315 46.125 226.016 45.5326 225.625 45.0508C225.228 44.569 224.743 44.2044 224.17 43.957C223.604 43.7031 222.956 43.5762 222.227 43.5762C221.504 43.5762 220.856 43.7031 220.283 43.957C219.717 44.2044 219.238 44.569 218.848 45.0508C218.451 45.5326 218.148 46.125 217.939 46.8281C217.731 47.5247 217.627 48.3255 217.627 49.2305V52.5605C217.627 53.4655 217.731 54.2695 217.939 54.9727C218.148 55.6693 218.451 56.2552 218.848 56.7305C219.245 57.2188 219.73 57.5866 220.303 57.834C220.876 58.0749 221.523 58.1953 222.246 58.1953C222.975 58.1953 223.623 58.0716 224.189 57.8242C224.756 57.5768 225.234 57.2122 225.625 56.7305C226.016 56.2552 226.315 55.6693 226.523 54.9727C226.732 54.2695 226.836 53.4655 226.836 52.5605ZM219.443 52.1992C219.443 52.0299 219.443 51.8639 219.443 51.7012C219.443 51.5384 219.443 51.3757 219.443 51.2129V48.8301C219.443 48.166 219.508 47.5833 219.639 47.082C219.775 46.5742 219.98 46.1608 220.254 45.8418C220.482 45.5879 220.758 45.3958 221.084 45.2656C221.416 45.1289 221.797 45.0605 222.227 45.0605C222.65 45.0605 223.021 45.1224 223.34 45.2461C223.665 45.3698 223.939 45.5553 224.16 45.8027C224.388 46.0436 224.567 46.3464 224.697 46.7109C224.834 47.069 224.928 47.4824 224.98 47.9512L219.443 52.1992ZM225.02 52.9414C225.02 53.638 224.948 54.2435 224.805 54.7578C224.668 55.2721 224.45 55.6888 224.15 56.0078C223.929 56.2422 223.659 56.4212 223.34 56.5449C223.021 56.6686 222.656 56.7305 222.246 56.7305C221.855 56.7305 221.504 56.6751 221.191 56.5645C220.879 56.4473 220.612 56.278 220.391 56.0566C220.15 55.8223 219.954 55.526 219.805 55.168C219.655 54.8034 219.551 54.3835 219.492 53.9082L225.02 49.6797C225.02 49.862 225.02 50.0931 225.02 50.373C225.02 50.6465 225.02 50.832 225.02 50.9297V52.9414ZM238.848 52.5605V49.2305C238.848 48.3255 238.743 47.5247 238.535 46.8281C238.327 46.125 238.027 45.5326 237.637 45.0508C237.24 44.569 236.755 44.2044 236.182 43.957C235.615 43.7031 234.967 43.5762 234.238 43.5762C233.516 43.5762 232.868 43.7031 232.295 43.957C231.729 44.2044 231.25 44.569 230.859 45.0508C230.462 45.5326 230.16 46.125 229.951 46.8281C229.743 47.5247 229.639 48.3255 229.639 49.2305V52.5605C229.639 53.4655 229.743 54.2695 229.951 54.9727C230.16 55.6693 230.462 56.2552 230.859 56.7305C231.257 57.2188 231.742 57.5866 232.314 57.834C232.887 58.0749 233.535 58.1953 234.258 58.1953C234.987 58.1953 235.635 58.0716 236.201 57.8242C236.768 57.5768 237.246 57.2122 237.637 56.7305C238.027 56.2552 238.327 55.6693 238.535 54.9727C238.743 54.2695 238.848 53.4655 238.848 52.5605ZM231.455 52.1992C231.455 52.0299 231.455 51.8639 231.455 51.7012C231.455 51.5384 231.455 51.3757 231.455 51.2129V48.8301C231.455 48.166 231.52 47.5833 231.65 47.082C231.787 46.5742 231.992 46.1608 232.266 45.8418C232.493 45.5879 232.77 45.3958 233.096 45.2656C233.428 45.1289 233.809 45.0605 234.238 45.0605C234.661 45.0605 235.033 45.1224 235.352 45.2461C235.677 45.3698 235.951 45.5553 236.172 45.8027C236.4 46.0436 236.579 46.3464 236.709 46.7109C236.846 47.069 236.94 47.4824 236.992 47.9512L231.455 52.1992ZM237.031 52.9414C237.031 53.638 236.96 54.2435 236.816 54.7578C236.68 55.2721 236.462 55.6888 236.162 56.0078C235.941 56.2422 235.671 56.4212 235.352 56.5449C235.033 56.6686 234.668 56.7305 234.258 56.7305C233.867 56.7305 233.516 56.6751 233.203 56.5645C232.891 56.4473 232.624 56.278 232.402 56.0566C232.161 55.8223 231.966 55.526 231.816 55.168C231.667 54.8034 231.562 54.3835 231.504 53.9082L237.031 49.6797C237.031 49.862 237.031 50.0931 237.031 50.373C237.031 50.6465 237.031 50.832 237.031 50.9297V52.9414ZM247.793 58V43.7812H247.646L242.266 45.8516V47.502L245.986 46.0859V58H247.793ZM262.871 52.5605V49.2305C262.871 48.3255 262.767 47.5247 262.559 46.8281C262.35 46.125 262.051 45.5326 261.66 45.0508C261.263 44.569 260.778 44.2044 260.205 43.957C259.639 43.7031 258.991 43.5762 258.262 43.5762C257.539 43.5762 256.891 43.7031 256.318 43.957C255.752 44.2044 255.273 44.569 254.883 45.0508C254.486 45.5326 254.183 46.125 253.975 46.8281C253.766 47.5247 253.662 48.3255 253.662 49.2305V52.5605C253.662 53.4655 253.766 54.2695 253.975 54.9727C254.183 55.6693 254.486 56.2552 254.883 56.7305C255.28 57.2188 255.765 57.5866 256.338 57.834C256.911 58.0749 257.559 58.1953 258.281 58.1953C259.01 58.1953 259.658 58.0716 260.225 57.8242C260.791 57.5768 261.27 57.2122 261.66 56.7305C262.051 56.2552 262.35 55.6693 262.559 54.9727C262.767 54.2695 262.871 53.4655 262.871 52.5605ZM255.479 52.1992C255.479 52.0299 255.479 51.8639 255.479 51.7012C255.479 51.5384 255.479 51.3757 255.479 51.2129V48.8301C255.479 48.166 255.544 47.5833 255.674 47.082C255.811 46.5742 256.016 46.1608 256.289 45.8418C256.517 45.5879 256.794 45.3958 257.119 45.2656C257.451 45.1289 257.832 45.0605 258.262 45.0605C258.685 45.0605 259.056 45.1224 259.375 45.2461C259.701 45.3698 259.974 45.5553 260.195 45.8027C260.423 46.0436 260.602 46.3464 260.732 46.7109C260.869 47.069 260.964 47.4824 261.016 47.9512L255.479 52.1992ZM261.055 52.9414C261.055 53.638 260.983 54.2435 260.84 54.7578C260.703 55.2721 260.485 55.6888 260.186 56.0078C259.964 56.2422 259.694 56.4212 259.375 56.5449C259.056 56.6686 258.691 56.7305 258.281 56.7305C257.891 56.7305 257.539 56.6751 257.227 56.5645C256.914 56.4473 256.647 56.278 256.426 56.0566C256.185 55.8223 255.99 55.526 255.84 55.168C255.69 54.8034 255.586 54.3835 255.527 53.9082L261.055 49.6797C261.055 49.862 261.055 50.0931 261.055 50.373C261.055 50.6465 261.055 50.832 261.055 50.9297V52.9414ZM274.883 52.5605V49.2305C274.883 48.3255 274.779 47.5247 274.57 46.8281C274.362 46.125 274.062 45.5326 273.672 45.0508C273.275 44.569 272.79 44.2044 272.217 43.957C271.65 43.7031 271.003 43.5762 270.273 43.5762C269.551 43.5762 268.903 43.7031 268.33 43.957C267.764 44.2044 267.285 44.569 266.895 45.0508C266.497 45.5326 266.195 46.125 265.986 46.8281C265.778 47.5247 265.674 48.3255 265.674 49.2305V52.5605C265.674 53.4655 265.778 54.2695 265.986 54.9727C266.195 55.6693 266.497 56.2552 266.895 56.7305C267.292 57.2188 267.777 57.5866 268.35 57.834C268.923 58.0749 269.57 58.1953 270.293 58.1953C271.022 58.1953 271.67 58.0716 272.236 57.8242C272.803 57.5768 273.281 57.2122 273.672 56.7305C274.062 56.2552 274.362 55.6693 274.57 54.9727C274.779 54.2695 274.883 53.4655 274.883 52.5605ZM267.49 52.1992C267.49 52.0299 267.49 51.8639 267.49 51.7012C267.49 51.5384 267.49 51.3757 267.49 51.2129V48.8301C267.49 48.166 267.555 47.5833 267.686 47.082C267.822 46.5742 268.027 46.1608 268.301 45.8418C268.529 45.5879 268.805 45.3958 269.131 45.2656C269.463 45.1289 269.844 45.0605 270.273 45.0605C270.697 45.0605 271.068 45.1224 271.387 45.2461C271.712 45.3698 271.986 45.5553 272.207 45.8027C272.435 46.0436 272.614 46.3464 272.744 46.7109C272.881 47.069 272.975 47.4824 273.027 47.9512L267.49 52.1992ZM273.066 52.9414C273.066 53.638 272.995 54.2435 272.852 54.7578C272.715 55.2721 272.497 55.6888 272.197 56.0078C271.976 56.2422 271.706 56.4212 271.387 56.5449C271.068 56.6686 270.703 56.7305 270.293 56.7305C269.902 56.7305 269.551 56.6751 269.238 56.5645C268.926 56.4473 268.659 56.278 268.438 56.0566C268.197 55.8223 268.001 55.526 267.852 55.168C267.702 54.8034 267.598 54.3835 267.539 53.9082L273.066 49.6797C273.066 49.862 273.066 50.0931 273.066 50.373C273.066 50.6465 273.066 50.832 273.066 50.9297V52.9414ZM283.828 58V43.7812H283.682L278.301 45.8516V47.502L282.021 46.0859V58H283.828ZM7.55859 86V71.7812H7.41211L2.03125 73.8516V75.502L5.75195 74.0859V86H7.55859ZM22.6367 80.5605V77.2305C22.6367 76.3255 22.5326 75.5247 22.3242 74.8281C22.1159 74.125 21.8164 73.5326 21.4258 73.0508C21.0286 72.569 20.5436 72.2044 19.9707 71.957C19.4043 71.7031 18.7565 71.5762 18.0273 71.5762C17.3047 71.5762 16.6569 71.7031 16.084 71.957C15.5176 72.2044 15.0391 72.569 14.6484 73.0508C14.2513 73.5326 13.9486 74.125 13.7402 74.8281C13.5319 75.5247 13.4277 76.3255 13.4277 77.2305V80.5605C13.4277 81.4655 13.5319 82.2695 13.7402 82.9727C13.9486 83.6693 14.2513 84.2552 14.6484 84.7305C15.0456 85.2188 15.5306 85.5866 16.1035 85.834C16.6764 86.0749 17.3242 86.1953 18.0469 86.1953C18.776 86.1953 19.4238 86.0716 19.9902 85.8242C20.5566 85.5768 21.0352 85.2122 21.4258 84.7305C21.8164 84.2552 22.1159 83.6693 22.3242 82.9727C22.5326 82.2695 22.6367 81.4655 22.6367 80.5605ZM15.2441 80.1992C15.2441 80.0299 15.2441 79.8639 15.2441 79.7012C15.2441 79.5384 15.2441 79.3757 15.2441 79.2129V76.8301C15.2441 76.166 15.3092 75.5833 15.4395 75.082C15.5762 74.5742 15.7812 74.1608 16.0547 73.8418C16.2826 73.5879 16.5592 73.3958 16.8848 73.2656C17.2168 73.1289 17.5977 73.0605 18.0273 73.0605C18.4505 73.0605 18.8216 73.1224 19.1406 73.2461C19.4661 73.3698 19.7396 73.5553 19.9609 73.8027C20.1888 74.0436 20.3678 74.3464 20.498 74.7109C20.6348 75.069 20.7292 75.4824 20.7812 75.9512L15.2441 80.1992ZM20.8203 80.9414C20.8203 81.638 20.7487 82.2435 20.6055 82.7578C20.4688 83.2721 20.2507 83.6888 19.9512 84.0078C19.7298 84.2422 19.4596 84.4212 19.1406 84.5449C18.8216 84.6686 18.457 84.7305 18.0469 84.7305C17.6562 84.7305 17.3047 84.6751 16.9922 84.5645C16.6797 84.4473 16.4128 84.278 16.1914 84.0566C15.9505 83.8223 15.7552 83.526 15.6055 83.168C15.4557 82.8034 15.3516 82.3835 15.293 81.9082L20.8203 77.6797C20.8203 77.862 20.8203 78.0931 20.8203 78.373C20.8203 78.6465 20.8203 78.832 20.8203 78.9297V80.9414ZM31.582 86V71.7812H31.4355L26.0547 73.8516V75.502L29.7754 74.0859V86H31.582ZM46.6602 80.5605V77.2305C46.6602 76.3255 46.556 75.5247 46.3477 74.8281C46.1393 74.125 45.8398 73.5326 45.4492 73.0508C45.0521 72.569 44.5671 72.2044 43.9941 71.957C43.4277 71.7031 42.7799 71.5762 42.0508 71.5762C41.3281 71.5762 40.6803 71.7031 40.1074 71.957C39.541 72.2044 39.0625 72.569 38.6719 73.0508C38.2747 73.5326 37.972 74.125 37.7637 74.8281C37.5553 75.5247 37.4512 76.3255 37.4512 77.2305V80.5605C37.4512 81.4655 37.5553 82.2695 37.7637 82.9727C37.972 83.6693 38.2747 84.2552 38.6719 84.7305C39.069 85.2188 39.554 85.5866 40.127 85.834C40.6999 86.0749 41.3477 86.1953 42.0703 86.1953C42.7995 86.1953 43.4473 86.0716 44.0137 85.8242C44.5801 85.5768 45.0586 85.2122 45.4492 84.7305C45.8398 84.2552 46.1393 83.6693 46.3477 82.9727C46.556 82.2695 46.6602 81.4655 46.6602 80.5605ZM39.2676 80.1992C39.2676 80.0299 39.2676 79.8639 39.2676 79.7012C39.2676 79.5384 39.2676 79.3757 39.2676 79.2129V76.8301C39.2676 76.166 39.3327 75.5833 39.4629 75.082C39.5996 74.5742 39.8047 74.1608 40.0781 73.8418C40.306 73.5879 40.5827 73.3958 40.9082 73.2656C41.2402 73.1289 41.6211 73.0605 42.0508 73.0605C42.474 73.0605 42.8451 73.1224 43.1641 73.2461C43.4896 73.3698 43.763 73.5553 43.9844 73.8027C44.2122 74.0436 44.3913 74.3464 44.5215 74.7109C44.6582 75.069 44.7526 75.4824 44.8047 75.9512L39.2676 80.1992ZM44.8438 80.9414C44.8438 81.638 44.7721 82.2435 44.6289 82.7578C44.4922 83.2721 44.2741 83.6888 43.9746 84.0078C43.7533 84.2422 43.4831 84.4212 43.1641 84.5449C42.8451 84.6686 42.4805 84.7305 42.0703 84.7305C41.6797 84.7305 41.3281 84.6751 41.0156 84.5645C40.7031 84.4473 40.4362 84.278 40.2148 84.0566C39.974 83.8223 39.7786 83.526 39.6289 83.168C39.4792 82.8034 39.375 82.3835 39.3164 81.9082L44.8438 77.6797C44.8438 77.862 44.8438 78.0931 44.8438 78.373C44.8438 78.6465 44.8438 78.832 44.8438 78.9297V80.9414ZM55.6055 86V71.7812H55.459L50.0781 73.8516V75.502L53.7988 74.0859V86H55.6055ZM70.6836 80.5605V77.2305C70.6836 76.3255 70.5794 75.5247 70.3711 74.8281C70.1628 74.125 69.8633 73.5326 69.4727 73.0508C69.0755 72.569 68.5905 72.2044 68.0176 71.957C67.4512 71.7031 66.8034 71.5762 66.0742 71.5762C65.3516 71.5762 64.7038 71.7031 64.1309 71.957C63.5645 72.2044 63.0859 72.569 62.6953 73.0508C62.2982 73.5326 61.9954 74.125 61.7871 74.8281C61.5788 75.5247 61.4746 76.3255 61.4746 77.2305V80.5605C61.4746 81.4655 61.5788 82.2695 61.7871 82.9727C61.9954 83.6693 62.2982 84.2552 62.6953 84.7305C63.0924 85.2188 63.5775 85.5866 64.1504 85.834C64.7233 86.0749 65.3711 86.1953 66.0938 86.1953C66.8229 86.1953 67.4707 86.0716 68.0371 85.8242C68.6035 85.5768 69.082 85.2122 69.4727 84.7305C69.8633 84.2552 70.1628 83.6693 70.3711 82.9727C70.5794 82.2695 70.6836 81.4655 70.6836 80.5605ZM63.291 80.1992C63.291 80.0299 63.291 79.8639 63.291 79.7012C63.291 79.5384 63.291 79.3757 63.291 79.2129V76.8301C63.291 76.166 63.3561 75.5833 63.4863 75.082C63.623 74.5742 63.8281 74.1608 64.1016 73.8418C64.3294 73.5879 64.6061 73.3958 64.9316 73.2656C65.2637 73.1289 65.6445 73.0605 66.0742 73.0605C66.4974 73.0605 66.8685 73.1224 67.1875 73.2461C67.513 73.3698 67.7865 73.5553 68.0078 73.8027C68.2357 74.0436 68.4147 74.3464 68.5449 74.7109C68.6816 75.069 68.776 75.4824 68.8281 75.9512L63.291 80.1992ZM68.8672 80.9414C68.8672 81.638 68.7956 82.2435 68.6523 82.7578C68.5156 83.2721 68.2975 83.6888 67.998 84.0078C67.7767 84.2422 67.5065 84.4212 67.1875 84.5449C66.8685 84.6686 66.5039 84.7305 66.0938 84.7305C65.7031 84.7305 65.3516 84.6751 65.0391 84.5645C64.7266 84.4473 64.4596 84.278 64.2383 84.0566C63.9974 83.8223 63.8021 83.526 63.6523 83.168C63.5026 82.8034 63.3984 82.3835 63.3398 81.9082L68.8672 77.6797C68.8672 77.862 68.8672 78.0931 68.8672 78.373C68.8672 78.6465 68.8672 78.832 68.8672 78.9297V80.9414ZM79.6289 86V71.7812H79.4824L74.1016 73.8516V75.502L77.8223 74.0859V86H79.6289ZM94.707 80.5605V77.2305C94.707 76.3255 94.6029 75.5247 94.3945 74.8281C94.1862 74.125 93.8867 73.5326 93.4961 73.0508C93.099 72.569 92.6139 72.2044 92.041 71.957C91.4746 71.7031 90.8268 71.5762 90.0977 71.5762C89.375 71.5762 88.7272 71.7031 88.1543 71.957C87.5879 72.2044 87.1094 72.569 86.7188 73.0508C86.3216 73.5326 86.0189 74.125 85.8105 74.8281C85.6022 75.5247 85.498 76.3255 85.498 77.2305V80.5605C85.498 81.4655 85.6022 82.2695 85.8105 82.9727C86.0189 83.6693 86.3216 84.2552 86.7188 84.7305C87.1159 85.2188 87.6009 85.5866 88.1738 85.834C88.7467 86.0749 89.3945 86.1953 90.1172 86.1953C90.8464 86.1953 91.4941 86.0716 92.0605 85.8242C92.627 85.5768 93.1055 85.2122 93.4961 84.7305C93.8867 84.2552 94.1862 83.6693 94.3945 82.9727C94.6029 82.2695 94.707 81.4655 94.707 80.5605ZM87.3145 80.1992C87.3145 80.0299 87.3145 79.8639 87.3145 79.7012C87.3145 79.5384 87.3145 79.3757 87.3145 79.2129V76.8301C87.3145 76.166 87.3796 75.5833 87.5098 75.082C87.6465 74.5742 87.8516 74.1608 88.125 73.8418C88.3529 73.5879 88.6296 73.3958 88.9551 73.2656C89.2871 73.1289 89.668 73.0605 90.0977 73.0605C90.5208 73.0605 90.8919 73.1224 91.2109 73.2461C91.5365 73.3698 91.8099 73.5553 92.0312 73.8027C92.2591 74.0436 92.4382 74.3464 92.5684 74.7109C92.7051 75.069 92.7995 75.4824 92.8516 75.9512L87.3145 80.1992ZM92.8906 80.9414C92.8906 81.638 92.819 82.2435 92.6758 82.7578C92.5391 83.2721 92.321 83.6888 92.0215 84.0078C91.8001 84.2422 91.5299 84.4212 91.2109 84.5449C90.8919 84.6686 90.5273 84.7305 90.1172 84.7305C89.7266 84.7305 89.375 84.6751 89.0625 84.5645C88.75 84.4473 88.4831 84.278 88.2617 84.0566C88.0208 83.8223 87.8255 83.526 87.6758 83.168C87.526 82.8034 87.4219 82.3835 87.3633 81.9082L92.8906 77.6797C92.8906 77.862 92.8906 78.0931 92.8906 78.373C92.8906 78.6465 92.8906 78.832 92.8906 78.9297V80.9414ZM10.625 108.561V105.23C10.625 104.326 10.5208 103.525 10.3125 102.828C10.1042 102.125 9.80469 101.533 9.41406 101.051C9.01693 100.569 8.5319 100.204 7.95898 99.957C7.39258 99.7031 6.74479 99.5762 6.01562 99.5762C5.29297 99.5762 4.64518 99.7031 4.07227 99.957C3.50586 100.204 3.02734 100.569 2.63672 101.051C2.23958 101.533 1.93685 102.125 1.72852 102.828C1.52018 103.525 1.41602 104.326 1.41602 105.23V108.561C1.41602 109.465 1.52018 110.27 1.72852 110.973C1.93685 111.669 2.23958 112.255 2.63672 112.73C3.03385 113.219 3.51888 113.587 4.0918 113.834C4.66471 114.075 5.3125 114.195 6.03516 114.195C6.76432 114.195 7.41211 114.072 7.97852 113.824C8.54492 113.577 9.02344 113.212 9.41406 112.73C9.80469 112.255 10.1042 111.669 10.3125 110.973C10.5208 110.27 10.625 109.465 10.625 108.561ZM3.23242 108.199C3.23242 108.03 3.23242 107.864 3.23242 107.701C3.23242 107.538 3.23242 107.376 3.23242 107.213V104.83C3.23242 104.166 3.29753 103.583 3.42773 103.082C3.56445 102.574 3.76953 102.161 4.04297 101.842C4.27083 101.588 4.54753 101.396 4.87305 101.266C5.20508 101.129 5.58594 101.061 6.01562 101.061C6.4388 101.061 6.8099 101.122 7.12891 101.246C7.45443 101.37 7.72786 101.555 7.94922 101.803C8.17708 102.044 8.35612 102.346 8.48633 102.711C8.62305 103.069 8.71745 103.482 8.76953 103.951L3.23242 108.199ZM8.80859 108.941C8.80859 109.638 8.73698 110.243 8.59375 110.758C8.45703 111.272 8.23893 111.689 7.93945 112.008C7.7181 112.242 7.44792 112.421 7.12891 112.545C6.8099 112.669 6.44531 112.73 6.03516 112.73C5.64453 112.73 5.29297 112.675 4.98047 112.564C4.66797 112.447 4.40104 112.278 4.17969 112.057C3.9388 111.822 3.74349 111.526 3.59375 111.168C3.44401 110.803 3.33984 110.383 3.28125 109.908L8.80859 105.68C8.80859 105.862 8.80859 106.093 8.80859 106.373C8.80859 106.646 8.80859 106.832 8.80859 106.93V108.941ZM22.6367 108.561V105.23C22.6367 104.326 22.5326 103.525 22.3242 102.828C22.1159 102.125 21.8164 101.533 21.4258 101.051C21.0286 100.569 20.5436 100.204 19.9707 99.957C19.4043 99.7031 18.7565 99.5762 18.0273 99.5762C17.3047 99.5762 16.6569 99.7031 16.084 99.957C15.5176 100.204 15.0391 100.569 14.6484 101.051C14.2513 101.533 13.9486 102.125 13.7402 102.828C13.5319 103.525 13.4277 104.326 13.4277 105.23V108.561C13.4277 109.465 13.5319 110.27 13.7402 110.973C13.9486 111.669 14.2513 112.255 14.6484 112.73C15.0456 113.219 15.5306 113.587 16.1035 113.834C16.6764 114.075 17.3242 114.195 18.0469 114.195C18.776 114.195 19.4238 114.072 19.9902 113.824C20.5566 113.577 21.0352 113.212 21.4258 112.73C21.8164 112.255 22.1159 111.669 22.3242 110.973C22.5326 110.27 22.6367 109.465 22.6367 108.561ZM15.2441 108.199C15.2441 108.03 15.2441 107.864 15.2441 107.701C15.2441 107.538 15.2441 107.376 15.2441 107.213V104.83C15.2441 104.166 15.3092 103.583 15.4395 103.082C15.5762 102.574 15.7812 102.161 16.0547 101.842C16.2826 101.588 16.5592 101.396 16.8848 101.266C17.2168 101.129 17.5977 101.061 18.0273 101.061C18.4505 101.061 18.8216 101.122 19.1406 101.246C19.4661 101.37 19.7396 101.555 19.9609 101.803C20.1888 102.044 20.3678 102.346 20.498 102.711C20.6348 103.069 20.7292 103.482 20.7812 103.951L15.2441 108.199ZM20.8203 108.941C20.8203 109.638 20.7487 110.243 20.6055 110.758C20.4688 111.272 20.2507 111.689 19.9512 112.008C19.7298 112.242 19.4596 112.421 19.1406 112.545C18.8216 112.669 18.457 112.73 18.0469 112.73C17.6562 112.73 17.3047 112.675 16.9922 112.564C16.6797 112.447 16.4128 112.278 16.1914 112.057C15.9505 111.822 15.7552 111.526 15.6055 111.168C15.4557 110.803 15.3516 110.383 15.293 109.908L20.8203 105.68C20.8203 105.862 20.8203 106.093 20.8203 106.373C20.8203 106.646 20.8203 106.832 20.8203 106.93V108.941ZM31.582 114V99.7812H31.4355L26.0547 101.852V103.502L29.7754 102.086V114H31.582ZM46.6602 108.561V105.23C46.6602 104.326 46.556 103.525 46.3477 102.828C46.1393 102.125 45.8398 101.533 45.4492 101.051C45.0521 100.569 44.5671 100.204 43.9941 99.957C43.4277 99.7031 42.7799 99.5762 42.0508 99.5762C41.3281 99.5762 40.6803 99.7031 40.1074 99.957C39.541 100.204 39.0625 100.569 38.6719 101.051C38.2747 101.533 37.972 102.125 37.7637 102.828C37.5553 103.525 37.4512 104.326 37.4512 105.23V108.561C37.4512 109.465 37.5553 110.27 37.7637 110.973C37.972 111.669 38.2747 112.255 38.6719 112.73C39.069 113.219 39.554 113.587 40.127 113.834C40.6999 114.075 41.3477 114.195 42.0703 114.195C42.7995 114.195 43.4473 114.072 44.0137 113.824C44.5801 113.577 45.0586 113.212 45.4492 112.73C45.8398 112.255 46.1393 111.669 46.3477 110.973C46.556 110.27 46.6602 109.465 46.6602 108.561ZM39.2676 108.199C39.2676 108.03 39.2676 107.864 39.2676 107.701C39.2676 107.538 39.2676 107.376 39.2676 107.213V104.83C39.2676 104.166 39.3327 103.583 39.4629 103.082C39.5996 102.574 39.8047 102.161 40.0781 101.842C40.306 101.588 40.5827 101.396 40.9082 101.266C41.2402 101.129 41.6211 101.061 42.0508 101.061C42.474 101.061 42.8451 101.122 43.1641 101.246C43.4896 101.37 43.763 101.555 43.9844 101.803C44.2122 102.044 44.3913 102.346 44.5215 102.711C44.6582 103.069 44.7526 103.482 44.8047 103.951L39.2676 108.199ZM44.8438 108.941C44.8438 109.638 44.7721 110.243 44.6289 110.758C44.4922 111.272 44.2741 111.689 43.9746 112.008C43.7533 112.242 43.4831 112.421 43.1641 112.545C42.8451 112.669 42.4805 112.73 42.0703 112.73C41.6797 112.73 41.3281 112.675 41.0156 112.564C40.7031 112.447 40.4362 112.278 40.2148 112.057C39.974 111.822 39.7786 111.526 39.6289 111.168C39.4792 110.803 39.375 110.383 39.3164 109.908L44.8438 105.68C44.8438 105.862 44.8438 106.093 44.8438 106.373C44.8438 106.646 44.8438 106.832 44.8438 106.93V108.941ZM58.6719 108.561V105.23C58.6719 104.326 58.5677 103.525 58.3594 102.828C58.151 102.125 57.8516 101.533 57.4609 101.051C57.0638 100.569 56.5788 100.204 56.0059 99.957C55.4395 99.7031 54.7917 99.5762 54.0625 99.5762C53.3398 99.5762 52.6921 99.7031 52.1191 99.957C51.5527 100.204 51.0742 100.569 50.6836 101.051C50.2865 101.533 49.9837 102.125 49.7754 102.828C49.5671 103.525 49.4629 104.326 49.4629 105.23V108.561C49.4629 109.465 49.5671 110.27 49.7754 110.973C49.9837 111.669 50.2865 112.255 50.6836 112.73C51.0807 113.219 51.5658 113.587 52.1387 113.834C52.7116 114.075 53.3594 114.195 54.082 114.195C54.8112 114.195 55.459 114.072 56.0254 113.824C56.5918 113.577 57.0703 113.212 57.4609 112.73C57.8516 112.255 58.151 111.669 58.3594 110.973C58.5677 110.27 58.6719 109.465 58.6719 108.561ZM51.2793 108.199C51.2793 108.03 51.2793 107.864 51.2793 107.701C51.2793 107.538 51.2793 107.376 51.2793 107.213V104.83C51.2793 104.166 51.3444 103.583 51.4746 103.082C51.6113 102.574 51.8164 102.161 52.0898 101.842C52.3177 101.588 52.5944 101.396 52.9199 101.266C53.252 101.129 53.6328 101.061 54.0625 101.061C54.4857 101.061 54.8568 101.122 55.1758 101.246C55.5013 101.37 55.7747 101.555 55.9961 101.803C56.224 102.044 56.403 102.346 56.5332 102.711C56.6699 103.069 56.7643 103.482 56.8164 103.951L51.2793 108.199ZM56.8555 108.941C56.8555 109.638 56.7839 110.243 56.6406 110.758C56.5039 111.272 56.2858 111.689 55.9863 112.008C55.765 112.242 55.4948 112.421 55.1758 112.545C54.8568 112.669 54.4922 112.73 54.082 112.73C53.6914 112.73 53.3398 112.675 53.0273 112.564C52.7148 112.447 52.4479 112.278 52.2266 112.057C51.9857 111.822 51.7904 111.526 51.6406 111.168C51.4909 110.803 51.3867 110.383 51.3281 109.908L56.8555 105.68C56.8555 105.862 56.8555 106.093 56.8555 106.373C56.8555 106.646 56.8555 106.832 56.8555 106.93V108.941ZM67.6172 114V99.7812H67.4707L62.0898 101.852V103.502L65.8105 102.086V114H67.6172ZM82.6953 108.561V105.23C82.6953 104.326 82.5911 103.525 82.3828 102.828C82.1745 102.125 81.875 101.533 81.4844 101.051C81.0872 100.569 80.6022 100.204 80.0293 99.957C79.4629 99.7031 78.8151 99.5762 78.0859 99.5762C77.3633 99.5762 76.7155 99.7031 76.1426 99.957C75.5762 100.204 75.0977 100.569 74.707 101.051C74.3099 101.533 74.0072 102.125 73.7988 102.828C73.5905 103.525 73.4863 104.326 73.4863 105.23V108.561C73.4863 109.465 73.5905 110.27 73.7988 110.973C74.0072 111.669 74.3099 112.255 74.707 112.73C75.1042 113.219 75.5892 113.587 76.1621 113.834C76.735 114.075 77.3828 114.195 78.1055 114.195C78.8346 114.195 79.4824 114.072 80.0488 113.824C80.6152 113.577 81.0938 113.212 81.4844 112.73C81.875 112.255 82.1745 111.669 82.3828 110.973C82.5911 110.27 82.6953 109.465 82.6953 108.561ZM75.3027 108.199C75.3027 108.03 75.3027 107.864 75.3027 107.701C75.3027 107.538 75.3027 107.376 75.3027 107.213V104.83C75.3027 104.166 75.3678 103.583 75.498 103.082C75.6348 102.574 75.8398 102.161 76.1133 101.842C76.3411 101.588 76.6178 101.396 76.9434 101.266C77.2754 101.129 77.6562 101.061 78.0859 101.061C78.5091 101.061 78.8802 101.122 79.1992 101.246C79.5247 101.37 79.7982 101.555 80.0195 101.803C80.2474 102.044 80.4264 102.346 80.5566 102.711C80.6934 103.069 80.7878 103.482 80.8398 103.951L75.3027 108.199ZM80.8789 108.941C80.8789 109.638 80.8073 110.243 80.6641 110.758C80.5273 111.272 80.3092 111.689 80.0098 112.008C79.7884 112.242 79.5182 112.421 79.1992 112.545C78.8802 112.669 78.5156 112.73 78.1055 112.73C77.7148 112.73 77.3633 112.675 77.0508 112.564C76.7383 112.447 76.4714 112.278 76.25 112.057C76.0091 111.822 75.8138 111.526 75.6641 111.168C75.5143 110.803 75.4102 110.383 75.3516 109.908L80.8789 105.68C80.8789 105.862 80.8789 106.093 80.8789 106.373C80.8789 106.646 80.8789 106.832 80.8789 106.93V108.941ZM94.707 108.561V105.23C94.707 104.326 94.6029 103.525 94.3945 102.828C94.1862 102.125 93.8867 101.533 93.4961 101.051C93.099 100.569 92.6139 100.204 92.041 99.957C91.4746 99.7031 90.8268 99.5762 90.0977 99.5762C89.375 99.5762 88.7272 99.7031 88.1543 99.957C87.5879 100.204 87.1094 100.569 86.7188 101.051C86.3216 101.533 86.0189 102.125 85.8105 102.828C85.6022 103.525 85.498 104.326 85.498 105.23V108.561C85.498 109.465 85.6022 110.27 85.8105 110.973C86.0189 111.669 86.3216 112.255 86.7188 112.73C87.1159 113.219 87.6009 113.587 88.1738 113.834C88.7467 114.075 89.3945 114.195 90.1172 114.195C90.8464 114.195 91.4941 114.072 92.0605 113.824C92.627 113.577 93.1055 113.212 93.4961 112.73C93.8867 112.255 94.1862 111.669 94.3945 110.973C94.6029 110.27 94.707 109.465 94.707 108.561ZM87.3145 108.199C87.3145 108.03 87.3145 107.864 87.3145 107.701C87.3145 107.538 87.3145 107.376 87.3145 107.213V104.83C87.3145 104.166 87.3796 103.583 87.5098 103.082C87.6465 102.574 87.8516 102.161 88.125 101.842C88.3529 101.588 88.6296 101.396 88.9551 101.266C89.2871 101.129 89.668 101.061 90.0977 101.061C90.5208 101.061 90.8919 101.122 91.2109 101.246C91.5365 101.37 91.8099 101.555 92.0312 101.803C92.2591 102.044 92.4382 102.346 92.5684 102.711C92.7051 103.069 92.7995 103.482 92.8516 103.951L87.3145 108.199ZM92.8906 108.941C92.8906 109.638 92.819 110.243 92.6758 110.758C92.5391 111.272 92.321 111.689 92.0215 112.008C91.8001 112.242 91.5299 112.421 91.2109 112.545C90.8919 112.669 90.5273 112.73 90.1172 112.73C89.7266 112.73 89.375 112.675 89.0625 112.564C88.75 112.447 88.4831 112.278 88.2617 112.057C88.0208 111.822 87.8255 111.526 87.6758 111.168C87.526 110.803 87.4219 110.383 87.3633 109.908L92.8906 105.68C92.8906 105.862 92.8906 106.093 92.8906 106.373C92.8906 106.646 92.8906 106.832 92.8906 106.93V108.941ZM103.652 114V99.7812H103.506L98.125 101.852V103.502L101.846 102.086V114H103.652ZM118.73 108.561V105.23C118.73 104.326 118.626 103.525 118.418 102.828C118.21 102.125 117.91 101.533 117.52 101.051C117.122 100.569 116.637 100.204 116.064 99.957C115.498 99.7031 114.85 99.5762 114.121 99.5762C113.398 99.5762 112.751 99.7031 112.178 99.957C111.611 100.204 111.133 100.569 110.742 101.051C110.345 101.533 110.042 102.125 109.834 102.828C109.626 103.525 109.521 104.326 109.521 105.23V108.561C109.521 109.465 109.626 110.27 109.834 110.973C110.042 111.669 110.345 112.255 110.742 112.73C111.139 113.219 111.624 113.587 112.197 113.834C112.77 114.075 113.418 114.195 114.141 114.195C114.87 114.195 115.518 114.072 116.084 113.824C116.65 113.577 117.129 113.212 117.52 112.73C117.91 112.255 118.21 111.669 118.418 110.973C118.626 110.27 118.73 109.465 118.73 108.561ZM111.338 108.199C111.338 108.03 111.338 107.864 111.338 107.701C111.338 107.538 111.338 107.376 111.338 107.213V104.83C111.338 104.166 111.403 103.583 111.533 103.082C111.67 102.574 111.875 102.161 112.148 101.842C112.376 101.588 112.653 101.396 112.979 101.266C113.311 101.129 113.691 101.061 114.121 101.061C114.544 101.061 114.915 101.122 115.234 101.246C115.56 101.37 115.833 101.555 116.055 101.803C116.283 102.044 116.462 102.346 116.592 102.711C116.729 103.069 116.823 103.482 116.875 103.951L111.338 108.199ZM116.914 108.941C116.914 109.638 116.842 110.243 116.699 110.758C116.562 111.272 116.344 111.689 116.045 112.008C115.824 112.242 115.553 112.421 115.234 112.545C114.915 112.669 114.551 112.73 114.141 112.73C113.75 112.73 113.398 112.675 113.086 112.564C112.773 112.447 112.507 112.278 112.285 112.057C112.044 111.822 111.849 111.526 111.699 111.168C111.549 110.803 111.445 110.383 111.387 109.908L116.914 105.68C116.914 105.862 116.914 106.093 116.914 106.373C116.914 106.646 116.914 106.832 116.914 106.93V108.941ZM127.676 114V99.7812H127.529L122.148 101.852V103.502L125.869 102.086V114H127.676ZM142.754 108.561V105.23C142.754 104.326 142.65 103.525 142.441 102.828C142.233 102.125 141.934 101.533 141.543 101.051C141.146 100.569 140.661 100.204 140.088 99.957C139.521 99.7031 138.874 99.5762 138.145 99.5762C137.422 99.5762 136.774 99.7031 136.201 99.957C135.635 100.204 135.156 100.569 134.766 101.051C134.368 101.533 134.066 102.125 133.857 102.828C133.649 103.525 133.545 104.326 133.545 105.23V108.561C133.545 109.465 133.649 110.27 133.857 110.973C134.066 111.669 134.368 112.255 134.766 112.73C135.163 113.219 135.648 113.587 136.221 113.834C136.794 114.075 137.441 114.195 138.164 114.195C138.893 114.195 139.541 114.072 140.107 113.824C140.674 113.577 141.152 113.212 141.543 112.73C141.934 112.255 142.233 111.669 142.441 110.973C142.65 110.27 142.754 109.465 142.754 108.561ZM135.361 108.199C135.361 108.03 135.361 107.864 135.361 107.701C135.361 107.538 135.361 107.376 135.361 107.213V104.83C135.361 104.166 135.426 103.583 135.557 103.082C135.693 102.574 135.898 102.161 136.172 101.842C136.4 101.588 136.676 101.396 137.002 101.266C137.334 101.129 137.715 101.061 138.145 101.061C138.568 101.061 138.939 101.122 139.258 101.246C139.583 101.37 139.857 101.555 140.078 101.803C140.306 102.044 140.485 102.346 140.615 102.711C140.752 103.069 140.846 103.482 140.898 103.951L135.361 108.199ZM140.938 108.941C140.938 109.638 140.866 110.243 140.723 110.758C140.586 111.272 140.368 111.689 140.068 112.008C139.847 112.242 139.577 112.421 139.258 112.545C138.939 112.669 138.574 112.73 138.164 112.73C137.773 112.73 137.422 112.675 137.109 112.564C136.797 112.447 136.53 112.278 136.309 112.057C136.068 111.822 135.872 111.526 135.723 111.168C135.573 110.803 135.469 110.383 135.41 109.908L140.938 105.68C140.938 105.862 140.938 106.093 140.938 106.373C140.938 106.646 140.938 106.832 140.938 106.93V108.941ZM151.699 114V99.7812H151.553L146.172 101.852V103.502L149.893 102.086V114H151.699ZM166.777 108.561V105.23C166.777 104.326 166.673 103.525 166.465 102.828C166.257 102.125 165.957 101.533 165.566 101.051C165.169 100.569 164.684 100.204 164.111 99.957C163.545 99.7031 162.897 99.5762 162.168 99.5762C161.445 99.5762 160.798 99.7031 160.225 99.957C159.658 100.204 159.18 100.569 158.789 101.051C158.392 101.533 158.089 102.125 157.881 102.828C157.673 103.525 157.568 104.326 157.568 105.23V108.561C157.568 109.465 157.673 110.27 157.881 110.973C158.089 111.669 158.392 112.255 158.789 112.73C159.186 113.219 159.671 113.587 160.244 113.834C160.817 114.075 161.465 114.195 162.188 114.195C162.917 114.195 163.564 114.072 164.131 113.824C164.697 113.577 165.176 113.212 165.566 112.73C165.957 112.255 166.257 111.669 166.465 110.973C166.673 110.27 166.777 109.465 166.777 108.561ZM159.385 108.199C159.385 108.03 159.385 107.864 159.385 107.701C159.385 107.538 159.385 107.376 159.385 107.213V104.83C159.385 104.166 159.45 103.583 159.58 103.082C159.717 102.574 159.922 102.161 160.195 101.842C160.423 101.588 160.7 101.396 161.025 101.266C161.357 101.129 161.738 101.061 162.168 101.061C162.591 101.061 162.962 101.122 163.281 101.246C163.607 101.37 163.88 101.555 164.102 101.803C164.329 102.044 164.508 102.346 164.639 102.711C164.775 103.069 164.87 103.482 164.922 103.951L159.385 108.199ZM164.961 108.941C164.961 109.638 164.889 110.243 164.746 110.758C164.609 111.272 164.391 111.689 164.092 112.008C163.87 112.242 163.6 112.421 163.281 112.545C162.962 112.669 162.598 112.73 162.188 112.73C161.797 112.73 161.445 112.675 161.133 112.564C160.82 112.447 160.553 112.278 160.332 112.057C160.091 111.822 159.896 111.526 159.746 111.168C159.596 110.803 159.492 110.383 159.434 109.908L164.961 105.68C164.961 105.862 164.961 106.093 164.961 106.373C164.961 106.646 164.961 106.832 164.961 106.93V108.941ZM175.723 114V99.7812H175.576L170.195 101.852V103.502L173.916 102.086V114H175.723ZM190.801 108.561V105.23C190.801 104.326 190.697 103.525 190.488 102.828C190.28 102.125 189.98 101.533 189.59 101.051C189.193 100.569 188.708 100.204 188.135 99.957C187.568 99.7031 186.921 99.5762 186.191 99.5762C185.469 99.5762 184.821 99.7031 184.248 99.957C183.682 100.204 183.203 100.569 182.812 101.051C182.415 101.533 182.113 102.125 181.904 102.828C181.696 103.525 181.592 104.326 181.592 105.23V108.561C181.592 109.465 181.696 110.27 181.904 110.973C182.113 111.669 182.415 112.255 182.812 112.73C183.21 113.219 183.695 113.587 184.268 113.834C184.84 114.075 185.488 114.195 186.211 114.195C186.94 114.195 187.588 114.072 188.154 113.824C188.721 113.577 189.199 113.212 189.59 112.73C189.98 112.255 190.28 111.669 190.488 110.973C190.697 110.27 190.801 109.465 190.801 108.561ZM183.408 108.199C183.408 108.03 183.408 107.864 183.408 107.701C183.408 107.538 183.408 107.376 183.408 107.213V104.83C183.408 104.166 183.473 103.583 183.604 103.082C183.74 102.574 183.945 102.161 184.219 101.842C184.447 101.588 184.723 101.396 185.049 101.266C185.381 101.129 185.762 101.061 186.191 101.061C186.615 101.061 186.986 101.122 187.305 101.246C187.63 101.37 187.904 101.555 188.125 101.803C188.353 102.044 188.532 102.346 188.662 102.711C188.799 103.069 188.893 103.482 188.945 103.951L183.408 108.199ZM188.984 108.941C188.984 109.638 188.913 110.243 188.77 110.758C188.633 111.272 188.415 111.689 188.115 112.008C187.894 112.242 187.624 112.421 187.305 112.545C186.986 112.669 186.621 112.73 186.211 112.73C185.82 112.73 185.469 112.675 185.156 112.564C184.844 112.447 184.577 112.278 184.355 112.057C184.115 111.822 183.919 111.526 183.77 111.168C183.62 110.803 183.516 110.383 183.457 109.908L188.984 105.68C188.984 105.862 188.984 106.093 188.984 106.373C188.984 106.646 188.984 106.832 188.984 106.93V108.941ZM202.812 108.561V105.23C202.812 104.326 202.708 103.525 202.5 102.828C202.292 102.125 201.992 101.533 201.602 101.051C201.204 100.569 200.719 100.204 200.146 99.957C199.58 99.7031 198.932 99.5762 198.203 99.5762C197.48 99.5762 196.833 99.7031 196.26 99.957C195.693 100.204 195.215 100.569 194.824 101.051C194.427 101.533 194.124 102.125 193.916 102.828C193.708 103.525 193.604 104.326 193.604 105.23V108.561C193.604 109.465 193.708 110.27 193.916 110.973C194.124 111.669 194.427 112.255 194.824 112.73C195.221 113.219 195.706 113.587 196.279 113.834C196.852 114.075 197.5 114.195 198.223 114.195C198.952 114.195 199.6 114.072 200.166 113.824C200.732 113.577 201.211 113.212 201.602 112.73C201.992 112.255 202.292 111.669 202.5 110.973C202.708 110.27 202.812 109.465 202.812 108.561ZM195.42 108.199C195.42 108.03 195.42 107.864 195.42 107.701C195.42 107.538 195.42 107.376 195.42 107.213V104.83C195.42 104.166 195.485 103.583 195.615 103.082C195.752 102.574 195.957 102.161 196.23 101.842C196.458 101.588 196.735 101.396 197.061 101.266C197.393 101.129 197.773 101.061 198.203 101.061C198.626 101.061 198.997 101.122 199.316 101.246C199.642 101.37 199.915 101.555 200.137 101.803C200.365 102.044 200.544 102.346 200.674 102.711C200.811 103.069 200.905 103.482 200.957 103.951L195.42 108.199ZM200.996 108.941C200.996 109.638 200.924 110.243 200.781 110.758C200.645 111.272 200.426 111.689 200.127 112.008C199.906 112.242 199.635 112.421 199.316 112.545C198.997 112.669 198.633 112.73 198.223 112.73C197.832 112.73 197.48 112.675 197.168 112.564C196.855 112.447 196.589 112.278 196.367 112.057C196.126 111.822 195.931 111.526 195.781 111.168C195.632 110.803 195.527 110.383 195.469 109.908L200.996 105.68C200.996 105.862 200.996 106.093 200.996 106.373C200.996 106.646 200.996 106.832 200.996 106.93V108.941ZM211.758 114V99.7812H211.611L206.23 101.852V103.502L209.951 102.086V114H211.758ZM226.836 108.561V105.23C226.836 104.326 226.732 103.525 226.523 102.828C226.315 102.125 226.016 101.533 225.625 101.051C225.228 100.569 224.743 100.204 224.17 99.957C223.604 99.7031 222.956 99.5762 222.227 99.5762C221.504 99.5762 220.856 99.7031 220.283 99.957C219.717 100.204 219.238 100.569 218.848 101.051C218.451 101.533 218.148 102.125 217.939 102.828C217.731 103.525 217.627 104.326 217.627 105.23V108.561C217.627 109.465 217.731 110.27 217.939 110.973C218.148 111.669 218.451 112.255 218.848 112.73C219.245 113.219 219.73 113.587 220.303 113.834C220.876 114.075 221.523 114.195 222.246 114.195C222.975 114.195 223.623 114.072 224.189 113.824C224.756 113.577 225.234 113.212 225.625 112.73C226.016 112.255 226.315 111.669 226.523 110.973C226.732 110.27 226.836 109.465 226.836 108.561ZM219.443 108.199C219.443 108.03 219.443 107.864 219.443 107.701C219.443 107.538 219.443 107.376 219.443 107.213V104.83C219.443 104.166 219.508 103.583 219.639 103.082C219.775 102.574 219.98 102.161 220.254 101.842C220.482 101.588 220.758 101.396 221.084 101.266C221.416 101.129 221.797 101.061 222.227 101.061C222.65 101.061 223.021 101.122 223.34 101.246C223.665 101.37 223.939 101.555 224.16 101.803C224.388 102.044 224.567 102.346 224.697 102.711C224.834 103.069 224.928 103.482 224.98 103.951L219.443 108.199ZM225.02 108.941C225.02 109.638 224.948 110.243 224.805 110.758C224.668 111.272 224.45 111.689 224.15 112.008C223.929 112.242 223.659 112.421 223.34 112.545C223.021 112.669 222.656 112.73 222.246 112.73C221.855 112.73 221.504 112.675 221.191 112.564C220.879 112.447 220.612 112.278 220.391 112.057C220.15 111.822 219.954 111.526 219.805 111.168C219.655 110.803 219.551 110.383 219.492 109.908L225.02 105.68C225.02 105.862 225.02 106.093 225.02 106.373C225.02 106.646 225.02 106.832 225.02 106.93V108.941ZM238.848 108.561V105.23C238.848 104.326 238.743 103.525 238.535 102.828C238.327 102.125 238.027 101.533 237.637 101.051C237.24 100.569 236.755 100.204 236.182 99.957C235.615 99.7031 234.967 99.5762 234.238 99.5762C233.516 99.5762 232.868 99.7031 232.295 99.957C231.729 100.204 231.25 100.569 230.859 101.051C230.462 101.533 230.16 102.125 229.951 102.828C229.743 103.525 229.639 104.326 229.639 105.23V108.561C229.639 109.465 229.743 110.27 229.951 110.973C230.16 111.669 230.462 112.255 230.859 112.73C231.257 113.219 231.742 113.587 232.314 113.834C232.887 114.075 233.535 114.195 234.258 114.195C234.987 114.195 235.635 114.072 236.201 113.824C236.768 113.577 237.246 113.212 237.637 112.73C238.027 112.255 238.327 111.669 238.535 110.973C238.743 110.27 238.848 109.465 238.848 108.561ZM231.455 108.199C231.455 108.03 231.455 107.864 231.455 107.701C231.455 107.538 231.455 107.376 231.455 107.213V104.83C231.455 104.166 231.52 103.583 231.65 103.082C231.787 102.574 231.992 102.161 232.266 101.842C232.493 101.588 232.77 101.396 233.096 101.266C233.428 101.129 233.809 101.061 234.238 101.061C234.661 101.061 235.033 101.122 235.352 101.246C235.677 101.37 235.951 101.555 236.172 101.803C236.4 102.044 236.579 102.346 236.709 102.711C236.846 103.069 236.94 103.482 236.992 103.951L231.455 108.199ZM237.031 108.941C237.031 109.638 236.96 110.243 236.816 110.758C236.68 111.272 236.462 111.689 236.162 112.008C235.941 112.242 235.671 112.421 235.352 112.545C235.033 112.669 234.668 112.73 234.258 112.73C233.867 112.73 233.516 112.675 233.203 112.564C232.891 112.447 232.624 112.278 232.402 112.057C232.161 111.822 231.966 111.526 231.816 111.168C231.667 110.803 231.562 110.383 231.504 109.908L237.031 105.68C237.031 105.862 237.031 106.093 237.031 106.373C237.031 106.646 237.031 106.832 237.031 106.93V108.941ZM247.793 114V99.7812H247.646L242.266 101.852V103.502L245.986 102.086V114H247.793ZM262.871 108.561V105.23C262.871 104.326 262.767 103.525 262.559 102.828C262.35 102.125 262.051 101.533 261.66 101.051C261.263 100.569 260.778 100.204 260.205 99.957C259.639 99.7031 258.991 99.5762 258.262 99.5762C257.539 99.5762 256.891 99.7031 256.318 99.957C255.752 100.204 255.273 100.569 254.883 101.051C254.486 101.533 254.183 102.125 253.975 102.828C253.766 103.525 253.662 104.326 253.662 105.23V108.561C253.662 109.465 253.766 110.27 253.975 110.973C254.183 111.669 254.486 112.255 254.883 112.73C255.28 113.219 255.765 113.587 256.338 113.834C256.911 114.075 257.559 114.195 258.281 114.195C259.01 114.195 259.658 114.072 260.225 113.824C260.791 113.577 261.27 113.212 261.66 112.73C262.051 112.255 262.35 111.669 262.559 110.973C262.767 110.27 262.871 109.465 262.871 108.561ZM255.479 108.199C255.479 108.03 255.479 107.864 255.479 107.701C255.479 107.538 255.479 107.376 255.479 107.213V104.83C255.479 104.166 255.544 103.583 255.674 103.082C255.811 102.574 256.016 102.161 256.289 101.842C256.517 101.588 256.794 101.396 257.119 101.266C257.451 101.129 257.832 101.061 258.262 101.061C258.685 101.061 259.056 101.122 259.375 101.246C259.701 101.37 259.974 101.555 260.195 101.803C260.423 102.044 260.602 102.346 260.732 102.711C260.869 103.069 260.964 103.482 261.016 103.951L255.479 108.199ZM261.055 108.941C261.055 109.638 260.983 110.243 260.84 110.758C260.703 111.272 260.485 111.689 260.186 112.008C259.964 112.242 259.694 112.421 259.375 112.545C259.056 112.669 258.691 112.73 258.281 112.73C257.891 112.73 257.539 112.675 257.227 112.564C256.914 112.447 256.647 112.278 256.426 112.057C256.185 111.822 255.99 111.526 255.84 111.168C255.69 110.803 255.586 110.383 255.527 109.908L261.055 105.68C261.055 105.862 261.055 106.093 261.055 106.373C261.055 106.646 261.055 106.832 261.055 106.93V108.941ZM274.883 108.561V105.23C274.883 104.326 274.779 103.525 274.57 102.828C274.362 102.125 274.062 101.533 273.672 101.051C273.275 100.569 272.79 100.204 272.217 99.957C271.65 99.7031 271.003 99.5762 270.273 99.5762C269.551 99.5762 268.903 99.7031 268.33 99.957C267.764 100.204 267.285 100.569 266.895 101.051C266.497 101.533 266.195 102.125 265.986 102.828C265.778 103.525 265.674 104.326 265.674 105.23V108.561C265.674 109.465 265.778 110.27 265.986 110.973C266.195 111.669 266.497 112.255 266.895 112.73C267.292 113.219 267.777 113.587 268.35 113.834C268.923 114.075 269.57 114.195 270.293 114.195C271.022 114.195 271.67 114.072 272.236 113.824C272.803 113.577 273.281 113.212 273.672 112.73C274.062 112.255 274.362 111.669 274.57 110.973C274.779 110.27 274.883 109.465 274.883 108.561ZM267.49 108.199C267.49 108.03 267.49 107.864 267.49 107.701C267.49 107.538 267.49 107.376 267.49 107.213V104.83C267.49 104.166 267.555 103.583 267.686 103.082C267.822 102.574 268.027 102.161 268.301 101.842C268.529 101.588 268.805 101.396 269.131 101.266C269.463 101.129 269.844 101.061 270.273 101.061C270.697 101.061 271.068 101.122 271.387 101.246C271.712 101.37 271.986 101.555 272.207 101.803C272.435 102.044 272.614 102.346 272.744 102.711C272.881 103.069 272.975 103.482 273.027 103.951L267.49 108.199ZM273.066 108.941C273.066 109.638 272.995 110.243 272.852 110.758C272.715 111.272 272.497 111.689 272.197 112.008C271.976 112.242 271.706 112.421 271.387 112.545C271.068 112.669 270.703 112.73 270.293 112.73C269.902 112.73 269.551 112.675 269.238 112.564C268.926 112.447 268.659 112.278 268.438 112.057C268.197 111.822 268.001 111.526 267.852 111.168C267.702 110.803 267.598 110.383 267.539 109.908L273.066 105.68C273.066 105.862 273.066 106.093 273.066 106.373C273.066 106.646 273.066 106.832 273.066 106.93V108.941Z" fill="white"/>
<g filter="url(#filter0_d_18072_66758)">
<path d="M52.8438 27.1377C52.8438 19.958 58.664 14.1377 65.8438 14.1377H212.785C219.965 14.1377 225.785 19.958 225.785 27.1377V102.981C225.785 110.161 219.965 115.981 212.785 115.981H65.8437C58.664 115.981 52.8438 110.161 52.8438 102.981V27.1377Z" fill="#00132F"/>
</g>
<rect x="76.6992" y="69.8623" width="125.146" height="30.035" rx="15.0175" fill="#2FF6D3"/>
<rect x="80.9297" y="74.9385" width="116.757" height="20.3055" rx="10.1528" fill="#00132F"/>
<mask id="mask0_18072_66758" style="mask-type:alpha" maskUnits="userSpaceOnUse" x="86" y="74" width="106" height="53">
<rect x="86.0078" y="74.9375" width="105.758" height="51.6099" fill="#D9D9D9"/>
</mask>
<g mask="url(#mask0_18072_66758)">
<g filter="url(#filter1_d_18072_66758)">
<path d="M106.193 99.9485C106.362 86.3681 106.969 84.7448 137.505 73.2324C174.545 87.2482 172.625 88.1658 172.455 101.746C172.285 115.326 157.314 125.933 139.016 125.437C120.718 124.94 106.023 113.529 106.193 99.9485Z" fill="url(#paint0_radial_18072_66758)"/>
<path d="M106.377 93.86C106.547 80.2797 121.518 69.6731 139.816 70.1696C158.114 70.666 172.809 82.0774 172.64 95.6577C172.47 109.238 157.499 119.845 139.201 119.348C120.903 118.852 106.207 107.44 106.377 93.86Z" fill="url(#paint1_radial_18072_66758)"/>
</g>
<path d="M138.185 106.605C138.771 107.191 139.721 107.191 140.307 106.605L149.853 97.0594C150.438 96.4736 150.438 95.5239 149.853 94.9381C149.267 94.3523 148.317 94.3523 147.731 94.9381L139.246 103.423L130.761 94.9381C130.175 94.3523 129.225 94.3523 128.639 94.9381C128.054 95.5239 128.054 96.4736 128.639 97.0594L138.185 106.605ZM137.746 80.5273L137.746 105.545L140.746 105.545L140.746 80.5273L137.746 80.5273Z" fill="url(#paint2_linear_18072_66758)"/>
</g>
<path opacity="0.7" d="M184.472 48.2452H150.845H113.374V30.9511H95.1193L83.1095 30.4707V43.4413H52.8448H37.5V62.4168V81.3923H52.8448M184.472 48.2452V23H224.825M184.472 48.2452V54.0099H224.825H240.5V84.5H198.884" stroke="#2FF6D3" stroke-linecap="round"/>
<circle cx="223.78" cy="21.0537" r="20.5537" fill="#192A43" stroke="#2FF6D3"/>
<g clip-path="url(#clip0_18072_66758)">
<path fill-rule="evenodd" clip-rule="evenodd" d="M215.45 19.1557C216.249 18.4401 217.489 18.494 218.221 19.2761L223.161 24.561C223.892 25.3431 223.837 26.5572 223.038 27.2729C222.239 27.9885 220.999 27.9346 220.268 27.1525L215.327 21.8676C214.596 21.0855 214.651 19.8713 215.45 19.1557Z" fill="#2FF6D3"/>
<path fill-rule="evenodd" clip-rule="evenodd" d="M232.919 14.8913C233.685 15.6409 233.685 16.8562 232.919 17.6058L223.102 27.2147C222.336 27.9643 221.094 27.9643 220.328 27.2147C219.562 26.4651 219.562 25.2497 220.328 24.5001L230.146 14.8913C230.912 14.1417 232.153 14.1417 232.919 14.8913Z" fill="#2FF6D3"/>
</g>
<g filter="url(#filter2_d_18072_66758)">
<circle cx="226.264" cy="54.0094" r="8.16667" fill="#21B2A2"/>
</g>
<g filter="url(#filter3_d_18072_66758)">
<circle cx="53.5" cy="42.5" r="8.5" fill="#21B2A2"/>
</g>
<g filter="url(#filter4_d_18072_66758)">
<circle cx="113.5" cy="31.5" r="4.5" fill="#21B2A2"/>
</g>
<g filter="url(#filter5_d_18072_66758)">
<circle cx="150.5" cy="48.5" r="4.5" fill="#21B2A2"/>
</g>
<path fill-rule="evenodd" clip-rule="evenodd" d="M148.356 48.4962C148.553 48.3058 148.858 48.3202 149.039 48.5282L150.255 49.9339C150.435 50.142 150.422 50.4649 150.225 50.6552C150.028 50.8456 149.723 50.8313 149.543 50.6232L148.326 49.2175C148.146 49.0095 148.159 48.6865 148.356 48.4962Z" fill="#2FF6D3"/>
<path fill-rule="evenodd" clip-rule="evenodd" d="M152.66 47.3615C152.849 47.5608 152.849 47.8841 152.66 48.0835L150.242 50.6393C150.054 50.8387 149.748 50.8387 149.559 50.6393C149.371 50.4399 149.371 50.1167 149.559 49.9173L151.977 47.3615C152.166 47.1621 152.472 47.1621 152.66 47.3615Z" fill="#2FF6D3"/>
<path fill-rule="evenodd" clip-rule="evenodd" d="M111.356 31.4962C111.553 31.3058 111.858 31.3202 112.039 31.5282L113.255 32.9339C113.435 33.142 113.422 33.4649 113.225 33.6552C113.028 33.8456 112.723 33.8313 112.543 33.6232L111.326 32.2175C111.146 32.0095 111.159 31.6865 111.356 31.4962Z" fill="#2FF6D3"/>
<path fill-rule="evenodd" clip-rule="evenodd" d="M115.66 30.3615C115.849 30.5608 115.849 30.8841 115.66 31.0835L113.242 33.6393C113.054 33.8387 112.748 33.8387 112.559 33.6393C112.371 33.4399 112.371 33.1167 112.559 32.9173L114.977 30.3615C115.166 30.1621 115.472 30.1621 115.66 30.3615Z" fill="#2FF6D3"/>
<defs>
<filter id="filter0_d_18072_66758" x="45.8438" y="7.1377" width="186.941" height="115.843" filterUnits="userSpaceOnUse" color-interpolation-filters="sRGB">
<feFlood flood-opacity="0" result="BackgroundImageFix"/>
<feColorMatrix in="SourceAlpha" type="matrix" values="0 0 0 0 0 0 0 0 0 0 0 0 0 0 0 0 0 0 127 0" result="hardAlpha"/>
<feOffset/>
<feGaussianBlur stdDeviation="3.5"/>
<feComposite in2="hardAlpha" operator="out"/>
<feColorMatrix type="matrix" values="0 0 0 0 0.184314 0 0 0 0 0.964706 0 0 0 0 0.827451 0 0 0 0.72 0"/>
<feBlend mode="normal" in2="BackgroundImageFix" result="effect1_dropShadow_18072_66758"/>
<feBlend mode="normal" in="SourceGraphic" in2="effect1_dropShadow_18072_66758" result="shape"/>
</filter>
<filter id="filter1_d_18072_66758" x="63.1914" y="58.1523" width="114.449" height="103.301" filterUnits="userSpaceOnUse" color-interpolation-filters="sRGB">
<feFlood flood-opacity="0" result="BackgroundImageFix"/>
<feColorMatrix in="SourceAlpha" type="matrix" values="0 0 0 0 0 0 0 0 0 0 0 0 0 0 0 0 0 0 127 0" result="hardAlpha"/>
<feOffset dx="-19" dy="12"/>
<feGaussianBlur stdDeviation="12"/>
<feComposite in2="hardAlpha" operator="out"/>
<feColorMatrix type="matrix" values="0 0 0 0 0 0 0 0 0 0 0 0 0 0 0 0 0 0 0.33 0"/>
<feBlend mode="normal" in2="BackgroundImageFix" result="effect1_dropShadow_18072_66758"/>
<feBlend mode="normal" in="SourceGraphic" in2="effect1_dropShadow_18072_66758" result="shape"/>
</filter>
<filter id="filter2_d_18072_66758" x="211.098" y="38.8428" width="30.332" height="30.333" filterUnits="userSpaceOnUse" color-interpolation-filters="sRGB">
<feFlood flood-opacity="0" result="BackgroundImageFix"/>
<feColorMatrix in="SourceAlpha" type="matrix" values="0 0 0 0 0 0 0 0 0 0 0 0 0 0 0 0 0 0 127 0" result="hardAlpha"/>
<feOffset/>
<feGaussianBlur stdDeviation="3.5"/>
<feComposite in2="hardAlpha" operator="out"/>
<feColorMatrix type="matrix" values="0 0 0 0 0.184314 0 0 0 0 0.964706 0 0 0 0 0.827451 0 0 0 0.72 0"/>
<feBlend mode="normal" in2="BackgroundImageFix" result="effect1_dropShadow_18072_66758"/>
<feBlend mode="normal" in="SourceGraphic" in2="effect1_dropShadow_18072_66758" result="shape"/>
</filter>
<filter id="filter3_d_18072_66758" x="38" y="27" width="31" height="31" filterUnits="userSpaceOnUse" color-interpolation-filters="sRGB">
<feFlood flood-opacity="0" result="BackgroundImageFix"/>
<feColorMatrix in="SourceAlpha" type="matrix" values="0 0 0 0 0 0 0 0 0 0 0 0 0 0 0 0 0 0 127 0" result="hardAlpha"/>
<feOffset/>
<feGaussianBlur stdDeviation="3.5"/>
<feComposite in2="hardAlpha" operator="out"/>
<feColorMatrix type="matrix" values="0 0 0 0 0.184314 0 0 0 0 0.964706 0 0 0 0 0.827451 0 0 0 0.72 0"/>
<feBlend mode="normal" in2="BackgroundImageFix" result="effect1_dropShadow_18072_66758"/>
<feBlend mode="normal" in="SourceGraphic" in2="effect1_dropShadow_18072_66758" result="shape"/>
</filter>
<filter id="filter4_d_18072_66758" x="102" y="20" width="23" height="23" filterUnits="userSpaceOnUse" color-interpolation-filters="sRGB">
<feFlood flood-opacity="0" result="BackgroundImageFix"/>
<feColorMatrix in="SourceAlpha" type="matrix" values="0 0 0 0 0 0 0 0 0 0 0 0 0 0 0 0 0 0 127 0" result="hardAlpha"/>
<feOffset/>
<feGaussianBlur stdDeviation="3.5"/>
<feComposite in2="hardAlpha" operator="out"/>
<feColorMatrix type="matrix" values="0 0 0 0 0.184314 0 0 0 0 0.964706 0 0 0 0 0.827451 0 0 0 0.72 0"/>
<feBlend mode="normal" in2="BackgroundImageFix" result="effect1_dropShadow_18072_66758"/>
<feBlend mode="normal" in="SourceGraphic" in2="effect1_dropShadow_18072_66758" result="shape"/>
</filter>
<filter id="filter5_d_18072_66758" x="139" y="37" width="23" height="23" filterUnits="userSpaceOnUse" color-interpolation-filters="sRGB">
<feFlood flood-opacity="0" result="BackgroundImageFix"/>
<feColorMatrix in="SourceAlpha" type="matrix" values="0 0 0 0 0 0 0 0 0 0 0 0 0 0 0 0 0 0 127 0" result="hardAlpha"/>
<feOffset/>
<feGaussianBlur stdDeviation="3.5"/>
<feComposite in2="hardAlpha" operator="out"/>
<feColorMatrix type="matrix" values="0 0 0 0 0.184314 0 0 0 0 0.964706 0 0 0 0 0.827451 0 0 0 0.72 0"/>
<feBlend mode="normal" in2="BackgroundImageFix" result="effect1_dropShadow_18072_66758"/>
<feBlend mode="normal" in="SourceGraphic" in2="effect1_dropShadow_18072_66758" result="shape"/>
</filter>
<radialGradient id="paint0_radial_18072_66758" cx="0" cy="0" r="1" gradientUnits="userSpaceOnUse" gradientTransform="translate(116.087 118.328) rotate(-32.6806) scale(63.0417 84.9435)">
<stop stop-color="white"/>
<stop offset="0.411458" stop-color="white" stop-opacity="0.916667"/>
<stop offset="1" stop-color="#67707C"/>
</radialGradient>
<radialGradient id="paint1_radial_18072_66758" cx="0" cy="0" r="1" gradientUnits="userSpaceOnUse" gradientTransform="translate(160.134 111.32) rotate(-149.4) scale(54.0861 72.8765)">
<stop stop-color="white"/>
<stop offset="0.411458" stop-color="#F0F0F0"/>
<stop offset="1" stop-color="#62748D"/>
</radialGradient>
<linearGradient id="paint2_linear_18072_66758" x1="139.243" y1="79.992" x2="127.244" y2="97.17" gradientUnits="userSpaceOnUse">
<stop stop-color="white" stop-opacity="0"/>
<stop offset="0.620537" stop-color="#001B43"/>
</linearGradient>
<clipPath id="clip0_18072_66758">
<rect width="20.3018" height="15.0384" fill="white" transform="translate(214.004 13.5332)"/>
</clipPath>
</defs>
</svg>
