<svg width="21" height="19" viewBox="0 0 21 19" fill="none" xmlns="http://www.w3.org/2000/svg">
<path d="M10.0312 13.1055C9.47024 13.1055 9 13.5836 9 14.154C9 14.7244 9.47024 15.2025 10.0312 15.2025C10.5716 15.2025 11.0625 14.7244 11.0377 14.1792C11.0625 13.5794 10.5964 13.1055 10.0312 13.1055Z" fill="#F3BA2F"/>
<path d="M19.5781 16.8227C20.2257 15.6861 20.2298 14.3314 19.5864 13.199L13.1267 1.82445C12.4873 0.679452 11.3323 0 10.0371 0C8.74184 0 7.58685 0.683646 6.94748 1.82026L0.479546 13.2074C-0.163947 14.3524 -0.159822 15.7155 0.491921 16.8521C1.13541 17.9761 2.28628 18.6514 3.57326 18.6514H16.4761C17.7672 18.6514 18.9264 17.9677 19.5781 16.8227ZM18.1756 16.0007C17.8167 16.6298 17.1815 17.0031 16.472 17.0031H3.56914C2.8679 17.0031 2.23678 16.6382 1.88616 16.0216C1.53141 15.3967 1.52729 14.6502 1.88203 14.021L8.34997 2.63812C8.70059 2.01319 9.32758 1.64411 10.0371 1.64411C10.7424 1.64411 11.3736 2.01738 11.7242 2.64231L18.188 14.0252C18.5345 14.6376 18.5304 15.3757 18.1756 16.0007Z" fill="#F3BA2F"/>
<path d="M9.77268 5.7464C9.28181 5.889 8.97656 6.34197 8.97656 6.8914C9.00131 7.22274 9.02194 7.55827 9.04669 7.88961C9.11681 9.15205 9.18693 10.3893 9.25706 11.6518C9.28181 12.0796 9.60768 12.3899 10.0284 12.3899C10.4492 12.3899 10.7792 12.0586 10.7998 11.6266C10.7998 11.3666 10.7998 11.1275 10.8245 10.8633C10.8699 10.0538 10.9194 9.24432 10.9648 8.43485C10.9895 7.91058 11.0349 7.38631 11.0597 6.86204C11.0597 6.67331 11.0349 6.50554 10.9648 6.33777C10.7544 5.86803 10.2635 5.62896 9.77268 5.7464Z" fill="#F3BA2F"/>
</svg>
